<svg width="26" height="25" viewBox="0 0 26 25" fill="none" xmlns="http://www.w3.org/2000/svg">
<g clip-path="url(#clip0_24548_63012)">
<path d="M13.2565 6.71122L13.2721 6.72952C16.5837 5.27185 20.5866 5.98202 23.166 8.7979C23.5804 9.24892 23.9243 9.72823 24.2239 10.2295C22.3216 10.3805 19.2385 11.1247 16.2191 12.4445C13.4736 13.6419 10.7753 15.3029 9.08618 17.4295C11.0041 16.4624 14.1994 15.3869 17.4109 14.7383C20.423 14.1331 23.4386 13.9027 25.4351 14.4745C25.4848 16.8879 24.5467 19.3057 22.6328 21.0563C22.191 21.4629 21.7194 21.816 21.2182 22.1156C13.7816 26.6502 3.78824 23.2967 -0.0293843 20.8393C3.6967 12.9538 9.06325 8.53956 13.2565 6.71122Z" fill="#6DC400"/>
<path d="M12.762 1.33095L12.7697 1.34009C14.4255 0.611259 16.427 0.966328 17.7167 2.37425C17.9239 2.59976 18.0958 2.83941 18.2456 3.09003C17.2945 3.16556 15.7529 3.53766 14.2432 4.19755C12.8705 4.79627 11.5213 5.62678 10.6768 6.69007C11.6357 6.20653 13.2334 5.66875 14.8391 5.34447C16.3452 5.04184 17.8529 4.92665 18.8512 5.21252C18.8761 6.41921 18.407 7.6281 17.45 8.50343C17.2291 8.70673 16.9933 8.88327 16.7427 9.03307C13.0244 11.3003 8.0278 9.62363 6.119 8.39499C7.98205 4.45223 10.6653 2.24512 12.762 1.33095Z" fill="#A3DC06"/>
</g>
<defs>
<clipPath id="clip0_24548_63012">
<rect width="26" height="25" fill="white" transform="matrix(-1 8.74228e-08 8.74228e-08 1 25.9999 0)"/>
</clipPath>
</defs>
</svg>
