<svg width="68" height="32" viewBox="0 0 68 32" fill="none" xmlns="http://www.w3.org/2000/svg">
<path d="M20.1539 10.9671V10.8989H22.9231V17.7004C22.9231 19.5785 21.3733 21.1011 19.4616 21.1011C17.5498 21.1011 16 19.5785 16 17.7004H18.7692C18.7692 18.0759 19.0791 18.3805 19.4616 18.3805C19.8439 18.3805 20.1539 18.0759 20.1539 17.7004V10.9671ZM30.1533 14.5502C30.4596 14.876 30.696 15.2721 30.8558 15.7276C31.0128 16.1765 31.0924 16.6846 31.0924 17.2378C31.0924 17.3705 31.0873 17.4911 31.0773 17.5964C31.0629 17.743 31.0493 17.8075 31.0219 17.8621L30.9455 18.0132H26.1559C26.1795 18.1209 26.2144 18.2228 26.2605 18.3172C26.3466 18.4946 26.4617 18.6506 26.6023 18.7812C26.7426 18.9114 26.9068 19.0142 27.0906 19.0871C27.2731 19.1598 27.4734 19.1966 27.6861 19.1966C28.1051 19.1966 28.4241 19.1066 28.634 18.9291L28.7463 18.8343L30.7764 19.3898L30.5599 19.7031C30.3682 19.9806 30.1281 20.2266 29.8461 20.4345C29.5649 20.6417 29.2403 20.8063 28.8814 20.9238C28.5224 21.0415 28.1203 21.101 27.6861 21.101C27.1927 21.101 26.7164 21.0147 26.2704 20.8444C25.8214 20.6731 25.4217 20.4195 25.0824 20.0908C24.7439 19.7632 24.4696 19.3584 24.2672 18.8876C24.0643 18.4165 23.9616 17.8751 23.9616 17.2786C23.9616 16.7193 24.0595 16.2036 24.2526 15.746C24.4455 15.2896 24.7097 14.892 25.038 14.5643C25.3664 14.2369 25.75 13.9791 26.1782 13.7981C26.608 13.6163 27.0595 13.5242 27.5199 13.5242C28.0703 13.5242 28.5735 13.6132 29.0153 13.789C29.4623 13.9665 29.845 14.2226 30.1533 14.5502ZM26.2202 16.3128H28.8769C28.8616 16.2512 28.8422 16.1907 28.8193 16.1316C28.7644 15.9914 28.6807 15.8654 28.5703 15.757C28.4587 15.6472 28.3169 15.5575 28.149 15.4899C27.9802 15.4221 27.7732 15.3878 27.5338 15.3878C27.3247 15.3878 27.1363 15.4235 26.9741 15.4938C26.8095 15.5654 26.6688 15.6598 26.5558 15.7743C26.4397 15.8922 26.3455 16.0272 26.276 16.1752C26.2544 16.2212 26.2357 16.2671 26.2202 16.3128ZM43.3773 14.6051C43.7153 14.9422 43.9823 15.3451 44.1707 15.8027C44.3586 16.2601 44.4539 16.7658 44.4539 17.3058C44.4539 17.8457 44.3586 18.3534 44.171 18.8147C43.9828 19.2772 43.7156 19.6827 43.3773 20.02C43.0392 20.357 42.6365 20.6241 42.1805 20.8142C41.7234 21.0045 41.2165 21.101 40.6738 21.101C40.1408 21.101 39.6366 21.0046 39.1753 20.8146C38.7134 20.6243 38.3099 20.3566 37.9759 20.0187C37.6428 19.6817 37.3784 19.2766 37.1905 18.8147C37.0029 18.3539 36.9077 17.8463 36.9077 17.3058C36.9077 16.7651 37.0031 16.2595 37.191 15.8027C37.379 15.3457 37.643 14.9432 37.976 14.6065C38.3099 14.2687 38.7134 14.0009 39.1753 13.8106C39.6366 13.6206 40.1408 13.5242 40.6738 13.5242C41.2165 13.5242 41.7234 13.6207 42.1803 13.811C42.6367 14.001 43.0393 14.2683 43.3773 14.6051ZM42.1457 18.1207C42.235 17.8897 42.2801 17.6156 42.2801 17.3058C42.2801 16.9965 42.235 16.7251 42.1463 16.4992C42.0586 16.2764 41.9391 16.0877 41.7908 15.9381C41.6443 15.7903 41.4747 15.6791 41.2868 15.6074C41.0934 15.5339 40.8874 15.4967 40.6738 15.4967C40.4603 15.4967 40.254 15.5339 40.0609 15.6074C39.8741 15.6787 39.7078 15.789 39.5663 15.9355C39.4202 16.0866 39.2993 16.2775 39.2068 16.5029C39.1145 16.7277 39.0678 16.9977 39.0678 17.3058C39.0678 17.6144 39.1146 17.8874 39.2074 18.1168C39.2999 18.3463 39.4205 18.5389 39.5663 18.6895C39.7092 18.8377 39.877 18.951 40.0653 19.0262C40.2569 19.1032 40.4617 19.1422 40.6738 19.1422C40.8858 19.1422 41.0906 19.1032 41.2825 19.0263C41.4718 18.9504 41.6429 18.8363 41.7908 18.6871C41.9388 18.5379 42.0581 18.3473 42.1457 18.1207ZM51.8351 15.3335C51.9446 15.6763 52 16.0469 52 16.4352V20.897H49.8401V16.7073C49.8401 16.3589 49.7526 16.062 49.5802 15.8247C49.4263 15.6132 49.1489 15.5102 48.7324 15.5102C48.359 15.5102 48.089 15.6242 47.9073 15.8586C47.7078 16.1162 47.6109 16.4249 47.6109 16.8025V20.897H45.451V13.7283H47.5692V14.1237C47.7167 13.9991 47.8791 13.8959 48.0541 13.8152C48.4543 13.6311 48.8687 13.5378 49.2863 13.5378C49.7395 13.5378 50.1414 13.6147 50.4809 13.7662C50.8231 13.9191 51.1107 14.1346 51.3359 14.4069C51.5553 14.6728 51.7232 14.9846 51.8351 15.3335ZM35.5719 19.0151C35.7111 18.9979 35.7512 18.9895 35.7602 18.9872L36.1047 18.9019V20.7409L35.9309 20.8093C35.8917 20.8248 35.8179 20.8501 35.594 20.9083C35.4119 20.9557 35.1669 20.9786 34.8447 20.9786C34.145 20.9786 33.5815 20.7787 33.1698 20.3843C32.756 19.9884 32.5462 19.4332 32.5462 18.7342V15.6735H31.7154V13.7283H32.5459L32.5462 11.7014H34.6923V13.7283H36.0908V15.6735H34.6923V18.4756C34.6923 18.6849 34.735 18.8361 34.8154 18.9125C34.8987 18.9915 35.0572 19.0334 35.2739 19.0334C35.3726 19.0334 35.4727 19.0272 35.5719 19.0151Z" fill="#FF6300"/>
</svg>
