<svg width="102" height="32" viewBox="0 0 102 32" fill="none" xmlns="http://www.w3.org/2000/svg">
<path d="M24.5511 9.66895H17.5049V22.3311H24.5511V9.66895Z" fill="#FF5F00"/>
<path d="M17.953 16C17.9517 14.7806 18.2282 13.5768 18.761 12.4799C19.2937 11.3831 20.0693 10.4218 21.0284 9.66894C19.8405 8.73519 18.4135 8.15448 16.9113 7.99325C15.4091 7.83202 13.8916 8.09668 12.5325 8.75708C11.1734 9.41749 10.0278 10.4469 9.22588 11.7277C8.42461 13.0085 7.99951 14.489 7.99951 16C7.99951 17.511 8.42461 18.9915 9.22588 20.2723C10.0278 21.5532 11.1734 22.5826 12.5325 23.243C13.8916 23.9033 15.4091 24.1681 16.9113 24.0068C18.4135 23.8455 19.8405 23.2648 21.0284 22.3311C20.0693 21.5782 19.2937 20.6169 18.761 19.52C18.2282 18.4232 17.9517 17.2195 17.953 16Z" fill="#EB001B"/>
<path d="M34.0572 16C34.0572 17.511 33.6321 18.9916 32.8308 20.2724C32.0289 21.5532 30.8833 22.5826 29.5242 23.243C28.1651 23.9034 26.6476 24.1681 25.1454 24.0068C23.6431 23.8456 22.2162 23.2648 21.0283 22.3312C21.9868 21.5774 22.7617 20.616 23.2945 19.5194C23.8273 18.4227 24.1043 17.2192 24.1043 16C24.1043 14.7807 23.8273 13.5774 23.2945 12.4807C22.7617 11.384 21.9868 10.4225 21.0283 9.66894C22.2162 8.73519 23.6431 8.15449 25.1454 7.99325C26.6476 7.83202 28.1651 8.09669 29.5242 8.75709C30.8833 9.41749 32.0289 10.4469 32.8308 11.7277C33.6321 13.0085 34.0572 14.489 34.0572 16Z" fill="#F79E1B"/>
<path d="M33.2889 20.9901V20.7309H33.3935V20.678H33.1274V20.7309H33.232V20.9901H33.2889ZM33.8058 20.9901V20.6775H33.7238L33.6302 20.8925L33.5366 20.6775H33.4547V20.9901H33.5122V20.7543L33.6002 20.9576H33.6602L33.7483 20.7538V20.9901H33.8058Z" fill="white"/>
<path d="M39.7874 20.8841H38.9507V11.2805H39.7874V20.8841ZM45.8924 11.2805C46.6263 11.27 47.3573 11.3837 48.0533 11.6166C48.6583 11.8199 49.2142 12.147 49.6858 12.577C50.1378 12.999 50.4914 13.5154 50.7214 14.0895C51.2064 15.3738 51.2064 16.7908 50.7214 18.0751C50.4914 18.6492 50.1378 19.1657 49.6858 19.5877C49.2142 20.0177 48.6583 20.3449 48.0533 20.5481C47.3573 20.7811 46.6263 20.8947 45.8924 20.8841H42.387V11.2805H45.8924ZM43.2237 12.0762V20.0885H45.8924C46.5217 20.0996 47.1481 20.0033 47.7444 19.8037C48.2472 19.6336 48.7072 19.3589 49.0956 18.9977C49.465 18.6455 49.7488 18.2138 49.9262 17.7355C50.3005 16.6652 50.3005 15.4993 49.9262 14.4291C49.7482 13.9501 49.4644 13.5174 49.0956 13.1635C48.7084 12.8008 48.2478 12.5259 47.7444 12.3574C47.1475 12.1602 46.5211 12.0652 45.8924 12.0762H43.2237ZM60.8124 11.1708C61.2143 11.1697 61.6149 11.2157 62.0058 11.308C62.3807 11.3959 62.7434 11.5283 63.086 11.7024C63.4156 11.8693 63.7227 12.078 63.9985 12.3232C64.2689 12.5631 64.5032 12.8403 64.6946 13.1464L63.9955 13.6127C63.831 13.3614 63.6334 13.133 63.4089 12.9337C63.1814 12.732 62.9306 12.5592 62.6609 12.4192C62.3825 12.2752 62.0877 12.1658 61.7831 12.0934C61.4651 12.0174 61.1391 11.9794 60.8124 11.9802C60.2668 11.9754 59.7249 12.0755 59.2172 12.2751C58.7377 12.4642 58.301 12.749 57.9346 13.1121C57.5652 13.4825 57.2734 13.9234 57.0771 14.4086C56.6611 15.4856 56.6611 16.6791 57.0771 17.7562C57.2734 18.2413 57.5652 18.6822 57.9346 19.0526C58.301 19.4158 58.7377 19.7005 59.2172 19.8895C59.7249 20.0892 60.2668 20.1893 60.8124 20.1845C61.1378 20.1854 61.4626 20.1486 61.7795 20.0747C62.0835 20.0042 62.377 19.8959 62.6541 19.7523C62.9239 19.6123 63.1746 19.4395 63.4022 19.2378C63.6279 19.0371 63.8254 18.8062 63.9881 18.5519L64.6744 19.0526C64.4744 19.3527 64.2359 19.6249 63.9643 19.8621C63.689 20.1022 63.3851 20.3072 63.059 20.4726C62.7202 20.6444 62.3624 20.7745 61.9923 20.8601C60.9488 21.0977 59.8583 21.0177 58.8606 20.6303C58.2784 20.4003 57.7474 20.0563 57.3003 19.6185C56.8544 19.1768 56.5033 18.6494 56.2678 18.0682C55.7693 16.7924 55.7693 15.3757 56.2678 14.0999C56.5027 13.5173 56.8544 12.9887 57.3003 12.5461C57.7474 12.1083 58.2784 11.7643 58.8606 11.5343C59.4815 11.2883 60.1445 11.1648 60.8124 11.1708ZM67.2672 15.5472C67.3896 15.3436 67.5412 15.1588 67.7168 14.9984C67.8838 14.8458 68.0722 14.7176 68.2758 14.6177C68.4765 14.5196 68.6881 14.4459 68.9065 14.3983C69.123 14.3506 69.3438 14.3264 69.5652 14.3262C69.9414 14.3218 70.3151 14.3834 70.6699 14.508C70.9891 14.6203 71.2821 14.7965 71.5305 15.0258C71.7739 15.2549 71.9635 15.5347 72.0864 15.8456C72.2204 16.1898 72.2871 16.5566 72.2822 16.926V20.8841H71.4999V17.1662C71.5042 16.8678 71.4577 16.5709 71.3629 16.2881C71.2791 16.04 71.1402 15.8138 70.9579 15.6262C70.7738 15.4418 70.5512 15.3001 70.3065 15.2111C70.0246 15.1108 69.7273 15.062 69.4282 15.0671C69.1383 15.0648 68.8514 15.1172 68.5811 15.2214C68.3248 15.3198 68.0917 15.4692 67.8948 15.6605C67.6978 15.8538 67.5419 16.0847 67.4354 16.3395C67.321 16.6143 67.2636 16.9096 67.2672 17.2073V20.8841H66.4855V11.0061H67.2672V15.5472ZM76.9326 14.3262C77.3442 14.3225 77.7522 14.4055 78.1296 14.5698C78.4911 14.7274 78.8159 14.9586 79.0832 15.2488C79.359 15.5529 79.5743 15.9068 79.7181 16.2915C79.8771 16.716 79.9584 17.1657 79.9578 17.619C79.9578 17.6783 79.9566 17.7345 79.9548 17.7869C79.9523 17.8396 79.9487 17.891 79.9444 17.9414H74.5318C74.552 18.2879 74.637 18.6276 74.782 18.9428C74.9135 19.2243 75.0988 19.4772 75.3276 19.6871C75.5521 19.8908 75.8139 20.0481 76.0995 20.1502C76.3974 20.2567 76.7118 20.3101 77.0286 20.3079C77.4464 20.3151 77.8611 20.2308 78.2434 20.0609C78.6018 19.8948 78.929 19.6673 79.2104 19.3887L79.6288 19.9237C79.4385 20.117 79.2281 20.2894 79.0012 20.4383C78.7963 20.5715 78.5779 20.6818 78.3492 20.7675C78.1308 20.849 77.9045 20.9065 77.6733 20.939C77.4439 20.9711 77.2127 20.9871 76.9809 20.987C76.5344 20.9917 76.0916 20.909 75.6775 20.7435C75.2915 20.589 74.941 20.3566 74.6487 20.0609C74.3551 19.7605 74.1263 19.4033 73.9765 19.0114C73.8119 18.5801 73.73 18.1216 73.7361 17.66C73.7312 17.2016 73.8138 16.7464 73.9795 16.3189C74.1318 15.9258 74.36 15.5668 74.6517 15.2626C74.9398 14.9661 75.2854 14.7315 75.6671 14.5732C76.0683 14.4065 76.4989 14.3225 76.9326 14.3262ZM76.9191 15.019C76.6102 15.0152 76.3038 15.0723 76.0169 15.1871C75.7503 15.2956 75.5074 15.4539 75.3001 15.6536C75.0903 15.8578 74.9196 16.0983 74.7961 16.3635C74.6627 16.6492 74.5777 16.9554 74.5459 17.2691H79.1621C79.1394 16.9532 79.063 16.6435 78.9358 16.3533C78.8201 16.0884 78.6562 15.8476 78.4519 15.6433C78.2507 15.4431 78.0109 15.2849 77.7479 15.1777C77.4849 15.0706 77.2029 15.0166 76.9191 15.019ZM84.4578 14.3262C84.9153 14.3218 85.3685 14.4092 85.7918 14.5834C86.1924 14.7489 86.5502 15.0034 86.8377 15.3278L86.3307 15.856C86.0866 15.6099 85.7991 15.4109 85.4835 15.2695C85.1532 15.1265 84.7966 15.0552 84.437 15.0602C84.0993 15.0573 83.7641 15.1239 83.4528 15.2557C83.1549 15.3816 82.8858 15.5658 82.6607 15.7976C82.4326 16.0345 82.254 16.3142 82.1353 16.6207C81.8839 17.2908 81.8839 18.0292 82.1353 18.6993C82.2521 19.0029 82.4283 19.28 82.6552 19.5134C82.8815 19.7469 83.1525 19.932 83.4528 20.0576C83.7641 20.1893 84.0993 20.2559 84.437 20.253C84.8021 20.2571 85.1636 20.1822 85.497 20.0335C85.8138 19.8911 86.1031 19.6937 86.3508 19.4505L86.8377 19.9856C86.5478 20.3085 86.1894 20.5627 85.7881 20.7298C84.933 21.0716 83.9795 21.0728 83.1231 20.7332C82.7311 20.5739 82.3757 20.3362 82.0784 20.0349C81.7812 19.7336 81.5487 19.3748 81.3946 18.9806C81.0698 18.129 81.0698 17.1877 81.3946 16.3361C81.5481 15.941 81.7806 15.5814 82.0778 15.2794C82.3751 14.9774 82.7305 14.7394 83.1231 14.58C83.547 14.4072 84.0003 14.3209 84.4578 14.3262ZM89.1908 17.1524H90.2403L92.9567 14.4291H93.9445L90.8716 17.4749L93.9996 20.8841H93.005L90.2403 17.859H89.1908V20.8841H88.4084V11.0061H89.1908V17.1524Z" fill="black"/>
</svg>
