<svg width="43" height="32" viewBox="0 0 43 32" fill="none" xmlns="http://www.w3.org/2000/svg">
<path d="M25.2635 9.52588H18.0479V22.4695H25.2635V9.52588Z" fill="#FF5F00"/>
<path d="M18.5067 15.9994C18.5057 14.753 18.7887 13.5228 19.3344 12.4017C19.8801 11.2807 20.6741 10.2982 21.6563 9.52872C20.4398 8.5744 18.9788 7.98097 17.4403 7.81624C15.9019 7.65152 14.3481 7.92215 12.9564 8.5972C11.5648 9.27225 10.3915 10.3245 9.57062 11.6336C8.74976 12.9428 8.31445 14.4561 8.31445 16.0005C8.31445 17.5449 8.74976 19.0582 9.57062 20.3674C10.3915 21.6766 11.5648 22.7288 12.9564 23.4039C14.3481 24.0789 15.9019 24.3495 17.4403 24.1848C18.9788 24.0201 20.4398 23.4267 21.6563 22.4723C20.6738 21.7026 19.8796 20.7197 19.3339 19.5983C18.7882 18.4768 18.5053 17.2461 18.5067 15.9994Z" fill="#EB001B"/>
<path d="M34.9998 16.0011C34.9998 17.5457 34.5644 19.0591 33.7434 20.3683C32.9224 21.6775 31.7489 22.7297 30.3571 23.4047C28.9652 24.0796 27.4112 24.3501 25.8727 24.1851C24.3342 24.0202 22.8732 23.4264 21.6567 22.4718C22.6386 21.7016 23.4324 20.7189 23.9782 19.5978C24.524 18.4767 24.8076 17.2465 24.8076 16C24.8076 14.7535 24.524 13.5233 23.9782 12.4022C23.4324 11.2811 22.6386 10.2984 21.6567 9.52821C22.8733 8.57347 24.3345 7.97972 25.8733 7.81485C27.412 7.64997 28.9662 7.92062 30.3581 8.59586C31.75 9.27109 32.9234 10.3236 33.7443 11.6332C34.5651 12.9427 35.0002 14.4564 34.9998 16.0011Z" fill="#F79E1B"/>
</svg>
