<svg width="104" height="33" viewBox="0 0 104 33" fill="none" xmlns="http://www.w3.org/2000/svg">
<path d="M39.5989 9.68423C39.2999 9.68423 39.0296 9.61709 38.788 9.48276C38.5505 9.34436 38.36 9.15916 38.2167 8.92713C38.0774 8.69105 38.0078 8.4285 38.0078 8.13949C38.0078 7.85048 38.0774 7.592 38.2167 7.36405C38.3559 7.13203 38.5464 6.94886 38.788 6.81453C39.0296 6.67614 39.2979 6.60693 39.5927 6.60693C39.8958 6.60693 40.1661 6.67614 40.4036 6.81453C40.6453 6.94886 40.8357 7.13203 40.9749 7.36405C41.1142 7.592 41.1838 7.85048 41.1838 8.13949C41.1838 8.4285 41.1142 8.69105 40.9749 8.92713C40.8357 9.15916 40.6453 9.34436 40.4036 9.48276C40.1661 9.61709 39.8979 9.68423 39.5989 9.68423ZM39.5927 8.93934C39.7443 8.93934 39.8774 8.90678 39.992 8.84165C40.1108 8.77245 40.2009 8.67883 40.2623 8.56079C40.3279 8.43867 40.3606 8.30027 40.3606 8.14559C40.3606 7.99091 40.3279 7.85455 40.2623 7.7365C40.1968 7.61846 40.1067 7.52687 39.992 7.46175C39.8774 7.39254 39.7443 7.35795 39.5927 7.35795C39.4453 7.35795 39.3142 7.39254 39.1996 7.46175C39.0849 7.52687 38.9948 7.61846 38.9293 7.7365C38.8637 7.85455 38.831 7.99091 38.831 8.14559C38.831 8.30027 38.8637 8.43867 38.9293 8.56079C38.9948 8.67883 39.0849 8.77245 39.1996 8.84165C39.3142 8.90678 39.4453 8.93934 39.5927 8.93934Z" fill="black"/>
<path fill-rule="evenodd" clip-rule="evenodd" d="M44.6014 9.62301H43.8028V9.35509C43.7251 9.43152 43.635 9.4964 43.5325 9.54973C43.3605 9.63928 43.168 9.68404 42.9551 9.68404C42.6807 9.68404 42.435 9.6169 42.2179 9.48257C42.0008 9.34824 41.8288 9.16507 41.7019 8.93304C41.579 8.70103 41.5176 8.44051 41.5176 8.1515C41.5176 7.85843 41.579 7.59588 41.7019 7.36386C41.8288 7.13184 41.9988 6.94867 42.2118 6.81434C42.4288 6.68001 42.6766 6.61285 42.9551 6.61285C43.168 6.61285 43.3585 6.65559 43.5264 6.74107C43.6288 6.79198 43.7189 6.85516 43.7967 6.9306V6.30962C43.7967 5.86787 44.157 5.50977 44.6014 5.50977C44.6014 6.98126 44.6014 8.15151 44.6014 9.62301ZM43.4834 8.84757C43.3728 8.91269 43.2417 8.94526 43.0902 8.94526C42.9469 8.94526 42.8179 8.91269 42.7032 8.84757C42.5885 8.77836 42.4984 8.68474 42.4329 8.5667C42.3714 8.44458 42.3407 8.30415 42.3407 8.1454C42.3407 7.99072 42.3714 7.85436 42.4329 7.73631C42.4984 7.61827 42.5865 7.52465 42.697 7.45545C42.8117 7.38625 42.9448 7.35165 43.0963 7.35165C43.2438 7.35165 43.3728 7.38625 43.4834 7.45545C43.598 7.52058 43.6861 7.6142 43.7475 7.73631C43.813 7.85436 43.8458 7.99072 43.8458 8.1454C43.8458 8.30415 43.813 8.44458 43.7475 8.5667C43.6861 8.68474 43.598 8.77836 43.4834 8.84757Z" fill="black"/>
<path fill-rule="evenodd" clip-rule="evenodd" d="M45.8231 9.48276C46.0401 9.61708 46.2838 9.68427 46.5541 9.68427C46.7671 9.68427 46.9575 9.64151 47.1254 9.55603C47.2371 9.4965 47.3333 9.42348 47.4141 9.33697V9.62318H48.2128V6.67409H47.4141V6.9576C47.3333 6.8702 47.2371 6.79808 47.1254 6.74126C46.9575 6.65578 46.7671 6.61304 46.5541 6.61304C46.2838 6.61304 46.0401 6.6802 45.8231 6.81453C45.606 6.94885 45.4361 7.13203 45.3132 7.36405C45.1903 7.59607 45.1289 7.85862 45.1289 8.1517C45.1289 8.4407 45.1903 8.70121 45.3132 8.93324C45.4361 9.16525 45.606 9.34843 45.8231 9.48276ZM47.2483 8.72564C47.109 8.87218 46.9268 8.94545 46.7016 8.94545C46.5541 8.94545 46.4231 8.91289 46.3084 8.84775C46.1978 8.77856 46.1098 8.68493 46.0443 8.56689C45.9828 8.44477 45.9521 8.30434 45.9521 8.14559C45.9521 7.99091 45.9828 7.85455 46.0443 7.7365C46.1098 7.61439 46.1978 7.52076 46.3084 7.45564C46.4231 7.38644 46.5541 7.35184 46.7016 7.35184C46.8531 7.35184 46.9842 7.38644 47.0947 7.45564C47.2094 7.52076 47.2974 7.61439 47.3589 7.7365C47.4244 7.85455 47.4571 7.99091 47.4571 8.14559C47.4571 8.38168 47.3875 8.57503 47.2483 8.72564Z" fill="black"/>
<path d="M36.7514 8.82333C36.7514 9.26508 37.1117 9.62319 37.5562 9.62319V7.75482C37.5562 7.55536 37.5071 7.37016 37.4088 7.19919C37.3105 7.02416 37.1753 6.88373 37.0033 6.77789C36.8313 6.66799 36.6368 6.61304 36.4197 6.61304C36.1945 6.61304 35.9917 6.66189 35.8116 6.75958C35.7169 6.81206 35.6329 6.87571 35.5596 6.95051V6.6741H34.7549V8.82334C34.7549 9.26509 35.1152 9.62319 35.5596 9.62319V7.93187C35.5596 7.81382 35.5842 7.71004 35.6334 7.62049C35.6866 7.53094 35.7583 7.46174 35.8484 7.41289C35.9385 7.36405 36.0409 7.33963 36.1556 7.33963C36.3316 7.33963 36.475 7.39458 36.5856 7.50448C36.6961 7.61439 36.7514 7.75685 36.7514 7.93189V8.82333Z" fill="black"/>
<path fill-rule="evenodd" clip-rule="evenodd" d="M17.514 6.60117H15.8178C15.7935 6.60117 15.7685 6.60115 15.7428 6.60113H15.7423C15.4001 6.6008 14.95 6.60037 14.5561 6.65488C14.0676 6.72247 13.3456 6.90978 12.729 7.54445C12.1124 8.17912 11.9304 8.92229 11.8648 9.42503C11.8118 9.8305 11.8122 10.2938 11.8126 10.6461V10.6466C11.8126 10.673 11.8126 10.6987 11.8126 10.7238V12.4909H14.065V10.7238C14.065 9.87332 14.065 9.44803 14.3217 9.18381C14.5784 8.91959 14.9916 8.91959 15.8178 8.91959H17.514V6.60117ZM29.6216 12.4909V10.7238C29.6216 9.87332 29.6216 9.44803 29.3648 9.18381C29.1082 8.91959 28.695 8.91959 27.8687 8.91959H26.1492V6.60117H27.8687C27.8931 6.60117 27.9181 6.60115 27.9437 6.60113H27.9442C28.2864 6.6008 28.7366 6.60037 29.1305 6.65488C29.6189 6.72247 30.3409 6.90978 30.9575 7.54445C31.5741 8.17912 31.7561 8.92229 31.8218 9.42503C31.8748 9.8305 31.8743 10.2938 31.874 10.6461L31.8739 10.6871V10.6933V10.7238V12.4909H29.6216ZM26.1492 24.7065H27.8687C28.695 24.7065 29.1082 24.7065 29.3648 24.4423C29.6216 24.178 29.6216 23.7528 29.6216 22.9023V21.1261H31.8739V22.9023V22.9402L31.874 22.98C31.8743 23.3322 31.8748 23.7956 31.8218 24.201C31.7561 24.7038 31.5741 25.447 30.9575 26.0816C30.3409 26.7163 29.6189 26.9036 29.1305 26.9712C28.7375 27.0256 28.2883 27.0252 27.9464 27.025H27.9442C27.9184 27.0249 27.8932 27.0249 27.8687 27.0249H26.1492V24.7065ZM14.065 21.1261V22.9023C14.065 23.7528 14.065 24.178 14.3217 24.4423C14.5784 24.7065 14.9916 24.7065 15.8178 24.7065H17.514V27.0249H15.8178H15.7869C15.7723 27.0249 15.7574 27.0249 15.7423 27.025H15.7401C15.3982 27.0252 14.9491 27.0256 14.5561 26.9712C14.0676 26.9036 13.3456 26.7163 12.729 26.0816C12.1124 25.447 11.9304 24.7038 11.8648 24.201C11.8118 23.7956 11.8122 23.3322 11.8126 22.98C11.8126 22.9536 11.8126 22.9274 11.8126 22.9023V21.1261H14.065Z" fill="black"/>
<path d="M27.5503 13.4882C27.5503 14.8851 26.438 16.0175 25.0659 16.0175C23.6938 16.0175 22.5815 14.8851 22.5815 13.4882C22.5815 12.0914 23.6938 10.959 25.0659 10.959C26.438 10.959 27.5503 12.0914 27.5503 13.4882Z" fill="black"/>
<path d="M25.0659 17.7878C23.6938 17.7878 22.5815 18.9203 22.5815 20.3171V22.5934H27.5503V20.3171C27.5503 18.9203 26.438 17.7878 25.0659 17.7878Z" fill="black"/>
<path opacity="0.3" d="M16.1357 20.2646C16.1357 18.9376 17.1924 17.8618 18.4959 17.8618H20.856V22.6673H18.4959C17.1924 22.6673 16.1357 21.5916 16.1357 20.2646Z" fill="black"/>
<path opacity="0.3" d="M16.1357 11.0327H18.8686C19.9662 11.0327 20.856 11.9386 20.856 13.0561V15.8382H16.1357V11.0327Z" fill="black"/>
<path d="M89.31 21.9438C89.8918 21.9438 90.3281 22.1051 90.619 22.4277C90.9104 22.7503 91.0558 23.2153 91.0558 23.8225V27.0675H89.1675V24.0502C89.1675 23.8351 89.1104 23.6644 88.9966 23.5379C88.8891 23.405 88.734 23.3386 88.532 23.3386C88.2977 23.3386 88.1081 23.4145 87.9627 23.5663C87.8168 23.7181 87.7443 23.9047 87.7443 24.1261V27.0675H85.856V22.0577H87.4025L87.5259 22.8168C87.7222 22.5511 87.9785 22.3392 88.2944 22.1811C88.6174 22.0229 88.9558 21.9438 89.31 21.9438Z" fill="black"/>
<path d="M82.3073 21.9438C83.1867 21.9438 83.8765 22.1684 84.3761 22.6175C84.8821 23.0603 85.135 23.7087 85.135 24.5626C85.135 25.4166 84.8821 26.0681 84.3761 26.5172C83.8765 26.9599 83.1867 27.1814 82.3073 27.1814C81.4285 27.1814 80.7387 26.9599 80.239 26.5172C79.7393 26.0744 79.4897 25.4228 79.4897 24.5626C79.4897 23.7023 79.7393 23.0508 80.239 22.608C80.7387 22.1652 81.4285 21.9438 82.3073 21.9438ZM82.3073 23.2247C81.6877 23.2247 81.3776 23.5821 81.3776 24.2969V24.8378C81.3776 25.5462 81.6877 25.9004 82.3073 25.9004C82.9337 25.9004 83.2467 25.5462 83.2467 24.8378V24.2969C83.2467 23.5821 82.9337 23.2247 82.3073 23.2247Z" fill="black"/>
<path d="M76.8135 21.4694V20.1885H78.7018V21.4694H76.8135ZM76.8135 27.0675V22.0577H78.7018V27.0675H76.8135Z" fill="black"/>
<path d="M76.061 22.0577V23.3386H74.9983V25.2458C74.9983 25.4735 75.0362 25.6411 75.112 25.7486C75.1879 25.8498 75.3271 25.9004 75.5296 25.9004H76.061V27.0105C75.9093 27.0612 75.713 27.1023 75.4725 27.1339C75.2325 27.1655 75.0237 27.1814 74.8466 27.1814C74.2898 27.1814 73.8597 27.0801 73.5559 26.8777C73.2588 26.6753 73.11 26.3306 73.11 25.8435V23.3386H72.4082V22.0577H73.1858L73.5938 20.5396H74.9983V22.0577H76.061Z" fill="black"/>
<path d="M69.216 21.9438C69.9816 21.9438 70.6047 22.0735 71.0852 22.3328C71.5661 22.5859 71.8061 23.0002 71.8061 23.5758V25.5304C71.8061 25.6379 71.8316 25.7265 71.8824 25.796C71.9328 25.8656 72.0087 25.9004 72.11 25.9004H72.4517V26.9916C72.4325 27.0042 72.3821 27.0264 72.2996 27.058C72.2237 27.0833 72.1133 27.1086 71.9679 27.1339C71.822 27.1655 71.6544 27.1814 71.4648 27.1814C71.0981 27.1814 70.7943 27.1276 70.5538 27.02C70.32 26.9062 70.1588 26.7512 70.07 26.5551C69.8295 26.7449 69.5607 26.8967 69.2636 27.0105C68.9664 27.1244 68.6184 27.1814 68.2196 27.1814C67.0431 27.1814 66.4551 26.7133 66.4551 25.7771C66.4551 25.29 66.5847 24.92 66.8439 24.667C67.1098 24.4076 67.489 24.2305 67.9824 24.1356C68.4759 24.0407 69.121 23.9933 69.9183 23.9933V23.7466C69.9183 23.5505 69.8487 23.4018 69.7095 23.3007C69.5765 23.1994 69.4028 23.1488 69.1877 23.1488C68.9914 23.1488 68.8205 23.1836 68.6751 23.2532C68.5359 23.3228 68.4663 23.4335 68.4663 23.5853V23.6233H66.6068C66.6005 23.5916 66.5972 23.5473 66.5972 23.4904C66.5972 23.016 66.8218 22.6397 67.2711 22.3613C67.7266 22.083 68.3746 21.9438 69.216 21.9438ZM69.9183 24.8852C69.3807 24.8852 68.9818 24.9453 68.7226 25.0655C68.4696 25.1793 68.3429 25.3343 68.3429 25.5304C68.3429 25.8467 68.5584 26.0048 68.9885 26.0048C69.2352 26.0048 69.4503 25.9384 69.6336 25.8055C69.8232 25.6727 69.9183 25.5082 69.9183 25.3122V24.8852Z" fill="black"/>
<path d="M63.1911 21.9438C64.0134 21.9438 64.6777 22.121 65.1836 22.4752C65.6962 22.8231 65.9521 23.3576 65.9521 24.0787H64.1209C64.1209 23.5094 63.8113 23.2247 63.1911 23.2247C62.5714 23.2247 62.2614 23.5821 62.2614 24.2969V24.8378C62.2614 25.5462 62.5839 25.9004 63.229 25.9004C63.8742 25.9004 64.1967 25.6095 64.1967 25.0275H65.9521C65.9521 25.755 65.6962 26.2958 65.1836 26.65C64.6777 27.0042 64.0134 27.1814 63.1911 27.1814C62.3118 27.1814 61.6225 26.9599 61.1228 26.5172C60.6231 26.0744 60.373 25.4228 60.373 24.5626C60.373 23.7023 60.6231 23.0508 61.1228 22.608C61.6225 22.1652 62.3118 21.9438 63.1911 21.9438Z" fill="black"/>
<path d="M56.4452 20.0745C56.5717 20.0745 56.7267 20.0935 56.9101 20.1314C57.0935 20.163 57.2422 20.201 57.3561 20.2452V21.3554H57.0145C56.8121 21.3554 56.676 21.3934 56.6065 21.4692C56.5369 21.5452 56.5021 21.6748 56.5021 21.8583V22.0575H57.3561V23.3384H56.5021V27.0673H54.614V23.3384H53.9688V22.0575H54.614V21.8488C54.614 21.2036 54.7721 20.7481 55.0883 20.4825C55.4046 20.2105 55.8569 20.0745 56.4452 20.0745ZM57.7546 21.4692V20.1883H59.6426V21.4692H57.7546ZM57.7546 27.0673V22.0575H59.6426V27.0673H57.7546Z" fill="black"/>
<path d="M51.5586 21.4694V20.1885H53.4468V21.4694H51.5586ZM51.5586 27.0675V22.0577H53.4468V27.0675H51.5586Z" fill="black"/>
<path d="M50.5116 21.9343C50.6571 21.9343 50.7867 21.9533 50.9006 21.9913C51.0144 22.0229 51.0713 22.0418 51.0713 22.0482V23.6327H50.4641C50.0719 23.6327 49.7873 23.7339 49.6102 23.9364C49.4394 24.1388 49.354 24.4392 49.354 24.8377V27.0674H47.4658V22.0577H49.0124L49.1357 22.8168C49.2496 22.5258 49.4299 22.3075 49.6766 22.162C49.9233 22.0102 50.2016 21.9343 50.5116 21.9343Z" fill="black"/>
<path d="M43.9176 21.9438C44.8348 21.9438 45.5338 22.1589 46.0145 22.589C46.5016 23.0192 46.7451 23.677 46.7451 24.5626V24.8852H42.9877C42.9877 25.2458 43.0668 25.5177 43.225 25.7012C43.3894 25.8846 43.6456 25.9763 43.9935 25.9763C44.3098 25.9763 44.5407 25.9099 44.6862 25.7771C44.8379 25.6443 44.9139 25.4671 44.9139 25.2458H46.7451C46.7451 25.853 46.5142 26.3274 46.0524 26.669C45.5907 27.0105 44.917 27.1814 44.0314 27.1814C43.1016 27.1814 42.3805 26.9663 41.8681 26.5362C41.3558 26.0997 41.0996 25.4418 41.0996 24.5626C41.0996 23.7023 41.3494 23.0508 41.8492 22.608C42.3489 22.1652 43.0384 21.9438 43.9176 21.9438ZM43.9935 23.1488C43.3989 23.1488 43.0668 23.4303 42.9972 23.9933H44.8379C44.8379 23.734 44.7621 23.5284 44.6102 23.3766C44.4647 23.2247 44.2592 23.1488 43.9935 23.1488Z" fill="black"/>
<path d="M36.5211 27.0675L34.2061 20.5396H36.4453L37.7546 24.9041H37.7926L39.1115 20.5396H41.2558L38.9501 27.0675H36.5211Z" fill="black"/>
<path d="M70.9952 18.1414C70.7355 18.8436 70.4163 19.3749 70.0366 19.7355C69.6637 20.1023 69.1386 20.2858 68.4618 20.2858C68.0504 20.2858 67.687 20.2289 67.3707 20.115V18.9859H68.1296C68.6038 18.9859 68.8856 18.755 68.9739 18.2933L66.9814 13.2834H69.0118L69.9704 16.6138H70.0366L70.9194 13.2834H72.7789L70.9952 18.1414Z" fill="black"/>
<path d="M66.8642 13.2835V14.5644H65.8015V16.4715C65.8015 16.6993 65.8399 16.8669 65.9157 16.9744C65.9916 17.0756 66.1308 17.1262 66.3329 17.1262H66.8642V18.2364C66.7125 18.2869 66.5167 18.3281 66.2762 18.3597C66.0357 18.3913 65.8269 18.4071 65.6498 18.4071C65.0935 18.4071 64.6629 18.3059 64.3596 18.1035C64.0625 17.9011 63.9137 17.5563 63.9137 17.0693V14.5644H63.2114V13.2835H63.9895L64.3975 11.7654H65.8015V13.2835H66.8642Z" fill="black"/>
<path d="M60.6206 12.6952V11.4143H62.5089V12.6952H60.6206ZM60.6206 18.2933V13.2835H62.5089V18.2933H60.6206Z" fill="black"/>
<path d="M59.8682 13.2835V14.5644H58.8055V16.4715C58.8055 16.6993 58.8434 16.8669 58.9193 16.9744C58.9956 17.0756 59.1348 17.1262 59.3369 17.1262H59.8682V18.2364C59.7165 18.2869 59.5202 18.3281 59.2802 18.3597C59.0397 18.3913 58.8309 18.4071 58.6538 18.4071C58.097 18.4071 57.667 18.3059 57.3634 18.1035C57.0661 17.9011 56.9175 17.5563 56.9175 17.0693V14.5644H56.2153V13.2835H56.9934L57.4014 11.7654H58.8055V13.2835H59.8682Z" fill="black"/>
<path d="M53.8433 13.1694C54.4253 13.1694 54.8618 13.3307 55.1527 13.6533C55.4437 13.9759 55.5892 14.4409 55.5892 15.0481V18.2931H53.701V15.2758C53.701 15.0608 53.6441 14.89 53.5302 14.7635C53.4227 14.6306 53.2677 14.5642 53.0653 14.5642C52.8313 14.5642 52.6415 14.6401 52.496 14.7919C52.3505 14.9438 52.2778 15.1303 52.2778 15.3518V18.2931H50.3896V13.2833H51.9362L52.0596 14.0424C52.2557 13.7767 52.5118 13.5648 52.8281 13.4066C53.1507 13.2485 53.4891 13.1694 53.8433 13.1694Z" fill="black"/>
<path d="M46.841 13.1694C47.7582 13.1694 48.4571 13.3845 48.9379 13.8146C49.425 14.2448 49.6685 14.9026 49.6685 15.7882V16.1108H45.9111C45.9111 16.4714 45.9902 16.7433 46.1483 16.9268C46.3128 17.1102 46.569 17.202 46.9169 17.202C47.2331 17.202 47.464 17.1355 47.6095 17.0027C47.7613 16.8698 47.8372 16.6927 47.8372 16.4714H49.6685C49.6685 17.0786 49.4376 17.553 48.9758 17.8946C48.5141 18.2362 47.8404 18.407 46.9548 18.407C46.025 18.407 45.3039 18.1919 44.7915 17.7617C44.2792 17.3253 44.0229 16.6674 44.0229 15.7882C44.0229 14.9279 44.2728 14.2764 44.7725 13.8336C45.2722 13.3908 45.9617 13.1694 46.841 13.1694ZM46.9169 14.3744C46.3223 14.3744 45.9902 14.6559 45.9206 15.2189H47.7613C47.7613 14.9595 47.6854 14.754 47.5336 14.6021C47.3881 14.4504 47.1825 14.3744 46.9169 14.3744Z" fill="black"/>
<path d="M41.7555 18.2933L41.5942 17.5816C41.2273 18.132 40.696 18.4071 40.0002 18.4071C39.3234 18.4071 38.8015 18.1857 38.4346 17.743C38.0677 17.3002 37.8843 16.6455 37.8843 15.7789C37.8843 14.9186 38.0677 14.2703 38.4346 13.8338C38.8015 13.391 39.3234 13.1696 40.0002 13.1696C40.5758 13.1696 41.0439 13.3625 41.4045 13.7484V11.4143H43.2926V18.2933H41.7555ZM40.5885 14.5644C40.0445 14.5644 39.7725 14.8902 39.7725 15.5417V16.0446C39.7725 16.6897 40.0445 17.0124 40.5885 17.0124C40.8668 17.0124 41.0755 16.9143 41.2147 16.7182C41.3538 16.5221 41.4234 16.266 41.4234 15.9497V15.6366C41.4234 15.3203 41.3538 15.0641 41.2147 14.868C41.0755 14.6656 40.8668 14.5644 40.5885 14.5644Z" fill="black"/>
<path d="M34.8418 18.2933V11.7654H36.9387V18.2933H34.8418Z" fill="black"/>
</svg>
