<svg width="136" height="32" viewBox="0 0 136 32" fill="none" xmlns="http://www.w3.org/2000/svg">
<path fill-rule="evenodd" clip-rule="evenodd" d="M8.81348 9.68775V9.63649L8.88574 9.29589H14.8431C15.6016 9.29589 16.2849 9.79741 16.4575 10.6662L17.9313 18.4465L21.5749 9.29589H25.2521L19.5802 22.7405H15.8797L13.0886 12.0108C12.9191 11.3502 12.772 11.1076 12.2569 10.8297C11.4176 10.377 10.0336 9.95236 8.81348 9.68775ZM31.208 13.4936C31.2272 10.8773 33.6629 9.0498 37.1228 9.0498C38.4721 9.0498 39.5554 9.34197 40.3984 9.64567L39.7831 12.4962C38.2164 11.78 36.8329 11.8303 36.3317 11.8954C35.32 12.0266 34.8583 12.5391 34.8469 13.0212C34.8131 14.6065 39.7672 14.8024 39.7518 18.35C39.74 21.146 37.3348 22.9502 33.6567 22.9502C32.0913 22.9341 30.5811 22.6093 29.7639 22.2364L30.3974 19.2901C31.2116 19.6668 32.2334 20.1666 33.9929 20.1394C35.0008 20.1239 36.0784 19.726 36.0886 18.8233C36.0936 18.2344 35.6363 17.812 34.2733 17.153C32.9462 16.5092 31.1847 15.4303 31.208 13.4936ZM46.3142 9.29589H49.3017L52.1281 22.7405H48.8902L48.4673 20.7317H43.9764L43.2463 22.7405H39.5705L44.8237 10.2819C45.0752 9.68379 45.6415 9.29589 46.3142 9.29589ZM46.8276 12.9284L44.9844 17.9765H47.8882L46.8276 12.9284ZM26.7553 9.29589H30.2551L27.3601 22.7405H23.8593L26.7553 9.29589Z" fill="#172B85"/>
<path d="M58.1779 13.1371C58.1779 12.3335 58.3731 11.6532 58.7641 11.0947C59.1545 10.5369 59.6873 10.1159 60.3626 9.83099C61.0379 9.54674 61.7995 9.4043 62.6472 9.4043C63.596 9.4043 64.3519 9.49621 64.9159 9.68002C65.4795 9.86447 65.9118 10.0518 66.2132 10.2407L66.3641 12.3506H66.3136C66.0344 12.1162 65.6917 11.9096 65.2843 11.7309C64.8768 11.5527 64.4443 11.4103 63.987 11.3047C63.529 11.198 63.0768 11.1453 62.6308 11.1453C61.9276 11.1453 61.3585 11.2593 60.9233 11.4886C60.488 11.7173 60.2707 12.1162 60.2707 12.6853C60.2707 13.1206 60.3734 13.4611 60.58 13.7062C60.7865 13.9525 61.0963 14.1528 61.5095 14.3089C61.922 14.4655 62.4356 14.6272 63.049 14.7947C63.6295 14.9506 64.1737 15.1101 64.6816 15.2719C65.1889 15.4336 65.6327 15.6458 66.0123 15.908C66.3919 16.1701 66.6904 16.5163 66.9077 16.9459C67.1257 17.3754 67.2341 17.9253 67.2341 18.5944C67.2341 19.8893 66.813 20.8801 65.9703 21.5661C65.1276 22.2522 63.9473 22.5955 62.4299 22.5955C61.6712 22.5955 60.9068 22.4917 60.1368 22.2857C59.3667 22.0797 58.7414 21.8028 58.2613 21.4572L58.1279 19.3309H58.1779C58.7357 19.7997 59.4058 20.1685 60.1867 20.4358C60.9681 20.7036 61.7546 20.8375 62.5474 20.8375C64.2322 20.8375 65.0749 20.2576 65.0749 19.0966C65.0749 18.6841 64.9801 18.3492 64.7905 18.0921C64.6004 17.8357 64.2935 17.6206 63.8696 17.4481C63.4457 17.275 62.8929 17.0991 62.2125 16.9203C61.6769 16.7756 61.1689 16.6196 60.6889 16.4521C60.2094 16.2842 59.7793 16.0668 59.4002 15.7985C59.0206 15.5312 58.7221 15.185 58.5042 14.7612C58.2869 14.3366 58.1779 13.7959 58.1779 13.1371Z" fill="#172B85"/>
<path d="M68.9082 22.3613V9.63867H77.1109V11.4801H71.1514V14.8781H75.8557V16.6526H71.1514V20.5198H77.1109V22.3613H68.9082Z" fill="#172B85"/>
<path d="M80.5093 16C80.5093 16.9595 80.6852 17.7971 81.0365 18.511C81.3878 19.2255 81.8928 19.7775 82.5516 20.1686C83.2099 20.5589 84.002 20.7541 84.9288 20.7541C85.8769 20.7541 86.6641 20.6117 87.2894 20.3275C87.9142 20.0426 88.4612 19.672 88.9299 19.2141H88.9799L88.7455 21.4408C88.2541 21.7756 87.6742 22.0514 87.0045 22.2693C86.3349 22.4872 85.5535 22.5956 84.6608 22.5956C83.6565 22.5956 82.7554 22.4254 81.9575 22.0855C81.1591 21.7444 80.4781 21.2762 79.9152 20.6787C79.3511 20.0817 78.9215 19.3814 78.6259 18.578C78.3302 17.7744 78.1821 16.9147 78.1821 16C78.1821 15.0739 78.3302 14.2119 78.6259 13.4134C78.9215 12.6156 79.3511 11.9182 79.9152 11.3212C80.4781 10.7242 81.1562 10.2555 81.949 9.91446C82.7412 9.57456 83.6338 9.4043 84.6274 9.4043C85.5201 9.4043 86.2901 9.49621 86.9375 9.68011C87.585 9.86456 88.1372 10.1295 88.5951 10.4757L88.8295 12.7524H88.7789C88.3102 12.295 87.7581 11.9295 87.122 11.656C86.4853 11.3825 85.743 11.2457 84.8953 11.2457C83.9686 11.2457 83.1793 11.4409 82.5267 11.8313C81.8735 12.2223 81.3736 12.7745 81.0286 13.4889C80.6824 14.2034 80.5093 15.0404 80.5093 16Z" fill="#172B85"/>
<path d="M96.061 20.687C97.2101 20.687 98.0471 20.439 98.572 19.9425C99.0964 19.4453 99.3591 18.6004 99.3591 17.4059V9.63843H101.234V17.5233C101.234 19.3086 100.784 20.6007 99.8858 21.3985C98.9874 22.1965 97.6789 22.5953 95.9605 22.5953C94.2525 22.5953 92.9252 22.1992 91.9764 21.4071C91.0276 20.6144 90.5532 19.3206 90.5532 17.5233V9.63843H92.7964V17.3559C92.7964 18.5499 93.0501 19.4039 93.5585 19.9175C94.0658 20.4305 94.9 20.687 96.061 20.687Z" fill="#172B85"/>
<path d="M108.198 11.4132H105.67V15.6987H108.198C109.012 15.6987 109.601 15.5228 109.963 15.1715C110.327 14.8196 110.508 14.2817 110.508 13.5559C110.508 12.8307 110.327 12.2921 109.963 11.9409C109.601 11.5891 109.012 11.4132 108.198 11.4132ZM103.427 22.3613V9.63867H108.801C109.637 9.63867 110.361 9.80607 110.969 10.1409C111.577 10.4757 112.043 10.9359 112.367 11.5215C112.69 12.1083 112.852 12.7694 112.852 13.506C112.852 14.3764 112.612 15.1357 112.132 15.7821C111.652 16.4295 111 16.8596 110.173 17.0714L113.438 22.3613H110.86L107.913 17.3727H105.67V22.3613H103.427Z" fill="#172B85"/>
<path d="M115.111 22.3613V9.63867H123.314V11.4801H117.355V14.8781H122.059V16.6526H117.355V20.5198H123.314V22.3613H115.111Z" fill="#172B85"/>
</svg>
