<svg width="60" height="32" viewBox="0 0 60 32" fill="none" xmlns="http://www.w3.org/2000/svg">
<path fill-rule="evenodd" clip-rule="evenodd" d="M8 9.68775V9.63649L8.07227 9.29589H14.0296C14.7881 9.29589 15.4714 9.79741 15.644 10.6662L17.1178 18.4465L20.7614 9.29589H24.4386L18.7667 22.7405H15.0663L12.2751 12.0108C12.1056 11.3502 11.9585 11.1076 11.4434 10.8297C10.6041 10.377 9.2201 9.95236 8 9.68775ZM30.3945 13.4936C30.4137 10.8774 32.8494 9.0498 36.3094 9.0498C37.6587 9.0498 38.742 9.34197 39.5849 9.64567L38.9697 12.4962C37.4029 11.78 36.0194 11.8303 35.5182 11.8954C34.5065 12.0266 34.0449 12.5391 34.0334 13.0212C33.9996 14.6065 38.9537 14.8024 38.9383 18.3501C38.9265 21.146 36.5213 22.9502 32.8432 22.9502C31.2778 22.9342 29.7677 22.6093 28.9504 22.2364L29.584 19.2901C30.3981 19.6668 31.4199 20.1666 33.1794 20.1394C34.1873 20.1239 35.2649 19.726 35.2751 18.8233C35.2801 18.2344 34.8228 17.812 33.4598 17.153C32.1327 16.5093 30.3713 15.4303 30.3945 13.4936ZM45.5008 9.29589H48.4883L51.3146 22.7405H48.0767L47.6538 20.7317H43.163L42.4329 22.7405H38.757L44.0102 10.2819C44.2617 9.68379 44.828 9.29589 45.5008 9.29589ZM46.0141 12.9284L44.1709 17.9765H47.0747L46.0141 12.9284ZM25.9418 9.29589H29.4416L26.5466 22.7405H23.0458L25.9418 9.29589Z" fill="#172B85"/>
</svg>
