<svg
                    xmlns="http://www.w3.org/2000/svg"
                    width="24"
                    height="24"
                    fill="#C7C7CC"
                    class="mr-3 size-11 fill-accent-secondary-dark lobby"
                    data-test-id="category-link-item__icon"
                  >
                    <path
                      fill-rule="evenodd"
                      d="M11.484 1.269c1.035-.024 2.112.239 2.966.837l6.179 4.329c.62.432 1.142 1.098 1.507 1.798.366.7.614 1.51.614 2.267v7.28c0 2.723-2.225 4.96-4.96 4.96H6.21c-2.737 0-4.96-2.238-4.96-4.97v-7.41c0-.71.224-1.48.554-2.152s.802-1.321 1.365-1.76l5.39-4.2c.825-.641 1.89-.955 2.925-.98M9.48 3.432l-5.389 4.2c-.336.261-.68.707-.94 1.237S2.75 9.94 2.75 10.36v7.41c0 1.908 1.557 3.47 3.46 3.47h11.58a3.473 3.473 0 0 0 3.46-3.46V10.5c0-.453-.157-1.023-.444-1.573s-.665-1.004-1.035-1.262h-.001l-6.18-4.33c-.546-.383-1.294-.585-2.071-.566-.777.018-1.513.255-2.039.663M12 14.24a.75.75 0 0 1 .75.75v3a.75.75 0 0 1-1.5 0v-3a.75.75 0 0 1 .75-.75"
                      clip-rule="evenodd"
                    ></path>
                  </svg>