<svg
                    xmlns="http://www.w3.org/2000/svg"
                    width="24"
                    height="24"
                    viewBox="0 0 24 24"
                    fill="none"
                  >
                    <path
                      d="M12.31 9.95955L12.09 9.24252L12.0832 9.24466L12.31 9.95955ZM11.69 9.95955L11.9168 9.24463L11.91 9.24255L11.69 9.95955ZM12 3.00674L11.4218 3.48444L12 4.18426L12.5782 3.48444L12 3.00674ZM12.0832 9.24466C12.0941 9.24122 12.0907 9.24332 12.0703 9.24592C12.0517 9.24831 12.0273 9.25 12 9.25C11.9727 9.25 11.9483 9.24831 11.9297 9.24592C11.9093 9.24332 11.9059 9.24122 11.9168 9.24466L11.4632 10.6744C11.645 10.7321 11.8398 10.75 12 10.75C12.1602 10.75 12.355 10.7321 12.5368 10.6744L12.0832 9.24466ZM11.91 9.24255C11.2839 9.05041 10.2119 8.52849 9.30934 7.6972C8.41245 6.87119 7.75 5.80633 7.75 4.51236H6.25C6.25 6.36446 7.20755 7.80072 8.29316 8.80056C9.37305 9.79511 10.6461 10.4237 11.47 10.6766L11.91 9.24255ZM7.75 4.51236C7.75 3.60771 8.58567 2.75 9.78 2.75V1.25C7.90433 1.25 6.25 2.63948 6.25 4.51236H7.75ZM9.78 2.75C10.4731 2.75 11.0635 3.0508 11.4218 3.48444L12.5782 2.52904C11.9265 1.74021 10.9069 1.25 9.78 1.25V2.75ZM12.5782 3.48444C12.936 3.05133 13.5312 2.75 14.22 2.75V1.25C13.0988 1.25 12.074 1.73968 11.4218 2.52904L12.5782 3.48444ZM14.22 2.75C15.4143 2.75 16.25 3.60771 16.25 4.51236H17.75C17.75 2.63948 16.0957 1.25 14.22 1.25V2.75ZM16.25 4.51236C16.25 5.80633 15.5875 6.87119 14.6907 7.6972C13.7881 8.52849 12.7161 9.05041 12.09 9.24255L12.53 10.6766C13.3539 10.4237 14.6269 9.79511 15.7068 8.80056C16.7925 7.80072 17.75 6.36446 17.75 4.51236H16.25Z"
                      fill="#C7C7CC"
                    />
                    <path
                      d="M12.31 14.0404L12.09 14.7575L12.0832 14.7553L12.31 14.0404ZM11.69 14.0404L11.9168 14.7554L11.91 14.7575L11.69 14.0404ZM12 20.9933L11.4218 20.5156L12 19.8157L12.5782 20.5156L12 20.9933ZM12.0832 14.7553C12.0941 14.7588 12.0907 14.7567 12.0703 14.7541C12.0517 14.7517 12.0273 14.75 12 14.75C11.9727 14.75 11.9483 14.7517 11.9297 14.7541C11.9093 14.7567 11.9059 14.7588 11.9168 14.7553L11.4632 13.3256C11.645 13.2679 11.8398 13.25 12 13.25C12.1602 13.25 12.355 13.2679 12.5368 13.3256L12.0832 14.7553ZM11.91 14.7575C11.2839 14.9496 10.2119 15.4715 9.30934 16.3028C8.41245 17.1288 7.75 18.1937 7.75 19.4876H6.25C6.25 17.6355 7.20755 16.1993 8.29316 15.1994C9.37305 14.2049 10.6461 13.5763 11.47 13.3234L11.91 14.7575ZM7.75 19.4876C7.75 20.3923 8.58567 21.25 9.78 21.25V22.75C7.90433 22.75 6.25 21.3605 6.25 19.4876H7.75ZM9.78 21.25C10.4731 21.25 11.0635 20.9492 11.4218 20.5156L12.5782 21.471C11.9265 22.2598 10.9069 22.75 9.78 22.75V21.25ZM12.5782 20.5156C12.936 20.9487 13.5312 21.25 14.22 21.25V22.75C13.0988 22.75 12.074 22.2603 11.4218 21.471L12.5782 20.5156ZM14.22 21.25C15.4143 21.25 16.25 20.3923 16.25 19.4876H17.75C17.75 21.3605 16.0957 22.75 14.22 22.75V21.25ZM16.25 19.4876C16.25 18.1937 15.5875 17.1288 14.6907 16.3028C13.7881 15.4715 12.7161 14.9496 12.09 14.7575L12.53 13.3234C13.3539 13.5763 14.6269 14.2049 15.7068 15.1994C16.7925 16.1993 17.75 17.6355 17.75 19.4876H16.25Z"
                      fill="#C7C7CC"
                    />
                    <path
                      d="M9.95955 11.69L9.24252 11.91L9.24466 11.9168L9.95955 11.69ZM9.95955 12.31L9.24463 12.0832L9.24255 12.09L9.95955 12.31ZM3.00674 12L3.48444 12.5782L4.18426 12L3.48444 11.4218L3.00674 12ZM9.24466 11.9168C9.24122 11.9059 9.24332 11.9093 9.24592 11.9297C9.24831 11.9483 9.25 11.9727 9.25 12C9.25 12.0273 9.24831 12.0517 9.24592 12.0703C9.24332 12.0907 9.24122 12.0941 9.24466 12.0832L10.6744 12.5368C10.7321 12.355 10.75 12.1602 10.75 12C10.75 11.8398 10.7321 11.645 10.6744 11.4632L9.24466 11.9168ZM9.24255 12.09C9.05041 12.7161 8.52849 13.7881 7.6972 14.6907C6.87119 15.5875 5.80633 16.25 4.51236 16.25V17.75C6.36446 17.75 7.80072 16.7925 8.80056 15.7068C9.79511 14.6269 10.4237 13.3539 10.6766 12.53L9.24255 12.09ZM4.51236 16.25C3.60771 16.25 2.75 15.4143 2.75 14.22H1.25C1.25 16.0957 2.63948 17.75 4.51236 17.75V16.25ZM2.75 14.22C2.75 13.5269 3.0508 12.9365 3.48444 12.5782L2.52904 11.4218C1.74021 12.0735 1.25 13.0931 1.25 14.22H2.75ZM3.48444 11.4218C3.05133 11.064 2.75 10.4688 2.75 9.78H1.25C1.25 10.9012 1.73968 11.926 2.52904 12.5782L3.48444 11.4218ZM2.75 9.78C2.75 8.58567 3.60771 7.75 4.51236 7.75V6.25C2.63948 6.25 1.25 7.90433 1.25 9.78H2.75ZM4.51236 7.75C5.80633 7.75 6.87119 8.41245 7.6972 9.30934C8.52849 10.2119 9.05041 11.2839 9.24255 11.91L10.6766 11.47C10.4237 10.6461 9.79511 9.37305 8.80056 8.29316C7.80072 7.20755 6.36446 6.25 4.51236 6.25V7.75Z"
                      fill="#C7C7CC"
                    />
                    <path
                      d="M14.0404 11.69L14.7575 11.91L14.7553 11.9168L14.0404 11.69ZM14.0404 12.31L14.7554 12.0832L14.7575 12.09L14.0404 12.31ZM20.9933 12L20.5156 12.5782L19.8157 12L20.5156 11.4218L20.9933 12ZM14.7553 11.9168C14.7588 11.9059 14.7567 11.9093 14.7541 11.9297C14.7517 11.9483 14.75 11.9727 14.75 12C14.75 12.0273 14.7517 12.0517 14.7541 12.0703C14.7567 12.0907 14.7588 12.0941 14.7553 12.0832L13.3256 12.5368C13.2679 12.355 13.25 12.1602 13.25 12C13.25 11.8398 13.2679 11.645 13.3256 11.4632L14.7553 11.9168ZM14.7575 12.09C14.9496 12.7161 15.4715 13.7881 16.3028 14.6907C17.1288 15.5875 18.1937 16.25 19.4876 16.25V17.75C17.6355 17.75 16.1993 16.7925 15.1994 15.7068C14.2049 14.6269 13.5763 13.3539 13.3234 12.53L14.7575 12.09ZM19.4876 16.25C20.3923 16.25 21.25 15.4143 21.25 14.22H22.75C22.75 16.0957 21.3605 17.75 19.4876 17.75V16.25ZM21.25 14.22C21.25 13.5269 20.9492 12.9365 20.5156 12.5782L21.471 11.4218C22.2598 12.0735 22.75 13.0931 22.75 14.22H21.25ZM20.5156 11.4218C20.9487 11.064 21.25 10.4688 21.25 9.78H22.75C22.75 10.9012 22.2603 11.926 21.471 12.5782L20.5156 11.4218ZM21.25 9.78C21.25 8.58567 20.3923 7.75 19.4876 7.75V6.25C21.3605 6.25 22.75 7.90433 22.75 9.78H21.25ZM19.4876 7.75C18.1937 7.75 17.1288 8.41245 16.3028 9.30934C15.4715 10.2119 14.9496 11.2839 14.7575 11.91L13.3234 11.47C13.5763 10.6461 14.2049 9.37305 15.1994 8.29316C16.1993 7.20755 17.6355 6.25 19.4876 6.25V7.75Z"
                      fill="#C7C7CC"
                    />
                  </svg>