<svg xmlns="http://www.w3.org/2000/svg" width="24" height="24" viewBox="0 0 24 24" fill="none">
<path d="M20.7309 4.35039C20.1584 3.46463 19.0134 2.84343 17.2164 2.45823C15.8365 2.15662 14.1062 2 12.2024 2C10.3039 2 8.5673 2.15662 7.19368 2.45823C5.40311 2.84978 4.25173 3.46463 3.68556 4.35039C2.74477 5.80338 2.96806 7.91883 3.21569 10.3719C3.26437 10.8237 3.312 11.2883 3.34798 11.7402C3.42629 12.6439 3.60725 14.4282 3.93848 16.1468C4.42105 18.6485 4.93854 19.5279 5.28882 19.9745C6.77779 21.855 10.9611 22 12.2088 22C13.4564 22 17.6397 21.855 19.1287 19.9745C19.4779 19.529 20.0028 18.6548 20.479 16.1468C20.8103 14.4229 20.9912 12.645 21.0695 11.7402C21.1055 11.2883 21.1542 10.8237 21.2018 10.3719C21.4484 7.91883 21.6653 5.79703 20.7309 4.35039ZM20.5076 10.2999C20.4589 10.7518 20.4113 11.2217 20.3753 11.6799C20.297 12.572 20.1224 14.3255 19.7965 16.0198C19.3446 18.3765 18.8864 19.1596 18.5784 19.5459C17.2524 21.2275 13.0331 21.3121 12.2014 21.3121C11.3696 21.3121 7.15029 21.2275 5.8243 19.5459C5.5174 19.1596 5.05918 18.3702 4.60624 16.0198C4.2803 14.3266 4.10569 12.5783 4.02738 11.6799C3.98505 11.2217 3.94272 10.7518 3.89509 10.2999C3.65381 7.9728 3.44957 5.96635 4.25702 4.71866C4.72688 3.99587 5.73329 3.47098 7.3376 3.12704C8.66995 2.83814 10.3515 2.68681 12.2014 2.68681C14.0512 2.68681 15.7338 2.83708 17.0651 3.12704C18.6684 3.47627 19.6748 3.99481 20.1457 4.71866C20.9542 5.97164 20.7489 7.97915 20.5076 10.2999Z" fill="#C7C7CC" stroke="#C7C7CC" stroke-width="0.7"/>
<path d="M6.79573 7.46055C6.79573 7.46055 6.83806 7.28594 6.93436 7.23197C7.03066 7.178 7.19892 7.17165 7.19363 7.20234H11.1536C11.1536 7.20234 11.5092 7.18435 11.7378 7.41293C11.9727 7.64152 12.033 7.82883 12.033 7.82883L14.1559 11.8724L14.7401 9.0691C14.7401 9.0691 14.8184 8.64792 14.6554 8.48495C14.4924 8.32197 14.1792 8.26165 14.1792 8.26165L14.0109 8.23202C14.0109 8.23202 13.903 8.22673 13.8543 8.11773C13.8183 8.03413 13.848 7.92513 13.848 7.92513L13.9443 7.49124C13.9443 7.49124 13.9622 7.39494 14.0765 7.29864C14.2035 7.19599 14.3358 7.20234 14.3358 7.20234H18.3445C18.3445 7.20234 18.5307 7.20234 18.5974 7.28065C18.6757 7.37166 18.6397 7.50394 18.6397 7.50394L18.5075 8.02249C18.5075 8.02249 18.4831 8.13678 18.4291 8.19075C18.3508 8.26271 18.2238 8.28705 18.2238 8.28705C18.2238 8.28705 17.7296 8.38864 17.5487 8.57596C17.3497 8.78126 17.3137 8.98021 17.3137 8.98021L16.1444 13.79C16.1444 13.79 16.0661 14.0366 16.1444 14.1572C16.2597 14.3255 16.591 14.5064 16.8439 14.5847C17.1868 14.6874 17.4884 14.7234 17.5667 14.8863C17.6333 15.025 17.5847 15.17 17.5847 15.17L17.518 15.4769C17.518 15.4769 17.4873 15.6282 17.373 15.7245C17.2767 15.8028 17.1021 15.7964 17.1021 15.7964L13.594 15.8261C13.594 15.8261 13.3474 15.8208 13.2384 15.7361C13.1294 15.6525 13.0574 15.5255 13.0574 15.5255L10.978 11.8068C10.978 11.8068 10.9293 11.6682 10.779 11.6618C10.6774 11.6555 10.6287 11.8121 10.6287 11.8121L10.2488 13.9276C10.2488 13.9276 10.1642 14.3191 10.4118 14.5244C10.6107 14.6863 10.7314 14.7467 10.9367 14.7953C11.1356 14.844 11.196 14.8377 11.2679 14.9223C11.3272 14.9943 11.2976 15.1149 11.2976 15.1149L11.2256 15.5128C11.2256 15.5128 11.2076 15.6642 11.1356 15.7361C11.0626 15.8081 10.9303 15.8144 10.9303 15.8144L6.57243 15.7848C6.57243 15.7848 6.38618 15.7605 6.31951 15.6578C6.2539 15.5552 6.28353 15.4409 6.28353 15.4409L6.3375 15.1636C6.3375 15.1636 6.37348 14.9774 6.48777 14.9287C6.62005 14.8747 6.82536 14.8684 6.82536 14.8684C6.82536 14.8684 7.17564 14.8557 7.38623 14.6631C7.60318 14.4641 7.68784 14.0546 7.68784 14.0546L8.54926 9.82893C8.54926 9.82893 8.67625 9.2924 8.35665 8.90084C8.03706 8.50929 7.2476 8.38864 7.2476 8.38864C7.2476 8.38864 6.79467 8.30398 6.72271 8.16535C6.65709 8.02672 6.69307 7.91243 6.69307 7.91243L6.79573 7.46055Z" fill="#C7C7CC"/>
</svg>