<svg xmlns="http://www.w3.org/2000/svg" width="24" height="24" viewBox="0 0 24 24" fill="none">
<path d="M12 22C17.5228 22 22 17.5228 22 12C22 6.47715 17.5228 2 12 2C6.47715 2 2 6.47715 2 12C2 17.5228 6.47715 22 12 22Z" stroke="#C7C7CC" stroke-width="1.5" stroke-miterlimit="10" stroke-linecap="round" stroke-linejoin="round"/>
<path d="M11.864 17.08C11.0987 17.08 10.366 16.9727 9.666 16.758C8.966 16.534 8.41067 16.2493 8 15.904L8.63 14.49C9.022 14.798 9.50733 15.0547 10.086 15.26C10.6647 15.4653 11.2573 15.568 11.864 15.568C12.3773 15.568 12.7927 15.512 13.11 15.4C13.4273 15.288 13.6607 15.1387 13.81 14.952C13.9593 14.756 14.034 14.5367 14.034 14.294C14.034 13.9953 13.9267 13.7573 13.712 13.58C13.4973 13.3933 13.2173 13.2487 12.872 13.146C12.536 13.034 12.158 12.9313 11.738 12.838C11.3273 12.7447 10.912 12.6373 10.492 12.516C10.0813 12.3853 9.70333 12.222 9.358 12.026C9.022 11.8207 8.74667 11.55 8.532 11.214C8.31733 10.878 8.21 10.4487 8.21 9.926C8.21 9.394 8.35 8.90867 8.63 8.47C8.91933 8.022 9.35333 7.66733 9.932 7.406C10.52 7.13533 11.262 7 12.158 7C12.746 7 13.3293 7.07467 13.908 7.224C14.4867 7.37333 14.9907 7.588 15.42 7.868L14.846 9.282C14.4073 9.02067 13.9547 8.82933 13.488 8.708C13.0213 8.57733 12.5733 8.512 12.144 8.512C11.64 8.512 11.2293 8.57267 10.912 8.694C10.604 8.81533 10.3753 8.974 10.226 9.17C10.086 9.366 10.016 9.59 10.016 9.842C10.016 10.1407 10.1187 10.3833 10.324 10.57C10.5387 10.7473 10.814 10.8873 11.15 10.99C11.4953 11.0927 11.878 11.1953 12.298 11.298C12.718 11.3913 13.1333 11.4987 13.544 11.62C13.964 11.7413 14.342 11.9 14.678 12.096C15.0233 12.292 15.2987 12.558 15.504 12.894C15.7187 13.23 15.826 13.6547 15.826 14.168C15.826 14.6907 15.6813 15.176 15.392 15.624C15.112 16.0627 14.678 16.4173 14.09 16.688C13.502 16.9493 12.76 17.08 11.864 17.08Z" fill="#C7C7CC"/>
</svg>