<svg xmlns="http://www.w3.org/2000/svg" width="24" height="25" viewBox="0 0 24 25" fill="none">
<g clip-path="url(#clip0_17409_409294)">
<path d="M6.43007 14.0315C6.49655 13.7949 6.57566 13.5618 6.66752 13.3328C6.82596 12.9375 7.02212 12.5561 7.25059 12.1991C7.47708 11.8453 7.73725 11.5125 8.02389 11.2101C8.31053 10.9076 8.62582 10.633 8.96106 10.394C9.29916 10.1528 9.66057 9.94581 10.0352 9.7786C10.8144 9.43085 11.6427 9.25447 12.4974 9.25447C13.3521 9.25447 14.1804 9.43085 14.9595 9.7786C15.3341 9.94581 15.6955 10.1528 16.0337 10.394C16.1749 10.4947 16.3126 10.6017 16.4461 10.7145L17.8703 10.2429C16.4936 8.79476 14.5944 7.89941 12.4973 7.89941C8.7561 7.89941 5.64541 10.7485 5.00684 14.5029L6.43007 14.0315Z" fill="#EF9123"/>
<path d="M18.5642 17.831C18.4978 18.0676 18.4186 18.3007 18.3268 18.5297C18.1683 18.925 17.9722 19.3065 17.7437 19.6634C17.5172 20.0172 17.2571 20.35 16.9704 20.6525C16.6838 20.955 16.3685 21.2295 16.0332 21.4686C15.6951 21.7097 15.3337 21.9167 14.9591 22.0839C14.1799 22.4317 13.3515 22.6081 12.4969 22.6081C11.6423 22.6081 10.8139 22.4317 10.0348 22.0839C9.66024 21.9167 9.29883 21.7097 8.96063 21.4686C8.81938 21.3679 8.68169 21.2608 8.54825 21.148L7.12402 21.6196C8.50054 23.0678 10.3996 23.9631 12.4968 23.9631C16.238 23.9631 19.3487 21.114 19.9873 17.3596L18.5642 17.831Z" fill="#EF9123"/>
<path d="M3.53516 16.3828C4.2478 16.1364 4.95785 15.8837 5.68586 15.6863C5.80627 15.6537 5.92796 15.6197 6.04955 15.6075C6.24976 15.5874 6.44929 15.5626 6.65365 15.5736C7.05151 15.5952 7.41589 15.7048 7.74056 15.9497C8.10286 16.2228 8.31266 16.6075 8.4386 17.047C8.49124 17.2307 8.51129 17.423 8.53451 17.6141C8.57105 17.9155 8.54843 18.2144 8.49816 18.509C8.44887 18.7979 8.36007 19.076 8.23246 19.3408C8.03175 19.7573 7.76446 20.1152 7.42419 20.4121C7.1737 20.6307 6.90078 20.8113 6.60515 20.9574C6.34953 21.0837 6.08125 21.1685 5.81476 21.2601C5.26723 21.4484 4.70421 21.5878 4.16099 21.7902C4.15983 21.7906 3.57576 16.92 3.53516 16.3828ZM7.23266 18.1425C7.23642 18.0197 7.21291 17.8318 7.16313 17.6478C7.10801 17.4443 7.02297 17.255 6.87876 17.1062C6.56564 16.7832 6.18309 16.7543 5.7798 16.8396C5.52368 16.8938 5.27733 16.9858 5.02882 17.0689C4.9418 17.098 4.92757 17.1184 4.94367 17.2126C4.98901 17.4787 4.9976 17.7491 5.02862 18.017C5.06793 18.3566 5.09263 18.698 5.12581 19.0385C5.16157 19.4051 5.20068 19.7715 5.23664 20.1381C5.24533 20.2271 5.26864 20.2493 5.34934 20.2185C5.59222 20.1258 5.84568 20.0687 6.0855 19.9646C6.32513 19.8605 6.54194 19.7217 6.72763 19.5325C7.08154 19.1721 7.24086 18.727 7.23266 18.1425Z" fill="#040404"/>
<path d="M10.8539 5.53299C10.8434 5.20848 10.8868 4.88929 10.9561 4.57426C11.0123 4.31908 11.0944 4.07202 11.1978 3.83226C11.3331 3.51849 11.5048 3.22807 11.7139 2.96173C11.8795 2.75084 12.0651 2.55987 12.27 2.38912C12.287 2.37494 12.3032 2.35972 12.3192 2.3445C12.3308 2.33356 12.3442 2.32053 12.3589 2.33043C12.378 2.34325 12.3652 2.36212 12.3583 2.37671C12.3207 2.45604 12.2883 2.53756 12.255 2.61877C12.1995 2.75449 12.1525 2.89334 12.1091 3.03324C12.0534 3.21295 12.0071 3.39559 11.9678 3.5801C11.9084 3.85978 11.8724 4.14301 11.8453 4.42749C11.8316 4.57082 11.8309 4.7152 11.8302 4.85927C11.8292 5.08818 11.8243 5.31752 11.8448 5.5455C11.859 5.70395 11.8742 5.86261 11.8952 6.02064C11.9237 6.23361 11.9618 6.4446 12.0067 6.65412C12.0301 6.76358 12.0531 6.87397 12.0905 6.98009C12.1144 7.04796 12.1074 7.05379 12.036 7.0588C11.8333 7.07329 11.6307 7.08882 11.4286 7.11467C11.2467 7.13802 11.0661 7.16825 10.8863 7.20317C10.7231 7.23497 10.5618 7.27698 10.4007 7.31993C10.1696 7.38143 9.94273 7.45628 9.71916 7.54071C9.49862 7.6239 9.28253 7.71928 9.07048 7.82405C8.83275 7.94153 8.60058 8.06933 8.3767 8.21287C8.34313 8.23435 8.32382 8.23768 8.30774 8.19056C8.25718 8.04212 8.20672 7.89337 8.14756 7.74847C8.08325 7.59075 8.01389 7.43501 7.94017 7.28146C7.8253 7.04243 7.6989 6.81007 7.56006 6.58512C7.39746 6.3218 7.21838 6.07088 7.02342 5.83175C6.86173 5.63348 6.68852 5.44657 6.50488 5.2705C6.2175 4.99478 5.90727 4.74939 5.567 4.54581C5.55517 4.53872 5.53323 4.53715 5.54051 4.51537C5.54587 4.49952 5.56357 4.50369 5.57631 4.504C5.71615 4.50755 5.85378 4.53173 5.9915 4.55394C6.12093 4.57479 6.24905 4.60408 6.37464 4.64244C6.48233 4.67538 6.59013 4.70947 6.69499 4.75064C6.85779 4.81455 7.01584 4.89002 7.16833 4.97758C7.55662 5.20056 7.898 5.48347 8.1963 5.8231C8.37741 6.0294 8.5391 6.24966 8.67571 6.48963C8.68329 6.50287 8.68896 6.52236 8.70787 6.51433C8.72647 6.50641 8.71747 6.48723 8.71444 6.47285C8.67531 6.28656 8.6382 6.09997 8.6027 5.91296C8.55791 5.67664 8.51685 5.4398 8.47903 5.20223C8.44941 5.01594 8.41735 4.83008 8.39318 4.64306C8.36629 4.43531 8.33868 4.22766 8.3136 4.01969C8.28003 3.74105 8.25789 3.46136 8.22856 3.18231C8.21683 3.07035 8.21289 2.95745 8.20561 2.84508C8.1781 2.42237 8.16759 1.99904 8.1774 1.57571C8.18184 1.38526 8.17952 1.19397 8.20318 1.00425C8.205 0.989655 8.19903 0.970162 8.21865 0.964533C8.23867 0.958799 8.24777 0.975582 8.25839 0.989551C8.50381 1.31104 8.73173 1.64503 8.9461 1.98935C9.15036 2.3173 9.34239 2.65265 9.52521 2.99352C9.68528 3.29176 9.83929 3.59355 9.98541 3.89929C10.1389 4.22057 10.288 4.54403 10.4298 4.87105C10.5634 5.17908 10.6943 5.48827 10.8144 5.80215C10.8196 5.81601 10.8226 5.83811 10.841 5.83425C10.8597 5.83029 10.8529 5.80819 10.853 5.7937C10.8542 5.70655 10.8539 5.61982 10.8539 5.53299Z" fill="#EF9123"/>
<path d="M21.7741 10.0905L21.0686 15.8537C20.534 16.065 19.9923 16.2446 19.4475 16.4277C19.4118 16.4397 19.395 16.4167 19.3837 16.3877C19.3368 16.2667 19.2897 16.1457 19.2446 16.0241C18.9098 15.1208 18.5858 14.2133 18.2591 13.3063C18.2503 13.282 18.2504 13.2455 18.2192 13.2455C18.1828 13.2455 18.1806 13.2851 18.1767 13.312C18.0047 14.5156 17.8641 15.7248 17.7099 16.9308C17.7053 16.9668 17.694 16.9901 17.6594 17.0012C17.4292 17.0754 17.1993 17.1503 16.9693 17.2256C16.7758 17.2889 16.5821 17.3515 16.3894 17.4173C16.3244 17.4395 16.2567 17.4522 16.1943 17.4847C16.1474 17.5091 16.1228 17.4729 16.1077 17.4334C15.4854 15.8078 14.9171 14.1583 14.2654 12.5443C14.2378 12.4761 14.2617 12.4525 14.3179 12.4344C14.7076 12.3085 15.097 12.1818 15.4865 12.0555C15.5107 12.0477 15.536 12.0432 15.5602 12.0354C15.6139 12.0179 15.6405 12.0442 15.6565 12.0956C16.0113 13.2385 16.3768 14.3776 16.7213 15.5232C16.7274 15.5436 16.7338 15.5641 16.742 15.5837C16.7498 15.6022 16.7557 15.6287 16.7823 15.6211C16.8029 15.6152 16.8022 15.5735 16.8022 15.5735C16.8022 15.5735 17.1959 12.8803 17.2947 11.5451C17.2985 11.4929 17.3286 11.4596 17.3717 11.4452C17.5551 11.3842 17.7395 11.3265 17.9234 11.2672C18.1194 11.204 18.3154 11.1405 18.5113 11.0768C18.5669 11.0588 18.6217 11.038 18.6775 11.0209C18.7266 11.0058 18.7483 11.0424 18.762 11.0811C19.1612 12.2096 19.5682 13.3352 19.9607 14.4655C19.9715 14.4964 19.972 14.5452 20.0153 14.5371C20.0485 14.5308 20.0456 14.4867 20.0482 14.4553C20.1539 13.1629 20.2627 11.8704 20.3738 10.5786C20.3806 10.4991 20.4097 10.4553 20.4932 10.4309C20.9278 10.3036 21.2597 10.2095 21.7741 10.0905Z" fill="#040404"/>
<path d="M11.8808 13.3539C12.1652 13.3623 12.4342 13.4215 12.6546 13.6299C12.8042 13.7713 12.9017 13.9467 12.9448 14.1541C12.9578 14.2168 12.9815 14.2769 12.9824 14.3425C12.9831 14.3914 12.9683 14.4211 12.9189 14.4357C12.6216 14.5238 12.324 14.6113 12.0289 14.7076C11.9568 14.7312 11.8806 14.743 11.8121 14.7795C11.7773 14.798 11.7581 14.7841 11.7539 14.7461C11.7488 14.7 11.7328 14.6582 11.715 14.6164C11.67 14.5105 11.5687 14.4333 11.4611 14.4485C11.271 14.4754 11.1048 14.5558 11.0051 14.7418C10.9153 14.9096 10.9406 15.0722 11.0402 15.2248C11.1565 15.4032 11.3218 15.5248 11.4919 15.6371C11.7776 15.8255 12.067 16.0078 12.3544 16.1931C12.4969 16.2851 12.6387 16.3782 12.7807 16.4708C12.8113 16.4907 12.836 16.4839 12.8462 16.4476C12.896 16.2707 12.9701 16.1042 13.0391 15.9355C13.0681 15.8643 13.099 15.794 13.1297 15.7236C13.1444 15.6898 13.1708 15.669 13.2038 15.6591C13.4012 15.6 13.5989 15.5421 13.7962 15.4827C13.9813 15.427 14.1661 15.3701 14.3508 15.3132C14.3739 15.3061 14.398 15.2787 14.4197 15.3058C14.44 15.3313 14.4243 15.3626 14.414 15.3895C14.3667 15.5133 14.3211 15.6381 14.2697 15.7601C14.1596 16.0215 14.0826 16.2962 13.9806 16.5609C13.9263 16.7018 13.8734 16.8437 13.8055 16.9784C13.7574 17.0736 13.7645 17.0988 13.849 17.1531C14.2598 17.4174 14.6704 17.6823 15.0811 17.9468C15.096 17.9564 15.1173 17.9612 15.1154 17.9844C15.1133 18.0103 15.0911 18.0169 15.0718 18.023C14.9186 18.0706 14.7653 18.1175 14.6121 18.1652C14.4032 18.2301 14.1945 18.2956 13.9855 18.3604C13.8787 18.3936 13.7715 18.4254 13.6647 18.4586C13.6342 18.4681 13.6105 18.4548 13.5862 18.4392C13.4541 18.3547 13.3204 18.273 13.1905 18.1848C13.1314 18.1447 13.0883 18.1431 13.038 18.1999C12.824 18.4419 12.5825 18.6496 12.3141 18.821C12.1301 18.9385 11.9366 19.0356 11.7358 19.1187C11.5559 19.1931 11.3727 19.2543 11.1849 19.2981C10.825 19.3819 10.4617 19.42 10.1004 19.3113C9.7111 19.1944 9.43868 18.9411 9.31087 18.5267C9.20301 18.1768 9.20962 17.8286 9.31077 17.4784C9.43483 17.0486 9.67347 16.7001 9.9846 16.4016C10.0278 16.3602 10.071 16.3187 10.1166 16.2805C10.158 16.2458 10.154 16.2149 10.1161 16.1831C10.0051 16.09 9.91793 15.9749 9.85294 15.8437C9.71475 15.5646 9.68285 15.2672 9.74449 14.9617C9.8564 14.4067 10.1808 14.0204 10.6337 13.7406C10.9521 13.5439 11.2921 13.4146 11.6609 13.3728C11.7341 13.3644 11.8063 13.3496 11.8808 13.3539ZM11.0432 18.175C11.2128 18.1843 11.3682 18.1315 11.5235 18.0701C11.7698 17.9727 11.9816 17.822 12.1676 17.628C12.2065 17.5875 12.2129 17.5598 12.1563 17.5243C11.7802 17.2878 11.4058 17.0481 11.0316 16.8081C10.9863 16.7791 10.945 16.7755 10.9065 16.8135C10.6949 17.0222 10.518 17.2549 10.4915 17.5735C10.4746 17.7762 10.5295 17.954 10.6988 18.0773C10.8042 18.1537 10.9193 18.1818 11.0432 18.175Z" fill="#040404"/>
</g>
<defs>
<clipPath id="clip0_17409_409294">
<rect width="24" height="24" fill="white" transform="translate(0 0.963135)"/>
</clipPath>
</defs>
></svg>