<svg
                    xmlns="http://www.w3.org/2000/svg"
                    width="24"
                    height="24"
                    viewBox="0 0 24 24"
                    fill="none"
                  >
                    <path
                      d="M10.7499 2.44995C11.4399 1.85995 12.5699 1.85995 13.2699 2.44995L14.8499 3.81005C15.1499 4.07005 15.7099 4.28002 16.1099 4.28002H17.8099C18.8699 4.28002 19.7399 5.14996 19.7399 6.20996V7.91003C19.7399 8.30003 19.9499 8.87004 20.2099 9.17004L21.5699 10.75C22.1599 11.44 22.1599 12.57 21.5699 13.27L20.2099 14.85C19.9499 15.15 19.7399 15.71 19.7399 16.11V17.8101C19.7399 18.8701 18.8699 19.74 17.8099 19.74H16.1099C15.7199 19.74 15.1499 19.95 14.8499 20.21L13.2699 21.5699C12.5799 22.1599 11.4499 22.1599 10.7499 21.5699L9.16989 20.21C8.86989 19.95 8.30988 19.74 7.90988 19.74H6.17987C5.11987 19.74 4.24988 18.8701 4.24988 17.8101V16.1C4.24988 15.71 4.03989 15.15 3.78989 14.85L2.43988 13.26C1.85988 12.57 1.85988 11.45 2.43988 10.76L3.78989 9.17004C4.03989 8.87004 4.24988 8.31004 4.24988 7.92004V6.20996C4.24988 5.14996 5.11987 4.28002 6.17987 4.28002H7.90988C8.29988 4.28002 8.86989 4.07005 9.16989 3.81005L10.7499 2.44995Z"
                      stroke="#C7C7CC"
                      stroke-width="1.5"
                      stroke-linecap="round"
                      stroke-linejoin="round"
                    />
                    <path
                      d="M6.49494 14.045C6.35494 14.045 6.24827 14.0083 6.17494 13.935C6.10161 13.8617 6.06494 13.7533 6.06494 13.61V10.885C6.06494 10.7383 6.10161 10.6267 6.17494 10.55C6.24827 10.47 6.34494 10.43 6.46494 10.43C6.57161 10.43 6.65494 10.45 6.71494 10.49C6.77494 10.53 6.84161 10.5967 6.91494 10.69L8.49994 12.67H8.35994V10.86C8.35994 10.72 8.39494 10.6133 8.46494 10.54C8.53827 10.4667 8.64494 10.43 8.78494 10.43C8.92494 10.43 9.02994 10.4667 9.09994 10.54C9.17327 10.6133 9.20994 10.72 9.20994 10.86V13.63C9.20994 13.7567 9.17661 13.8583 9.10994 13.935C9.04327 14.0083 8.95327 14.045 8.83994 14.045C8.72661 14.045 8.63661 14.025 8.56994 13.985C8.50661 13.9417 8.43827 13.875 8.36494 13.785L6.77994 11.8H6.91994V13.61C6.91994 13.7533 6.88327 13.8617 6.80994 13.935C6.73994 14.0083 6.63494 14.045 6.49494 14.045Z"
                      fill="#C7C7CC"
                    />
                    <path
                      d="M10.334 14C10.1773 14 10.0573 13.96 9.974 13.88C9.894 13.7967 9.854 13.6783 9.854 13.525V10.95C9.854 10.7967 9.894 10.68 9.974 10.6C10.0573 10.5167 10.1773 10.475 10.334 10.475H12.029C12.149 10.475 12.239 10.505 12.299 10.565C12.359 10.625 12.389 10.7117 12.389 10.825C12.389 10.9417 12.359 11.0317 12.299 11.095C12.239 11.155 12.149 11.185 12.029 11.185H10.734V11.855H11.919C12.0357 11.855 12.124 11.885 12.184 11.945C12.2473 12.005 12.279 12.0933 12.279 12.21C12.279 12.3267 12.2473 12.415 12.184 12.475C12.124 12.535 12.0357 12.565 11.919 12.565H10.734V13.29H12.029C12.149 13.29 12.239 13.3217 12.299 13.385C12.359 13.445 12.389 13.5317 12.389 13.645C12.389 13.7617 12.359 13.85 12.299 13.91C12.239 13.97 12.149 14 12.029 14H10.334Z"
                      fill="#C7C7CC"
                    />
                    <path
                      d="M14.3051 14.045C14.1817 14.045 14.0817 14.0167 14.0051 13.96C13.9284 13.9 13.8684 13.8083 13.8251 13.685L12.8501 10.97C12.7967 10.82 12.8051 10.6933 12.8751 10.59C12.9484 10.4833 13.0767 10.43 13.2601 10.43C13.3834 10.43 13.4801 10.46 13.5501 10.52C13.6201 10.5767 13.6751 10.6667 13.7151 10.79L14.4601 13.025H14.2251L15.0251 10.79C15.0717 10.6667 15.1301 10.5767 15.2001 10.52C15.2701 10.46 15.3601 10.43 15.4701 10.43C15.5801 10.43 15.6684 10.46 15.7351 10.52C15.8017 10.5767 15.8567 10.6683 15.9001 10.795L16.6501 13.025H16.4501L17.2151 10.79C17.2551 10.6667 17.3084 10.5767 17.3751 10.52C17.4451 10.46 17.5417 10.43 17.6651 10.43C17.8184 10.43 17.9301 10.4833 18.0001 10.59C18.0734 10.6933 18.0817 10.82 18.0251 10.97L17.0401 13.69C16.9967 13.81 16.9367 13.9 16.8601 13.96C16.7867 14.0167 16.6884 14.045 16.5651 14.045C16.4384 14.045 16.3367 14.0167 16.2601 13.96C16.1867 13.9 16.1284 13.8083 16.0851 13.685L15.3801 11.705H15.5051L14.7851 13.69C14.7384 13.81 14.6784 13.9 14.6051 13.96C14.5317 14.0167 14.4317 14.045 14.3051 14.045Z"
                      fill="#C7C7CC"
                    />
                  </svg>