<svg
                    xmlns="http://www.w3.org/2000/svg"
                    width="24"
                    height="24"
                    viewBox="0 0 24 24"
                    fill="none"
                  >
                    <path
                      d="M7.83333 22H11.1667C15.3333 22 17 20.1 17 15.35V9.65C17 4.9 12.6548 3 10.0357 3H8.96429C6.34524 3 2 4.9 2 9.65V15.35C2 20.1 3.66667 22 7.83333 22Z"
                      stroke="#C7C7CC"
                      stroke-width="1.5"
                      stroke-linecap="round"
                      stroke-linejoin="round"
                    />
                    <path
                      d="M14.0001 12.5V14.5C14.0001 15.32 13.4045 16 12.6667 16H6.33333C5.60444 16 5 15.33 5 14.5V12.5C5 11.68 5.59556 11 6.33333 11H12.6667C13.4045 11 14.0001 11.67 14.0001 12.5Z"
                      stroke="#C7C7CC"
                      stroke-linecap="round"
                      stroke-linejoin="round"
                    />
                    <line
                      x1="7.97217"
                      y1="11"
                      x2="7.97217"
                      y2="16"
                      stroke="#C7C7CC"
                    />
                    <line
                      x1="10.9849"
                      y1="11"
                      x2="10.9849"
                      y2="16"
                      stroke="#C7C7CC"
                    />
                    <path
                      d="M17 12.75H18V11.25H17V12.75ZM20.75 9.99999V6H19.25V9.99999H20.75ZM18 12.75C19.5188 12.75 20.75 11.5188 20.75 9.99999H19.25C19.25 10.6903 18.6904 11.25 18 11.25V12.75Z"
                      fill="#C7C7CC"
                    />
                    <circle
                      cx="20"
                      cy="4"
                      r="2.25"
                      stroke="#C7C7CC"
                      stroke-width="1.5"
                    />
                  </svg>