<svg
                    xmlns="http://www.w3.org/2000/svg"
                    width="24"
                    height="24"
                    viewBox="0 0 24 24"
                    fill="none"
                  >
                    <path
                      d="M18.3998 5.09092C18.3271 4.80002 18.1089 4.65456 17.818 4.58183L14.4725 4.07274L13.018 1.09092C12.7998 0.581834 11.9271 0.581834 11.7089 1.09092L10.2544 4.07274L6.9089 4.58183C6.61799 4.65456 6.3998 4.87274 6.32708 5.09092C6.25435 5.38183 6.32708 5.67274 6.54526 5.8182L8.94526 8.14547L8.36344 11.4909C8.29071 11.7818 8.43617 12.0727 8.65435 12.2182C8.87253 12.3637 9.16344 12.4364 9.45435 12.2909L12.4362 10.7637L15.418 12.2909C15.6362 12.4364 15.9271 12.3637 16.218 12.2182C16.4362 12.0727 16.5816 11.7818 16.5089 11.4909L15.9271 8.14547L18.2544 5.8182C18.3998 5.67274 18.4725 5.38183 18.3998 5.09092ZM14.5453 7.4182C14.3998 7.56365 14.3271 7.85456 14.3271 8.07274L14.6907 10.3273L12.6544 9.23638C12.5816 9.16365 12.4362 9.16365 12.2907 9.16365C12.1453 9.16365 12.0725 9.16365 11.9271 9.23638L9.89071 10.2546L10.2544 8.00001C10.3271 7.78183 10.1816 7.49092 10.0362 7.34547L8.58162 5.8182L10.8362 5.52729C11.0543 5.52729 11.2725 5.30911 11.418 5.16365L12.3634 3.05456L13.3816 5.09092C13.4544 5.30911 13.6725 5.45456 13.9634 5.45456L16.1453 5.8182L14.5453 7.4182Z"
                      fill="#C7C7CC"
                    />
                    <path
                      d="M2.25 20C2.25 18.7574 3.25736 17.75 4.5 17.75H8.75V23.25H2.25V20Z"
                      stroke="#C7C7CC"
                      stroke-width="1.5"
                    />
                    <path
                      d="M8.75 17C8.75 15.7574 9.75736 14.75 11 14.75H13C14.2426 14.75 15.25 15.7574 15.25 17V23.25H8.75V17Z"
                      stroke="#C7C7CC"
                      stroke-width="1.5"
                    />
                    <path
                      d="M15.25 19.25H19.5C20.7426 19.25 21.75 20.2574 21.75 21.5V23.25H15.25V19.25Z"
                      stroke="#C7C7CC"
                      stroke-width="1.5"
                    />
                  </svg>