<svg
                    xmlns="http://www.w3.org/2000/svg"
                    width="24"
                    height="24"
                    viewBox="0 0 24 24"
                    fill="none"
                  >
                    <path
                      d="M12 22C17.5228 22 22 17.5228 22 12C22 6.47715 17.5228 2 12 2C6.47715 2 2 6.47715 2 12C2 17.5228 6.47715 22 12 22Z"
                      stroke="#C7C7CC"
                      stroke-width="1.5"
                      stroke-miterlimit="10"
                      stroke-linecap="round"
                      stroke-linejoin="round"
                    />
                    <path
                      d="M7.00338 10.2972L7.79249 7.33435C7.80219 7.296 7.83491 7.26879 7.8737 7.26508L10.8798 7.00034C10.9089 6.99786 10.938 7.009 10.9574 7.0325L12.5393 8.86093L13.9587 7.14384C13.9781 7.12034 14.0072 7.10797 14.0375 7.11044L16.9151 7.3727C16.9624 7.37765 17 7.41848 17 7.46672V16.5928C17 16.641 16.9636 16.6818 16.9176 16.6868L14.0387 16.9961C13.9842 17.0023 13.9369 16.959 13.9369 16.902L13.909 12.3446L12.7405 13.7079C12.6605 13.8006 12.5199 13.8056 12.435 13.7165L11.0338 12.2629V16.9058C11.0338 16.9602 10.9877 17.0035 10.9344 16.9998L7.73552 16.766C7.68703 16.7623 7.64824 16.7202 7.64946 16.6695L7.75491 10.5335L7.07611 10.4135C7.02277 10.4061 6.98883 10.3504 7.00338 10.2972Z"
                      fill="#C7C7CC"
                    />
                  </svg>