<svg
                    xmlns="http://www.w3.org/2000/svg"
                    width="24"
                    height="24"
                    viewBox="0 0 24 24"
                    fill="none"
                  >
                    <path
                      d="M15.4301 22H8.56988C5.13976 22 4 19.5059 4 17V7C4 3.24703 5.13976 2 8.56988 2H15.4301C18.8602 2 20 3.24703 20 7V17C20 20.753 18.8494 22 15.4301 22Z"
                      stroke="#C7C7CC"
                      stroke-width="1.5"
                      stroke-linecap="round"
                      stroke-linejoin="round"
                    />
                    <path
                      fill-rule="evenodd"
                      clip-rule="evenodd"
                      d="M8.63895 12.6787L12 16L15.3611 12.6787C15.5634 12.4798 15.7241 12.2426 15.8338 11.9809C15.9435 11.7192 16 11.4383 16 11.1545C16 10.8708 15.9435 10.5899 15.8338 10.3282C15.7241 10.0665 15.5634 9.82931 15.3611 9.63039C15.1312 9.40465 14.8546 9.23214 14.5507 9.12507C14.2469 9.01799 13.9232 8.97895 13.6026 9.01072C13.2999 9.04072 13.0068 9.13317 12.7419 9.28202C12.7263 9.29078 12.7108 9.29974 12.6954 9.3089C12.4185 9.47352 12.1811 9.69696 12 9.96343C11.8189 9.69696 11.5815 9.47352 11.3046 9.3089C11.2892 9.29974 11.2737 9.29078 11.2581 9.28202C10.9932 9.13317 10.7001 9.04072 10.3974 9.01072C10.0768 8.97895 9.75312 9.01799 9.44927 9.12507C9.14543 9.23214 8.8688 9.40465 8.63895 9.63039C8.43661 9.82931 8.2759 10.0665 8.1662 10.3282C8.0565 10.5899 8 10.8708 8 11.1545C8 11.4383 8.0565 11.7192 8.1662 11.9809C8.2759 12.2426 8.43661 12.4798 8.63895 12.6787ZM14.6604 10.3439C14.535 10.2207 14.3841 10.1266 14.2184 10.0682C14.0526 10.0098 13.8761 9.98852 13.7012 10.0058C13.5264 10.0232 13.3575 10.0787 13.2064 10.1685C13.0554 10.2583 12.9259 10.3802 12.8271 10.5255L12 11.7425L11.1729 10.5255C11.0741 10.3802 10.9446 10.2583 10.7936 10.1685C10.6425 10.0787 10.4736 10.0232 10.2988 10.0058C10.1239 9.98852 9.94737 10.0098 9.78164 10.0682C9.61591 10.1266 9.46503 10.2207 9.33965 10.3439C9.23215 10.4496 9.14675 10.5757 9.08844 10.7148C9.03006 10.8541 9 11.0035 9 11.1545C9 11.3055 9.03007 11.455 9.08844 11.5943C9.14681 11.7335 9.23233 11.8597 9.33999 11.9656L9.34184 11.9674L12 14.5941L14.66 11.9656C14.7677 11.8597 14.8532 11.7335 14.9116 11.5943C14.9699 11.455 15 11.3055 15 11.1545C15 11.0035 14.9699 10.8541 14.9116 10.7148C14.8532 10.5757 14.7679 10.4496 14.6604 10.3439Z"
                      fill="#C7C7CC"
                    />
                    <circle cx="16" cy="6" r="1" fill="#C7C7CC" />
                    <circle cx="8" cy="18" r="1" fill="#C7C7CC" />
                  </svg>