<svg width="512" height="512" viewBox="0 0 512 512" fill="none" xmlns="http://www.w3.org/2000/svg">
<rect width="512" height="512" rx="20" fill="url(#paint0_linear_35488_199239)"/>
<g filter="url(#filter0_di_35488_199239)">
<path d="M425.023 108.531C425.023 117.021 423.338 126.094 419.903 132.316L302.537 417.661C293.464 439.242 278.17 450 256.006 450C233.906 450 218.547 439.242 209.474 417.661L92.1085 132.38C88.6738 126.159 86.9888 117.086 86.9888 108.596C86.9888 81.9606 107.403 62.0648 135.205 62.0648C156.203 62.0648 172.08 73.9893 181.153 97.2551L256.006 283.835L330.858 97.1902C339.931 73.9245 355.809 62 376.806 62C404.608 62.0648 425.023 81.8958 425.023 108.531Z" fill="url(#paint1_linear_35488_199239)"/>
</g>
<defs>
<filter id="filter0_di_35488_199239" x="72.7235" y="62" width="366.564" height="416.531" filterUnits="userSpaceOnUse" color-interpolation-filters="sRGB">
<feFlood flood-opacity="0" result="BackgroundImageFix"/>
<feColorMatrix in="SourceAlpha" type="matrix" values="0 0 0 0 0 0 0 0 0 0 0 0 0 0 0 0 0 0 127 0" result="hardAlpha"/>
<feOffset dy="14.2653"/>
<feGaussianBlur stdDeviation="7.13266"/>
<feComposite in2="hardAlpha" operator="out"/>
<feColorMatrix type="matrix" values="0 0 0 0 0 0 0 0 0 0 0 0 0 0 0 0 0 0 0.15 0"/>
<feBlend mode="normal" in2="BackgroundImageFix" result="effect1_dropShadow_35488_199239"/>
<feBlend mode="normal" in="SourceGraphic" in2="effect1_dropShadow_35488_199239" result="shape"/>
<feColorMatrix in="SourceAlpha" type="matrix" values="0 0 0 0 0 0 0 0 0 0 0 0 0 0 0 0 0 0 127 0" result="hardAlpha"/>
<feOffset dy="14.2653"/>
<feGaussianBlur stdDeviation="7.13266"/>
<feComposite in2="hardAlpha" operator="arithmetic" k2="-1" k3="1"/>
<feColorMatrix type="matrix" values="0 0 0 0 0.857917 0 0 0 0 1 0 0 0 0 0.770833 0 0 0 0.25 0"/>
<feBlend mode="normal" in2="shape" result="effect2_innerShadow_35488_199239"/>
</filter>
<linearGradient id="paint0_linear_35488_199239" x1="0" y1="0" x2="594.516" y2="127.629" gradientUnits="userSpaceOnUse">
<stop stop-color="#005733"/>
<stop offset="1" stop-color="#039E41"/>
</linearGradient>
<linearGradient id="paint1_linear_35488_199239" x1="86.9888" y1="-26.8145" x2="1984.96" y2="530.161" gradientUnits="userSpaceOnUse">
<stop stop-color="#7BD008"/>
<stop offset="1" stop-color="#A4DD06"/>
</linearGradient>
</defs>
</svg>
