<svg width="81" height="32" viewBox="0 0 81 32" fill="none" xmlns="http://www.w3.org/2000/svg">
<path d="M29.7238 12.7985H29.3153L31.7596 9.2605C31.5311 9.08013 31.2956 8.91364 31.0533 8.76102L31.1364 8.82345L28.2628 12.7222H27.7643L25.8463 15.3583L23.9906 12.7291C23.7551 12.7291 22.8204 12.7222 22.0864 12.7222L24.8838 16.7111L22.211 20.4086H22.6196L20.1753 23.9535C20.4938 24.2102 20.8262 24.4391 21.1724 24.6542C21.1308 24.6264 21.0893 24.5987 21.0477 24.564L20.9577 24.4946L23.679 20.4919H24.1844L26.1024 17.8557L27.9581 20.4849C28.1936 20.4849 29.1283 20.4919 29.8623 20.4919L27.0649 16.503L29.7238 12.7985Z" fill="#ECE9EB"/>
<path d="M32.0088 9.427C31.988 9.40619 31.9534 9.37844 31.8842 9.316L31.7803 9.23276L29.3153 12.7985H29.7238L27.051 16.496L29.8484 20.4849C29.1075 20.4849 28.1797 20.4849 27.9443 20.478L26.0886 17.8488L24.1705 20.4849H23.6651L20.9438 24.4877L21.0339 24.5571C22.1833 25.4034 24.2606 26 26.0747 26C31.2194 26 35.4017 21.8099 35.4017 16.6556C35.4086 13.9431 34.1692 11.307 32.0088 9.427Z" fill="url(#paint0_linear_17706_133300)"/>
<path d="M31.0396 8.7402C29.8486 7.86611 27.619 7.20013 25.8533 7.20013C20.7086 7.20707 16.5264 11.3972 16.5264 16.5446C16.5264 19.264 17.7658 21.9001 19.9331 23.7801C19.9539 23.8009 19.9885 23.8286 20.0577 23.8911L20.1616 23.9743L22.6197 20.4086H22.2112L24.8839 16.7111L22.0865 12.7152C22.8274 12.7152 23.7553 12.7152 23.9907 12.7222L25.8464 15.3514L27.7644 12.7152H28.263L31.1365 8.81651L31.0396 8.7402Z" fill="url(#paint1_linear_17706_133300)"/>
<path opacity="0.2" d="M29.7793 12.6181H30.0771L27.3005 16.4682C27.2866 16.4891 27.2866 16.5168 27.3005 16.5376L30.1948 20.6722H30.0771C28.2768 20.6722 27.889 20.6722 27.8406 20.6583L27.8267 20.6375L26.1303 18.2372C26.1164 18.2234 26.1026 18.2095 26.0818 18.2095C26.061 18.2095 26.0472 18.2164 26.0333 18.2372L24.2607 20.6791H23.7899C23.7691 20.6791 23.7483 20.6861 23.7414 20.7069L21.2279 24.4114C21.2071 24.4391 21.214 24.4738 21.2417 24.4946C22.3912 25.2924 24.3369 25.8335 26.0818 25.8335C31.1226 25.8335 35.2287 21.7267 35.2287 16.6694C35.2287 14.0055 34.0101 11.411 31.8774 9.56571L31.8635 9.55184C31.8497 9.5449 31.8358 9.53796 31.822 9.53796H31.8151C31.8012 9.53796 31.7805 9.55184 31.7735 9.56571L29.7309 12.521C29.717 12.5418 29.717 12.5626 29.724 12.5834C29.7378 12.6042 29.7516 12.6181 29.7793 12.6181ZM29.7793 12.5557L31.8289 9.58652L31.8428 9.6004C33.9547 11.4388 35.1733 14.0125 35.1733 16.6625C35.1733 21.6781 31.095 25.7641 26.0887 25.7641C24.3646 25.7641 22.4119 25.223 21.2833 24.4391L23.7968 20.7346H24.2953L26.0887 18.2719L27.7852 20.6791L27.8129 20.7069C27.8475 20.7346 27.8475 20.7346 30.084 20.7346H30.3125L27.3489 16.5029L30.1948 12.5557H29.7793Z" fill="black"/>
<path opacity="0.2" d="M20.1059 23.6829H20.1128C20.1266 23.6829 20.1474 23.6691 20.1543 23.6552L22.2039 20.6861C22.2178 20.6652 22.2178 20.6444 22.2108 20.6236C22.197 20.6028 22.1831 20.5889 22.1554 20.5889H21.8577L24.6343 16.7388C24.6482 16.718 24.6482 16.6902 24.6343 16.6694L21.74 12.5348H21.8577C23.658 12.5348 24.0458 12.5348 24.0942 12.5487L24.1081 12.5695L25.8045 14.9698C25.8184 14.9837 25.8322 14.9975 25.853 14.9975C25.8738 14.9975 25.8876 14.9906 25.9015 14.9698L27.6741 12.5279H28.1449C28.1657 12.5279 28.1795 12.521 28.1934 12.5001L30.8523 8.89279C30.8592 8.87891 30.8661 8.86504 30.8661 8.84423C30.8661 8.82341 30.8523 8.81648 30.8384 8.8026C29.6613 7.98401 27.5148 7.37354 25.853 7.37354C20.8052 7.38741 16.7061 11.4942 16.7061 16.5445C16.7061 19.2084 17.9247 21.8029 20.0505 23.6482L20.0643 23.6621C20.0782 23.676 20.092 23.6829 20.1059 23.6829ZM20.1059 23.6205L20.092 23.6066C17.9801 21.7683 16.7614 19.1946 16.7614 16.5445C16.7614 11.5289 20.8398 7.44291 25.8461 7.44291C27.494 7.44291 29.6336 8.06032 30.7969 8.86504L28.138 12.4724H27.6394L25.8461 14.9351L24.1496 12.5279L24.1219 12.5001C24.0873 12.4724 24.0873 12.4724 21.8508 12.4724H21.6223L24.5859 16.7041L21.74 20.6514H22.1554L20.1059 23.6205Z" fill="black"/>
<path d="M32.0088 9.427C31.988 9.40619 31.9534 9.37844 31.8842 9.316L31.7803 9.23276L29.3153 12.7985H29.7238L27.051 16.496L29.8484 20.4849C29.1075 20.4849 28.1797 20.4849 27.9443 20.478L26.0886 17.8488L24.1705 20.4849H23.6651L20.9438 24.4877L21.0339 24.5571C22.1833 25.4034 24.2606 26 26.0747 26C31.2194 26 35.4017 21.8099 35.4017 16.6556C35.4086 13.9431 34.1692 11.307 32.0088 9.427Z" fill="url(#paint2_linear_17706_133300)"/>
<path d="M22.2112 20.4089L24.8839 16.7113L22.0865 12.7155C22.8274 12.7155 23.7553 12.7155 23.9907 12.7224L25.8464 15.3516L27.7644 12.7155H28.263L31.1365 8.81677L31.0396 8.7474C29.8486 7.87331 27.619 7.20734 25.8533 7.20734C20.7086 7.20734 16.5264 11.3974 16.5264 16.5448C16.5264 19.2642 17.7658 21.9004 19.9331 23.7804C19.9539 23.8012 19.9885 23.8289 20.0577 23.8913L20.1616 23.9746L22.6197 20.4089H22.2112Z" fill="url(#paint3_linear_17706_133300)"/>
<path d="M21.5392 19.9716H19.4966V14.2345C19.4966 13.8183 19.275 13.6101 18.8249 13.6101H18.3887V12.8193H20.0159C21.0268 12.8193 21.5392 13.3396 21.5392 14.3871V19.9716Z" fill="black"/>
<path d="M34.2594 19.9785H29.9595V18.1263C29.9595 17.7378 30.188 17.3354 30.645 16.9192L31.9121 15.9341C32.3968 15.5317 32.6392 15.2196 32.6392 15.0114V14.1651C32.6392 13.8668 32.4522 13.7142 32.0852 13.7142C31.7667 13.7142 31.6074 13.8529 31.6074 14.1443L31.6005 14.7825L29.9664 15.9757L29.9595 14.5744C29.9595 13.4298 30.6727 12.854 32.0921 12.854C33.5393 12.854 34.2594 13.298 34.2594 14.1859V15.2404C34.2594 15.6011 34.0309 15.9827 33.567 16.3711L32.2999 17.3424C31.8429 17.7378 31.6144 18.1193 31.6144 18.4801L31.6213 18.9865L34.2525 18.9934L34.2594 19.9785Z" fill="black"/>
<path d="M21.4771 19.9091H19.4414V14.172C19.4414 13.7558 19.2198 13.5477 18.7697 13.5477H18.3335V12.7568H19.9607C20.9716 12.7568 21.484 13.2771 21.484 14.3246V19.9091H21.4771Z" fill="url(#paint4_linear_17706_133300)"/>
<path d="M34.1969 19.916H29.897V18.0638C29.897 17.6753 30.1255 17.2729 30.5825 16.8567L31.8496 15.8716C32.3343 15.4693 32.5767 15.1571 32.5767 14.949V14.1026C32.5767 13.8043 32.3897 13.6517 32.0227 13.6517C31.7042 13.6517 31.5449 13.7905 31.5449 14.0818L31.538 14.7201L29.9039 15.9133L29.897 14.5119C29.897 13.3673 30.6102 12.7915 32.0296 12.7915C33.4768 12.7915 34.1969 13.2355 34.1969 14.1234V15.1779C34.1969 15.5386 33.9684 15.9202 33.5045 16.3087L32.2374 17.2799C31.7804 17.6753 31.5519 18.0569 31.5519 18.4176L31.5588 18.924L34.19 18.9309L34.1969 19.916Z" fill="url(#paint5_linear_17706_133300)"/>
<path d="M21.4562 19.701V14.3247C21.4562 13.3118 20.9438 12.8332 19.9606 12.8332H18.3403V13.5963H18.7696C19.2474 13.5963 19.5175 13.7281 19.5175 14.179V19.701H21.4562Z" fill="url(#paint6_linear_17706_133300)"/>
<path d="M29.9939 15.7329L31.448 14.6715L31.4549 14.0749C31.4549 13.7419 31.6904 13.5615 32.0573 13.5615C32.5905 13.5615 32.7359 13.8529 32.7359 14.1026V14.949C32.7359 15.1918 32.452 15.5178 31.9396 15.941L30.6794 16.9261C30.2501 17.3215 30.0355 17.71 30.0355 18.0707V19.7079H34.1L34.0931 18.9518L31.5449 18.9795L31.4549 18.9934V18.9101L31.448 18.4107C31.448 18.0222 31.6904 17.6129 32.1612 17.2036L33.4422 16.2254C33.8784 15.8578 34.1138 15.504 34.1138 15.171V14.1165C34.1138 13.2841 33.4214 12.8748 32.0227 12.8748C30.6517 12.8748 29.9731 13.4089 29.9731 14.505L29.9939 15.7329Z" fill="url(#paint7_linear_17706_133300)"/>
<path opacity="0.5" d="M40.2416 13.7003C39.9578 13.2979 39.5354 13.0967 38.9745 13.0967C37.7143 13.0967 36.8003 14.1651 36.8003 15.6288C36.8003 17.0024 37.6451 17.9667 38.836 17.9667C39.3484 17.9667 39.8054 17.7724 40.0824 17.4256V17.6198C40.0824 18.6604 39.3415 18.813 38.9053 18.813C38.3582 18.813 37.8528 18.6326 37.562 18.4661L37.5066 18.4384L37.195 19.6455L37.2227 19.6593C37.6381 19.8883 38.2752 20.0201 38.933 20.0201C39.7639 20.0201 40.4148 19.8189 40.8648 19.4304C41.3634 18.9934 41.5988 18.3066 41.5988 17.2799V14.6645C41.5988 13.9708 41.6126 13.5685 41.6334 13.2493V13.1869H40.2763L40.2416 13.7003ZM39.2723 16.7943C38.7322 16.7943 38.3652 16.3087 38.3652 15.5872C38.3652 14.8172 38.7322 14.2969 39.2792 14.2969C39.6462 14.2969 39.9301 14.5189 40.0408 14.9073C40.0616 14.9906 40.0824 15.0808 40.0824 15.164V15.8577C40.0824 16.0173 40.0547 16.1491 40.0201 16.2393C39.9301 16.5723 39.6185 16.7943 39.2723 16.7943ZM45.968 16.822V15.1779C45.968 13.8113 45.241 13.0898 43.863 13.0898C42.859 13.0898 42.1943 13.4158 42.0143 13.5199L41.9796 13.5407L42.2774 14.5744L42.3258 14.5397C42.6028 14.3662 43.1221 14.1928 43.6138 14.1928C44.2854 14.1928 44.4377 14.505 44.4377 14.7617V14.7755C42.6374 14.7894 41.668 15.4415 41.668 16.6208C41.668 17.3423 42.2081 18.1123 43.226 18.1123C43.7799 18.1123 44.2508 17.932 44.5624 17.5782L44.6385 18.036H46.0511L46.0442 17.9667C45.9888 17.7447 45.968 17.3354 45.968 16.822ZM43.7176 16.9885C43.3853 16.9885 43.1775 16.7943 43.1775 16.4752C43.1775 16.0242 43.6138 15.7884 44.4447 15.7814V16.2462C44.4447 16.3295 44.4447 16.4127 44.4239 16.4821C44.3339 16.7735 44.0361 16.9885 43.7176 16.9885ZM53.5154 15.1848V18.036H51.9921V15.3999C51.9921 14.7131 51.7774 14.3662 51.3481 14.3662C50.9327 14.3662 50.7665 14.6992 50.7111 14.8449C50.6834 14.949 50.6696 15.0877 50.6696 15.2056V18.036H49.1462V15.3097C49.1462 14.9559 49.0701 14.3662 48.5161 14.3662C48.1768 14.3662 47.9691 14.6229 47.8791 14.8588C47.8306 14.9767 47.8306 15.1155 47.8306 15.2195V18.036H46.3073V14.7547C46.3073 14.1859 46.2865 13.6795 46.2657 13.2424V13.18H47.5952L47.6506 13.7835C47.8929 13.4505 48.3222 13.0967 49.0631 13.0967C49.6586 13.0967 50.1433 13.3881 50.3649 13.8737C50.5449 13.6378 50.7388 13.4575 50.9604 13.3326C51.2443 13.173 51.5489 13.0967 51.8744 13.0967C52.9061 13.0898 53.5154 13.8737 53.5154 15.1848ZM53.8616 13.18H55.385V18.036H53.8616V13.18ZM55.4542 11.9452C55.4542 12.403 55.1149 12.7221 54.6233 12.7221C54.1594 12.7221 53.8201 12.3961 53.8201 11.9452C53.8201 11.4942 54.1663 11.1682 54.6441 11.1682C55.1149 11.1682 55.4404 11.4804 55.4542 11.9452ZM60.3012 15.1779V18.036H58.7779V15.3513C58.7779 14.7062 58.5355 14.3732 58.0785 14.3732C57.6215 14.3732 57.4276 14.7339 57.3653 14.8935C57.3376 14.9698 57.3238 15.0808 57.3238 15.2403V18.0291H55.7312V14.7478C55.7312 14.1789 55.7312 13.6725 55.7104 13.2355L55.7243 13.173H57.0814L57.1437 13.7974C57.3099 13.5685 57.7531 13.0967 58.584 13.0967C59.6642 13.1037 60.3012 13.8806 60.3012 15.1779ZM63.8949 13.18L63.8533 13.7003C63.5694 13.2979 63.1471 13.0967 62.5862 13.0967C61.326 13.0967 60.412 14.1651 60.412 15.6288C60.412 17.0024 61.2567 17.9667 62.4546 17.9667C62.967 17.9667 63.431 17.7724 63.7079 17.4256V17.6198C63.7079 18.6604 62.967 18.813 62.5239 18.813C61.9769 18.813 61.4714 18.6326 61.1806 18.4661L61.1252 18.4384L60.8136 19.6455L60.8413 19.6593C61.2567 19.8883 61.8938 20.0201 62.5516 20.0201C63.3825 20.0201 64.0403 19.8189 64.4904 19.4304C64.9889 18.9934 65.2313 18.3066 65.2313 17.2799V14.6645C65.2313 13.9708 65.2451 13.5685 65.2659 13.2493V13.1869L63.8949 13.18ZM62.877 16.7943C62.3369 16.7943 61.9699 16.3087 61.9699 15.5872C61.9699 14.8172 62.3369 14.2969 62.8839 14.2969C63.2509 14.2969 63.5071 14.5189 63.611 14.9073C63.6318 14.9906 63.6248 15.0808 63.6248 15.164V15.8577C63.6248 16.0173 63.6248 16.1491 63.5971 16.2393C63.5002 16.5723 63.2232 16.7943 62.877 16.7943Z" fill="black"/>
<path d="M40.1586 13.5546C39.8747 13.1523 39.4524 12.9511 38.8915 12.9511C37.6313 12.9511 36.7173 14.0194 36.7173 15.4832C36.7173 16.8567 37.569 17.821 38.7669 17.821C39.2793 17.821 39.7432 17.6268 40.0202 17.2799V17.4741C40.0202 18.5147 39.2723 18.6673 38.8292 18.6673C38.2822 18.6673 37.7698 18.487 37.479 18.3205L37.4236 18.2927L37.112 19.4998L37.1397 19.5137C37.5551 19.7426 38.1921 19.8744 38.85 19.8744C39.6809 19.8744 40.3456 19.6732 40.7887 19.2848C41.2873 18.8477 41.5366 18.1609 41.5366 17.1342V14.5189C41.5366 13.8252 41.5435 13.4297 41.5643 13.1106L41.5573 13.0551H40.2002L40.1586 13.5546ZM39.1823 16.6486C38.6422 16.6486 38.2752 16.163 38.2752 15.4415C38.2752 14.6715 38.6422 14.1512 39.1892 14.1512C39.5562 14.1512 39.847 14.3732 39.9578 14.7617C39.9786 14.8449 40.0063 14.9351 40.0063 15.0184V15.7121C40.0063 15.8716 39.9648 16.0035 39.9371 16.0936C39.847 16.4266 39.5285 16.6486 39.1823 16.6486ZM45.8988 16.6764V15.0322C45.8988 13.6656 45.1579 12.9441 43.7869 12.9441C42.7829 12.9441 42.1113 13.2702 41.9312 13.3742L41.8966 13.3951L42.1874 14.4287L42.2359 14.394C42.5129 14.2206 43.0391 14.0472 43.5307 14.0472C44.2024 14.0472 44.3617 14.3593 44.3617 14.616V14.6299C42.5614 14.6438 41.5781 15.2959 41.5781 16.4752C41.5781 17.1967 42.1113 17.9667 43.1291 17.9667C43.6831 17.9667 44.147 17.7933 44.4655 17.4395L44.5417 17.9043H45.9542V17.8279C45.9127 17.599 45.8988 17.1828 45.8988 16.6764ZM43.6346 16.8429C43.3022 16.8429 43.1014 16.6486 43.1014 16.3295C43.1014 15.8786 43.5446 15.6427 44.3755 15.6358V16.1006C44.3755 16.1838 44.3686 16.2671 44.3478 16.3364C44.2509 16.6278 43.9531 16.8429 43.6346 16.8429ZM53.4463 15.0392V17.8973H51.9229V15.2473C51.9229 14.5605 51.7083 14.2137 51.279 14.2137C50.8635 14.2137 50.6973 14.5466 50.6419 14.6923C50.6143 14.7964 50.6073 14.9351 50.6073 15.0531V17.8904H49.084V15.1571C49.084 14.8033 49.0009 14.2137 48.447 14.2137C48.1077 14.2137 47.893 14.4703 47.8099 14.7062C47.7615 14.8241 47.7684 14.9629 47.7684 15.0669V17.8973H46.2451V14.6021C46.2451 14.0333 46.2174 13.5338 46.1966 13.0968L46.1827 13.0413H47.5122L47.5676 13.6379C47.8099 13.3049 48.2392 12.9441 48.9801 12.9441C49.5756 12.9441 50.0603 13.2355 50.2888 13.7211C50.4688 13.4852 50.6696 13.3049 50.8843 13.18C51.1682 13.0205 51.4729 12.9441 51.8052 12.9441C52.8231 12.9441 53.4463 13.728 53.4463 15.0392ZM53.7925 13.0413H55.3158V17.8973H53.7925V13.0413ZM55.3643 11.7926C55.3643 12.2504 55.025 12.5695 54.5334 12.5695C54.0695 12.5695 53.7302 12.2435 53.7302 11.7926C53.7302 11.3416 54.0764 11.0156 54.5541 11.0156C55.025 11.0156 55.3574 11.3278 55.3643 11.7926ZM60.232 15.0253V17.8973H58.7087V15.1987C58.7087 14.5536 58.4663 14.2206 58.0024 14.2206C57.5454 14.2206 57.3446 14.5813 57.2823 14.7409C57.2546 14.8172 57.2477 14.9282 57.2477 15.0877V17.8904H55.6551V14.6021C55.6551 14.0333 55.6413 13.5338 55.6274 13.0968L55.6343 13.0413H56.9915L57.0538 13.6587C57.22 13.4297 57.6631 12.9511 58.501 12.9511C59.5812 12.9511 60.232 13.728 60.232 15.0253ZM63.8049 13.0413L63.7634 13.5546C63.4795 13.1523 63.0571 12.9511 62.4963 12.9511C61.2361 12.9511 60.322 14.0194 60.322 15.4832C60.322 16.8567 61.1737 17.821 62.3716 17.821C62.884 17.821 63.3549 17.6268 63.6318 17.2799V17.4741C63.6318 18.5147 62.8771 18.6673 62.4409 18.6673C61.8939 18.6673 61.3815 18.487 61.0906 18.3205L61.0352 18.2927L60.7237 19.4998L60.7514 19.5137C61.1668 19.7426 61.8038 19.8744 62.4616 19.8744C63.2926 19.8744 63.9573 19.6732 64.4074 19.2848C64.9059 18.8477 65.1552 18.1609 65.1552 17.1342V14.5189C65.1552 13.8252 65.1621 13.4297 65.1829 13.1106L65.1759 13.0551H63.8049V13.0413ZM62.794 16.6486C62.2539 16.6486 61.8869 16.163 61.8869 15.4415C61.8869 14.6715 62.2539 14.1512 62.8009 14.1512C63.1679 14.1512 63.431 14.3732 63.5349 14.7617C63.5557 14.8449 63.5557 14.9351 63.5557 15.0184V15.7121C63.5557 15.8716 63.5487 16.0035 63.5211 16.0936C63.4241 16.4266 63.1402 16.6486 62.794 16.6486Z" fill="url(#paint8_linear_17706_133300)"/>
<path d="M40.6643 19.1737C41.1282 18.7645 41.329 18.1193 41.329 17.1273V14.5119C41.329 13.8945 41.3844 13.5269 41.4052 13.2494H40.3319L40.2973 13.6032C40.2904 13.6587 40.2488 13.7003 40.1934 13.7142H40.1588C40.1173 13.7142 40.0688 13.6933 40.048 13.6517C39.7918 13.2841 39.4041 13.0967 38.8917 13.0967C37.7076 13.0967 36.856 14.1026 36.856 15.4832C36.856 16.7735 37.6315 17.6753 38.7463 17.6753C39.2171 17.6753 39.6326 17.4949 39.8749 17.1828C39.9026 17.1481 39.9442 17.1273 39.9857 17.1273C39.9996 17.1273 39.9996 17.1273 40.0134 17.1342C40.0688 17.155 40.0896 17.2036 40.0896 17.266V17.4603C40.0896 18.6673 39.1894 18.7922 38.7947 18.7922C38.2824 18.7922 37.8184 18.6396 37.4999 18.48L37.2645 19.4096C37.6592 19.6039 38.2408 19.7218 38.8363 19.7218C39.6326 19.7287 40.2419 19.5414 40.6643 19.1737ZM40.0411 16.1352C39.9303 16.5237 39.5841 16.7873 39.1756 16.7873C38.5524 16.7873 38.1369 16.2462 38.1369 15.4415C38.1369 14.5882 38.5593 14.0125 39.1964 14.0125C39.6257 14.0125 39.958 14.2761 40.0827 14.727L40.0688 14.7339C40.0965 14.8519 40.0896 14.942 40.0896 15.0253V15.719C40.0827 15.8716 40.0827 16.0173 40.0411 16.1352ZM44.6111 17.4464L44.6734 17.8279H45.7952C45.7536 17.5504 45.6913 17.1342 45.6913 16.6764V15.0322C45.6913 13.7419 45.0473 13.0829 43.7525 13.0829C42.887 13.0829 42.2915 13.3396 42.0491 13.4575L42.2707 14.2136C42.5754 14.0541 43.0324 13.9015 43.5032 13.9015C43.7871 13.9015 44.4449 13.9708 44.4449 14.6091V14.6229C44.4449 14.6992 44.4034 14.7617 44.3272 14.7617C42.1599 14.7756 41.7099 15.6982 41.7099 16.4682C41.7099 16.8082 41.8483 17.1411 42.0768 17.3909C42.2569 17.5851 42.5962 17.821 43.1363 17.821C43.6833 17.821 44.0987 17.6684 44.3757 17.3562C44.4034 17.3284 44.438 17.3076 44.4796 17.3076C44.4934 17.3076 44.5073 17.3215 44.5211 17.3215C44.5626 17.3423 44.6042 17.3909 44.6111 17.4464ZM44.4657 16.3642V16.3711C44.348 16.7249 44.0087 16.9747 43.6348 16.9747C43.2193 16.9747 42.9493 16.7041 42.9493 16.3087C42.9493 15.9341 43.1916 15.4623 44.3411 15.4623C44.3757 15.4623 44.3965 15.4901 44.4242 15.5109C44.4519 15.5386 44.4449 15.5872 44.4449 15.6219V16.0867C44.4449 16.1075 44.4657 16.1214 44.4657 16.1422C44.4657 16.2254 44.4865 16.2948 44.4657 16.3642ZM50.4829 14.6507C50.4829 14.6576 50.469 14.6576 50.469 14.6646C50.4413 14.7617 50.3998 14.9143 50.3998 15.06V17.8279H49.1534V15.164C49.1534 14.2206 48.6895 14.0818 48.4056 14.0818C48.0663 14.0818 47.7755 14.2969 47.637 14.6576C47.5885 14.7686 47.5608 14.9004 47.5608 15.0669V17.8279H46.3145V14.6021C46.3145 14.0749 46.3422 13.6656 46.3214 13.2494H47.3877L47.4293 13.6864C47.4362 13.7419 47.4778 13.7835 47.5331 13.7974H47.5678C47.6093 13.7974 47.6509 13.7766 47.6786 13.735C47.9902 13.2979 48.4264 13.0759 48.9803 13.0759C49.5204 13.0759 49.9497 13.3326 50.1574 13.7766C50.1782 13.8182 50.2198 13.8529 50.2682 13.8529H50.2821C50.3236 13.8529 50.3652 13.8321 50.3929 13.7974C50.566 13.5754 50.7322 13.4089 50.933 13.291C51.1961 13.1453 51.4661 13.069 51.7708 13.069C52.7125 13.069 53.2387 13.7835 53.2387 15.0253V17.8141H51.9924V15.2334C51.9924 14.6992 51.8747 14.061 51.2376 14.061C50.8845 14.0749 50.6214 14.283 50.4829 14.6507ZM55.1083 13.2494V17.8279H53.8619V13.2494H55.1083ZM55.226 11.7926C55.226 12.1741 54.949 12.4308 54.5336 12.4308C54.1389 12.4308 53.8688 12.1672 53.8688 11.7926C53.8688 11.4179 54.1527 11.1543 54.5543 11.1543C54.9559 11.1543 55.2191 11.411 55.226 11.7926ZM57.1163 14.6923C57.0748 14.7894 57.0471 14.9212 57.0471 15.0947V17.8279H55.7315V14.6021C55.7315 14.4842 55.7522 14.3871 55.7522 14.2691C55.7522 13.8807 55.773 13.5199 55.7592 13.2424H56.867L56.9086 13.7003C56.9155 13.7558 56.9571 13.7974 57.0124 13.8113H57.0471C57.0886 13.8113 57.1232 13.7905 57.1509 13.7488C57.331 13.4991 57.7256 13.0829 58.4665 13.0829C59.4636 13.0829 60.0245 13.7905 60.0245 15.0184V17.821H58.7781V15.1918C58.7781 14.2691 58.3419 14.0749 57.9611 14.0749C57.4071 14.0888 57.1717 14.5536 57.1163 14.6923ZM64.276 19.1737C64.7399 18.7645 64.9407 18.1124 64.9407 17.1273V14.5119C64.9407 13.8807 64.9961 13.5269 65.01 13.2494H63.9298L63.8952 13.6032C63.8882 13.6587 63.8467 13.7003 63.7913 13.7142H63.7567C63.7151 13.7142 63.6667 13.6933 63.6459 13.6517C63.3897 13.2841 63.0019 13.0967 62.4895 13.0967C61.3055 13.0967 60.4538 14.1026 60.4538 15.4832C60.4538 16.7735 61.2293 17.6753 62.351 17.6753C62.8219 17.6753 63.2373 17.4949 63.4866 17.1828C63.5143 17.1481 63.5559 17.1273 63.5974 17.1273C63.6113 17.1273 63.6113 17.1273 63.6251 17.1342C63.6805 17.155 63.7013 17.2036 63.7013 17.266V17.4603C63.7013 18.6673 62.8011 18.7922 62.4064 18.7922C61.894 18.7922 61.4301 18.6396 61.1116 18.48L60.8762 19.4096C61.2709 19.6039 61.8525 19.7218 62.448 19.7218C63.2373 19.7287 63.8536 19.5414 64.276 19.1737ZM63.6459 14.942C63.6459 14.9698 63.6251 14.9975 63.6251 15.0184V15.7121C63.6251 15.7468 63.6459 15.7745 63.6459 15.8023C63.6459 15.9271 63.6597 16.0381 63.6251 16.1352C63.5143 16.5307 63.1889 16.7873 62.7873 16.7873C62.1641 16.7873 61.7417 16.2462 61.7417 15.4415C61.7417 14.5882 62.1641 14.0125 62.7942 14.0125C63.2166 14.0125 63.5212 14.2622 63.6459 14.727L63.639 14.7339C63.6597 14.8033 63.6528 14.8796 63.6459 14.942Z" fill="url(#paint9_linear_17706_133300)"/>
<defs>
<linearGradient id="paint0_linear_17706_133300" x1="28.1798" y1="26.002" x2="28.1798" y2="7.07618" gradientUnits="userSpaceOnUse">
<stop stop-color="#4D4948"/>
<stop offset="1" stop-color="#9D9B9D"/>
</linearGradient>
<linearGradient id="paint1_linear_17706_133300" x1="23.8303" y1="25.9559" x2="23.8303" y2="7.20256" gradientUnits="userSpaceOnUse">
<stop stop-color="#192C1B"/>
<stop offset="1" stop-color="#008D39"/>
</linearGradient>
<linearGradient id="paint2_linear_17706_133300" x1="28.1798" y1="27.9865" x2="28.1798" y2="9.2331" gradientUnits="userSpaceOnUse">
<stop stop-color="white" stop-opacity="0"/>
<stop offset="1" stop-color="white" stop-opacity="0.3"/>
</linearGradient>
<linearGradient id="paint3_linear_17706_133300" x1="23.8303" y1="25.9562" x2="23.8303" y2="7.20283" gradientUnits="userSpaceOnUse">
<stop stop-color="white" stop-opacity="0"/>
<stop offset="1" stop-color="white" stop-opacity="0.3"/>
</linearGradient>
<linearGradient id="paint4_linear_17706_133300" x1="19.9047" y1="19.911" x2="19.9047" y2="12.7559" gradientUnits="userSpaceOnUse">
<stop stop-color="#A19E9C"/>
<stop offset="1" stop-color="#CCC9CA"/>
</linearGradient>
<linearGradient id="paint5_linear_17706_133300" x1="32.0475" y1="19.9187" x2="32.0475" y2="12.7857" gradientUnits="userSpaceOnUse">
<stop stop-color="#A19E9C"/>
<stop offset="1" stop-color="#CCC9CA"/>
</linearGradient>
<linearGradient id="paint6_linear_17706_133300" x1="19.8985" y1="19.701" x2="19.8985" y2="12.8332" gradientUnits="userSpaceOnUse">
<stop stop-color="#A19E9C"/>
<stop offset="1" stop-color="white"/>
</linearGradient>
<linearGradient id="paint7_linear_17706_133300" x1="32.0605" y1="19.701" x2="32.0605" y2="12.8759" gradientUnits="userSpaceOnUse">
<stop stop-color="#A19E9C"/>
<stop offset="1" stop-color="white"/>
</linearGradient>
<linearGradient id="paint8_linear_17706_133300" x1="50.942" y1="19.865" x2="50.942" y2="11.0185" gradientUnits="userSpaceOnUse">
<stop stop-color="#C6C3C2"/>
<stop offset="1" stop-color="#ECE9EB"/>
</linearGradient>
<linearGradient id="paint9_linear_17706_133300" x1="50.9304" y1="19.7263" x2="50.9304" y2="11.1572" gradientUnits="userSpaceOnUse">
<stop offset="0.2" stop-color="#C6C3C2" stop-opacity="0.4"/>
<stop offset="0.7" stop-color="white" stop-opacity="0.7"/>
</linearGradient>
</defs>
</svg>
