<svg width="60" height="32" viewBox="0 0 60 32" fill="none" xmlns="http://www.w3.org/2000/svg">
<path d="M19.1349 24.6003C18.9393 24.562 18.7394 24.5365 18.5479 24.4897C17.3406 24.192 16.2498 22.9886 16.0666 21.6874C15.9959 21.1729 16.0125 20.6414 16.0042 20.1183C15.9959 19.6378 16.0042 19.1573 16.0042 18.6683C17.0117 18.6683 17.9942 18.6683 19.01 18.6683C19.01 18.7406 19.01 18.8129 19.01 18.8894C19.01 19.6336 19.0142 20.3777 19.01 21.1219C19.01 21.3643 19.0475 21.5811 19.2931 21.6832C19.5679 21.798 19.851 21.8022 20.0717 21.5896C20.1716 21.4961 20.2215 21.3047 20.2257 21.1516C20.2424 20.501 20.234 19.8462 20.234 19.1956C20.234 18.4174 20.2424 17.635 20.2299 16.8568C20.2257 16.6612 20.1966 16.4614 20.13 16.2785C20.0384 16.0234 19.8011 15.9001 19.5471 15.9256C19.3265 15.9468 19.1599 16.0957 19.0933 16.3593C19.0558 16.4996 19.0434 16.6485 19.0184 16.8143C18.0275 16.8143 17.0325 16.8143 16.0208 16.8143C16.0208 13.6931 16.0208 10.5719 16.0208 7.44226C18.2981 7.44226 20.5713 7.44226 22.8652 7.44226C22.8652 8.47131 22.8652 9.50887 22.8652 10.5634C21.5455 10.5634 20.2299 10.5634 18.9018 10.5634C18.9018 11.3799 18.9018 12.1751 18.9018 12.9702C20.1799 12.443 21.6537 12.8597 22.6071 14.0206C23.1566 14.6839 23.4397 15.4408 23.4314 16.321C23.4189 17.8944 23.4314 19.4677 23.4272 21.0411C23.4231 22.4613 22.5405 23.8391 21.304 24.3196C20.9917 24.4429 20.6462 24.4854 20.3173 24.562C20.2424 24.579 20.1674 24.5917 20.0967 24.6045C19.7719 24.6003 19.4513 24.6003 19.1349 24.6003Z" fill="url(#paint0_linear_17715_123619)"/>
<path d="M36.222 5.12531C36.526 5.37619 36.6883 5.71637 36.8007 6.08207C36.909 6.43076 36.9839 6.7922 37.0755 7.17491C37.1546 7.1579 37.2504 7.14514 37.3336 7.11113C37.6542 6.9793 37.9748 6.84323 38.287 6.69865C38.516 6.59235 38.7117 6.63912 38.745 6.89426C38.7866 7.18767 38.7908 7.50234 38.7241 7.79149C38.5826 8.42083 38.1621 8.85031 37.6209 9.15648C36.9881 9.51367 36.297 9.654 35.5851 9.70077C34.6317 9.76456 33.6825 9.72203 32.7749 9.3776C32.0879 9.11821 31.5051 8.71424 31.2511 7.97434C31.1512 7.67668 31.1179 7.3365 31.1387 7.02183C31.1595 6.65188 31.376 6.57959 31.7008 6.73267C32.0713 6.91127 32.4585 7.0601 32.8207 7.21318C32.9414 6.75393 33.0288 6.34571 33.1579 5.9545C33.2287 5.74614 33.3536 5.54628 33.4785 5.36343C33.5451 5.26563 33.6658 5.2061 33.7574 5.12531C33.7699 5.12531 33.7865 5.12531 33.799 5.12531C33.899 5.18484 34.003 5.24012 34.103 5.3039C34.6109 5.61857 35.1313 5.64834 35.66 5.38044C35.8057 5.3039 35.9473 5.21035 36.0888 5.12531C36.1388 5.12531 36.1804 5.12531 36.222 5.12531ZM32.9081 7.18767C32.8415 7.70219 32.8831 7.81275 33.3328 7.97009C34.4402 8.3613 35.5518 8.35279 36.6509 7.93182C37.0547 7.77874 37.0922 7.66818 37.0172 7.18767C35.6558 7.6214 34.2861 7.62565 32.9081 7.18767Z" fill="black"/>
<path d="M26.0636 24.6008C25.9262 24.5413 25.7764 24.4987 25.6556 24.4137C25.3267 24.1798 25.1685 23.8439 25.1685 23.4314C25.1685 22.4109 25.1644 21.3903 25.1727 20.3698C25.1768 19.7064 25.5765 19.2812 26.2177 19.2259C27.0503 19.1494 27.5582 19.6214 27.5582 20.4761C27.5582 20.778 27.5582 21.0842 27.5582 21.3988C27.2127 21.3988 26.8838 21.3988 26.5299 21.3988C26.5299 21.0629 26.5299 20.7312 26.5299 20.3995C26.5299 20.272 26.5382 20.1444 26.3634 20.1401C26.201 20.1401 26.1885 20.2592 26.1885 20.391C26.1927 21.3988 26.1885 22.4024 26.1885 23.4102C26.1885 23.5377 26.1885 23.661 26.3592 23.6653C26.5299 23.6695 26.5674 23.5632 26.5674 23.4144C26.5632 23.1465 26.5674 22.8786 26.5674 22.598C26.5008 22.5852 26.4425 22.5725 26.3717 22.5554C26.3717 22.3726 26.3717 22.194 26.3717 21.9941C26.7589 21.9941 27.1502 21.9941 27.5457 21.9941C27.5457 22.8318 27.5457 23.6568 27.5457 24.4902C27.45 24.4902 27.3709 24.4902 27.2793 24.4902C27.2585 24.4307 27.2377 24.3627 27.2168 24.3116C27.0253 24.4052 26.838 24.4987 26.6506 24.5923C26.4508 24.6008 26.2551 24.6008 26.0636 24.6008Z" fill="black"/>
<path d="M42.0509 24.6006C41.8677 24.4986 41.6554 24.4263 41.5013 24.2902C41.2474 24.0691 41.1558 23.7587 41.1558 23.4142C41.1599 22.4192 41.1516 21.4199 41.1599 20.4249C41.1641 19.77 41.5305 19.3108 42.0925 19.2427C42.8793 19.1449 43.3373 19.4298 43.5205 20.1272C43.5246 20.1442 43.5413 20.1612 43.5538 20.1782C43.5538 20.5907 43.5538 20.9989 43.5538 21.4114C43.2166 21.4114 42.8793 21.4114 42.5213 21.4114C42.5213 21.0542 42.5171 20.7183 42.5213 20.3781C42.5213 20.2505 42.5088 20.1442 42.3548 20.1442C42.2049 20.1442 42.1799 20.2463 42.1799 20.3781C42.1799 21.3987 42.1799 22.4192 42.1799 23.4355C42.1799 23.5631 42.2049 23.6651 42.3548 23.6694C42.5088 23.6736 42.5588 23.5801 42.5588 23.4355C42.5546 23.1719 42.5588 22.9125 42.5546 22.6488C42.5546 22.6318 42.5421 22.6106 42.538 22.5935C42.4755 22.5765 42.4172 22.5638 42.3631 22.551C42.3631 22.3554 42.3631 22.1768 42.3631 21.9982C42.7711 21.9982 43.1624 21.9982 43.558 21.9982C43.558 22.8359 43.558 23.6694 43.558 24.5071C43.4122 24.4816 43.1999 24.5709 43.2124 24.3072C43.0167 24.405 42.8294 24.4986 42.642 24.5921C42.438 24.6006 42.2424 24.6006 42.0509 24.6006Z" fill="black"/>
<path d="M29.3453 7.43024C29.745 7.43024 30.1238 7.43024 30.5193 7.43024C30.5485 7.58332 30.5693 7.7364 30.6109 7.88523C30.8191 8.69317 31.3187 9.26723 32.0139 9.66694C32.118 9.72647 32.168 9.7775 32.168 9.90507C32.1638 12.8009 32.1638 15.7009 32.1638 18.5968C32.1638 18.6435 32.1555 18.6946 32.1513 18.7541C31.5268 18.7541 30.9148 18.7541 30.282 18.7541C30.282 16.7172 30.282 14.6804 30.282 12.6435C30.2654 12.6435 30.2487 12.6393 30.2321 12.6393C29.9948 14.6719 29.7533 16.7087 29.516 18.7541C28.9623 18.7541 28.4252 18.7541 27.859 18.7541C27.6217 16.713 27.3844 14.6719 27.1429 12.6308C27.1346 12.6308 27.1221 12.6308 27.1138 12.6308C27.1138 14.6634 27.1138 16.7002 27.1138 18.7498C26.4685 18.7498 25.844 18.7498 25.207 18.7498C25.207 14.9781 25.207 11.2105 25.207 7.43024C26.1438 7.43024 27.0763 7.43024 28.0214 7.43024C28.2337 10.1857 28.446 12.9327 28.6625 15.6839C28.675 15.6839 28.6833 15.6839 28.6958 15.6882C28.9082 12.9412 29.1288 10.1857 29.3453 7.43024Z" fill="black"/>
<path d="M39.3945 7.43024C39.6901 7.43024 39.9773 7.43024 40.2937 7.43024C40.7017 9.43732 41.1097 11.4444 41.5177 13.4557C41.5344 13.4557 41.551 13.4515 41.5635 13.4515C41.5635 11.4487 41.5635 9.44582 41.5635 7.43024C42.2213 7.43024 42.85 7.43024 43.4911 7.43024C43.4911 11.202 43.4911 14.9738 43.4911 18.7541C42.8333 18.7541 42.1839 18.7541 41.5094 18.7541C41.0764 16.798 40.6435 14.8335 40.2105 12.8732C40.198 12.8732 40.1855 12.8732 40.173 12.8774C40.173 14.8292 40.173 16.7853 40.173 18.7541C39.5152 18.7541 38.8824 18.7541 38.2371 18.7541C38.2329 18.6818 38.2246 18.6095 38.2246 18.5415C38.2246 15.5819 38.2246 12.618 38.2288 9.65844C38.2288 9.56063 38.2704 9.42456 38.3412 9.36928C38.9365 8.90578 39.2654 8.29345 39.3695 7.5408C39.3778 7.50678 39.3862 7.47276 39.3945 7.43024Z" fill="black"/>
<path d="M37.4346 18.7583C35.9941 18.7583 34.5828 18.7583 33.1548 18.7583C33.1548 15.8795 33.1548 13.005 33.1548 10.1772C33.8958 10.2197 34.6369 10.2665 35.4071 10.3133C35.4071 10.9681 35.4071 11.6527 35.4071 12.3586C35.9192 12.3586 36.4104 12.3586 36.91 12.3586C36.91 12.9157 36.91 13.4514 36.91 14.0085C36.4146 14.0085 35.9233 14.0085 35.4238 14.0085C35.4238 14.9398 35.4238 15.8497 35.4238 16.781C36.0982 16.781 36.7602 16.781 37.4346 16.781C37.4346 17.4486 37.4346 18.0992 37.4346 18.7583Z" fill="black"/>
<path d="M34.0658 21.9816C33.9659 22.815 33.8701 23.6485 33.7661 24.5117C33.5371 24.5117 33.3164 24.5202 33.0999 24.5032C33.0541 24.499 32.9875 24.3969 32.9792 24.3331C32.8876 23.5975 32.8044 22.8576 32.7211 22.1177C32.7169 22.0964 32.7086 22.0794 32.6711 22.0624C32.6711 22.8703 32.6711 23.674 32.6711 24.4947C32.3714 24.4947 32.0966 24.4947 31.8052 24.4947C31.8052 22.7683 31.8052 21.0376 31.8052 19.2984C32.2215 19.2984 32.6378 19.2984 33.0791 19.2984C33.1707 20.4933 33.2665 21.6882 33.3581 22.8831C33.3706 22.8831 33.383 22.8873 33.3955 22.8873C33.4913 21.6967 33.587 20.5061 33.6828 19.3027C34.1158 19.3027 34.5404 19.3027 34.9776 19.3027C34.9776 21.0333 34.9776 22.7598 34.9776 24.499C34.6861 24.499 34.4072 24.499 34.1074 24.499C34.1074 23.657 34.1074 22.8236 34.1074 21.9944C34.095 21.9859 34.0825 21.9816 34.0658 21.9816Z" fill="black"/>
<path d="M37.8965 19.294C38.2212 19.294 38.521 19.294 38.8415 19.294C39.0247 20.1955 39.2121 21.0885 39.3952 21.9857C39.4077 21.9857 39.4161 21.9815 39.4286 21.9815C39.4286 21.0927 39.4286 20.204 39.4286 19.2983C39.7283 19.2983 40.0156 19.2983 40.3153 19.2983C40.3153 21.0289 40.3153 22.7554 40.3153 24.4946C40.0114 24.4946 39.7158 24.4946 39.4036 24.4946C39.2162 23.6526 39.0247 22.8107 38.8374 21.9644C38.8207 21.9644 38.8041 21.9687 38.7874 21.9687C38.7874 22.8107 38.7874 23.6526 38.7874 24.4988C38.4752 24.4988 38.1921 24.4988 37.9006 24.4988C37.8965 22.7596 37.8965 21.0374 37.8965 19.294Z" fill="black"/>
<path d="M31.0053 24.4988C30.6389 24.4988 30.3059 24.4988 29.9562 24.4988C29.9353 24.3075 29.902 24.1204 29.8979 23.9333C29.8979 23.7589 29.8354 23.6909 29.6647 23.7121C29.5856 23.7249 29.4982 23.7121 29.3941 23.7121C29.365 23.9758 29.3358 24.2267 29.3067 24.4903C28.9653 24.4903 28.6281 24.4903 28.2617 24.4903C28.5448 22.7554 28.8238 21.0289 29.1069 19.294C29.4524 19.294 29.7896 19.294 30.156 19.294C30.4349 21.0204 30.718 22.7469 31.0053 24.4988ZM29.6439 21.1352C29.6314 21.1352 29.6231 21.1352 29.6106 21.1395C29.5607 21.7348 29.5107 22.3301 29.4607 22.9297C29.5898 22.9297 29.6897 22.9297 29.798 22.9297C29.748 22.3216 29.698 21.7263 29.6439 21.1352Z" fill="black"/>
<path d="M35.9473 19.294C36.2803 19.294 36.6009 19.294 36.934 19.294C36.934 21.0289 36.934 22.7554 36.934 24.4988C36.6051 24.4988 36.2803 24.4988 35.9473 24.4988C35.9473 22.7596 35.9473 21.0374 35.9473 19.294Z" fill="black"/>
<defs>
<linearGradient id="paint0_linear_17715_123619" x1="19.716" y1="7.44226" x2="19.716" y2="24.6045" gradientUnits="userSpaceOnUse">
<stop stop-color="#FF0000"/>
<stop offset="1" stop-color="#C30000"/>
</linearGradient>
</defs>
</svg>
