<svg width="77" height="32" viewBox="0 0 77 32" fill="none" xmlns="http://www.w3.org/2000/svg">
<g clip-path="url(#clip0_17659_122794)">
<path d="M21.664 15.4134H18.6305L18.1754 16.8994C18.0237 17.2123 17.9479 17.5251 17.9479 17.6816C17.9479 17.838 18.0237 17.9944 18.0996 18.0726C18.2513 18.1508 18.4788 18.229 18.858 18.3073V18.5419H16.4312V18.3073C16.7345 18.229 16.962 18.1508 17.0379 17.9944C17.2654 17.7598 17.4929 17.3687 17.7204 16.6648L20.3747 9H20.6022L23.2566 16.743C23.4082 17.3687 23.6358 17.7598 23.7874 17.9944C24.0149 18.1508 24.2425 18.229 24.5458 18.3073V18.5419H21.5123V18.3073C21.8156 18.229 22.0432 18.229 22.119 18.0726C22.2707 17.9944 22.2707 17.838 22.2707 17.6816C22.2707 17.5251 22.1948 17.2123 22.0432 16.743L21.664 15.4134ZM21.4365 14.9441L20.1472 11.1899L18.858 14.9441H21.4365Z" fill="#0E2A62"/>
<path d="M28.1858 11.5028L30.0059 16.6648L31.7502 11.5028H33.6462V11.7374C33.4187 11.7374 33.267 11.8156 33.1911 11.8156C33.0395 11.8938 32.9636 11.9721 32.8878 12.1285C32.812 12.2067 32.812 12.3631 32.812 12.5195C32.812 12.676 32.812 12.9106 32.812 13.067V16.9776C32.812 17.1341 32.812 17.2905 32.812 17.4469C32.812 17.6033 32.812 17.7598 32.8878 17.838C32.9636 17.9944 33.0395 18.0726 33.1153 18.1508C33.267 18.229 33.4187 18.229 33.6462 18.229V18.5419H30.9918V18.229C31.2194 18.229 31.371 18.229 31.4469 18.1508C31.5227 18.0726 31.5985 17.9162 31.6744 17.838C31.7502 17.6815 31.7502 17.5251 31.7502 17.3687C31.7502 17.2123 31.7502 16.9776 31.7502 16.8212V12.5195L29.7784 18.5419H29.5509L27.655 12.8324H27.5791V17.0559C27.5791 17.3687 27.5791 17.5251 27.655 17.6815C27.655 17.838 27.7308 17.9944 27.8066 18.0726C27.8825 18.1508 27.9583 18.1508 28.11 18.229C28.2617 18.229 28.4133 18.229 28.565 18.229V18.5419H26.3657V18.229C26.5932 18.229 26.7449 18.229 26.8966 18.1508C26.9724 18.0726 27.0483 17.9944 27.1241 17.9162C27.1999 17.7598 27.1999 17.6815 27.1999 17.5251C27.1999 17.3687 27.1999 17.2905 27.1999 17.1341V13.3799C27.1999 13.1452 27.1999 12.9106 27.1999 12.676C27.1999 12.4413 27.1999 12.2849 27.1241 12.1285C27.0483 12.0503 26.9724 11.8938 26.8966 11.8156C26.7449 11.8156 26.5932 11.7374 26.3657 11.7374V11.5028H28.1858ZM35.6938 18.5419V18.229C35.7696 18.229 35.8455 18.229 35.9213 18.229C35.9972 18.229 36.073 18.1508 36.1488 18.0726C36.2247 17.9944 36.3005 17.838 36.3763 17.6815C36.4522 17.5251 36.6039 17.2905 36.6797 16.9776L38.5756 11.2681H38.7273L40.8508 17.3687C40.9266 17.6033 41.0025 17.7598 41.0783 17.838C41.1541 17.9944 41.23 18.0726 41.3058 18.1508C41.3816 18.1508 41.4575 18.229 41.5333 18.229C41.6092 18.229 41.685 18.229 41.7608 18.229V18.5419H39.4099V18.229C39.4099 18.229 39.4857 18.229 39.5615 18.229C39.5615 18.229 39.6374 18.229 39.7132 18.229C39.7891 18.1508 39.7891 18.1508 39.8649 18.0726C39.8649 18.0726 39.9407 17.9944 39.9407 17.9162C39.9407 17.838 39.9407 17.6815 39.8649 17.6033C39.8649 17.5251 39.7891 17.3687 39.7891 17.2905L39.4099 16.3519H37.3622L37.0589 17.2905C37.0589 17.3687 36.983 17.4469 36.983 17.5251C36.983 17.6033 36.983 17.6815 36.983 17.7598C36.983 17.838 36.983 17.9162 37.0589 17.9944C37.0589 18.0726 37.1347 18.1508 37.2106 18.1508C37.2106 18.1508 37.2864 18.229 37.3622 18.229C37.4381 18.229 37.4381 18.229 37.5139 18.229V18.5419H35.6938ZM37.5139 15.8827H39.2582L38.3481 13.3017L37.5139 15.8827ZM47.752 11.5028L47.8279 13.1452H47.6004C47.6004 12.9106 47.5245 12.676 47.5245 12.5195C47.4487 12.3631 47.3729 12.2849 47.297 12.1285C47.1453 12.0503 47.0695 12.0503 46.9937 11.9721C46.842 11.9721 46.6903 11.9721 46.6145 11.9721H45.7044V17.0559C45.7044 17.2123 45.7044 17.3687 45.7803 17.5251C45.7803 17.6815 45.7803 17.838 45.8561 17.9162C45.9319 17.9944 46.0078 18.0726 46.1594 18.1508C46.2353 18.229 46.387 18.229 46.6145 18.229V18.5419H43.8085V18.229C44.036 18.229 44.1877 18.229 44.3393 18.1508C44.4152 18.0726 44.491 17.9944 44.5668 17.9162C44.6427 17.838 44.6427 17.6815 44.6427 17.5251C44.7185 17.3687 44.7185 17.2123 44.7185 17.0559V11.9721H43.8843C43.6568 11.9721 43.5051 11.9721 43.3534 12.0503C43.2018 12.0503 43.1259 12.1285 43.0501 12.2849C42.9742 12.3631 42.8984 12.5195 42.8984 12.676C42.8226 12.8324 42.8226 12.9888 42.8226 13.1452H42.5951L42.6709 11.5028H47.752ZM52.8332 18.5419H50.103V18.229C50.3305 18.229 50.4822 18.229 50.5581 18.1508C50.7097 18.1508 50.7856 18.0726 50.7856 17.9162C50.8614 17.838 50.9372 17.7598 50.9372 17.6033C50.9372 17.4469 50.9372 17.2905 50.9372 17.0559V12.9106C50.9372 12.7542 50.9372 12.676 50.9372 12.5195C50.9372 12.3631 50.9372 12.2067 50.8614 12.1285C50.7856 11.9721 50.7097 11.8938 50.6339 11.8156C50.4822 11.8156 50.3305 11.7374 50.103 11.7374V11.5028H52.8332V11.7374C52.6057 11.7374 52.454 11.8156 52.3023 11.8156C52.2265 11.8938 52.1506 11.9721 52.0748 12.1285C51.999 12.2067 51.999 12.3631 51.999 12.5195C51.999 12.676 51.999 12.7542 51.999 12.9106V17.0559C51.999 17.2905 51.999 17.4469 51.999 17.6033C51.999 17.7598 52.0748 17.838 52.0748 17.9162C52.1506 18.0726 52.2265 18.1508 52.3782 18.1508C52.454 18.229 52.6057 18.229 52.8332 18.229V18.5419ZM60.7962 13.7709H60.5687C60.5687 13.6927 60.4928 13.6145 60.4928 13.4581C60.4928 13.3799 60.417 13.3017 60.3412 13.1452C60.3412 13.067 60.2653 12.9888 60.1895 12.8324C60.1895 12.7542 60.1136 12.676 60.0378 12.5195C59.8861 12.4413 59.8103 12.2849 59.6586 12.2067C59.5069 12.1285 59.4311 11.9721 59.2794 11.9721C59.1277 11.8938 58.9761 11.8156 58.8244 11.7374C58.6727 11.7374 58.521 11.7374 58.3694 11.7374C58.1419 11.7374 57.8385 11.8156 57.611 11.9721C57.3835 12.1285 57.156 12.2849 57.0043 12.5978C56.7768 12.9106 56.6251 13.2234 56.5493 13.6145C56.4734 14.0056 56.3976 14.4748 56.3976 14.9441C56.3976 15.4134 56.4734 15.8045 56.5493 16.1955C56.5493 16.5084 56.7009 16.8212 56.7768 17.0559C56.9284 17.2905 57.0043 17.4469 57.156 17.6033C57.3076 17.7598 57.4593 17.9162 57.611 17.9944C57.7627 18.0726 57.9143 18.1508 58.066 18.1508C58.2177 18.229 58.3694 18.229 58.521 18.229C58.7486 18.229 58.9761 18.229 59.2036 18.0726C59.4311 17.9944 59.7344 17.838 59.962 17.6033C60.0378 17.5251 60.1136 17.3687 60.1895 17.2905C60.2653 17.2123 60.2653 17.1341 60.3412 17.0559C60.417 16.8994 60.4928 16.8212 60.4928 16.743C60.5687 16.5866 60.5687 16.5084 60.6445 16.3519L60.872 16.5084C60.7962 16.5866 60.7962 16.743 60.7203 16.8212C60.6445 16.9776 60.5687 17.1341 60.4928 17.2905C60.417 17.4469 60.3412 17.6033 60.1895 17.7598C60.0378 17.9944 59.8861 18.0726 59.7344 18.229C59.5069 18.3855 59.2794 18.4637 59.0519 18.5419C58.8244 18.6983 58.5969 18.6983 58.2935 18.6983C57.8385 18.6983 57.5351 18.6201 57.156 18.4637C56.7768 18.229 56.4734 17.9944 56.1701 17.6815C55.9425 17.3687 55.715 16.9776 55.4875 16.5866C55.3358 16.1173 55.26 15.648 55.26 15.1005C55.26 14.5531 55.3358 14.0838 55.4875 13.6145C55.6392 13.1452 55.8667 12.7542 56.1701 12.3631C56.3976 12.0503 56.7768 11.8156 57.0801 11.581C57.4593 11.4246 57.8385 11.2681 58.2935 11.2681C58.5969 11.2681 58.8244 11.3464 59.0519 11.4246C59.2036 11.5028 59.3553 11.581 59.5069 11.6592C59.5828 11.6592 59.6586 11.7374 59.7344 11.7374C59.8103 11.8156 59.8861 11.8156 59.8861 11.8156C59.962 11.8156 59.962 11.8156 59.962 11.8156L60.0378 11.8938C60.0378 11.8938 60.0378 11.8156 60.1136 11.8156C60.1136 11.8156 60.1895 11.8156 60.1895 11.7374C60.2653 11.7374 60.2653 11.6592 60.2653 11.581C60.3412 11.5028 60.3412 11.4246 60.3412 11.2681H60.5687L60.7962 13.7709Z" fill="#0E2A62"/>
<path d="M16.1274 20.6536H16.5066V22.9218H16.1274V20.6536ZM20.6019 20.6536H20.8294L21.3603 22.2179C21.3603 22.1397 21.3603 22.1397 21.3603 22.0614C21.3603 22.0614 21.3603 21.9832 21.3603 21.905C21.3603 21.905 21.3603 21.8268 21.3603 21.7486C21.3603 21.6704 21.3603 21.5922 21.3603 21.514V20.6536H21.6636V22.9218H21.3603L20.8294 21.514V21.5922C20.8294 21.6704 20.8294 21.6704 20.8294 21.7486C20.9052 21.8268 20.9052 21.905 20.9052 21.9832C20.9052 22.0614 20.9052 22.1397 20.9052 22.2961V22.9218H20.6019V20.6536ZM25.7589 20.6536H26.0622C26.1381 20.6536 26.2139 20.6536 26.2897 20.7318C26.2897 20.7318 26.3656 20.7318 26.4414 20.7318C26.4414 20.7318 26.5172 20.7318 26.5931 20.8101C26.5931 20.8101 26.6689 20.8883 26.6689 20.9665C26.7448 20.9665 26.7448 21.0447 26.8206 21.1229C26.8206 21.2793 26.8206 21.3575 26.8206 21.514V22.1397C26.8206 22.2961 26.8206 22.3743 26.8206 22.4525C26.7448 22.6089 26.7448 22.6871 26.6689 22.6871C26.6689 22.7654 26.5931 22.8436 26.5931 22.8436C26.5172 22.8436 26.4414 22.9218 26.4414 22.9218C26.3656 22.9218 26.2897 22.9218 26.2897 22.9218C26.2139 22.9218 26.1381 22.9218 26.0622 22.9218H25.7589V20.6536ZM26.1381 22.6871C26.2139 22.6871 26.2897 22.6871 26.2897 22.6871C26.3656 22.6871 26.3656 22.6089 26.4414 22.6089C26.4414 22.5307 26.4414 22.5307 26.4414 22.4525C26.4414 22.3743 26.4414 22.2961 26.4414 22.2179V21.514C26.4414 21.3575 26.4414 21.2793 26.4414 21.2011C26.4414 21.1229 26.4414 21.1229 26.4414 21.0447C26.3656 21.0447 26.3656 20.9665 26.2897 20.9665C26.2897 20.9665 26.2139 20.9665 26.1381 20.9665H26.0622V22.6871H26.1381ZM30.84 20.6536H31.1434V22.3743C31.1434 22.4525 31.1434 22.4525 31.1434 22.5307C31.1434 22.6089 31.2192 22.6089 31.2192 22.6089C31.2192 22.6871 31.2192 22.6871 31.295 22.6871C31.295 22.6871 31.295 22.6871 31.3709 22.6871C31.3709 22.6871 31.3709 22.6871 31.4467 22.6871C31.4467 22.6871 31.4467 22.6871 31.5226 22.6089C31.5226 22.6089 31.5226 22.6089 31.5226 22.5307C31.5226 22.4525 31.5226 22.4525 31.5226 22.3743V20.6536H31.9017V22.2961C31.9017 22.3743 31.8259 22.4525 31.8259 22.5307C31.8259 22.6089 31.8259 22.6871 31.7501 22.7654C31.7501 22.7654 31.7501 22.8436 31.6742 22.8436C31.6742 22.9218 31.5984 22.9218 31.5984 22.9218C31.5226 22.9218 31.5226 23 31.4467 23H31.3709C31.295 23 31.295 23 31.2192 23L31.1434 22.9218C31.0675 22.9218 31.0675 22.9218 30.9917 22.8436L30.9158 22.7654C30.9158 22.6871 30.84 22.6089 30.84 22.5307C30.84 22.4525 30.84 22.3743 30.84 22.2961V20.6536ZM35.8453 22.5307C35.8453 22.4525 35.8453 22.3743 35.8453 22.3743C35.8453 22.2961 35.9212 22.2961 35.9212 22.2179H36.1487V22.3743C36.1487 22.3743 36.1487 22.4525 36.1487 22.5307L36.2245 22.6089C36.2245 22.6871 36.2245 22.6871 36.3003 22.6871C36.3003 22.6871 36.3003 22.6871 36.3762 22.6871C36.452 22.6871 36.452 22.6871 36.5279 22.6871C36.5279 22.6089 36.6037 22.6089 36.6037 22.5307C36.6037 22.4525 36.6037 22.4525 36.5279 22.3743C36.5279 22.3743 36.5279 22.3743 36.5279 22.2961C36.5279 22.2961 36.5279 22.2961 36.5279 22.2179C36.452 22.2179 36.452 22.1397 36.452 22.1397L36.0728 21.6704C35.997 21.5922 35.997 21.514 35.9212 21.4357C35.9212 21.3575 35.8453 21.2793 35.8453 21.2011C35.8453 21.1229 35.9212 21.0447 35.9212 20.9665C35.9212 20.8883 35.997 20.8883 35.997 20.8101C36.0728 20.7318 36.0728 20.7318 36.1487 20.7318C36.2245 20.6536 36.3003 20.6536 36.3762 20.6536C36.452 20.6536 36.5279 20.6536 36.6037 20.7318C36.6795 20.7318 36.7554 20.8101 36.7554 20.8101C36.8312 20.8883 36.8312 20.8883 36.8312 20.9665C36.9071 21.0447 36.9071 21.1229 36.9071 21.1229C36.9071 21.2011 36.9071 21.2793 36.9071 21.2793C36.8312 21.3575 36.8312 21.3575 36.8312 21.4357H36.6037V21.2793C36.6037 21.2011 36.6037 21.1229 36.5279 21.0447C36.5279 20.9665 36.452 20.9665 36.3762 20.9665C36.3003 20.9665 36.3003 20.9665 36.2245 20.9665C36.2245 21.0447 36.2245 21.0447 36.2245 21.1229C36.2245 21.2011 36.2245 21.2011 36.2245 21.2011C36.2245 21.2793 36.2245 21.2793 36.2245 21.2793V21.3575C36.3003 21.3575 36.3003 21.4357 36.3003 21.4357L36.6795 21.905C36.7554 21.9832 36.8312 22.0614 36.8312 22.1397C36.9071 22.2961 36.9071 22.3743 36.9071 22.4525C36.9071 22.5307 36.9071 22.6089 36.8312 22.6871C36.8312 22.7654 36.8312 22.7654 36.7554 22.8436C36.6795 22.8436 36.6795 22.9218 36.6037 22.9218C36.5279 23 36.452 23 36.3762 23C36.3003 23 36.2245 23 36.1487 22.9218C36.0728 22.9218 35.997 22.8436 35.997 22.8436C35.9212 22.7654 35.9212 22.7654 35.9212 22.6871C35.8453 22.6089 35.8453 22.5307 35.8453 22.5307ZM41.0781 20.9665H40.7748V20.6536H41.7607V20.9665H41.4573V22.9218H41.0781V20.9665ZM45.7043 20.6536H46.0834C46.1593 20.6536 46.1593 20.6536 46.2351 20.7318C46.311 20.7318 46.311 20.7318 46.3868 20.7318C46.3868 20.7318 46.4626 20.7318 46.5385 20.8101C46.5385 20.8101 46.6143 20.8101 46.6143 20.8883C46.6902 20.9665 46.6902 20.9665 46.6902 21.0447C46.766 21.1229 46.766 21.2011 46.766 21.3575C46.766 21.5922 46.766 21.6704 46.6902 21.8268C46.6143 21.905 46.5385 21.9832 46.4626 22.0614L46.8418 22.9218H46.4626L46.1593 22.1397H46.0834V22.9218H45.7043V20.6536ZM46.0834 21.8268C46.1593 21.8268 46.2351 21.8268 46.2351 21.8268C46.311 21.8268 46.311 21.8268 46.3868 21.7486V21.6704C46.3868 21.5922 46.3868 21.514 46.3868 21.4357V21.2793C46.3868 21.2011 46.3868 21.2011 46.3868 21.1229V21.0447C46.311 20.9665 46.311 20.9665 46.2351 20.9665C46.2351 20.9665 46.1593 20.9665 46.0834 20.9665V21.8268ZM50.7854 20.6536H51.0888V22.9218H50.7854V20.6536ZM55.184 20.6536H56.0182V20.9665H55.5632V21.6704H55.9424V21.905H55.5632V22.6871H56.0182V22.9218H55.184V20.6536ZM59.886 22.5307C59.886 22.4525 59.886 22.3743 59.9618 22.3743C59.9618 22.2961 59.9618 22.2961 59.9618 22.2179H60.1893V22.3743C60.1893 22.3743 60.1893 22.4525 60.1893 22.5307L60.2652 22.6089C60.2652 22.6871 60.2652 22.6871 60.341 22.6871H60.4168C60.4927 22.6871 60.5685 22.6871 60.5685 22.6871C60.5685 22.6089 60.6443 22.6089 60.6443 22.5307C60.6443 22.4525 60.6443 22.4525 60.6443 22.3743C60.6443 22.3743 60.5685 22.3743 60.5685 22.2961C60.5685 22.2961 60.5685 22.2961 60.5685 22.2179C60.4927 22.2179 60.4927 22.1397 60.4927 22.1397L60.1135 21.6704C60.0376 21.5922 60.0376 21.514 59.9618 21.4357C59.9618 21.3575 59.9618 21.2793 59.9618 21.2011C59.9618 21.1229 59.9618 21.0447 59.9618 20.9665C59.9618 20.8883 60.0376 20.8883 60.0376 20.8101C60.1135 20.7318 60.1893 20.7318 60.1893 20.7318C60.2652 20.6536 60.341 20.6536 60.4168 20.6536C60.4927 20.6536 60.6443 20.6536 60.6443 20.7318C60.7202 20.7318 60.796 20.8101 60.796 20.8101C60.8719 20.8883 60.8719 20.8883 60.9477 20.9665C60.9477 21.0447 60.9477 21.1229 60.9477 21.1229C60.9477 21.2011 60.9477 21.2793 60.9477 21.2793C60.9477 21.3575 60.8719 21.3575 60.8719 21.4357H60.6443V21.2793C60.6443 21.2011 60.6443 21.1229 60.5685 21.0447C60.5685 20.9665 60.4927 20.9665 60.4168 20.9665C60.341 20.9665 60.341 20.9665 60.2652 20.9665C60.2652 21.0447 60.2652 21.0447 60.2652 21.1229C60.2652 21.2011 60.2652 21.2011 60.2652 21.2011C60.2652 21.2793 60.2652 21.2793 60.2652 21.2793V21.3575C60.341 21.3575 60.341 21.4357 60.341 21.4357L60.7202 21.905C60.796 21.9832 60.8719 22.0614 60.8719 22.1397C60.9477 22.2961 60.9477 22.3743 60.9477 22.4525C60.9477 22.5307 60.9477 22.6089 60.9477 22.6871C60.8719 22.7654 60.8719 22.7654 60.796 22.8436C60.796 22.8436 60.7202 22.9218 60.6443 22.9218C60.5685 23 60.4927 23 60.4168 23C60.341 23 60.2652 23 60.1893 22.9218C60.1135 22.9218 60.0376 22.8436 60.0376 22.8436C59.9618 22.7654 59.9618 22.7654 59.9618 22.6871C59.9618 22.6089 59.886 22.5307 59.886 22.5307Z" fill="#0E2A62"/>
<path fill-rule="evenodd" clip-rule="evenodd" d="M16.0518 19.4022H60.9478V19.7151H16.0518V19.4022Z" fill="#0E2A62"/>
</g>
<defs>
<clipPath id="clip0_17659_122794">
<rect width="45" height="14" fill="white" transform="translate(16 9)"/>
</clipPath>
</defs>
</svg>
