<svg width="102" height="32" viewBox="0 0 102 32" fill="none" xmlns="http://www.w3.org/2000/svg">
<path d="M43.2219 19.1546L42.6376 17.5148H39.7382V19.1569H38.147V15.9275H42.7754C43.037 15.9275 43.216 15.7354 43.216 15.4633C43.216 15.182 43.037 14.9898 42.7754 14.9898H38.147V13.5513H42.9131C43.987 13.5513 44.7247 14.3037 44.7247 15.5365C44.7247 16.218 44.4984 16.7532 44.111 17.0894L44.9234 19.1546H43.2219Z" fill="black"/>
<path d="M47.9623 13.5513H52.1698V15.2643H48.1059C47.5886 15.2643 47.1697 15.7514 47.1697 16.3529C47.1697 16.9544 47.5886 17.4416 48.1059 17.4416H52.1698V19.1546H47.9623C46.6307 19.1546 45.5527 17.899 45.5527 16.3529C45.5527 14.8046 46.6326 13.5513 47.9623 13.5513Z" fill="black"/>
<path d="M67.6758 16.3529C67.6758 18.13 66.9323 19.1545 65.0656 19.1545H60.0732V13.549H65.0656C66.9323 13.5512 67.6758 14.5827 67.6758 16.3529ZM66.0431 16.3529C66.0431 15.4632 65.6852 15.2643 65.0656 15.2643H61.6567V17.4416H65.0656C65.6852 17.4416 66.0431 17.2494 66.0431 16.3529Z" fill="black"/>
<path d="M80.2073 19.1545L78.9267 14.7291V19.1545H77.3433V13.549H80.3312L81.6118 17.9745L82.8923 13.549H85.8802V19.1545H84.2967V14.7291L83.0163 19.1545H80.2073Z" fill="black"/>
<path d="M76.3189 15.063V13.549H70.9135C69.5819 13.549 68.5039 14.8045 68.5039 16.3506C68.5039 17.899 69.5839 19.1523 70.9135 19.1523H76.3189V17.6474H71.1988C70.5851 17.6474 70.0874 17.0688 70.0874 16.3552C70.0874 15.6416 70.5851 15.063 71.1988 15.063H76.3189Z" fill="black"/>
<path d="M76.3192 16.9632V15.7488H71.1991C70.9099 15.7488 70.6777 16.0209 70.6777 16.3548C70.6777 16.6911 70.9118 16.9609 71.1991 16.9609H76.3192V16.9632Z" fill="black"/>
<path d="M35.3613 13.5525L37.5172 19.1581H35.6603L34.1909 14.7326L32.7215 19.1581H30.8726L33.0284 13.5525H35.3613Z" fill="black"/>
<path d="M32.7197 19.1547H34.1911V17.755H33.186L32.7197 19.1547Z" fill="black"/>
<path d="M57.29 13.5513L59.4458 19.1569H57.589L56.1196 14.7314L54.6503 19.1569H52.8013L54.9571 13.5513H57.29Z" fill="black"/>
<path d="M54.6499 19.1547H56.1192V17.755H55.1141L54.6499 19.1547Z" fill="black"/>
<path d="M27.2654 22.622V19.0249C27.2654 18.9434 27.3074 18.8644 27.3766 18.8174L28.1424 18.3035C28.2116 18.2566 28.2536 18.18 28.2536 18.0961V17.5723C28.2536 17.4858 28.2091 17.4043 28.135 17.3574L26.1784 16.1691C26.1092 16.1271 26.0648 16.053 26.0598 15.9714L25.7733 11.6209C25.7535 11.3368 25.9783 11.0947 26.2624 11.0898L27.0431 11.0774C27.3148 11.0749 27.5347 10.8501 27.5347 10.5784V10.1658C27.5347 9.88911 27.3123 9.6643 27.0332 9.66677H26.4625H26.46H25.2767H24.8789C24.8641 9.66677 24.8517 9.66677 24.837 9.66924L22.0379 9.67171C22.2825 9.70383 22.4677 9.91382 22.4677 10.1658V10.5784C22.4677 10.776 22.3467 10.9045 22.3467 10.9045C22.2577 11.0082 22.1243 11.0749 21.9761 11.0774L21.1954 11.0898C20.9113 11.0922 20.6865 11.3343 20.7063 11.6209L20.9879 15.9764C20.9879 16.0752 21.0793 16.1567 21.1065 16.174L21.3659 16.3297H21.7711H25.3434L27.0777 17.3994H23.115C23.1595 17.4463 23.1842 17.5081 23.1842 17.5748V17.6785H27.809C27.8237 17.6785 27.8336 17.6884 27.8336 17.7032V17.9552C27.8336 17.9701 27.8237 17.98 27.809 17.98H23.1842V18.0985C23.1842 18.1825 23.1422 18.2591 23.073 18.306L22.3072 18.8199C22.238 18.8669 22.196 18.9434 22.196 19.0274V22.6244C22.196 22.8196 22.0478 22.9777 21.8575 22.9975H23.0903C23.1027 22.9975 23.115 22.9999 23.1249 22.9999H23.8562H26.8899C27.0974 22.995 27.2654 22.8295 27.2654 22.622ZM21.4524 15.4057L21.2078 11.6357C21.1979 11.4925 21.314 11.3714 21.4573 11.3714H21.5808H24.5183C24.6492 11.3714 24.7579 11.4727 24.7678 11.6036L25.0124 15.3736C25.0222 15.5169 24.9085 15.6379 24.7653 15.6379H21.8254H21.7019C21.5685 15.6379 21.4598 15.5366 21.4524 15.4057ZM23.7005 20.2429C23.7005 20.1046 23.8117 19.9934 23.95 19.9934H25.9239C26.0623 19.9934 26.1734 20.1046 26.1734 20.2429V21.5671C26.1734 21.7055 26.0623 21.8166 25.9239 21.8166H23.95C23.8117 21.8166 23.7005 21.7055 23.7005 21.5671V20.2429Z" fill="black"/>
<path d="M21.8032 22.6218V19.0248C21.8032 18.9433 21.8452 18.8643 21.9143 18.8173L22.6802 18.3034C22.7494 18.2565 22.7914 18.1799 22.7914 18.0959V17.5722C22.7914 17.4857 22.7469 17.4042 22.6728 17.3573L20.7162 16.169C20.647 16.127 20.6025 16.0528 20.5976 15.9713L20.311 11.6208C20.2912 11.3367 20.516 11.0946 20.8001 11.0896L21.5808 11.0773C21.8526 11.0748 22.0724 10.85 22.0724 10.5783V10.1657C22.0724 9.88899 21.8476 9.66418 21.5709 9.66665H19.8095H19.4191C19.2635 9.66665 19.1128 9.71853 18.9893 9.8124L16.2767 11.9C16.1013 12.0358 16 12.2434 16 12.4608V16.2554C16 16.3938 16.042 16.5296 16.1186 16.6458L17.1759 18.2441C17.2525 18.3603 17.2945 18.4961 17.2945 18.6345V22.6243C17.2945 22.8319 17.4625 22.9974 17.6676 22.9974H21.4301C21.4326 22.9974 21.4326 22.9974 21.4351 22.9974C21.6376 22.9924 21.8032 22.8269 21.8032 22.6218Z" fill="black"/>
</svg>
