<svg width="76" height="32" viewBox="0 0 76 32" fill="none" xmlns="http://www.w3.org/2000/svg">
<path d="M37.2937 4.33313C34.4964 4.33313 32.2295 9.55654 32.2295 15.9995C32.2295 22.4424 34.4971 27.6658 37.2937 27.6658C38.1903 27.6658 39.0322 27.1291 39.7628 26.1874C39.6304 26.1337 39.5072 26.0616 39.3966 25.9738C38.8102 26.6894 38.1745 27.0767 37.546 27.0767C36.4787 27.0767 35.3904 25.9607 34.5603 24.0151C34.1209 22.9843 33.7744 21.7799 33.5319 20.4346C33.2783 19.0309 33.1498 17.5388 33.1498 15.9995C33.1498 14.4602 33.2783 12.9674 33.5319 11.5644C33.775 10.2191 34.1209 9.01395 34.5603 7.98382C35.3904 6.03823 36.4787 4.92225 37.546 4.92225C38.6132 4.92225 39.7016 6.03823 40.5317 7.98382C40.9717 9.01461 41.3176 10.2191 41.56 11.5644C41.813 12.968 41.9421 14.4602 41.9421 15.9995C41.9421 17.5388 41.8137 19.0316 41.56 20.4346C41.365 21.5171 41.1028 22.5079 40.7787 23.3906C40.9105 23.4326 41.035 23.4922 41.1483 23.5662C41.9026 21.5289 42.3578 18.8867 42.3578 15.9995C42.3578 9.55654 40.0903 4.33313 37.2937 4.33313Z" fill="url(#paint0_linear_17715_123804)"/>
<path d="M40.3254 25.9794C40.9749 25.9794 41.5013 25.4559 41.5013 24.8097C41.5013 24.1636 40.9749 23.64 40.3254 23.64C39.6758 23.64 39.1494 24.1636 39.1494 24.8097C39.1494 25.4559 39.6764 25.9794 40.3254 25.9794Z" fill="url(#paint1_linear_17715_123804)"/>
<path d="M47.3687 21.833C48.7673 19.4234 45.3534 14.8586 39.7431 11.6371C37.2291 10.1935 34.7006 9.26427 32.5497 8.89599C32.5576 9.03098 32.5477 9.16728 32.518 9.30227C33.4483 9.46479 34.4424 9.73412 35.482 10.107C36.8305 10.5906 38.1942 11.2262 39.5342 11.9956C40.8749 12.7655 42.1095 13.622 43.2051 14.5421C44.2552 15.4241 45.1307 16.3245 45.8086 17.2183C47.0874 18.9064 47.5149 20.4018 46.9813 21.3212C46.4477 22.2406 44.9318 22.62 42.823 22.3624C41.7056 22.2261 40.4836 21.9221 39.191 21.4581C37.8424 20.9745 36.4787 20.3389 35.1387 19.5695C33.7981 18.7996 32.5635 17.9431 31.4679 17.023C30.4178 16.141 29.5423 15.2406 28.8644 14.3468C27.5856 12.6587 27.1581 11.1633 27.6917 10.2439C28.0059 9.70266 28.6608 9.34814 29.5772 9.20136C29.5561 9.06243 29.5554 8.92023 29.5745 8.77869C28.3894 8.93727 27.5013 9.39402 27.0527 10.1666C25.654 12.5762 29.0679 17.141 34.6782 20.3625C40.2886 23.5839 45.97 24.2425 47.3687 21.833Z" fill="url(#paint2_linear_17715_123804)"/>
<path d="M31.0561 7.81287C30.8664 7.81287 30.6734 7.85874 30.4948 7.95572C29.9243 8.26502 29.7135 8.97537 30.0245 9.54286C30.3354 10.1104 31.0496 10.3201 31.6201 10.0107C32.1906 9.70145 32.4014 8.9911 32.0904 8.42361C31.877 8.0337 31.4732 7.81287 31.0561 7.81287Z" fill="url(#paint3_linear_17715_123804)"/>
<path d="M47.8636 10.1666C47.4156 9.39402 46.5269 8.93727 45.3417 8.77869C45.3615 8.92023 45.3601 9.06243 45.3391 9.20136C46.2554 9.34814 46.9103 9.70266 47.2245 10.2439C47.7582 11.1633 47.3306 12.6587 46.0519 14.3468C45.3746 15.2406 44.4984 16.1417 43.449 17.023C42.354 17.9431 41.1188 18.7996 39.7781 19.5695C38.4375 20.3395 37.0744 20.9745 35.7259 21.4581C34.4333 21.9214 33.2113 22.2261 32.0939 22.3624C29.9845 22.62 28.4692 22.2406 27.9356 21.3212C27.402 20.4018 27.8295 18.9064 29.1083 17.2183C29.7855 16.3245 30.6617 15.4234 31.7112 14.5421C32.8067 13.622 34.0413 12.7655 35.382 11.9956C36.7226 11.2256 38.0857 10.5899 39.4343 10.107C40.4738 9.73412 41.468 9.46479 42.3982 9.30227C42.3685 9.16794 42.3587 9.03098 42.3666 8.89599C40.2156 9.26492 37.6878 10.1935 35.1731 11.6371C29.5641 14.8586 26.1496 19.4234 27.5482 21.833C28.9469 24.2425 34.6283 23.5839 40.238 20.3625C45.8476 17.1403 49.2615 12.5755 47.8636 10.1666Z" fill="url(#paint4_linear_17715_123804)"/>
<path d="M44.4039 7.94524C44.23 7.85546 44.0449 7.81287 43.8617 7.81287C43.4375 7.81287 43.0277 8.04222 42.8175 8.44261C42.5171 9.01535 42.7411 9.72242 43.3169 10.0206C43.8927 10.3194 44.6035 10.0966 44.9033 9.52386C45.203 8.95047 44.9797 8.24405 44.4039 7.94524Z" fill="url(#paint5_linear_17715_123804)"/>
<g style="mix-blend-mode:screen">
<path d="M40.3254 24.6144C40.6482 24.6144 40.9091 24.4316 40.9091 24.2068C40.9091 23.9814 40.6475 23.7992 40.3254 23.7992C40.0032 23.7992 39.7417 23.982 39.7417 24.2068C39.7417 24.4322 40.0032 24.6144 40.3254 24.6144Z" fill="url(#paint6_linear_17715_123804)"/>
</g>
<g style="mix-blend-mode:screen">
<path d="M43.8234 8.71095C44.1463 8.71095 44.4071 8.52812 44.4071 8.30335C44.4071 8.07793 44.1456 7.89575 43.8234 7.89575C43.5013 7.89575 43.2397 8.07858 43.2397 8.30335C43.2391 8.52812 43.5006 8.71095 43.8234 8.71095Z" fill="url(#paint7_linear_17715_123804)"/>
</g>
<g style="mix-blend-mode:screen">
<path d="M31.0813 8.71095C31.4041 8.71095 31.6649 8.52812 31.6649 8.30335C31.6649 8.07793 31.4034 7.89575 31.0813 7.89575C30.7591 7.89575 30.4976 8.07858 30.4976 8.30335C30.4969 8.52812 30.7584 8.71095 31.0813 8.71095Z" fill="url(#paint8_linear_17715_123804)"/>
</g>
<path d="M34.2011 23.0745C34.0956 22.7645 33.9968 22.4421 33.9059 22.1079L33.0356 22.3183C33.1378 22.6839 33.2491 23.0345 33.3677 23.3707L34.2011 23.0745Z" fill="url(#paint9_linear_17715_123804)"/>
<path d="M42.1393 19.4012C42.2019 18.9274 42.2513 18.4405 42.2875 17.9431C42.2084 17.9222 42.1248 17.911 42.0378 17.911C41.9811 17.911 41.9265 17.9156 41.8731 17.9248C41.8382 18.409 41.7782 19.0054 41.7163 19.4746C41.8125 19.5073 41.9284 19.4071 42.0378 19.4071C42.0721 19.4064 42.1063 19.4044 42.1393 19.4012Z" fill="url(#paint10_linear_17715_123804)"/>
<path d="M32.8692 20.186C33.0827 20.186 33.2843 20.1316 33.4628 20.0346C33.3205 19.1565 33.2263 18.2463 33.1815 17.3132C33.0814 17.287 32.9766 17.2732 32.8692 17.2732C32.6525 17.2732 32.4483 17.3295 32.2671 17.4292C32.3172 18.3741 32.4166 19.2843 32.5583 20.146C32.6584 20.1722 32.7618 20.186 32.8692 20.186Z" fill="url(#paint11_linear_17715_123804)"/>
<path d="M34.299 8.64624H33.3622C33.1375 9.28385 32.9412 9.9765 32.7778 10.7157H33.7028C33.8681 9.97388 34.0678 9.28254 34.299 8.64624Z" fill="url(#paint12_linear_17715_123804)"/>
<path d="M27.1868 18.693L25.3 13.4552H23.545L21.6582 18.693H23.3474L23.545 18.0017H25.2638L25.4687 18.693H27.1868ZM23.8744 16.9106L24.408 15.0338L24.964 16.9106H23.8744Z" fill="url(#paint13_linear_17715_123804)"/>
<path d="M27.6992 14.83H29.2494V18.693H30.9754V14.83H32.5256V13.4552H27.6992V14.83Z" fill="url(#paint14_linear_17715_123804)"/>
<path d="M46.0991 16.7212L45.1709 13.4552H43.0864V18.693H44.6366V16.9178L44.6003 16.1033L44.5272 15.332H44.5417L45.4996 18.693H46.6993L47.6572 15.332H47.6717L47.584 16.2776L47.5616 17.0928V18.693H49.1124V13.4552H47.028L46.0991 16.7212Z" fill="url(#paint15_linear_17715_123804)"/>
<path d="M52.7114 13.4552H50.9854V18.6924H52.7114V13.4552Z" fill="url(#paint16_linear_17715_123804)"/>
<path d="M57.0768 17.5507C56.1993 17.5507 56.0385 16.8593 56.0385 16.1247C56.0385 15.1136 56.4042 14.5972 57.0109 14.5972C57.5525 14.5972 57.8957 14.9098 57.9471 15.4557H59.5855C59.4465 14.1103 58.5472 13.3168 56.9385 13.3168H56.9378C55.468 13.3168 54.3125 14.3718 54.3125 16.0664C54.3125 17.7689 55.3653 18.8305 57.1058 18.8305C58.4952 18.8305 59.4682 18.0159 59.6217 16.6627H57.9616C57.8964 17.1654 57.6328 17.5507 57.0768 17.5507Z" fill="url(#paint17_linear_17715_123804)"/>
<path d="M46.1904 17.1234L46.3545 17.7001L47.4369 13.8941H48.9073V13.6392H47.1813L46.1904 17.1234Z" fill="url(#paint18_linear_17715_123804)"/>
<path d="M24.6585 14.5402L24.5702 14.8508L25.2343 17.0939H23.9318L23.8594 17.3481H25.4899L24.6585 14.5402Z" fill="url(#paint19_linear_17715_123804)"/>
<path d="M58.1309 16.8461C58.0005 17.4129 57.6237 17.7333 57.0762 17.7333C56.7712 17.7333 56.5419 17.6586 56.3687 17.5413C56.5485 17.7963 56.843 17.9876 57.3318 17.9876C57.8793 17.9876 58.2561 17.6672 58.3865 17.1003H59.3122C59.3379 17.0171 59.3655 16.9352 59.3827 16.8461H58.1309Z" fill="url(#paint20_linear_17715_123804)"/>
<path d="M57.9438 14.8228C58.0242 14.9401 58.0861 15.0764 58.1204 15.2343H58.2884C58.2087 15.0619 58.0927 14.9237 57.9438 14.8228Z" fill="url(#paint21_linear_17715_123804)"/>
<path d="M23.6871 13.6392L21.9473 18.47H22.2951L23.9434 13.8941H25.2472L25.1556 13.6392H23.6871Z" fill="url(#paint22_linear_17715_123804)"/>
<path d="M25.4893 18.0341L25.619 18.4698H25.7996L25.6698 18.0341H25.4893Z" fill="url(#paint23_linear_17715_123804)"/>
<path d="M29.7078 14.863H29.4521V18.4698H29.7078V14.863Z" fill="url(#paint24_linear_17715_123804)"/>
<path d="M58.9202 14.2676C58.5104 13.7663 57.8457 13.5016 56.9379 13.5016H56.9372C55.5116 13.5016 54.5161 14.5488 54.5161 16.0474C54.5161 16.9249 54.8145 17.5992 55.3422 18.0389C54.9779 17.6071 54.7717 17.0245 54.7717 16.3017C54.7717 14.8024 55.7672 13.7558 57.1928 13.7558C57.9326 13.7558 58.5084 13.9334 58.9202 14.2676Z" fill="url(#paint25_linear_17715_123804)"/>
<path d="M43.5458 13.8941H45.0881L45.0156 13.6392H43.2896V18.47H43.5458V13.8941Z" fill="url(#paint26_linear_17715_123804)"/>
<path d="M27.9023 14.609H28.158V13.8941H32.3202V13.6392H27.9023V14.609Z" fill="url(#paint27_linear_17715_123804)"/>
<path d="M51.1885 18.47H51.4441V13.8941H52.5067V13.6392H51.1885V18.47Z" fill="url(#paint28_linear_17715_123804)"/>
<path d="M48.0198 17.3272L48.0415 16.5186L48.1496 15.3652H47.8696L47.7859 16.2643L47.7642 17.073V18.4701H48.0198V17.3272Z" fill="url(#paint29_linear_17715_123804)"/>
<path d="M44.7676 15.3652L45.653 18.4701H45.8362L44.9514 15.3652H44.7676Z" fill="url(#paint30_linear_17715_123804)"/>
<path d="M37.706 19.3983C39.4319 19.3983 40.831 18.0072 40.831 16.2911C40.831 14.575 39.4319 13.1838 37.706 13.1838C35.9802 13.1838 34.5811 14.575 34.5811 16.2911C34.5811 18.0072 35.9802 19.3983 37.706 19.3983Z" fill="url(#paint31_linear_17715_123804)"/>
<path d="M37.7059 13.1839C39.4317 13.1839 40.8309 14.5751 40.8309 16.2912C40.8309 18.0072 39.4317 19.3984 37.7059 19.3984C35.98 19.3984 34.5809 18.0072 34.5809 16.2912C34.5809 14.5751 35.98 13.1839 37.7059 13.1839ZM37.7059 13.0831C37.2701 13.0831 36.848 13.168 36.4502 13.3354C36.2587 13.4156 36.0743 13.5152 35.9018 13.6314C35.731 13.7463 35.5704 13.8778 35.4245 14.0228C35.2787 14.1678 35.1459 14.3276 35.0309 14.4973C34.9141 14.6689 34.8145 14.8522 34.7332 15.0426C34.5649 15.4382 34.4795 15.8585 34.4795 16.2912C34.4795 16.7239 34.5649 17.1448 34.7332 17.5403C34.8139 17.7307 34.9141 17.9141 35.0309 18.0856C35.1465 18.2554 35.2787 18.4151 35.4245 18.5601C35.5704 18.7052 35.731 18.8372 35.9018 18.9516C36.0743 19.0677 36.2587 19.1667 36.4502 19.2475C36.848 19.4149 37.2707 19.4998 37.7059 19.4998C38.141 19.4998 38.5637 19.4149 38.9616 19.2475C39.153 19.1673 39.3374 19.0677 39.51 18.9516C39.6807 18.8366 39.8414 18.7052 39.9872 18.5601C40.1331 18.4151 40.2659 18.2554 40.3809 18.0856C40.4977 17.9141 40.5973 17.7307 40.6785 17.5403C40.8469 17.1448 40.9322 16.7244 40.9322 16.2918C40.9322 15.8591 40.8469 15.4388 40.6785 15.0432C40.5979 14.8528 40.4977 14.6695 40.3809 14.4979C40.2653 14.3281 40.1331 14.1684 39.9872 14.0234C39.8414 13.8784 39.6807 13.7463 39.51 13.632C39.3374 13.5158 39.153 13.4168 38.9616 13.336C38.5643 13.168 38.1416 13.0831 37.7059 13.0831Z" fill="#D6802A"/>
<path d="M37.7057 19.0246C39.224 19.0246 40.4548 17.8008 40.4548 16.2911C40.4548 14.7814 39.224 13.5576 37.7057 13.5576C36.1874 13.5576 34.9565 14.7814 34.9565 16.2911C34.9565 17.8008 36.1874 19.0246 37.7057 19.0246Z" fill="url(#paint32_linear_17715_123804)"/>
<path d="M37.706 13.5582C39.2243 13.5582 40.4551 14.782 40.4551 16.2917C40.4551 17.8014 39.2243 19.0252 37.706 19.0252C36.1876 19.0252 34.9574 17.8008 34.9574 16.2911C34.9574 14.7814 36.1882 13.5582 37.706 13.5582ZM37.706 13.4568C37.3212 13.4568 36.9477 13.5317 36.5961 13.6796C36.4272 13.7509 36.2641 13.8388 36.1117 13.9408C35.9606 14.0422 35.8189 14.1583 35.6902 14.2868C35.5616 14.4153 35.4442 14.5562 35.3422 14.7059C35.2391 14.8574 35.1507 15.0195 35.0796 15.1875C34.9308 15.5371 34.8555 15.9085 34.8555 16.2911C34.8555 16.6737 34.9308 17.045 35.0796 17.3946C35.1513 17.5626 35.2396 17.7247 35.3422 17.8762C35.4442 18.0266 35.561 18.1674 35.6902 18.2954C35.8195 18.4239 35.9612 18.54 36.1117 18.6414C36.2641 18.744 36.4272 18.8318 36.5961 18.9026C36.9477 19.0505 37.3212 19.1254 37.706 19.1254C38.0907 19.1254 38.4642 19.0505 38.8158 18.9026C38.9848 18.8312 39.1478 18.7434 39.3002 18.6414C39.4514 18.54 39.593 18.4239 39.7217 18.2954C39.8509 18.1669 39.9677 18.026 40.0697 17.8762C40.1729 17.7247 40.2612 17.5626 40.3324 17.3946C40.4812 17.045 40.5565 16.6737 40.5565 16.2911C40.5565 15.9085 40.4812 15.5371 40.3324 15.1875C40.2606 15.0195 40.1723 14.8574 40.0697 14.7059C39.9677 14.5556 39.8509 14.4147 39.7217 14.2868C39.5925 14.1583 39.4508 14.0422 39.3002 13.9408C39.1478 13.8382 38.9848 13.7504 38.8158 13.6796C38.4642 13.5317 38.0907 13.4568 37.706 13.4568Z" fill="#D59729"/>
<g filter="url(#filter0_d_17715_123804)">
<path d="M35.2871 15.4698H35.8758L36.0513 16.0411L36.2274 15.4698H36.6465L36.8357 16.0411L36.9981 15.4698H37.5928L37.1333 17.2643H36.6596L36.4402 16.5586L36.2339 17.2643H35.7673L35.2871 15.4698Z" fill="#FFE900"/>
</g>
<g filter="url(#filter1_d_17715_123804)">
<path d="M38.3705 15.4698H37.7622V17.2649H38.3705V15.4698Z" fill="#FFE900"/>
</g>
<g filter="url(#filter2_d_17715_123804)">
<path d="M38.6543 15.4698H39.1007L39.425 16.0611V15.4698H40.0541V17.2643H39.5738L39.2632 16.6595V17.2643H38.6543V15.4698Z" fill="#FFE900"/>
</g>
<path d="M37.706 13.5169C39.2468 13.5169 40.496 14.759 40.496 16.2911C40.496 17.8232 39.2468 19.0653 37.706 19.0653C36.1651 19.0653 34.9159 17.8238 34.9159 16.2911C34.9159 14.7584 36.1651 13.5169 37.706 13.5169ZM37.706 13.4568C37.3212 13.4568 36.9477 13.5317 36.5961 13.6796C36.4272 13.7509 36.2641 13.8388 36.1117 13.9408C35.9606 14.0422 35.8189 14.1583 35.6902 14.2868C35.5616 14.4153 35.4442 14.5562 35.3422 14.7059C35.2391 14.8574 35.1507 15.0195 35.0796 15.1875C34.9308 15.5371 34.8555 15.9085 34.8555 16.2911C34.8555 16.6737 34.9308 17.045 35.0796 17.3946C35.1513 17.5626 35.2396 17.7247 35.3422 17.8762C35.4442 18.0266 35.561 18.1674 35.6902 18.2954C35.8195 18.4239 35.9612 18.54 36.1117 18.6414C36.2641 18.744 36.4272 18.8318 36.5961 18.9026C36.9477 19.0505 37.3212 19.1254 37.706 19.1254C38.0907 19.1254 38.4642 19.0505 38.8158 18.9026C38.9848 18.8312 39.1478 18.7434 39.3002 18.6414C39.4514 18.54 39.593 18.4239 39.7217 18.2954C39.8509 18.1669 39.9677 18.026 40.0697 17.8762C40.1729 17.7247 40.2612 17.5626 40.3324 17.3946C40.4812 17.045 40.5565 16.6737 40.5565 16.2911C40.5565 15.9085 40.4812 15.5371 40.3324 15.1875C40.2606 15.0195 40.1723 14.8574 40.0697 14.7059C39.9677 14.5556 39.8509 14.4147 39.7217 14.2868C39.5925 14.1583 39.4508 14.0422 39.3002 13.9408C39.1478 13.8382 38.9848 13.7504 38.8158 13.6796C38.4642 13.5317 38.0907 13.4568 37.706 13.4568Z" fill="#F6EC8E"/>
<path d="M37.7059 13.1438C39.4542 13.1438 40.8712 14.5527 40.8712 16.2912C40.8712 18.0296 39.4536 19.4385 37.7059 19.4385C35.9581 19.4385 34.5406 18.0296 34.5406 16.2912C34.5406 14.5527 35.9581 13.1438 37.7059 13.1438ZM37.7059 13.0831C37.2701 13.0831 36.848 13.168 36.4502 13.3354C36.2587 13.4156 36.0743 13.5152 35.9018 13.6314C35.731 13.7463 35.5704 13.8778 35.4245 14.0228C35.2787 14.1678 35.1459 14.3276 35.0309 14.4973C34.9141 14.6689 34.8145 14.8522 34.7332 15.0426C34.5649 15.4382 34.4795 15.8585 34.4795 16.2912C34.4795 16.7239 34.5649 17.1448 34.7332 17.5403C34.8139 17.7307 34.9141 17.9141 35.0309 18.0856C35.1465 18.2554 35.2787 18.4151 35.4245 18.5601C35.5704 18.7052 35.731 18.8372 35.9018 18.9516C36.0743 19.0677 36.2587 19.1667 36.4502 19.2475C36.848 19.4149 37.2707 19.4998 37.7059 19.4998C38.141 19.4998 38.5637 19.4149 38.9616 19.2475C39.153 19.1673 39.3374 19.0677 39.51 18.9516C39.6807 18.8366 39.8414 18.7052 39.9872 18.5601C40.1331 18.4151 40.2659 18.2554 40.3809 18.0856C40.4977 17.9141 40.5973 17.7307 40.6785 17.5403C40.8469 17.1448 40.9322 16.7244 40.9322 16.2918C40.9322 15.8591 40.8469 15.4388 40.6785 15.0432C40.5979 14.8528 40.4977 14.6695 40.3809 14.4979C40.2653 14.3281 40.1331 14.1684 39.9872 14.0234C39.8414 13.8784 39.6807 13.7463 39.51 13.632C39.3374 13.5158 39.153 13.4168 38.9616 13.336C38.5643 13.168 38.1416 13.0831 37.7059 13.0831Z" fill="#E5DF50"/>
<defs>
<filter id="filter0_d_17715_123804" x="34.6863" y="14.869" width="3.50738" height="2.99615" filterUnits="userSpaceOnUse" color-interpolation-filters="sRGB">
<feFlood flood-opacity="0" result="BackgroundImageFix"/>
<feColorMatrix in="SourceAlpha" type="matrix" values="0 0 0 0 0 0 0 0 0 0 0 0 0 0 0 0 0 0 127 0" result="hardAlpha"/>
<feOffset/>
<feGaussianBlur stdDeviation="0.30043"/>
<feComposite in2="hardAlpha" operator="out"/>
<feColorMatrix type="matrix" values="0 0 0 0 0 0 0 0 0 0 0 0 0 0 0 0 0 0 0.25 0"/>
<feBlend mode="normal" in2="BackgroundImageFix" result="effect1_dropShadow_17715_123804"/>
<feBlend mode="normal" in="SourceGraphic" in2="effect1_dropShadow_17715_123804" result="shape"/>
</filter>
<filter id="filter1_d_17715_123804" x="37.1613" y="14.869" width="1.81012" height="2.99676" filterUnits="userSpaceOnUse" color-interpolation-filters="sRGB">
<feFlood flood-opacity="0" result="BackgroundImageFix"/>
<feColorMatrix in="SourceAlpha" type="matrix" values="0 0 0 0 0 0 0 0 0 0 0 0 0 0 0 0 0 0 127 0" result="hardAlpha"/>
<feOffset/>
<feGaussianBlur stdDeviation="0.30043"/>
<feComposite in2="hardAlpha" operator="out"/>
<feColorMatrix type="matrix" values="0 0 0 0 0 0 0 0 0 0 0 0 0 0 0 0 0 0 0.25 0"/>
<feBlend mode="normal" in2="BackgroundImageFix" result="effect1_dropShadow_17715_123804"/>
<feBlend mode="normal" in="SourceGraphic" in2="effect1_dropShadow_17715_123804" result="shape"/>
</filter>
<filter id="filter2_d_17715_123804" x="38.0534" y="14.869" width="2.60162" height="2.99615" filterUnits="userSpaceOnUse" color-interpolation-filters="sRGB">
<feFlood flood-opacity="0" result="BackgroundImageFix"/>
<feColorMatrix in="SourceAlpha" type="matrix" values="0 0 0 0 0 0 0 0 0 0 0 0 0 0 0 0 0 0 127 0" result="hardAlpha"/>
<feOffset/>
<feGaussianBlur stdDeviation="0.30043"/>
<feComposite in2="hardAlpha" operator="out"/>
<feColorMatrix type="matrix" values="0 0 0 0 0 0 0 0 0 0 0 0 0 0 0 0 0 0 0.25 0"/>
<feBlend mode="normal" in2="BackgroundImageFix" result="effect1_dropShadow_17715_123804"/>
<feBlend mode="normal" in="SourceGraphic" in2="effect1_dropShadow_17715_123804" result="shape"/>
</filter>
<linearGradient id="paint0_linear_17715_123804" x1="32.2292" y1="15.9997" x2="42.3578" y2="15.9997" gradientUnits="userSpaceOnUse">
<stop stop-color="#0D9447"/>
<stop offset="0.9944" stop-color="#0B2A19"/>
<stop offset="1" stop-color="#0B2A19"/>
</linearGradient>
<linearGradient id="paint1_linear_17715_123804" x1="40.3256" y1="23.7189" x2="40.3256" y2="25.9794" gradientUnits="userSpaceOnUse">
<stop stop-color="#0D9447"/>
<stop offset="0.9944" stop-color="#0B2A19"/>
<stop offset="1" stop-color="#0B2A19"/>
</linearGradient>
<linearGradient id="paint2_linear_17715_123804" x1="28.075" y1="16.0314" x2="45.6033" y2="16.0314" gradientUnits="userSpaceOnUse">
<stop stop-color="#2A0F10"/>
<stop offset="0.9944" stop-color="#ED2224"/>
<stop offset="1" stop-color="#ED2224"/>
</linearGradient>
<linearGradient id="paint3_linear_17715_123804" x1="31.0573" y1="9.97688" x2="31.0573" y2="8.10571" gradientUnits="userSpaceOnUse">
<stop stop-color="#2A0F10"/>
<stop offset="0.9944" stop-color="#ED2224"/>
<stop offset="1" stop-color="#ED2224"/>
</linearGradient>
<linearGradient id="paint4_linear_17715_123804" x1="29.3139" y1="16.0314" x2="46.8422" y2="16.0314" gradientUnits="userSpaceOnUse">
<stop stop-color="#0C75BC"/>
<stop offset="0.9944" stop-color="#263D8E"/>
<stop offset="1" stop-color="#263D8E"/>
</linearGradient>
<linearGradient id="paint5_linear_17715_123804" x1="43.8602" y1="8.0867" x2="43.8602" y2="10.1394" gradientUnits="userSpaceOnUse">
<stop stop-color="#0C75BC"/>
<stop offset="0.9944" stop-color="#263D8E"/>
<stop offset="1" stop-color="#263D8E"/>
</linearGradient>
<linearGradient id="paint6_linear_17715_123804" x1="40.3257" y1="23.8655" x2="40.3257" y2="24.5414" gradientUnits="userSpaceOnUse">
<stop stop-color="white"/>
<stop offset="1" stop-color="#010101"/>
</linearGradient>
<linearGradient id="paint7_linear_17715_123804" x1="43.8234" y1="7.96192" x2="43.8234" y2="8.63782" gradientUnits="userSpaceOnUse">
<stop stop-color="white"/>
<stop offset="1" stop-color="#010101"/>
</linearGradient>
<linearGradient id="paint8_linear_17715_123804" x1="31.081" y1="7.96192" x2="31.081" y2="8.63782" gradientUnits="userSpaceOnUse">
<stop stop-color="white"/>
<stop offset="1" stop-color="#010101"/>
</linearGradient>
<linearGradient id="paint9_linear_17715_123804" x1="31.2892" y1="22.904" x2="35.259" y2="22.6217" gradientUnits="userSpaceOnUse">
<stop stop-color="#0D9447"/>
<stop offset="0.3462" stop-color="#0F9346"/>
<stop offset="0.4956" stop-color="#148E45"/>
<stop offset="0.6072" stop-color="#1A8643"/>
<stop offset="0.7" stop-color="#1D7B3F"/>
<stop offset="0.7811" stop-color="#1E6C3A"/>
<stop offset="0.854" stop-color="#1C5A33"/>
<stop offset="0.9207" stop-color="#174629"/>
<stop offset="0.9809" stop-color="#0E301D"/>
<stop offset="0.9944" stop-color="#0B2A19"/>
<stop offset="1" stop-color="#0B2A19"/>
</linearGradient>
<linearGradient id="paint10_linear_17715_123804" x1="40.9913" y1="18.6956" x2="41.7852" y2="18.6956" gradientUnits="userSpaceOnUse">
<stop stop-color="#0D9447"/>
<stop offset="0.9944" stop-color="#0B2A19"/>
<stop offset="1" stop-color="#0B2A19"/>
</linearGradient>
<linearGradient id="paint11_linear_17715_123804" x1="32.5227" y1="18.7674" x2="37.5051" y2="18.2207" gradientUnits="userSpaceOnUse">
<stop stop-color="#0D9447"/>
<stop offset="0.9944" stop-color="#0B2A19"/>
<stop offset="1" stop-color="#0B2A19"/>
</linearGradient>
<linearGradient id="paint12_linear_17715_123804" x1="32.4359" y1="9.68093" x2="40.9738" y2="9.68093" gradientUnits="userSpaceOnUse">
<stop stop-color="#0D9447"/>
<stop offset="0.9944" stop-color="#0B2A19"/>
<stop offset="1" stop-color="#0B2A19"/>
</linearGradient>
<linearGradient id="paint13_linear_17715_123804" x1="24.4226" y1="18.8313" x2="24.4226" y2="13.0416" gradientUnits="userSpaceOnUse">
<stop stop-color="#874B26"/>
<stop offset="0.1556" stop-color="#A16828"/>
<stop offset="0.3364" stop-color="#BD8828"/>
<stop offset="0.5145" stop-color="#D7A524"/>
<stop offset="0.6863" stop-color="#EBBD1C"/>
<stop offset="0.8495" stop-color="#FACD11"/>
<stop offset="0.9944" stop-color="#FFD408"/>
<stop offset="1" stop-color="#FFD408"/>
</linearGradient>
<linearGradient id="paint14_linear_17715_123804" x1="30.1124" y1="18.5146" x2="30.1124" y2="13.4601" gradientUnits="userSpaceOnUse">
<stop stop-color="#874B26"/>
<stop offset="0.1556" stop-color="#A16828"/>
<stop offset="0.3364" stop-color="#BD8828"/>
<stop offset="0.5145" stop-color="#D7A524"/>
<stop offset="0.6863" stop-color="#EBBD1C"/>
<stop offset="0.8495" stop-color="#FACD11"/>
<stop offset="0.9944" stop-color="#FFD408"/>
<stop offset="1" stop-color="#FFD408"/>
</linearGradient>
<linearGradient id="paint15_linear_17715_123804" x1="46.0993" y1="19.0763" x2="46.0993" y2="12.7657" gradientUnits="userSpaceOnUse">
<stop stop-color="#874B26"/>
<stop offset="0.1556" stop-color="#A16828"/>
<stop offset="0.3364" stop-color="#BD8828"/>
<stop offset="0.5145" stop-color="#D7A524"/>
<stop offset="0.6863" stop-color="#EBBD1C"/>
<stop offset="0.8495" stop-color="#FACD11"/>
<stop offset="0.9944" stop-color="#FFD408"/>
<stop offset="1" stop-color="#FFD408"/>
</linearGradient>
<linearGradient id="paint16_linear_17715_123804" x1="51.8502" y1="18.8309" x2="51.8502" y2="13.3169" gradientUnits="userSpaceOnUse">
<stop stop-color="#874B26"/>
<stop offset="0.1556" stop-color="#A16828"/>
<stop offset="0.3364" stop-color="#BD8828"/>
<stop offset="0.5145" stop-color="#D7A524"/>
<stop offset="0.6863" stop-color="#EBBD1C"/>
<stop offset="0.8495" stop-color="#FACD11"/>
<stop offset="0.9944" stop-color="#FFD408"/>
<stop offset="1" stop-color="#FFD408"/>
</linearGradient>
<linearGradient id="paint17_linear_17715_123804" x1="56.9673" y1="18.8309" x2="56.9673" y2="13.5498" gradientUnits="userSpaceOnUse">
<stop stop-color="#874B26"/>
<stop offset="0.1556" stop-color="#A16828"/>
<stop offset="0.3364" stop-color="#BD8828"/>
<stop offset="0.5145" stop-color="#D7A524"/>
<stop offset="0.6863" stop-color="#EBBD1C"/>
<stop offset="0.8495" stop-color="#FACD11"/>
<stop offset="0.9944" stop-color="#FFD408"/>
<stop offset="1" stop-color="#FFD408"/>
</linearGradient>
<linearGradient id="paint18_linear_17715_123804" x1="47.7432" y1="14.4375" x2="47.0937" y2="18.0516" gradientUnits="userSpaceOnUse">
<stop stop-color="#FFFABC"/>
<stop offset="0.989" stop-color="#A08603"/>
<stop offset="1" stop-color="#A08603"/>
</linearGradient>
<linearGradient id="paint19_linear_17715_123804" x1="24.6748" y1="13.532" x2="24.6748" y2="19.201" gradientUnits="userSpaceOnUse">
<stop stop-color="#FFFABC"/>
<stop offset="0.989" stop-color="#A08603"/>
<stop offset="1" stop-color="#A08603"/>
</linearGradient>
<linearGradient id="paint20_linear_17715_123804" x1="57.8759" y1="14.5785" x2="57.8759" y2="18.7102" gradientUnits="userSpaceOnUse">
<stop stop-color="#FFFABC"/>
<stop offset="0.989" stop-color="#A08603"/>
<stop offset="1" stop-color="#A08603"/>
</linearGradient>
<linearGradient id="paint21_linear_17715_123804" x1="56.8298" y1="15.0285" x2="61.4496" y2="15.0285" gradientUnits="userSpaceOnUse">
<stop stop-color="#FFFABC"/>
<stop offset="0.989" stop-color="#A08603"/>
<stop offset="1" stop-color="#A08603"/>
</linearGradient>
<linearGradient id="paint22_linear_17715_123804" x1="23.5972" y1="12.5026" x2="23.5972" y2="20.5924" gradientUnits="userSpaceOnUse">
<stop stop-color="#FFFABC"/>
<stop offset="0.989" stop-color="#A08603"/>
<stop offset="1" stop-color="#A08603"/>
</linearGradient>
<linearGradient id="paint23_linear_17715_123804" x1="25.6707" y1="15.4846" x2="25.6341" y2="19.3806" gradientUnits="userSpaceOnUse">
<stop stop-color="#FFFABC"/>
<stop offset="0.989" stop-color="#A08603"/>
<stop offset="1" stop-color="#A08603"/>
</linearGradient>
<linearGradient id="paint24_linear_17715_123804" x1="29.5802" y1="13.3801" x2="29.5802" y2="19.7491" gradientUnits="userSpaceOnUse">
<stop stop-color="#FFFABC"/>
<stop offset="0.989" stop-color="#A08603"/>
<stop offset="1" stop-color="#A08603"/>
</linearGradient>
<linearGradient id="paint25_linear_17715_123804" x1="56.718" y1="12.6217" x2="56.718" y2="21.1257" gradientUnits="userSpaceOnUse">
<stop stop-color="#FFFABC"/>
<stop offset="0.989" stop-color="#A08603"/>
<stop offset="1" stop-color="#A08603"/>
</linearGradient>
<linearGradient id="paint26_linear_17715_123804" x1="44.189" y1="13.1916" x2="44.189" y2="19.7239" gradientUnits="userSpaceOnUse">
<stop stop-color="#FFFABC"/>
<stop offset="0.989" stop-color="#A08603"/>
<stop offset="1" stop-color="#A08603"/>
</linearGradient>
<linearGradient id="paint27_linear_17715_123804" x1="27.2327" y1="14.1242" x2="52.3718" y2="14.1242" gradientUnits="userSpaceOnUse">
<stop stop-color="#FFFABC"/>
<stop offset="0.989" stop-color="#A08603"/>
<stop offset="1" stop-color="#A08603"/>
</linearGradient>
<linearGradient id="paint28_linear_17715_123804" x1="51.8474" y1="12.913" x2="51.8474" y2="19.3657" gradientUnits="userSpaceOnUse">
<stop stop-color="#FFFABC"/>
<stop offset="0.989" stop-color="#A08603"/>
<stop offset="1" stop-color="#A08603"/>
</linearGradient>
<linearGradient id="paint29_linear_17715_123804" x1="47.9567" y1="14.1859" x2="47.9567" y2="19.2682" gradientUnits="userSpaceOnUse">
<stop stop-color="#FFFABC"/>
<stop offset="0.989" stop-color="#A08603"/>
<stop offset="1" stop-color="#A08603"/>
</linearGradient>
<linearGradient id="paint30_linear_17715_123804" x1="45.3213" y1="13.3276" x2="45.2865" y2="19.871" gradientUnits="userSpaceOnUse">
<stop stop-color="#FFFABC"/>
<stop offset="0.989" stop-color="#A08603"/>
<stop offset="1" stop-color="#A08603"/>
</linearGradient>
<linearGradient id="paint31_linear_17715_123804" x1="37.7063" y1="13.1841" x2="37.7063" y2="19.3985" gradientUnits="userSpaceOnUse">
<stop offset="4.87397e-09" stop-color="#E2DD45"/>
<stop offset="0.9999" stop-color="#DBBC26"/>
</linearGradient>
<linearGradient id="paint32_linear_17715_123804" x1="37.7059" y1="13.558" x2="37.7059" y2="19.0246" gradientUnits="userSpaceOnUse">
<stop offset="4.87397e-09" stop-color="#E2DD45"/>
<stop offset="0.9999" stop-color="#DBBC26"/>
</linearGradient>
</defs>
</svg>
