<svg width="67" height="32" viewBox="0 0 67 32" fill="none" xmlns="http://www.w3.org/2000/svg">
<path d="M19.2837 19.1014C19.2837 18.2222 19.2928 17.343 19.2837 16.4734C19.2837 16.2995 19.3384 16.2512 19.4935 16.2512C20.506 16.2512 21.5185 16.2512 22.5219 16.2512C22.8503 16.2512 22.8412 16.5507 22.9141 16.7536C22.978 16.9469 22.9962 17.1594 22.9962 17.372C22.9871 18.2512 23.0054 19.1304 22.9962 20C22.9871 20.8502 22.604 21.4686 21.8834 21.8357C21.7101 21.9227 21.5185 21.9807 21.3178 21.9807C20.7158 21.9807 20.1138 21.971 19.5209 21.9807C19.3293 21.9807 19.2928 21.9034 19.3019 21.7198C19.2837 20.8599 19.2837 19.9807 19.2837 19.1014ZM20.5334 18.657C20.5334 19.256 20.5334 19.8647 20.5334 20.4638C20.5334 20.5797 20.5334 20.686 20.6793 20.686C20.88 20.686 21.0898 20.715 21.2905 20.657C21.5276 20.599 21.7374 20.3671 21.7374 20.1159C21.7466 19.1594 21.7466 18.2029 21.7374 17.2464C21.7374 16.9275 21.482 16.6763 21.181 16.6667C21.0259 16.657 20.88 16.6763 20.7249 16.657C20.5699 16.6473 20.5334 16.715 20.5334 16.8696C20.5334 17.4686 20.5334 18.0676 20.5334 18.657Z" fill="black"/>
<path d="M19.2837 12.8696C19.2837 11.9903 19.2928 11.1111 19.2837 10.2415C19.2837 10.058 19.3293 10 19.5026 10C20.0225 10.0193 20.5607 10 21.0898 10.0097C22.0476 10.029 22.8412 10.8889 22.8503 11.9034C22.8503 12.8309 22.8503 13.7488 22.8594 14.6763C22.8594 14.9952 22.8047 15.2947 22.6678 15.5845C22.604 15.7101 22.531 15.7585 22.4033 15.7585C21.4273 15.7585 20.4604 15.7585 19.4844 15.7585C19.3202 15.7585 19.2837 15.6908 19.2837 15.5266C19.2837 14.6473 19.2837 13.7585 19.2837 12.8696ZM20.5151 13.3237C20.5151 13.8261 20.5151 14.3188 20.5151 14.8213C20.5151 15.372 20.5151 15.372 21.0259 15.343C21.3543 15.3237 21.6097 15.0725 21.6097 14.7343C21.6188 13.8068 21.6188 12.8889 21.6097 11.9614C21.6097 11.5942 21.3634 11.3527 21.0168 11.3333C20.9256 11.3237 20.8344 11.3333 20.7432 11.3333C20.5699 11.314 20.506 11.3816 20.506 11.5749C20.5242 12.1546 20.5151 12.744 20.5151 13.3237Z" fill="black"/>
<path d="M40.3367 18.3382C40.3367 18.8986 40.3367 19.4686 40.3367 20.029C40.3367 20.9759 39.6526 21.8551 38.8134 21.9807C37.8556 22.1256 36.989 21.5556 36.7154 20.5797C36.6698 20.4155 36.6606 20.2319 36.6606 20.058C36.6606 18.8792 36.6606 17.6908 36.6606 16.5121C36.6606 16.2995 36.7245 16.2222 36.9252 16.2319C37.1715 16.2416 37.4086 16.2416 37.6549 16.2319C37.8373 16.2222 37.8921 16.2899 37.8921 16.4831C37.883 17.6618 37.883 18.8309 37.883 20.0097C37.883 20.3962 38.1019 20.657 38.4303 20.6763C38.8225 20.7053 39.0961 20.4348 39.1053 19.9904C39.1053 19.0435 39.1053 18.087 39.1053 17.1401C39.1053 16.9179 39.1144 16.686 39.1053 16.4638C39.0961 16.2899 39.1691 16.2319 39.3242 16.2319C39.5978 16.2319 39.8715 16.2416 40.1451 16.2319C40.3002 16.2319 40.3549 16.2899 40.3549 16.4638C40.3367 17.0821 40.3367 17.7102 40.3367 18.3382Z" fill="#F0DA09"/>
<path d="M40.3369 13.6425C40.3369 14.2705 40.3277 14.8986 40.3369 15.5266C40.3369 15.7005 40.2821 15.7585 40.1271 15.7488C39.8625 15.7391 39.598 15.7391 39.3335 15.7488C39.1602 15.7585 39.0963 15.6908 39.0963 15.4976C39.1054 14.3478 39.1054 13.1981 39.1054 12.0483C39.1054 11.7488 39.0051 11.4976 38.7406 11.3816C38.5216 11.285 38.2936 11.3043 38.102 11.4783C37.9561 11.6135 37.8831 11.7874 37.8831 12.0097C37.8831 13.1594 37.874 14.3092 37.8922 15.4589C37.8922 15.7005 37.8193 15.7681 37.6095 15.7488C37.3632 15.7295 37.1078 15.7391 36.8615 15.7488C36.7247 15.7488 36.6699 15.6908 36.6699 15.5459C36.679 14.3188 36.6608 13.0821 36.6882 11.8551C36.7064 10.9275 37.427 10.1159 38.2662 10.0193C39.1966 9.91304 40.0085 10.4831 40.2821 11.4106C40.3642 11.6812 40.346 11.9517 40.346 12.2222C40.346 12.6957 40.3369 13.1691 40.3369 13.6425Z" fill="#F0DA09"/>
<path d="M35.9581 19.0725C35.9216 19.5072 36.0037 20.029 35.8942 20.5411C35.73 21.314 34.9729 21.9903 34.2249 22C33.3128 22.0097 32.6469 21.5459 32.3641 20.686C32.2455 20.3382 32.2638 19.971 32.2729 19.6135C32.2729 19.5169 32.2729 19.4203 32.2729 19.3237C32.2638 19.1884 32.3276 19.1304 32.4462 19.1304C32.7381 19.1304 33.0391 19.1304 33.331 19.1304C33.4587 19.1304 33.5043 19.1884 33.5043 19.314C33.4952 19.5459 33.4952 19.7778 33.4952 20.0097C33.4952 20.4155 33.7324 20.6763 34.0881 20.6763C34.453 20.686 34.7084 20.4251 34.7084 20.0097C34.7084 19.4879 34.7084 18.9662 34.7084 18.4444C34.6993 17.7488 34.453 17.1787 33.933 16.7536C33.7962 16.6377 33.6685 16.5217 33.5317 16.4058C33.4861 16.3671 33.4313 16.3478 33.4587 16.2802C33.477 16.2319 33.5317 16.2415 33.5773 16.2415C34.1246 16.2415 34.6719 16.2512 35.2192 16.2415C35.356 16.2415 35.4472 16.3092 35.5202 16.4251C35.8121 16.8889 35.9489 17.4106 35.9672 17.971C35.9672 18.2995 35.9581 18.6473 35.9581 19.0725Z" fill="#F0DA09"/>
<path d="M32.3185 12.9952C32.3185 12.5797 32.2912 12.1546 32.3277 11.7391C32.3824 10.9082 33.0392 10.1836 33.8327 10.029C34.599 9.88406 35.429 10.3188 35.7848 11.0435C36.0037 11.4783 35.9855 11.942 35.9763 12.4058C35.9763 12.5024 35.9763 12.599 35.9763 12.6957C35.9855 12.8406 35.9216 12.8889 35.7848 12.8889C35.5111 12.8792 35.2375 12.8792 34.9638 12.8889C34.8088 12.8889 34.7449 12.8309 34.7449 12.6667C34.754 12.4541 34.754 12.2319 34.7449 12.0193C34.7358 11.6039 34.4895 11.3333 34.1338 11.3333C33.778 11.3333 33.5226 11.6039 33.5317 12.0193C33.5408 12.657 33.4679 13.3044 33.5682 13.942C33.6503 14.4444 33.8783 14.8599 34.2432 15.1884C34.3983 15.3333 34.5625 15.4686 34.7175 15.6039C34.7449 15.6329 34.7814 15.6522 34.7632 15.7005C34.7449 15.7488 34.7084 15.7488 34.6719 15.7488C34.1064 15.7488 33.5317 15.7488 32.9662 15.7488C32.8385 15.7488 32.7746 15.6618 32.7199 15.5652C32.4189 15.0918 32.3003 14.5507 32.3003 13.9903C32.3003 13.6618 32.3003 13.3333 32.3003 13.0048C32.3003 12.9952 32.3094 12.9952 32.3185 12.9952Z" fill="#F0DA09"/>
<path d="M23.854 12.8792C23.854 12 23.854 11.1208 23.854 10.2512C23.854 10.0676 23.8996 10.0097 24.0729 10.0097C25.0033 10.0193 25.9246 10.0193 26.855 10.0097C27.0192 10.0097 27.0648 10.0676 27.0648 10.2319C27.0557 10.5217 27.0557 10.8116 27.0648 11.1014C27.074 11.285 27.001 11.3333 26.8368 11.3333C26.3351 11.3237 25.8334 11.3333 25.3317 11.3237C25.1402 11.3237 25.1037 11.401 25.1037 11.5845C25.1128 12.7633 25.1128 13.9324 25.1037 15.1111C25.1037 15.285 25.1493 15.3527 25.3226 15.3527C25.8334 15.343 26.3442 15.3527 26.8459 15.343C26.9827 15.343 27.0831 15.3527 27.0831 15.5459C27.0831 15.7295 27.001 15.7585 26.855 15.7585C25.9246 15.7585 25.0033 15.7585 24.0729 15.7585C23.9087 15.7585 23.854 15.7005 23.854 15.5169C23.854 14.628 23.854 13.7585 23.854 12.8792Z" fill="black"/>
<path d="M41.1577 12.8792C41.1577 12 41.1577 11.1208 41.1577 10.2512C41.1577 10.0773 41.1942 10.0097 41.3766 10.0097C42.3071 10.0193 43.2466 10.0193 44.177 10.0097C44.3412 10.0097 44.3868 10.0676 44.3868 10.2319C44.3777 10.5217 44.3777 10.8116 44.3868 11.1014C44.3959 11.285 44.323 11.343 44.1588 11.3333C43.6844 11.3237 43.2192 11.3333 42.7449 11.3333C42.4165 11.3333 42.4165 11.3333 42.4165 11.6715C42.4165 12.8213 42.4165 13.971 42.4074 15.1208C42.4074 15.3043 42.4621 15.343 42.6172 15.343C43.1371 15.3333 43.6479 15.343 44.1679 15.3333C44.3229 15.3333 44.3868 15.372 44.3868 15.5459C44.3868 15.7198 44.3138 15.7488 44.177 15.7488C43.2466 15.7488 42.3071 15.7391 41.3766 15.7488C41.2033 15.7488 41.1577 15.6812 41.1577 15.5072C41.1577 14.628 41.1577 13.7488 41.1577 12.8792Z" fill="#F0DA09"/>
<path d="M29.1261 13.5362C29.1261 12.8889 29.117 12.2319 29.1261 11.5845C29.1261 11.3816 29.0623 11.3237 28.8798 11.3333C28.6153 11.343 28.3508 11.3333 28.0862 11.343C27.9494 11.343 27.8947 11.2947 27.9038 11.1401C27.9129 10.8309 27.9129 10.5314 27.9129 10.2222C27.9129 10.058 27.9768 10.0193 28.1136 10.0193C29.1717 10.0193 30.2298 10.0193 31.2788 10.0193C31.4339 10.0193 31.4978 10.0676 31.4886 10.2415C31.4795 10.5411 31.4795 10.8406 31.4886 11.1304C31.4978 11.285 31.4339 11.3333 31.2971 11.3333C31.0599 11.3333 30.8227 11.343 30.5947 11.3333C30.4305 11.3237 30.3758 11.3913 30.3758 11.5749C30.3849 12.8792 30.3758 14.1836 30.3849 15.4879C30.3849 15.7005 30.3211 15.7681 30.1295 15.7584C29.8741 15.7488 29.6096 15.7488 29.3542 15.7584C29.19 15.7681 29.1352 15.7101 29.1352 15.5266C29.1352 14.8502 29.1261 14.1932 29.1261 13.5362Z" fill="black"/>
<path d="M47.3055 13.5556C47.3055 14.2029 47.2964 14.8406 47.3055 15.4879C47.3055 15.6908 47.2416 15.7585 47.0592 15.7488C46.8129 15.7391 46.5575 15.7295 46.3112 15.7488C46.1105 15.7585 46.074 15.6715 46.074 15.4783C46.0832 14.1836 46.074 12.8889 46.0832 11.5942C46.0832 11.372 46.0193 11.314 45.8186 11.3237C45.5541 11.3333 45.2896 11.3237 45.025 11.3237C44.8791 11.3237 44.8244 11.2657 44.8335 11.1014C44.8426 10.8019 44.8426 10.5024 44.8335 10.2126C44.8335 10.058 44.8882 10 45.0342 10C46.1014 10 47.1778 10 48.245 10C48.3727 10 48.4366 10.0386 48.4366 10.1932C48.4274 10.4928 48.4183 10.7923 48.4274 11.0821C48.4366 11.2657 48.3545 11.3237 48.1994 11.314C47.9714 11.3043 47.7433 11.314 47.5153 11.314C47.3602 11.314 47.3055 11.372 47.3055 11.5459C47.3055 12.2222 47.3055 12.8889 47.3055 13.5556Z" fill="#F0DA09"/>
<path d="M23.8539 19.1111C23.8539 18.2319 23.863 17.3526 23.8539 16.4831C23.8539 16.2898 23.9177 16.2415 24.0819 16.2415C25.0032 16.2415 25.9245 16.2415 26.8367 16.2415C26.9826 16.2415 27.0647 16.2705 27.0647 16.4541C27.0647 16.628 26.9917 16.6763 26.8458 16.6667C26.3441 16.657 25.8424 16.6667 25.3407 16.657C25.1674 16.657 25.1036 16.6956 25.1036 16.8985C25.1127 18.0773 25.1127 19.2657 25.1036 20.4444C25.1036 20.6377 25.1583 20.6956 25.3407 20.686C25.8424 20.6763 26.3441 20.686 26.8458 20.686C27.01 20.686 27.083 20.7343 27.0738 20.9179C27.0556 21.2077 27.0556 21.4976 27.0647 21.7874C27.0647 21.9324 27.01 21.9807 26.8732 21.9807C25.9427 21.9807 25.0032 21.971 24.0728 21.9807C23.8904 21.9807 23.863 21.9034 23.863 21.7295C23.8539 20.8696 23.8448 19.9903 23.8539 19.1111Z" fill="black"/>
<path d="M42.4072 19.343C42.4072 20.1353 42.4072 20.9372 42.4072 21.7295C42.4072 21.9131 42.3616 21.9903 42.1792 21.9807C41.8964 21.971 41.6136 21.971 41.34 21.9807C41.2032 21.9807 41.1484 21.942 41.1484 21.7874C41.1484 20 41.1484 18.2126 41.1484 16.4251C41.1484 16.2705 41.2032 16.2126 41.3491 16.2126C42.2886 16.2126 43.2373 16.2222 44.1768 16.2126C44.341 16.2126 44.3775 16.2995 44.3775 16.4541C44.3775 16.6184 44.3137 16.657 44.1677 16.657C43.666 16.6474 43.1643 16.6667 42.6626 16.6474C42.4711 16.6474 42.3981 16.6957 42.3981 16.9179C42.4255 17.7391 42.4164 18.5411 42.4072 19.343C42.4164 19.343 42.4072 19.343 42.4072 19.343Z" fill="#F0DA09"/>
<path d="M29.126 19.1111C29.126 18.2319 29.1351 17.3623 29.126 16.4831C29.126 16.2899 29.1716 16.2222 29.354 16.2319C29.6277 16.2416 29.9013 16.2319 30.175 16.2319C30.3118 16.2319 30.3757 16.2802 30.3757 16.4445C30.3665 18.2126 30.3665 19.9807 30.3757 21.7488C30.3757 21.9324 30.3118 21.9904 30.1476 21.9807C29.874 21.971 29.6003 21.971 29.3267 21.9807C29.1625 21.9904 29.126 21.9227 29.126 21.7585C29.126 20.8792 29.126 20 29.126 19.1111Z" fill="black"/>
<path d="M46.0649 19.1111C46.0649 18.2609 46.0649 17.401 46.0649 16.5507C46.0649 16.2319 46.0649 16.2319 46.3751 16.2319C46.6214 16.2319 46.8585 16.2415 47.1048 16.2319C47.2508 16.2319 47.3055 16.2898 47.3055 16.4444C47.3055 18.2222 47.3055 20 47.3055 21.7778C47.3055 21.9227 47.269 21.9807 47.1231 21.9807C46.8403 21.971 46.5575 21.971 46.2839 21.9807C46.1014 21.9903 46.0741 21.9034 46.0741 21.7391C46.0741 20.8696 46.0649 19.9903 46.0649 19.1111Z" fill="#F0DA09"/>
<path d="M51.0002 13.8164C51.0002 15.2947 51.0002 16.7246 51.0002 18.1739C50.8725 18.1256 50.8086 18.0193 50.7356 17.942C50.161 17.343 49.5863 16.744 49.0208 16.1546C48.9478 16.0773 48.8566 16.0193 48.9843 15.8841C49.6137 15.2367 50.234 14.5797 50.8634 13.9227C50.8907 13.8937 50.9363 13.8744 51.0002 13.8164Z" fill="#F0DA09"/>
<path d="M16 18.2319C16 16.7343 16 15.2754 16 13.8261C16.0821 13.8068 16.1186 13.8744 16.1551 13.913C16.7662 14.5507 17.3683 15.1884 17.9885 15.8164C18.1162 15.9517 18.1436 16.029 17.9977 16.1739C17.3774 16.8116 16.7662 17.4589 16.1551 18.1063C16.1186 18.1449 16.073 18.1739 16 18.2319Z" fill="#F0DA09"/>
</svg>
