<svg width="110" height="32" viewBox="0 0 110 32" fill="none" xmlns="http://www.w3.org/2000/svg">
<path fill-rule="evenodd" clip-rule="evenodd" d="M16 9H27.4274V23H16V9ZM18.7677 20.8745V11.5343H21.5774C22.5629 11.5343 23.3387 11.7387 23.8839 12.1679C24.429 12.5971 24.7226 13.2307 24.7226 14.0686C24.7226 14.4774 24.6177 14.8861 24.429 15.254C24.2194 15.6015 23.9048 15.8672 23.5274 16.0307C23.9887 16.1124 24.4081 16.3985 24.6387 16.7869C24.8903 17.1956 25.0161 17.6657 24.9952 18.1358C24.9952 19.035 24.7436 19.7095 24.2194 20.1591C23.6952 20.6088 22.9403 20.854 21.9758 20.854L18.7677 20.8745ZM20.5081 16.746V19.4234H21.829C22.1645 19.4438 22.479 19.3212 22.7097 19.0964C22.9194 18.8307 23.0242 18.4832 23.0032 18.1358C23.0242 17.7883 22.9403 17.4204 22.7516 17.1139C22.5629 16.8686 22.2694 16.7255 21.9548 16.746H20.5081ZM20.5081 15.4788H21.5355C21.871 15.4993 22.1855 15.3766 22.4161 15.1518C22.6258 14.9066 22.7516 14.5796 22.7097 14.2526C22.7306 13.9051 22.6258 13.5577 22.3952 13.292C22.1435 13.0672 21.7871 12.965 21.4516 12.9854H20.5081C20.5081 13.0058 20.5081 15.4788 20.5081 15.4788Z" fill="#FECA00"/>
<path d="M39.0645 22.9796H38.3936V9H39.0645V22.9796Z" fill="black"/>
<path d="M50.7227 22.9796H50.0518V9H50.7227V22.9796Z" fill="black"/>
<path d="M62.3594 22.9796H61.6885V9H62.3594V22.9796Z" fill="black"/>
<path d="M74.0177 22.9796H73.3677V9H74.0177V22.9796Z" fill="black"/>
<path d="M85.6968 22.9796H85.0259V9H85.6968V22.9796Z" fill="black"/>
<path d="M35.8357 19.3211C35.5841 19.7503 35.2067 20.0978 34.7664 20.343C34.2002 20.67 33.5293 20.8131 32.8793 20.7927C31.8728 20.7927 31.0551 20.4861 30.447 19.8934C29.8389 19.3007 29.5244 18.4627 29.5244 17.3591V14.6C29.5244 13.5167 29.818 12.6788 30.4051 12.0861C30.9922 11.4934 31.768 11.1868 32.7325 11.2073C33.718 11.2073 34.4518 11.4525 34.976 11.9226C35.5002 12.3927 35.7728 13.0671 35.8147 13.9459L35.7938 13.9868H34.5357C34.5147 13.3941 34.368 12.9445 34.0744 12.6584C33.7809 12.3722 33.3405 12.2087 32.7744 12.2087C32.2502 12.1883 31.726 12.4131 31.3905 12.8219C31.0551 13.2306 30.8873 13.8233 30.8873 14.6V17.3795C30.8873 18.1766 31.076 18.7897 31.4325 19.1985C31.7889 19.6073 32.3341 19.8525 32.9002 19.8321C33.2776 19.8525 33.6341 19.7708 33.9696 19.6073C34.2002 19.4642 34.4099 19.2598 34.5357 19.035V16.889H32.9002V15.9489H35.8776V19.3211H35.8357Z" fill="black"/>
<path d="M43.2581 17.4614H45.6903L44.5161 13.3738H44.4742L43.2581 17.4614ZM46.0048 18.4833H42.9645L42.2726 20.8336H40.9097L43.8452 11.5139H45.1452L48.0597 20.8336H46.6968L46.0048 18.4833Z" fill="black"/>
<path d="M53.9518 11.5139L56.1953 19.1168H56.2373L58.4808 11.5139H60.2002V20.8336H58.8792V17.257L58.984 13.6803L58.9421 13.6599L56.6566 20.8336H55.776L53.4695 13.6803H53.4486L53.5534 17.257V20.8336H52.2324V11.5139H53.9518Z" fill="black"/>
<path d="M68.4821 20.8336H67.1611V11.5139H68.4821V20.8336Z" fill="black"/>
<path d="M82.845 20.8336H81.503L77.8756 13.9052H77.8337V20.8336H76.5127V11.5139H77.8337L81.4611 18.4219H81.503V11.5139H82.845V20.8336Z" fill="black"/>
<path d="M93.9998 19.3825C93.7272 19.8117 93.3707 20.1592 92.9304 20.4044C92.3643 20.7314 91.6933 20.8745 91.0433 20.8541C90.0369 20.8541 89.2401 20.5679 88.6111 19.9752C88.003 19.3825 87.6885 18.5446 87.6885 17.4409V14.6409C87.6885 13.5577 87.982 12.7198 88.5691 12.1271C89.1562 11.5344 89.932 11.2278 90.8756 11.2278C91.8611 11.2278 92.5949 11.473 93.1191 11.9431C93.6433 12.4132 93.9159 13.0876 93.9578 13.9665L93.9369 14.0073H92.6788C92.6578 13.4146 92.5111 12.9854 92.2175 12.6789C91.924 12.3723 91.4836 12.2292 90.9175 12.2292C90.3933 12.2088 89.8691 12.4336 89.5336 12.8424C89.1982 13.2511 89.0304 13.8438 89.0304 14.6205V17.4C89.0304 18.1971 89.2191 18.8103 89.5756 19.219C89.932 19.6278 90.4772 19.873 91.0433 19.8526C91.4207 19.873 91.7772 19.7913 92.1127 19.6278C92.3433 19.4847 92.553 19.2803 92.6788 19.0555V16.93H91.0433V15.9898H93.9998V19.3825Z" fill="black"/>
</svg>
