<svg width="80" height="32" viewBox="0 0 80 32" fill="none" xmlns="http://www.w3.org/2000/svg">
<g clip-path="url(#clip0_17715_123351)">
<path d="M50.1162 17.6702V15.1746C50.1162 14.6744 50.1927 14.2488 50.3457 13.9096C50.4987 13.5703 50.7047 13.2943 50.9696 13.0873C51.2226 12.8918 51.511 12.7538 51.8524 12.6618C52.1878 12.5698 52.535 12.5238 52.894 12.5238C52.9176 12.5238 52.9529 12.5238 52.9941 12.5238C53.0353 12.5238 53.0647 12.5238 53.0941 12.5238V13.8981H52.641C52.2584 13.8981 51.9759 13.9901 51.7876 14.1683C51.6052 14.3466 51.511 14.6341 51.511 15.0194V17.6702H50.1162Z" fill="#B1B3B6"/>
<path d="M53.4951 11.0172H54.2072C54.3897 11.0172 54.5486 11.0804 54.6839 11.2127C54.8134 11.3392 54.884 11.4944 54.884 11.6784V12.0867H53.501V11.0172H53.4951ZM53.4951 12.5294H54.2072C54.3897 12.5294 54.5486 12.5927 54.6839 12.7249C54.8134 12.8514 54.884 13.0067 54.884 13.1907V17.6758H53.501V12.5294H53.4951Z" fill="#B1B3B6"/>
<path d="M59.8327 17.67H59.1382C58.9381 17.67 58.7792 17.6068 58.6556 17.486C58.532 17.3653 58.4673 17.2043 58.4673 17.0145V14.381C58.4673 14.0705 58.3731 13.8462 58.1789 13.7025C57.9847 13.5587 57.7728 13.4897 57.5374 13.4897C57.302 13.4897 57.0902 13.5587 56.9018 13.7025C56.7194 13.8462 56.6252 14.0705 56.6252 14.381V17.67H55.2422V14.657C55.2422 13.783 55.4776 13.1964 55.9425 12.8974C56.4134 12.5984 56.9313 12.4374 57.4962 12.4144C58.0789 12.4144 58.6085 12.5639 59.097 12.8572C59.5855 13.1562 59.8268 13.7542 59.8268 14.657V17.67H59.8327Z" fill="#B1B3B6"/>
<path d="M62.3875 17.6701C61.952 17.6931 61.4812 17.6873 60.975 17.6528C60.4689 17.6125 60.2158 17.2963 60.2158 16.704V11.0172H60.9279C61.0986 11.0172 61.2516 11.0804 61.3811 11.2127C61.5106 11.3392 61.5812 11.4944 61.5812 11.6784V12.5467H62.3934V12.8169C62.3934 13.0124 62.3286 13.1677 62.1933 13.2885C62.0638 13.4092 61.9049 13.4725 61.7166 13.4725H61.5753V16.336C61.5753 16.5545 61.7048 16.6638 61.9696 16.6638H62.3875V17.6701V17.6701Z" fill="#B1B3B6"/>
<path d="M46.2618 18.9064C46.2618 19.0847 46.197 19.2399 46.0617 19.3722C45.9322 19.4987 45.7733 19.5677 45.585 19.5677H44.9141V14.7491C44.9141 13.8463 45.1848 13.231 45.7262 12.9033C46.2677 12.5755 46.8562 12.4088 47.4859 12.4088C47.8155 12.4088 48.1509 12.472 48.4864 12.5928C48.8219 12.7135 49.0926 12.8918 49.2868 13.1218C49.6811 13.622 49.8812 14.2718 49.8812 15.0538C49.8812 15.8646 49.6811 16.5258 49.2868 17.0261C48.8925 17.5149 48.3805 17.7621 47.7625 17.7621C47.4329 17.7621 47.1446 17.7046 46.8915 17.5896C46.6267 17.4631 46.4148 17.2619 46.2559 16.9916V18.9064H46.2618ZM48.5158 15.1171C48.5158 14.6168 48.4158 14.2258 48.2216 13.9555C48.0215 13.6853 47.739 13.5473 47.3682 13.5473C47.0092 13.5473 46.7326 13.6853 46.5384 13.9555C46.3559 14.2028 46.2618 14.5881 46.2618 15.1171C46.2618 15.6058 46.3618 15.9738 46.556 16.2211C46.7561 16.4913 47.0386 16.6293 47.4094 16.6293C47.7507 16.6293 48.0215 16.4913 48.2216 16.2211C48.4158 15.9508 48.5158 15.5828 48.5158 15.1171Z" fill="#B1B3B6"/>
<path d="M30.8543 12.4087C30.513 12.4087 30.2187 12.472 29.9833 12.6042C29.7067 12.7595 29.4948 12.9607 29.3477 13.2022V11.6554C29.3477 11.4772 29.283 11.3219 29.1476 11.1897C29.0181 11.0632 28.8592 10.9942 28.6709 10.9942H28.0059V15.4218C28.0059 16.336 28.2766 16.9571 28.818 17.2791C29.3595 17.6011 29.948 17.7621 30.5777 17.7621C30.9073 17.7621 31.2427 17.7046 31.5782 17.5953C31.9137 17.4861 32.1844 17.3078 32.3786 17.0663C32.7729 16.566 32.973 15.9105 32.973 15.1113C32.973 14.312 32.7729 13.6622 32.3786 13.1562C31.9843 12.6617 31.4781 12.4087 30.8543 12.4087ZM31.3134 16.2383C31.1133 16.5085 30.8308 16.6466 30.46 16.6466C30.101 16.6466 29.8244 16.5085 29.6302 16.2383C29.4477 15.991 29.3536 15.6 29.3536 15.0595C29.3536 14.5938 29.4536 14.2257 29.6478 13.9555C29.8479 13.6967 30.1304 13.5702 30.5012 13.5702C30.8425 13.5702 31.1133 13.7082 31.3134 13.9785C31.5135 14.2372 31.6076 14.5995 31.6076 15.0595C31.6076 15.577 31.5076 15.968 31.3134 16.2383Z" fill="url(#paint0_linear_17715_123351)"/>
<path d="M33.9856 11.0172H33.2734V17.6701H34.6565V11.6555C34.6565 11.4772 34.5917 11.322 34.4564 11.2012C34.3269 11.0805 34.168 11.0172 33.9856 11.0172Z" fill="url(#paint1_linear_17715_123351)"/>
<path d="M38.4105 12.7192C38.2869 12.8457 38.2222 13.001 38.2222 13.185V15.8128C38.2222 16.1233 38.128 16.3476 37.9338 16.4913C37.7396 16.6351 37.5277 16.7041 37.2923 16.7041C37.0569 16.7041 36.845 16.6351 36.6567 16.4913C36.4743 16.3476 36.3801 16.1233 36.3801 15.8128V12.5295H34.9971V15.5425C34.9971 16.4338 35.2325 17.0203 35.6974 17.3021C36.1682 17.5838 36.6861 17.7391 37.2511 17.7678C37.8338 17.7678 38.3634 17.6241 38.8519 17.3423C39.3404 17.0606 39.5817 16.4626 39.5817 15.5425V12.5295H38.8931C38.693 12.5295 38.5341 12.5927 38.4105 12.7192Z" fill="url(#paint2_linear_17715_123351)"/>
<path d="M44.0605 13.1103C43.625 12.6445 43.0129 12.4145 42.2184 12.4145C41.4651 12.4145 40.8766 12.6503 40.4587 13.1275C40.0527 13.5933 39.8467 14.2373 39.8467 15.0596C39.8467 15.9221 40.0585 16.5891 40.4823 17.0491C40.906 17.5264 41.4887 17.7621 42.242 17.7621C42.8599 17.7621 43.3778 17.6126 43.7839 17.3194C44.19 17.0376 44.4725 16.6236 44.6137 16.0831H43.625C43.4661 16.0831 43.3425 16.1176 43.2601 16.1809C43.1718 16.2441 43.0188 16.4454 42.8952 16.5086C42.7363 16.5949 42.548 16.6466 42.3185 16.6466C41.9771 16.6466 41.7182 16.5431 41.5475 16.3361C41.3651 16.1406 41.265 15.8473 41.2533 15.4448H44.6785C44.6902 15.4218 44.6961 15.3758 44.6961 15.3068C44.6961 15.2953 44.6961 15.2666 44.6961 15.2321C44.6961 15.1918 44.6961 15.1458 44.6961 15.0941C44.6961 14.2488 44.4843 13.5818 44.0605 13.1103ZM41.2533 14.5766C41.265 14.2431 41.3651 13.9843 41.5475 13.8003C41.73 13.622 41.9713 13.53 42.2596 13.53C42.5774 13.53 42.8187 13.622 42.9894 13.8003C43.1483 13.9671 43.2425 14.2258 43.266 14.5766H41.2533Z" fill="url(#paint3_linear_17715_123351)"/>
<path d="M49.9226 20.4015C49.9226 20.413 49.9226 20.4302 49.9226 20.4475C49.9226 20.4705 49.9226 20.4877 49.9226 20.4935C49.9226 20.62 49.9108 20.735 49.8873 20.8385C49.8637 20.9477 49.8284 21.0455 49.7814 21.1432C49.6401 21.4135 49.4518 21.6262 49.2105 21.7757C48.9692 21.9252 48.6985 22 48.3924 22C48.1688 22 47.9628 21.9597 47.7686 21.8735C47.5803 21.7872 47.4096 21.6665 47.2566 21.4997C47.133 21.3617 47.033 21.2065 46.9682 21.0282C46.9035 20.8557 46.8682 20.666 46.8682 20.4705C46.8682 20.2692 46.9094 20.0794 46.9859 19.8954C47.0683 19.7114 47.186 19.5504 47.339 19.4009C47.4861 19.2572 47.6509 19.1537 47.8275 19.0847C48.0099 19.0157 48.21 18.9812 48.4278 18.9812C48.7456 18.9812 49.0222 19.0559 49.2576 19.2112C49.493 19.3664 49.6695 19.5849 49.7931 19.8782H49.0869C48.9986 19.7747 48.8986 19.6942 48.7867 19.6424C48.669 19.5907 48.5396 19.5619 48.3983 19.5619C48.1453 19.5619 47.9275 19.6539 47.7509 19.8322C47.5744 20.0104 47.4861 20.2289 47.4861 20.4877C47.4861 20.7465 47.5744 20.965 47.7568 21.149C47.9334 21.3272 48.157 21.4192 48.416 21.4192C48.5984 21.4192 48.7632 21.3732 48.9103 21.2755C49.0575 21.1777 49.1693 21.0512 49.2399 20.8902H48.0746V20.4015H49.9226V20.4015Z" fill="#B1B3B6"/>
<path d="M50.5046 21.333L50.2751 21.9425H49.6748L50.8283 19.0387H51.3286L52.4644 21.9425H51.8406L51.6052 21.333H50.5046ZM51.4168 20.7982L51.0637 19.861L50.7047 20.7982H51.4168Z" fill="#B1B3B6"/>
<path d="M53.1949 21.9425H52.6182V19.0387H53.3891L54.1424 21.149L54.8958 19.0387H55.6667V21.9425H55.0958L55.1135 19.838L54.3602 21.9425H53.9247L53.1714 19.838L53.1949 21.9425Z" fill="#B1B3B6"/>
<path d="M55.9551 21.9425V19.0387H56.5377V21.9425H55.9551Z" fill="#B1B3B6"/>
<path d="M57.397 21.9425H56.8262V19.0387H57.3794L58.6094 20.8902V19.0387H59.1803V21.9425H58.6388L57.4029 20.0335V21.9425H57.397Z" fill="#B1B3B6"/>
<path d="M62.3816 20.4015C62.3816 20.413 62.3816 20.4303 62.3816 20.4475C62.3816 20.4705 62.3816 20.4878 62.3816 20.4935C62.3816 20.62 62.3698 20.735 62.3463 20.8385C62.3227 20.9478 62.2874 21.0455 62.2403 21.1433C62.0991 21.4135 61.9108 21.6263 61.6695 21.7758C61.4282 21.9253 61.1575 22.0001 60.8514 22.0001C60.6278 22.0001 60.4218 21.9598 60.2276 21.8735C60.0393 21.7873 59.8686 21.6665 59.7156 21.4998C59.5861 21.3618 59.4919 21.2065 59.4272 21.0283C59.3625 20.8558 59.3271 20.666 59.3271 20.4705C59.3271 20.2693 59.3683 20.0795 59.4449 19.8955C59.5272 19.7115 59.645 19.5505 59.798 19.401C59.9451 19.2572 60.1099 19.1537 60.2864 19.0847C60.4689 19.0157 60.669 18.9812 60.8867 18.9812C61.2045 18.9812 61.4811 19.056 61.7166 19.2112C61.952 19.3665 62.1285 19.585 62.258 19.8783H61.5518C61.4635 19.7747 61.3634 19.6942 61.2516 19.6425C61.1339 19.5907 61.0044 19.562 60.8632 19.562C60.6101 19.562 60.3924 19.654 60.2158 19.8323C60.0393 20.0105 59.951 20.229 59.951 20.4878C59.951 20.7465 60.0393 20.965 60.2217 21.149C60.3983 21.3273 60.6219 21.4193 60.8809 21.4193C61.0633 21.4193 61.2281 21.3733 61.3752 21.2755C61.5223 21.1778 61.6342 21.0513 61.7048 20.8903H60.5395V20.4015H62.3816V20.4015Z" fill="#B1B3B6"/>
<path d="M62.7932 19.0961H62.6991V18.2739H62.5107V18.1819H62.9757V18.2739H62.7873V19.0961H62.7932Z" fill="#B1B3B6"/>
<path d="M63.082 19.0962V18.1819H63.2174L63.5411 18.9754L63.8648 18.1819H64.0001V19.0962H63.9118V18.2911L63.5823 19.0962H63.4999L63.1703 18.2911V19.0962H63.082Z" fill="#B1B3B6"/>
<path d="M27.0643 15.4965L24.463 15.347L26.0579 13.3115L23.5744 14.3867L24.1335 12.1844L22.7151 13.4437L22.5739 11.3392L21.2791 13.6047L19.9608 11.7072L20.1609 14.0935L18.0011 12.5409L18.9662 14.7317L16.9417 14.3062L18.7838 16.037L16.2061 16.5315L18.4307 17.2848L16.5651 18.3716L19.0722 18.0726L17.4949 20.0679L19.8843 18.9523L19.4606 21.5399L20.9084 19.8206L21.5087 21.5859L22.1443 19.8149L23.6627 21.6722L23.4214 18.9236L25.5695 20.2806L24.5925 17.9001L26.7759 17.8598L24.6749 16.9916L27.0643 15.4965ZM21.7029 19.4181C20.108 19.4181 18.8132 18.1531 18.8132 16.5948C18.8132 15.0365 20.108 13.7715 21.7029 13.7715C23.2978 13.7715 24.5925 15.0365 24.5925 16.5948C24.5925 18.1531 23.2978 19.4181 21.7029 19.4181Z" fill="#FFCB05"/>
<path d="M21.7031 13.7773C20.1082 13.7773 18.8135 15.0423 18.8135 16.6006C18.8135 18.1589 20.1082 19.4239 21.7031 19.4239C23.298 19.4239 24.5928 18.1589 24.5928 16.6006C24.5928 15.0423 23.298 13.7773 21.7031 13.7773ZM24.5398 16.6063C24.5398 18.1359 23.2686 19.3779 21.7031 19.3779C20.1377 19.3779 18.8664 18.1359 18.8664 16.6063C18.8664 15.5483 19.4667 14.6341 20.3554 14.1625C20.7556 13.9498 21.2147 13.829 21.709 13.829C23.2686 13.829 24.5398 15.0711 24.5398 16.5948C24.5398 16.6006 24.5398 16.6006 24.5398 16.6063C24.5398 16.6006 24.5398 16.6006 24.5398 16.6063Z" fill="#B28F04"/>
<path d="M24.7925 16.98L27.2349 15.4505L24.5689 15.2952L26.2344 13.1734L23.6567 14.289L24.2334 12.0234L22.768 13.3287L22.6209 11.1552L21.2732 13.507L19.8901 11.5059L20.0961 13.9785L17.8715 12.3799L18.872 14.657L16.7651 14.2142L18.6719 16.0025L16 16.5143L18.307 17.2905L16.3178 18.4521L18.9544 18.1358L17.3183 20.2059L19.8136 19.0386L19.3722 21.7181L20.8847 19.9241L21.5086 21.7526L22.1677 19.9241L23.7391 21.8446L23.4919 19.0328L25.693 20.4244L24.6807 17.9518L27.0407 17.9116L24.7925 16.98ZM25.5694 20.2864L23.4213 18.9293L23.6626 21.6779L22.1442 19.8206L21.5086 21.5916L20.9083 19.8263L19.4605 21.5456L19.8843 18.9581L17.5007 20.0736L19.078 18.0783L16.5709 18.3773L18.4365 17.2905L16.206 16.5315L18.7837 16.037L16.9416 14.3062L18.9662 14.7317L18.001 12.5409L20.1609 14.0935L19.9608 11.7072L21.2732 13.6105L22.5679 11.3449L22.7092 13.4495L24.1275 12.1902L23.5684 14.3925L26.052 13.3172L24.4571 15.3527L27.0584 15.5023L24.669 16.9973L26.77 17.8656L24.5924 17.9001L25.5694 20.2864Z" fill="#B28F04"/>
<path d="M21.7082 13.9498C23.2031 13.9498 24.4213 15.14 24.4213 16.6006C24.4213 18.0611 23.2031 19.2514 21.7082 19.2514C20.2134 19.2514 18.9951 18.0611 18.9951 16.6006C18.9951 15.1343 20.2134 13.9498 21.7082 13.9498Z" fill="url(#paint4_radial_17715_123351)"/>
<path d="M23.7158 17.4343C23.4745 17.21 23.4098 16.9283 23.4098 16.9283C23.398 16.8823 23.3686 16.8938 23.3686 16.8938C23.3391 16.8995 23.3509 16.934 23.3509 16.934C23.4039 17.141 23.4333 17.1928 23.4333 17.1928C21.5677 17.578 19.8904 17.1525 19.8904 17.1525C19.9669 17.0318 20.0199 16.9053 20.0199 16.9053C20.0316 16.865 20.0081 16.8593 20.0081 16.8593C19.9787 16.8478 19.9669 16.8823 19.9669 16.8823C19.7903 17.21 19.5432 17.3308 19.5432 17.3308C19.5432 17.3308 19.4961 17.3595 19.5137 17.3825C19.5137 17.3825 19.5255 17.3998 19.5844 17.3825C19.7021 17.325 19.8198 17.2273 19.8198 17.2273C20.0081 17.5665 20.3141 17.8886 20.3141 17.8886C20.6496 18.2508 21.0145 18.3831 21.0145 18.3831C21.2558 18.5038 21.5794 18.5096 21.5794 18.5096C22.8801 18.5728 23.4686 17.2848 23.4686 17.2848C23.5275 17.3825 23.6746 17.4803 23.6746 17.4803C23.7452 17.5033 23.7158 17.4343 23.7158 17.4343ZM21.6265 18.4176C20.5436 18.4061 19.9433 17.256 19.9433 17.256L20.0257 17.2733C20.9792 17.486 21.756 17.4573 21.8561 17.4515C21.6206 17.4573 22.5329 17.4573 23.2567 17.3135L23.3509 17.2963C23.3568 17.2963 22.78 18.4291 21.6265 18.4176Z" fill="black"/>
<path d="M21.2261 16.5718C21.2497 16.5718 21.6205 16.5776 21.6205 16.5776C21.7264 16.5603 21.6793 16.6868 21.6793 16.6868C21.644 16.7328 21.6852 16.7443 21.6852 16.7443C21.744 16.7443 21.7676 16.6236 21.7676 16.6236C21.7852 16.4913 21.6734 16.5143 21.6734 16.5143L21.2615 16.5028C20.8613 16.4683 20.8848 16.0773 20.8848 16.0773C20.8848 15.8185 21.1379 15.5943 21.1379 15.5943C21.338 15.416 21.697 15.3125 21.697 15.3125C21.744 15.2895 21.7323 15.278 21.7323 15.278C21.7087 15.2435 21.5145 15.3125 21.5145 15.3125C21.5145 15.3125 20.8318 15.5023 20.7906 16.0658C20.7906 16.0658 20.7553 16.5258 21.2261 16.5718Z" fill="black"/>
<path d="M19.4482 15.6978C19.4482 15.6978 19.6837 15.2378 20.078 15.3355C20.4723 15.4333 20.4723 15.9048 20.4723 15.9048C20.4723 15.9048 20.5429 15.3528 20.1015 15.2378C19.6013 15.117 19.4482 15.6978 19.4482 15.6978Z" fill="black"/>
<path d="M23.0677 15.393C23.6386 15.439 23.6386 16.0543 23.6386 16.0543C23.6386 16.0543 23.5503 15.5138 23.0677 15.4735C22.7322 15.4448 22.5498 15.8473 22.5498 15.8473C22.5498 15.8473 22.6557 15.3643 23.0677 15.393Z" fill="black"/>
<path d="M19.9368 15.692C19.6602 15.692 19.5248 16.5085 19.8544 16.5373C20.1781 16.5718 20.284 15.669 19.9368 15.692Z" fill="black"/>
<path d="M19.8599 15.8128C19.8599 15.8128 19.7834 15.853 19.7657 15.9795C19.748 16.106 19.748 16.1348 19.748 16.1348C19.748 16.1348 19.7775 16.1578 19.8128 16.1463C19.8481 16.1405 19.8834 16.106 19.8834 16.106C19.8834 16.106 19.8716 16.0715 19.8893 15.968C19.9128 15.8703 19.9364 15.8128 19.9364 15.8128C19.9364 15.8128 19.9187 15.807 19.9011 15.8013C19.8834 15.807 19.8599 15.8128 19.8599 15.8128Z" fill="white"/>
<path d="M23.268 16.1405C23.2622 16.0312 23.2327 15.9162 23.1739 15.8702C23.1739 15.8702 23.1386 15.8415 23.1209 15.8357C23.1033 15.83 23.0679 15.8242 23.0679 15.8242C22.7796 15.807 22.6501 16.6925 22.9385 16.7212C23.1386 16.7385 23.2857 16.3935 23.268 16.1405Z" fill="black"/>
<path d="M22.9917 15.9277C22.9917 15.9277 22.9152 15.9679 22.8975 16.0945C22.8799 16.221 22.8799 16.2497 22.8799 16.2497C22.8799 16.2497 22.9093 16.2727 22.9446 16.2612C22.9799 16.2555 23.0152 16.221 23.0152 16.221C23.0152 16.221 23.0035 16.1865 23.0211 16.083C23.0447 15.9852 23.0682 15.9277 23.0682 15.9277C23.0682 15.9277 23.0506 15.9219 23.0329 15.9162C23.0152 15.9219 22.9917 15.9277 22.9917 15.9277Z" fill="white"/>
</g>
<defs>
<linearGradient id="paint0_linear_17715_123351" x1="30.4908" y1="17.7671" x2="30.4908" y2="10.9999" gradientUnits="userSpaceOnUse">
<stop stop-color="#44C8F5"/>
<stop offset="1" stop-color="#4495D1"/>
</linearGradient>
<linearGradient id="paint1_linear_17715_123351" x1="33.9641" y1="17.6704" x2="33.9641" y2="11.0192" gradientUnits="userSpaceOnUse">
<stop stop-color="#44C8F5"/>
<stop offset="1" stop-color="#4495D1"/>
</linearGradient>
<linearGradient id="paint2_linear_17715_123351" x1="37.2903" y1="17.7671" x2="37.2903" y2="12.5273" gradientUnits="userSpaceOnUse">
<stop stop-color="#44C8F5"/>
<stop offset="1" stop-color="#4495D1"/>
</linearGradient>
<linearGradient id="paint3_linear_17715_123351" x1="42.2712" y1="17.7672" x2="42.2712" y2="12.4114" gradientUnits="userSpaceOnUse">
<stop stop-color="#44C8F5"/>
<stop offset="1" stop-color="#4495D1"/>
</linearGradient>
<radialGradient id="paint4_radial_17715_123351" cx="0" cy="0" r="1" gradientUnits="userSpaceOnUse" gradientTransform="translate(20.6474 15.0949) scale(3.82321 3.73543)">
<stop stop-color="white"/>
<stop offset="0.9988" stop-color="#FFF0A5"/>
</radialGradient>
<clipPath id="clip0_17715_123351">
<rect width="48" height="11" fill="white" transform="translate(16 11)"/>
</clipPath>
</defs>
</svg>
