<svg width="86" height="32" viewBox="0 0 86 32" fill="none" xmlns="http://www.w3.org/2000/svg">
<path d="M28.3152 20.86H31.1677V24.1641C30.7556 24.4559 30.3192 24.6727 29.8545 24.8029C29.3899 24.9369 28.9051 25 28.4 25C27.7414 25 27.1394 24.8975 26.598 24.6964C26.0566 24.4953 25.5919 24.2154 25.2081 23.8605C24.8242 23.5057 24.5253 23.0838 24.3152 22.5949C24.1051 22.106 24 21.5737 24 21.002C24 20.4184 24.101 19.8822 24.299 19.3933C24.497 18.9044 24.7798 18.4825 25.1475 18.1276C25.5152 17.7728 25.9636 17.4968 26.4848 17.2997C27.0061 17.1025 27.5919 17.0039 28.2384 17.0039C28.5737 17.0039 28.8848 17.0315 29.1798 17.0828C29.4747 17.138 29.7455 17.209 29.9919 17.3036C30.2384 17.3982 30.4646 17.5086 30.6707 17.6348C30.8768 17.7649 31.0586 17.9029 31.2202 18.0527L30.6828 18.8531C30.598 18.9793 30.4889 19.0542 30.3556 19.0858C30.2222 19.1134 30.0768 19.0818 29.9232 18.9872C29.7778 18.9004 29.6364 18.8255 29.5071 18.7624C29.3778 18.6994 29.2444 18.6481 29.1071 18.6087C28.9697 18.5692 28.8283 18.5416 28.6788 18.5219C28.5293 18.5022 28.3596 18.4943 28.1737 18.4943C27.8263 18.4943 27.5111 18.5535 27.2323 18.6757C26.9535 18.794 26.7152 18.9635 26.5212 19.1843C26.3232 19.4012 26.1737 19.6654 26.0687 19.9729C25.9636 20.2804 25.9111 20.6195 25.9111 20.9941C25.9111 21.4081 25.9717 21.7787 26.0889 22.102C26.2061 22.4253 26.3717 22.6974 26.5859 22.9182C26.8 23.139 27.0586 23.3085 27.3576 23.4268C27.6566 23.5412 27.9879 23.6003 28.3515 23.6003C28.5737 23.6003 28.7798 23.5806 28.9616 23.5372C29.1434 23.4938 29.3212 23.4386 29.4909 23.3637V22.1769H28.699C28.5818 22.1769 28.4889 22.1454 28.4242 22.0862C28.3596 22.0271 28.3232 21.9483 28.3232 21.8536V20.86H28.3152ZM39.4869 24.9133H38.0444C37.8828 24.9133 37.7535 24.8778 37.6525 24.8029C37.5515 24.7279 37.4788 24.6373 37.4263 24.519L36.9535 23.1548H33.903L33.4343 24.5229C33.3939 24.6215 33.3212 24.7122 33.2162 24.795C33.1111 24.8738 32.9818 24.9172 32.8283 24.9172H31.3737L34.4768 17.0907H36.3838L39.4869 24.9133ZM36.5333 21.9246L35.7899 19.7836C35.7333 19.6496 35.6768 19.4879 35.6121 19.3026C35.5515 19.1173 35.4869 18.9202 35.4263 18.7033C35.3697 18.9202 35.3131 19.1252 35.2485 19.3105C35.1879 19.4958 35.1273 19.6575 35.0707 19.7955L34.3394 21.9246H36.5333ZM49.1354 17.0907V24.9172H47.4949V20.4145C47.4949 20.312 47.499 20.1976 47.503 20.0754C47.5071 19.9532 47.5192 19.831 47.5313 19.7048L45.402 23.7265C45.3374 23.8526 45.2485 23.9473 45.1354 24.0103C45.0222 24.0734 44.897 24.1089 44.7515 24.1089H44.497C44.3556 24.1089 44.2263 24.0774 44.1131 24.0103C44 23.9473 43.9111 23.8526 43.8465 23.7265L41.7172 19.693C41.7293 19.8231 41.7374 19.9492 41.7455 20.0715C41.7535 20.1937 41.7576 20.308 41.7576 20.4105V24.9093H40.1172V17.0907H41.5354C41.6162 17.0907 41.6848 17.0907 41.7455 17.0946C41.8061 17.0986 41.8586 17.1104 41.9071 17.1262C41.9556 17.1419 41.996 17.1735 42.0364 17.209C42.0768 17.2484 42.1131 17.2997 42.1495 17.3667L44.2222 21.3371C44.2949 21.4751 44.3677 21.6131 44.4323 21.7629C44.501 21.9088 44.5657 22.0586 44.6263 22.2124C44.6869 22.0547 44.7556 21.9009 44.8202 21.7511C44.8889 21.6013 44.9616 21.4593 45.0384 21.3213L47.0949 17.3667C47.1313 17.2997 47.1677 17.2445 47.2081 17.209C47.2485 17.1695 47.2889 17.1419 47.3374 17.1262C47.3859 17.1065 47.4384 17.0986 47.499 17.0946C47.5596 17.0907 47.6283 17.0907 47.7091 17.0907H49.1354ZM52.5576 18.4864V20.312H55.0788V21.6565H52.5576V23.5214H55.8505V24.9172H50.6869V17.0907H55.8505V18.4864H52.5576ZM61.4263 18.6796C61.3697 18.7664 61.3131 18.8295 61.2525 18.8728C61.1919 18.9162 61.1152 18.9359 61.0182 18.9359C60.9333 18.9359 60.8444 18.9083 60.7475 18.8571C60.6505 18.8058 60.5414 18.7467 60.4162 18.6836C60.295 18.6205 60.1535 18.5614 59.996 18.5101C59.8384 18.4588 59.6566 18.4312 59.4545 18.4312C59.1071 18.4312 58.8444 18.5022 58.6747 18.6481C58.505 18.794 58.4202 18.9872 58.4202 19.2356C58.4202 19.3933 58.4727 19.5234 58.5737 19.6259C58.6747 19.7284 58.8121 19.8191 58.9778 19.894C59.1434 19.969 59.3374 20.0399 59.5515 20.0991C59.7657 20.1621 59.9838 20.2331 60.2101 20.308C60.4323 20.3869 60.6545 20.4736 60.8687 20.5801C61.0828 20.6826 61.2727 20.8167 61.4424 20.9783C61.6081 21.14 61.7455 21.3371 61.8465 21.5658C61.9475 21.7984 62 22.0744 62 22.4017C62 22.7644 61.9353 23.1035 61.8061 23.415C61.6768 23.7304 61.4909 24.0064 61.2485 24.239C61.0061 24.4717 60.703 24.657 60.3475 24.791C59.9879 24.9251 59.5838 24.9921 59.1273 24.9921C58.8768 24.9921 58.6222 24.9685 58.3636 24.9172C58.1051 24.8659 57.8545 24.795 57.6121 24.7043C57.3697 24.6136 57.1434 24.5032 56.9293 24.381C56.7152 24.2548 56.5293 24.1168 56.3717 23.963L56.9212 23.1153C56.9657 23.0562 57.0222 23.0049 57.0949 22.9616C57.1677 22.9221 57.2444 22.8985 57.3293 22.8985C57.4384 22.8985 57.5515 22.934 57.6606 23.001C57.7737 23.068 57.899 23.1429 58.0404 23.2257C58.1818 23.3085 58.3434 23.3834 58.5293 23.4505C58.7111 23.5175 58.9293 23.553 59.1798 23.553C59.5192 23.553 59.7778 23.482 59.9677 23.3361C60.1535 23.1902 60.2465 22.9616 60.2465 22.6461C60.2465 22.4648 60.1939 22.3149 60.0929 22.2006C59.9919 22.0862 59.8545 21.9916 59.6889 21.9167C59.5232 21.8418 59.3333 21.7748 59.1192 21.7196C58.905 21.6604 58.6869 21.5973 58.4646 21.5303C58.2424 21.4593 58.0242 21.3765 57.8101 21.274C57.596 21.1715 57.4061 21.0375 57.2404 20.8719C57.0747 20.7063 56.9374 20.4973 56.8364 20.2489C56.7354 20.0005 56.6828 19.693 56.6828 19.3263C56.6828 19.0345 56.7434 18.7467 56.8646 18.4667C56.9859 18.1868 57.1636 17.9384 57.398 17.7215C57.6323 17.5047 57.9192 17.3273 58.2626 17.1971C58.602 17.067 58.9939 17 59.4343 17C59.6808 17 59.9192 17.0197 60.1535 17.0552C60.3879 17.0907 60.6061 17.1498 60.8162 17.2208C61.0263 17.2957 61.2202 17.3825 61.402 17.485C61.5838 17.5875 61.7455 17.7018 61.8909 17.8319L61.4263 18.6796Z" fill="black"/>
<path fill-rule="evenodd" clip-rule="evenodd" d="M20.3158 7.18946C19.9322 7.0887 19.4647 7.0363 18.9172 7.0363H16V15.0448H19.1689C19.6445 15.0448 20.0641 14.9803 20.4357 14.8594C20.8074 14.7345 21.1191 14.5652 21.3708 14.3476C21.6226 14.1299 21.8144 13.876 21.9463 13.5818C22.0781 13.2876 22.1421 12.9691 22.1421 12.6306C22.1421 12.1792 22.0182 11.8084 21.7664 11.5222C21.5147 11.236 21.1311 11.0305 20.6076 10.9015C20.8473 10.8128 21.0511 10.7081 21.223 10.5871C21.3948 10.4662 21.5347 10.3332 21.6426 10.1881C21.7505 10.043 21.8304 9.88584 21.8823 9.72059C21.9343 9.55131 21.9583 9.38203 21.9583 9.20066C21.9583 8.87016 21.9023 8.57191 21.7904 8.3059C21.6785 8.03989 21.5027 7.81418 21.2589 7.62475C21.0152 7.43532 20.6995 7.29022 20.3158 7.18946ZM17.8382 10.4017V8.42681V8.42278H18.9172C19.125 8.42278 19.3008 8.4389 19.4527 8.47115C19.6005 8.50339 19.7244 8.55982 19.8243 8.63639C19.9202 8.71297 19.9922 8.81777 20.0401 8.94271C20.0881 9.07168 20.112 9.22887 20.112 9.4183C20.112 9.61177 20.0841 9.77299 20.0241 9.90196C19.9642 10.0309 19.8803 10.1317 19.7644 10.2042C19.6525 10.2768 19.5126 10.3292 19.3488 10.3574C19.1849 10.3856 19.0011 10.4017 18.7973 10.4017H17.8382ZM19.7284 13.5455C19.5766 13.606 19.3767 13.6382 19.133 13.6382H17.8382V11.6472H19.125C19.3568 11.6472 19.5486 11.6673 19.7004 11.7116C19.8523 11.756 19.9762 11.8164 20.0681 11.897C20.16 11.9776 20.2239 12.0784 20.2639 12.1953C20.2999 12.3122 20.3198 12.4452 20.3198 12.5903C20.3198 12.7193 20.3039 12.8442 20.2719 12.9691C20.2399 13.0941 20.18 13.2029 20.0921 13.3037C20.0041 13.4044 19.8843 13.485 19.7284 13.5455ZM49.9353 15.0368V7.0363H48.5167C48.4367 7.0363 48.3688 7.0363 48.3089 7.04033C48.2489 7.04436 48.197 7.05242 48.149 7.07257C48.1011 7.0887 48.0611 7.11691 48.0211 7.15721C47.9812 7.19349 47.9452 7.24991 47.9093 7.31843L45.8752 11.361C45.7993 11.5021 45.7274 11.6472 45.6594 11.8003C45.6471 11.8297 45.6347 11.8593 45.6222 11.889C45.5697 12.014 45.516 12.1416 45.4676 12.2719C45.4077 12.1147 45.3437 11.9615 45.2758 11.8124C45.2119 11.6593 45.14 11.5182 45.068 11.3772L45.068 11.3771L43.026 7.31843C42.99 7.24991 42.954 7.19752 42.9141 7.15721C42.8741 7.12094 42.8341 7.09273 42.7862 7.07257C42.7382 7.05645 42.6863 7.04436 42.6263 7.04033C42.5664 7.0363 42.4985 7.0363 42.4185 7.0363H41.0159V15.0327H42.6383V10.434C42.6383 10.3292 42.6343 10.2123 42.6263 10.0874L42.6248 10.0635C42.6173 9.94601 42.6096 9.82499 42.5984 9.70044L44.7043 13.8236C44.7683 13.9526 44.8562 14.0493 44.9681 14.1138C45.08 14.1823 45.2079 14.2146 45.3477 14.2146H45.5995C45.7433 14.2146 45.8672 14.1783 45.9791 14.1138C46.091 14.0493 46.1789 13.9526 46.2429 13.8236L48.3488 9.71253L48.3472 9.7297C48.3358 9.85261 48.3247 9.972 48.3209 10.0914L48.3201 10.1161C48.3163 10.2317 48.3129 10.3401 48.3129 10.438V15.0368H49.9353ZM51.4738 15.0368H53.324V7.0363H51.4738V15.0368ZM61.7799 15.0368V7.04033H60.1455V11.2723C60.1455 11.3973 60.1495 11.5343 60.1575 11.6794C60.1654 11.8245 60.1774 11.9736 60.1974 12.1268L56.425 7.32246C56.3731 7.25798 56.3291 7.20961 56.2892 7.17334C56.2492 7.13706 56.2093 7.10885 56.1653 7.0887C56.1213 7.06854 56.0734 7.05645 56.0174 7.04839C55.9655 7.04033 55.8976 7.0363 55.8176 7.0363H54.8506V15.0368H56.473V10.7484C56.473 10.6386 56.4695 10.5217 56.4657 10.3977L56.465 10.3735C56.461 10.2405 56.453 10.0995 56.437 9.95839L60.1774 14.7305C60.2733 14.8433 60.3692 14.9239 60.4652 14.9683C60.5611 15.0126 60.6809 15.0368 60.8208 15.0368H61.7799ZM69.948 10.8935H67.1347V11.9132C67.1347 12.0099 67.1707 12.0905 67.2346 12.151C67.2986 12.2114 67.3905 12.2437 67.5064 12.2437H68.2896V13.4568C68.1218 13.5334 67.9459 13.5898 67.7661 13.6342C67.5863 13.6785 67.3825 13.6987 67.1627 13.6987C66.8031 13.6987 66.4754 13.6382 66.1797 13.5213C65.8839 13.4004 65.6282 13.2271 65.4164 13.0014C65.2046 12.7757 65.0407 12.4976 64.9249 12.1671C64.809 11.8366 64.749 11.4577 64.749 11.0345C64.749 10.6516 64.801 10.305 64.9049 9.99063C65.0088 9.67625 65.1566 9.40621 65.3524 9.18454C65.5443 8.95883 65.78 8.78552 66.0558 8.66461C66.3315 8.53966 66.6432 8.47921 66.9869 8.47921C67.1707 8.47921 67.3385 8.48727 67.4864 8.50742C67.6342 8.52757 67.7741 8.55579 67.91 8.59609C68.0458 8.63639 68.1777 8.68879 68.3056 8.75328C68.4335 8.81777 68.5733 8.89434 68.7172 8.98301C68.8691 9.07975 69.0129 9.11199 69.1448 9.08378C69.2767 9.05153 69.3846 8.97495 69.4685 8.84598L70 8.02376C69.8401 7.87061 69.6603 7.72954 69.4565 7.59653C69.2527 7.46756 69.0289 7.35471 68.7851 7.25798C68.5414 7.16124 68.2736 7.0887 67.9819 7.03227C67.6902 6.97987 67.3825 6.95166 67.0508 6.95166C66.4114 6.95166 65.832 7.05242 65.3165 7.25394C64.801 7.45547 64.3574 7.7376 63.9938 8.10034C63.6301 8.46308 63.3504 8.89434 63.1546 9.39412C62.9588 9.8939 62.8588 10.442 62.8588 11.0386C62.8588 11.623 62.9627 12.1671 63.1705 12.6669C63.3783 13.1666 63.6741 13.5979 64.0537 13.9606C64.4333 14.3234 64.8929 14.6095 65.4284 14.8151C65.9639 15.0207 66.5593 15.1254 67.2107 15.1254C67.7102 15.1254 68.1897 15.061 68.6493 14.9239C69.1088 14.7909 69.5404 14.5692 69.948 14.271V10.8935ZM35.8169 13.5374C37.0477 13.5374 38.1027 12.6548 38.3265 11.4335L39.6292 12.0502C39.1977 13.6019 37.8749 14.7345 36.2964 14.9279C36.1206 14.9481 35.9568 14.9562 35.757 14.9562C35.5731 14.9562 35.3813 14.94 35.1615 14.9038C34.4542 14.7869 33.8108 14.4765 33.2833 14.0332L33.3193 14.0654C33.0795 13.88 32.4841 13.3561 32.2404 13.0901C32.2708 13.0593 32.4735 12.8346 32.6968 12.5869C32.8833 12.3801 33.0841 12.1573 33.2114 12.018C33.3316 12.1255 33.4525 12.2418 33.5672 12.352C33.7231 12.502 33.8675 12.6407 33.9827 12.7313C34.0417 12.7779 34.0938 12.8201 34.1418 12.8589C34.3764 13.0489 34.515 13.1613 34.9098 13.3319C35.3705 13.5294 35.5657 13.5334 35.7397 13.537C35.7468 13.5371 35.7539 13.5373 35.761 13.5374H35.8169ZM35.813 8.38657C35.0457 8.38657 34.3584 8.72916 33.8908 9.27327C33.5478 9.68147 33.2101 10.1147 32.8828 10.5346C32.6381 10.8485 32.3993 11.1549 32.1685 11.4376C31.629 12.0986 30.8298 12.8886 30.7978 12.9168C30.7418 12.9692 30.6899 13.0176 30.6379 13.0659C30.632 13.072 30.625 13.078 30.618 13.0841C30.611 13.0901 30.604 13.0962 30.598 13.1022C30.5763 13.1186 30.5565 13.1368 30.5361 13.1556C30.5263 13.1646 30.5164 13.1737 30.5061 13.1828C30.4674 13.2175 30.4287 13.251 30.3906 13.284C30.3579 13.3124 30.3257 13.3403 30.2943 13.3682C30.2743 13.3884 30.2503 13.4085 30.2303 13.4246C30.2032 13.4472 30.1765 13.4698 30.1499 13.4922C30.0866 13.5457 30.0246 13.598 29.9626 13.6463C29.9566 13.6504 29.9516 13.6544 29.9466 13.6584C29.9416 13.6624 29.9366 13.6665 29.9306 13.6705C29.9186 13.6826 29.9027 13.6947 29.8867 13.7068C29.8567 13.729 29.8267 13.7521 29.7968 13.7753C29.7668 13.7985 29.7368 13.8217 29.7068 13.8438C29.7005 13.8484 29.6943 13.8528 29.6883 13.8571C29.6679 13.8715 29.6494 13.8847 29.6309 13.9002C29.5955 13.9264 29.5602 13.9512 29.5256 13.9754C29.5016 13.9922 29.478 14.0087 29.4551 14.0252C29.4339 14.0374 29.4127 14.0519 29.3933 14.0652C29.387 14.0695 29.381 14.0737 29.3752 14.0776C29.3152 14.1179 29.2593 14.1542 29.2033 14.1904C29.1933 14.1965 29.1823 14.2035 29.1714 14.2106C29.1604 14.2176 29.1494 14.2247 29.1394 14.2307C28.9875 14.3275 28.8357 14.4121 28.6958 14.4887C28.6858 14.4927 28.6768 14.4978 28.6678 14.5028C28.6589 14.5078 28.6499 14.5129 28.6399 14.5169C28.6049 14.5359 28.57 14.553 28.5362 14.5696C28.5198 14.5777 28.5037 14.5856 28.488 14.5935C28.468 14.6056 28.4441 14.6177 28.4241 14.6257C28.3908 14.6425 28.3576 14.6573 28.3257 14.6716C28.3115 14.6779 28.2977 14.684 28.2842 14.6902C28.2782 14.6922 28.2722 14.6953 28.2662 14.6983C28.2602 14.7013 28.2542 14.7043 28.2483 14.7063C28.2476 14.7063 28.2415 14.7093 28.2308 14.7145C28.173 14.7425 27.9814 14.8355 27.7927 14.8796C27.7799 14.8826 27.7669 14.8856 27.7537 14.8887C27.6227 14.9191 27.4722 14.954 27.3052 14.9723C27.1253 14.9925 26.7857 14.9804 26.7097 14.9764C24.5758 14.8313 22.8974 12.9773 23.0173 10.7605C23.1292 8.68079 24.8555 7.01621 26.9215 6.988C28.1643 6.97188 29.2713 7.53614 30.0385 8.40269C30.0452 8.41019 30.0693 8.43608 30.1049 8.47436C30.2609 8.64192 30.6378 9.0468 30.7418 9.1846C30.74 9.18675 30.7345 9.19324 30.7259 9.20351C30.6208 9.32803 30.0458 10.0091 29.7948 10.2809C29.6429 10.0915 28.9276 9.31358 28.8397 9.22894C28.3122 8.70901 27.6049 8.36239 26.8016 8.41478C25.5469 8.49942 24.5198 9.52316 24.4279 10.7887C24.32 12.2518 25.439 13.4851 26.8536 13.5536C27.1453 13.5536 27.2892 13.5254 27.473 13.469C27.6568 13.4126 27.8766 13.3199 28.1404 13.1748C28.1763 13.1546 28.2123 13.1345 28.2522 13.1103C28.2602 13.1062 28.2682 13.1012 28.2762 13.0962C28.2842 13.0911 28.2922 13.0861 28.3002 13.0821C28.3402 13.0579 28.3801 13.0337 28.4241 13.0055C28.4401 12.9974 28.4521 12.9894 28.464 12.9813L28.6079 12.8846C28.6239 12.8765 28.6359 12.8684 28.6519 12.8564C28.6998 12.8201 28.7518 12.7838 28.8037 12.7475C28.8197 12.7395 28.8357 12.7274 28.8517 12.7153C28.8637 12.7032 28.8796 12.6911 28.8956 12.679C28.9109 12.667 28.927 12.655 28.9435 12.6426C28.9656 12.626 28.9886 12.6088 29.0115 12.5903C29.0235 12.5783 29.0395 12.5662 29.0555 12.5541C29.1114 12.5097 29.1714 12.4614 29.2313 12.413C29.2433 12.4049 29.2593 12.3928 29.2713 12.3808C29.3352 12.3284 29.3991 12.272 29.463 12.2156L29.4631 12.2155C29.4671 12.2115 29.4721 12.2074 29.4771 12.2034C29.4821 12.1994 29.4871 12.1954 29.4911 12.1913L29.4911 12.1913C29.543 12.147 29.595 12.1027 29.6429 12.0543C30.546 11.1595 32.7399 8.45509 32.7679 8.41881V8.41478C33.4952 7.52808 34.5901 6.96382 35.817 6.96382C36.8799 6.96382 37.875 7.38298 38.6063 8.12056L39.3296 7.60466L39.6173 10.7001L36.816 9.40225L37.4234 8.96293C36.9758 8.59615 36.4124 8.38657 35.813 8.38657Z" fill="#EC1C24"/>
</svg>
