<svg width="137" height="32" viewBox="0 0 137 32" fill="none" xmlns="http://www.w3.org/2000/svg">
<path d="M31.1587 21.3746L26.9085 25.6266C26.6672 25.8658 26.3412 26 26.0014 26C25.6616 26 25.3356 25.8658 25.0943 25.6266L16.374 16.9045C16.1344 16.6637 16 16.3379 16 15.9983C16 15.6587 16.1344 15.3328 16.374 15.0921L18.7791 12.6869H20.9317C23.3592 12.6869 24.469 12.1097 24.859 10.6254H20.8441L25.0943 6.3734C25.3356 6.1342 25.6616 6 26.0014 6C26.3412 6 26.6672 6.1342 26.9085 6.3734L31.1587 10.6254H28.9391C25.7695 10.6254 24.8401 11.6029 24.8401 14.3138V17.6862C24.8401 20.3988 25.7695 21.3764 28.9391 21.3764L31.1587 21.3746Z" fill="#31B7BC"/>
<path d="M35.6274 15.0955L33.2223 12.6903H29.0476C27.5822 12.6903 27.2197 13.1164 27.2197 14.4409V17.5934C27.2197 18.9334 27.5822 19.3285 29.0631 19.3285H33.2068L35.6257 16.9079C35.8655 16.6673 36.0002 16.3417 36.0005 16.002C36.0008 15.6624 35.8667 15.3365 35.6274 15.0955ZM31.5713 18.162H30.3533V15.7826H31.5713V18.162ZM31.5713 15.0456H30.3533V13.8602H31.5713V15.0456Z" fill="#31B7BC"/>
<path d="M45.9912 14.3447H48.0373V19.3406H49.9477V14.3447H51.9955V12.6955H45.9912V14.3447Z" fill="#2E2D2C"/>
<path d="M66.1064 14.3447H68.1525V19.3406H70.0646V14.3447H72.1124V12.6955H66.1064V14.3447Z" fill="#2E2D2C"/>
<path d="M42.2651 12.6955C41.8357 12.679 41.4067 12.7371 40.9972 12.8672C40.685 12.9797 40.4012 13.1591 40.1657 13.3929C39.9399 13.626 39.7748 13.911 39.6847 14.2227C39.5955 14.5806 39.5516 14.9483 39.5541 15.3171V16.7155C39.549 17.0839 39.5929 17.4513 39.6847 17.8081C39.7642 18.1243 39.9309 18.4118 40.1657 18.6379C40.4007 18.8723 40.6847 19.0518 40.9972 19.1636C41.4067 19.2938 41.8357 19.3519 42.2651 19.3354H45.2268V17.5916H42.4386C42.0452 17.5916 41.784 17.504 41.6517 17.3288C41.491 17.0832 41.4144 16.792 41.4336 16.499V15.3617C41.4336 14.9683 41.5212 14.6625 41.6517 14.5302C41.7823 14.398 42.0452 14.3121 42.4386 14.3121H45.2268V12.692L42.2651 12.6955Z" fill="#2E2D2C"/>
<path d="M95.3623 12.6955C94.9324 12.6783 94.5027 12.7364 94.0928 12.8672C93.7831 12.9805 93.5021 13.1606 93.2699 13.3947C93.0429 13.6285 92.877 13.9147 92.7871 14.2279C92.6988 14.5859 92.6549 14.9535 92.6565 15.3222V16.7224C92.6522 17.0913 92.6961 17.4592 92.7871 17.8167C92.8657 18.1366 93.033 18.4278 93.2699 18.6568C93.505 18.8907 93.7889 19.0696 94.1014 19.1808C94.5113 19.3116 94.941 19.3698 95.3709 19.3526H98.3379V17.5985H95.5376C95.1436 17.5985 94.8807 17.5109 94.749 17.3357C94.5882 17.0894 94.5117 16.7976 94.5308 16.5042V15.3652C94.5308 14.9718 94.6185 14.6642 94.749 14.5337C94.8796 14.4031 95.1442 14.3155 95.5376 14.3155H98.3293V12.692L95.3623 12.6955Z" fill="#2E2D2C"/>
<path d="M99.0098 14.3447H101.056V19.3406H102.966V14.3447H105.016V12.6955H99.0098V14.3447Z" fill="#2E2D2C"/>
<path d="M55.5703 19.344V12.6955H57.4377V19.344H55.5703Z" fill="#2E2D2C"/>
<path d="M74.7659 17.602H77.8908V19.344H72.8984V12.6955H77.8479V14.3619H74.7659V15.3394H76.9494V16.6846H74.7659V17.602Z" fill="#2E2D2C"/>
<path d="M118.143 17.602H121.273V19.344H116.275V12.6955H121.225V14.3619H118.143V15.3394H120.319V16.6846H118.143V17.602Z" fill="#2E2D2C"/>
<path d="M105.657 19.344V12.6955H107.528V19.344H105.657Z" fill="#2E2D2C"/>
<path d="M113.451 12.6955H115.622V12.7814L113.325 19.344H110.503L108.184 12.7814V12.6955H110.398L111.9 17.6467L113.451 12.6955Z" fill="#2E2D2C"/>
<path d="M92.9224 19.3406H87.8974L88.4729 17.9112H90.4107L89.0862 14.8086H88.8697L86.8889 19.3509H85.0215L88.1739 12.6955H89.782L92.9224 19.3406Z" fill="#2E2D2C"/>
<path d="M84.7932 15.2449V14.5869C84.7932 14.0857 84.5941 13.6051 84.2397 13.2507C83.8853 12.8963 83.4046 12.6972 82.9034 12.6972H78.6309V19.344H80.4983V17.1364H80.7285L82.5444 19.344H84.7691V19.2907L82.9928 17.1278C83.4771 17.1049 83.9341 16.8966 84.2693 16.5462C84.6044 16.1957 84.792 15.7298 84.7932 15.2449ZM82.79 15.0611C82.79 15.2128 82.7298 15.3583 82.6225 15.4656C82.5152 15.5729 82.3697 15.6332 82.218 15.6332H80.4536V14.4632H82.2231C82.3739 14.4646 82.5181 14.5255 82.6243 14.6326C82.7305 14.7397 82.7901 14.8845 82.79 15.0353V15.0611Z" fill="#2E2D2C"/>
<path d="M60.6623 19.3406V15.068L62.5401 19.3406H65.3197V12.6955H63.4506V17.1141L61.487 12.6955H58.7949V19.3406H60.6623Z" fill="#2E2D2C"/>
</svg>
