<svg width="105" height="32" viewBox="0 0 105 32" fill="none" xmlns="http://www.w3.org/2000/svg">
<path d="M21.5256 11.5302L27.3309 14.2033C27.1944 14.1134 24.4336 12.2758 23.5829 10.8216C22.7081 9.33306 22.7723 8.23052 23.5106 7.16499C24.249 6.09946 26.0789 5.42789 28.8611 5.60504C31.6433 5.78218 34.7038 6.61504 36.9991 8.6562C36.9991 8.6562 35.0409 5.21637 30.0569 4.25396C25.073 3.29155 21.2367 5.23488 19.0243 7.2258C18.4384 7.7546 18.1361 8.25696 18.0371 8.73817C18.0826 10.2029 21.5256 11.5302 21.5256 11.5302Z" fill="#2F98D5"/>
<path d="M23.5116 24.8375C22.7706 23.7719 22.709 22.6694 23.5838 21.1808C24.4586 19.6923 27.3372 17.7965 27.3372 17.7965L21.5266 20.4722C21.5266 20.4722 18.0809 21.7995 18.0381 23.2643C18.1371 23.7455 18.4394 24.2478 19.0252 24.7766C21.2377 26.7676 25.0713 28.7083 30.0552 27.7458C35.0419 26.7861 37.0001 23.3462 37.0001 23.3462C34.7048 25.3874 31.6443 26.2229 28.8621 26.3974C26.0798 26.5746 24.25 25.9056 23.5116 24.8375Z" fill="#F9AE00"/>
<path d="M21.5265 20.4722L27.3371 17.7965C27.3371 17.7965 28.9877 16.924 28.9877 16.0594C28.9877 16.0409 28.9877 16.0197 28.985 16.0012C28.985 15.9827 28.9877 15.9616 28.9877 15.943C28.9877 15.0785 27.3371 14.2059 27.3371 14.2059C27.3371 14.2059 27.3344 14.2033 27.3317 14.2033L21.5265 11.5302C21.5265 11.5302 18.0835 10.2056 18.038 8.74081C17.7624 10.0707 19.0412 11.2209 20.0952 12.2071C21.5051 13.5211 22.1311 14.8273 22.1204 16.0012C22.1311 17.1751 21.5051 18.4813 20.0952 19.798C19.0412 20.7815 17.7624 21.9317 18.038 23.2643C18.0808 21.7995 21.5265 20.4722 21.5265 20.4722Z" fill="#E40E20"/>
<path d="M33.5688 16.5355C33.5688 16.7309 33.668 16.8775 33.8665 16.9714C34.065 17.0692 34.3131 17.118 34.6185 17.1218C34.92 17.1255 35.2177 17.1105 35.5078 17.0842C35.7979 17.0541 36.0728 17.0241 36.3285 16.9865C36.5881 16.9489 36.7331 16.9301 36.7713 16.9301C36.798 17.475 36.6873 17.8621 36.443 18.0876C36.1987 18.3131 35.7063 18.4258 34.9658 18.4258C33.9467 18.4258 33.1985 18.2229 32.7176 17.8132C32.2405 17.4036 32 16.7009 32 15.6937C32 15.1902 32.0649 14.7655 32.1947 14.4198C32.3244 14.0703 32.5153 13.8072 32.7672 13.6231C33.0191 13.4427 33.2978 13.3112 33.607 13.236C33.9161 13.1608 34.2788 13.1233 34.691 13.1233C35.4811 13.1233 36.0651 13.2886 36.4354 13.6193C36.8094 13.95 36.9965 14.4761 36.9965 15.1977C36.9965 15.4758 36.943 15.6937 36.8323 15.8628C36.7255 16.0282 36.5804 16.1409 36.4087 16.1973C36.2331 16.2537 36.0231 16.295 35.7788 16.3213C35.5346 16.3476 35.2903 16.3551 35.0536 16.3439C34.8131 16.3326 34.5574 16.3439 34.2788 16.3777C34.0039 16.4077 33.7635 16.4604 33.5688 16.5355ZM33.5192 15.5472C33.626 15.472 33.8054 15.4232 34.0497 15.3968C34.294 15.3705 34.523 15.3593 34.7368 15.3555C34.9506 15.3518 35.1414 15.3067 35.3055 15.224C35.4697 15.1375 35.5498 15.006 35.546 14.8256C35.546 14.664 35.4162 14.5288 35.1529 14.4198C34.7902 14.2694 34.4353 14.2582 34.0917 14.3822C33.6146 14.5513 33.4237 14.9384 33.5192 15.5472Z" fill="black"/>
<path d="M43.1569 14.9158V18.3431C42.9355 18.3544 42.7408 18.3544 42.5843 18.3394C42.424 18.3243 42.2751 18.2868 42.1301 18.2304C41.985 18.174 41.882 18.0801 41.8133 17.9523C41.7446 17.8245 41.7179 17.6629 41.7217 17.4675V15.4344V15.4157V14.9459C41.6262 14.4874 41.1911 14.307 40.4201 14.401C40.0193 14.4498 39.7864 14.4874 39.7216 14.5137C39.7406 14.619 39.7521 14.7467 39.7521 14.8895V17.4675C39.7597 17.6629 39.7254 17.8245 39.6567 17.9523C39.588 18.0801 39.4811 18.174 39.3399 18.2304C39.1986 18.2868 39.0498 18.3243 38.8894 18.3394C38.7291 18.3544 38.5383 18.3582 38.3169 18.3431V13.7584C38.3169 13.3488 38.9849 13.1308 40.317 13.1007C42.2064 13.0519 43.1531 13.6569 43.1569 14.9158Z" fill="black"/>
<path d="M48.1615 11.0865C48.2569 11.1541 48.3752 11.1992 48.5202 11.218C48.6653 11.2368 48.7951 11.248 48.9134 11.248C49.0317 11.248 49.1462 11.2668 49.2531 11.3007C49.36 11.3345 49.444 11.4172 49.505 11.5487C49.5661 11.6802 49.5966 11.8719 49.5966 12.1237V17.678C49.589 17.6855 49.5585 17.7193 49.505 17.787C49.4516 17.8546 49.402 17.9072 49.3562 17.9485C49.3104 17.9899 49.2302 18.0425 49.1081 18.1101C48.9859 18.1778 48.8523 18.2266 48.7073 18.2642C48.5622 18.3018 48.3638 18.3356 48.1156 18.3694C47.8675 18.3995 47.5851 18.4183 47.2759 18.4183C46.2949 18.4183 45.5888 18.2078 45.1613 17.7907C44.7338 17.3736 44.52 16.6783 44.52 15.705C44.52 15.3292 44.5696 14.991 44.6727 14.6941C44.7758 14.3972 44.9094 14.153 45.0773 13.9651C45.2453 13.7772 45.4437 13.6193 45.6766 13.4953C45.9056 13.3713 46.1384 13.2811 46.3751 13.2323C46.6117 13.1834 46.856 13.1571 47.1118 13.1571C47.6042 13.1571 47.9515 13.2323 48.1653 13.3826V11.0865H48.1615ZM48.1615 15.7915V14.4536C48.0775 14.4273 47.9859 14.4048 47.8904 14.386C47.7912 14.3672 47.6691 14.3521 47.524 14.3446C47.379 14.3334 47.2377 14.3371 47.108 14.3484C46.9782 14.3597 46.8408 14.3972 46.7034 14.4611C46.5621 14.525 46.4438 14.6077 46.3407 14.7092C46.2377 14.8144 46.1575 14.9572 46.0926 15.1413C46.0277 15.3255 45.9972 15.5434 45.9972 15.7952C45.9972 16.032 46.0354 16.2424 46.1117 16.4153C46.1881 16.5919 46.2835 16.7272 46.3942 16.8211C46.5049 16.9151 46.6423 16.9865 46.8064 17.0316C46.9705 17.0767 47.1156 17.1068 47.2454 17.118C47.3751 17.1293 47.5164 17.1255 47.6691 17.1068C47.8217 17.0917 47.9286 17.0767 47.9897 17.0654C48.0508 17.0541 48.1042 17.0391 48.1576 17.0278H48.1691C48.1653 17.0354 48.1653 16.622 48.1615 15.7915Z" fill="black"/>
<path d="M50.9515 15.7351C50.9439 15.6975 50.9401 15.6486 50.9363 15.5848C50.9325 15.5209 50.9439 15.4006 50.9668 15.2165C50.9897 15.0361 51.0241 14.8595 51.0775 14.6941C51.1271 14.5288 51.2187 14.3446 51.3447 14.1417C51.4707 13.9425 51.631 13.7696 51.818 13.6231C52.005 13.4803 52.2608 13.3563 52.5776 13.2623C52.8944 13.1646 53.2608 13.1158 53.6692 13.1158C53.9555 13.1158 54.2189 13.1383 54.4632 13.1834C54.7037 13.2285 54.9136 13.2886 55.0892 13.3638C55.2648 13.4389 55.4213 13.5329 55.5587 13.6456C55.6961 13.7584 55.8106 13.8711 55.8984 13.9801C55.9862 14.0891 56.0625 14.2206 56.1236 14.3709C56.1847 14.5212 56.2305 14.6528 56.261 14.7618C56.2915 14.8707 56.3144 14.9985 56.3297 15.1488C56.3412 15.2954 56.3488 15.4081 56.3526 15.4833C56.3564 15.5584 56.3564 15.6562 56.3526 15.7689C56.3488 15.8854 56.3488 15.9493 56.3488 15.9606C56.3488 16.062 56.345 16.1522 56.3373 16.2349C56.3297 16.3176 56.3106 16.4453 56.2801 16.622C56.2495 16.7986 56.2037 16.9564 56.1465 17.0917C56.0892 17.2308 55.9976 17.3811 55.8755 17.5427C55.7495 17.7043 55.6045 17.8433 55.4365 17.9523C55.2686 18.0613 55.0472 18.1552 54.7762 18.2304C54.5052 18.3055 54.1998 18.3431 53.8639 18.3431C53.5128 18.3431 53.1998 18.3206 52.9249 18.2755C52.6501 18.2304 52.4173 18.174 52.2264 18.1026C52.0356 18.0312 51.8676 17.9335 51.7226 17.8057C51.5775 17.6817 51.463 17.5502 51.3752 17.4187C51.2874 17.2871 51.2111 17.1255 51.1538 16.9301C51.0966 16.7347 51.0546 16.5506 51.0241 16.3702C50.9935 16.1898 50.9706 15.9831 50.9515 15.7351ZM52.3753 15.8215C52.3944 16.0395 52.4211 16.2161 52.4554 16.3439C52.4898 16.4716 52.5547 16.5994 52.6463 16.7234C52.7379 16.8474 52.8791 16.9414 53.0623 16.9978C53.2456 17.0541 53.4822 17.0842 53.7685 17.0842C53.9899 17.0842 54.1845 17.0504 54.341 16.979C54.5014 16.9113 54.6197 16.8324 54.696 16.7422C54.7724 16.6558 54.8334 16.5468 54.8792 16.4228C54.925 16.2988 54.9479 16.2048 54.9556 16.1409C54.9632 16.077 54.967 16.0094 54.967 15.9342C54.967 15.9267 54.967 15.8967 54.967 15.8365C54.967 15.7764 54.967 15.7276 54.967 15.6862C54.967 15.6449 54.9632 15.5848 54.9556 15.5021C54.9479 15.4194 54.9365 15.3518 54.9212 15.2916C54.906 15.2315 54.8831 15.1601 54.8525 15.0812C54.822 14.9985 54.7876 14.9309 54.7456 14.8707C54.7037 14.8106 54.6502 14.7505 54.5815 14.6866C54.5128 14.6227 54.4403 14.5739 54.3563 14.5325C54.2723 14.4912 54.1731 14.4574 54.0548 14.4348C53.9364 14.4085 53.8067 14.3972 53.6692 14.3972C53.4135 14.3972 53.1959 14.431 53.0204 14.5025C52.841 14.5701 52.7112 14.6528 52.6272 14.743C52.5432 14.8332 52.4822 14.9534 52.4364 15.1C52.3906 15.2465 52.3676 15.363 52.3638 15.4419C52.36 15.5246 52.3638 15.6261 52.3676 15.7539C52.3753 15.7839 52.3753 15.8102 52.3753 15.8215Z" fill="black"/>
<path d="M61.2117 13.1195C61.2041 13.1308 61.2079 13.1984 61.2155 13.3187C61.227 13.4389 61.2232 13.5517 61.2117 13.6607C61.2003 13.7696 61.1735 13.8899 61.1354 14.0139C61.0972 14.1379 61.0209 14.2394 60.9025 14.3145C60.7842 14.3897 60.6315 14.4273 60.4483 14.4273C60.1811 14.4273 59.975 14.4386 59.8261 14.4574C59.6811 14.4761 59.5475 14.525 59.433 14.6002C59.3185 14.6753 59.2421 14.7805 59.204 14.9196C59.1658 15.0586 59.1467 15.2465 59.1467 15.4833V18.4972C59.0322 18.4145 58.8795 18.3506 58.6925 18.3055C58.5055 18.2567 58.3451 18.2229 58.2154 18.1966C58.0856 18.1702 57.9673 18.0988 57.868 17.9748C57.765 17.8508 57.7153 17.6742 57.7153 17.4412V14.9196C57.7153 14.882 57.7153 14.8294 57.7192 14.7655C57.723 14.6979 57.7344 14.6077 57.7535 14.4912C57.7726 14.3747 57.8031 14.2582 57.8489 14.1417C57.8947 14.0252 57.9596 13.9049 58.0512 13.7809C58.139 13.6569 58.2497 13.5442 58.3757 13.4502C58.5016 13.3563 58.6658 13.2773 58.8681 13.2135C59.0704 13.1496 59.2918 13.1195 59.5437 13.1195C59.9712 13.1195 60.288 13.1195 60.4903 13.1195C60.6926 13.1195 60.8071 13.1195 60.8262 13.1195C60.8453 13.1195 60.8834 13.1195 60.9369 13.1195C60.9827 13.1195 61.0781 13.1195 61.2117 13.1195Z" fill="black"/>
<path d="M63.8147 20.425C63.7002 20.3424 63.5475 20.2935 63.3605 20.2785C63.1734 20.2635 63.0131 20.2559 62.8833 20.2559C62.7535 20.2559 62.6352 20.1883 62.536 20.053C62.4329 19.9177 62.3833 19.696 62.3833 19.3878V13.8335C62.3909 13.826 62.4215 13.7922 62.4749 13.7245C62.5283 13.6569 62.578 13.608 62.6238 13.5705C62.6696 13.5329 62.7497 13.4803 62.8719 13.4089C62.994 13.3412 63.1276 13.2849 63.2727 13.2473C63.4177 13.2097 63.6162 13.1759 63.8643 13.1421C64.1124 13.112 64.3949 13.0932 64.704 13.0932C65.685 13.0932 66.3912 13.3036 66.8187 13.7208C67.2462 14.1379 67.4599 14.8332 67.4599 15.8065C67.4599 16.2762 67.3836 16.6858 67.2309 17.0316C67.0782 17.3773 66.8721 17.6404 66.6125 17.8283C66.353 18.0124 66.082 18.1477 65.7919 18.2341C65.5018 18.3206 65.1926 18.3619 64.8682 18.3619C64.4292 18.3619 64.0781 18.3168 63.8147 18.2304V20.425ZM63.8147 15.7163V17.0541C63.9177 17.0842 64.0284 17.1105 64.1429 17.1293C64.2613 17.1481 64.4101 17.1631 64.5857 17.1781C64.7651 17.1894 64.9292 17.1706 65.0819 17.1218C65.2346 17.0729 65.3797 16.9978 65.5209 16.9038C65.6621 16.8099 65.7728 16.6595 65.8568 16.4528C65.9408 16.2462 65.9827 15.9981 65.9827 15.7088C65.9827 15.472 65.9446 15.2616 65.8644 15.0887C65.7843 14.9121 65.6926 14.7768 65.5858 14.6828C65.4789 14.5889 65.3415 14.5175 65.1697 14.4724C64.998 14.4235 64.8529 14.3972 64.7384 14.3859C64.6239 14.3747 64.4788 14.3822 64.3071 14.401C64.1353 14.4198 64.0284 14.431 63.9903 14.4386C63.9521 14.4461 63.8948 14.4574 63.8185 14.4761H63.807C63.807 14.4761 63.807 14.8895 63.8147 15.7163Z" fill="black"/>
<path d="M70.2388 13.2999C70.5518 13.1759 71.0747 13.112 71.8076 13.112C72.1664 13.112 72.4718 13.1721 72.7237 13.2924C72.9794 13.4126 73.1627 13.5479 73.2772 13.702C73.3917 13.8561 73.4795 14.0327 73.5405 14.2281C73.6016 14.4273 73.636 14.5739 73.6398 14.6716C73.6474 14.7693 73.6474 14.8519 73.6398 14.9196V18.3469C72.6817 18.4709 72.2046 18.1815 72.2046 17.4713C72.2046 17.2082 72.2046 16.8625 72.2046 16.4341C72.2122 15.4983 72.1664 14.9309 72.071 14.7242C71.9756 14.5212 71.674 14.4123 71.174 14.401C70.861 14.401 70.548 14.4574 70.235 14.5701V17.4713C70.2465 17.8471 70.1281 18.0951 69.8762 18.2116C69.6243 18.3281 69.2655 18.3732 68.7998 18.3469V11C68.9143 11.0827 69.067 11.1315 69.254 11.1466C69.4411 11.1616 69.6014 11.1691 69.7312 11.1691C69.8609 11.1691 69.9793 11.2368 70.0785 11.372C70.1816 11.5073 70.2312 11.7291 70.2312 12.0372V13.2999H70.2388Z" fill="black"/>
<path d="M75.239 12.5821C75.0939 12.4318 75.0176 12.2514 75.0176 12.0447C75.0176 11.838 75.0939 11.6614 75.2428 11.5111C75.3916 11.3645 75.571 11.2894 75.7848 11.2894C75.9947 11.2894 76.1741 11.3645 76.3268 11.5111C76.4757 11.6577 76.552 11.8343 76.552 12.0447C76.552 12.2514 76.4757 12.428 76.3268 12.5784C76.178 12.7249 75.9986 12.8001 75.7848 12.8001C75.5749 12.8001 75.3916 12.7287 75.239 12.5821ZM76.4909 14.059C76.4909 13.7509 76.4413 13.5291 76.3383 13.3938C76.2352 13.2586 76.1207 13.1909 75.9909 13.1909C75.8611 13.1909 75.7008 13.1834 75.5138 13.1684C75.3268 13.1533 75.1741 13.1045 75.0596 13.0218V18.3394C75.5252 18.3657 75.884 18.3206 76.136 18.2041C76.3879 18.0876 76.5062 17.8433 76.4948 17.4638V14.059H76.4909Z" fill="black"/>
<path d="M82.7472 14.9158V18.3431C82.5258 18.3544 82.3311 18.3544 82.1746 18.3394C82.0143 18.3243 81.8655 18.2868 81.7204 18.2304C81.5754 18.174 81.4723 18.0801 81.4036 17.9523C81.3349 17.8245 81.3082 17.6629 81.312 17.4675V15.4344V15.4157V14.9459C81.2166 14.4874 80.7814 14.307 80.0104 14.401C79.6096 14.4498 79.3768 14.4874 79.3119 14.5137C79.331 14.619 79.3424 14.7467 79.3424 14.8895V17.4675C79.3501 17.6629 79.3157 17.8245 79.247 17.9523C79.1783 18.0801 79.0714 18.174 78.9302 18.2304C78.789 18.2868 78.6401 18.3243 78.4798 18.3394C78.3195 18.3544 78.1286 18.3582 77.9072 18.3431V13.7584C77.9072 13.3488 78.5752 13.1308 79.9073 13.1007C81.7929 13.0519 82.7396 13.6569 82.7472 14.9158Z" fill="black"/>
<path d="M84.4876 14.4386C84.4876 14.4198 84.4838 14.3935 84.4762 14.3634C84.4685 14.3334 84.4685 14.2695 84.4723 14.1793C84.4762 14.0891 84.4838 14.0027 84.5029 13.92C84.5181 13.8373 84.5525 13.7471 84.5983 13.6419C84.6479 13.5367 84.709 13.4502 84.7892 13.3788C84.8693 13.3074 84.9762 13.2473 85.1136 13.1947C85.251 13.1458 85.4113 13.1195 85.5984 13.1195C85.6556 13.1195 85.7434 13.1195 85.8656 13.1195C86.0297 13.112 86.2015 13.112 86.377 13.1195C86.5526 13.127 86.7282 13.1346 86.9038 13.1421C87.0794 13.1534 87.2511 13.1797 87.4153 13.221C87.5794 13.2661 87.7397 13.3187 87.8886 13.3826C88.0374 13.4465 88.1748 13.5367 88.3008 13.6494C88.4268 13.7659 88.5336 13.8974 88.6253 14.0478C88.7169 14.1981 88.7894 14.3822 88.839 14.6039C88.8886 14.8219 88.9153 15.0699 88.9153 15.348V15.4157V15.4833V15.5585V15.6261V15.7013V15.7764V15.8629V15.9568V16.0508V16.1635V16.3138V16.389C88.9153 16.6483 88.8848 16.8813 88.8276 17.0917C88.7703 17.3022 88.6978 17.4713 88.6138 17.6066C88.526 17.7381 88.4191 17.8546 88.2932 17.9561C88.1672 18.0575 88.0451 18.1289 87.9344 18.1778C87.8237 18.2266 87.6939 18.2642 87.5489 18.2905C87.4038 18.3206 87.2893 18.3356 87.2091 18.3431C87.129 18.3507 87.0336 18.3544 86.9267 18.3544H85.606C85.5869 18.3544 85.5564 18.3544 85.5182 18.3507C85.48 18.3469 85.4075 18.3394 85.3045 18.3206C85.1976 18.3056 85.0983 18.283 85.0029 18.2492C84.9075 18.2191 84.8006 18.1665 84.6823 18.0951C84.5639 18.0237 84.4647 17.9373 84.3807 17.8396C84.2968 17.7419 84.2281 17.6141 84.1708 17.46C84.1135 17.3022 84.083 17.1255 84.083 16.9339C84.083 16.5882 84.1288 16.2988 84.2166 16.062C84.3044 15.8253 84.4418 15.6449 84.6212 15.5171C84.8044 15.3894 85.0067 15.2992 85.2281 15.2503C85.4495 15.2015 85.7205 15.1751 86.0411 15.1751C86.5946 15.1751 86.9725 15.1376 87.1748 15.0662C87.3771 14.9948 87.4763 14.882 87.4763 14.7317C87.4763 14.5175 87.2664 14.3747 86.8503 14.2995C86.4343 14.2244 85.9915 14.2093 85.522 14.2507C85.0563 14.2845 84.709 14.3484 84.4876 14.4386ZM87.5183 15.8591C87.4916 15.8892 87.4572 15.9267 87.4076 15.9718C87.358 16.0169 87.2511 16.0733 87.087 16.1447C86.9229 16.2161 86.7473 16.2537 86.5717 16.2537C86.2587 16.2537 86.0068 16.2913 85.8121 16.3664C85.6174 16.4416 85.522 16.5468 85.522 16.6859C85.522 16.8475 85.5907 16.9715 85.732 17.0541C85.8732 17.1368 86.1518 17.1782 86.5717 17.1782C86.7435 17.1782 86.8771 17.1782 86.9687 17.1744C87.0603 17.1706 87.1481 17.1481 87.2282 17.103C87.3084 17.0579 87.3618 17.0166 87.3962 16.979C87.4267 16.9414 87.4534 16.8625 87.4763 16.7385C87.4992 16.6145 87.5107 16.498 87.5145 16.3852C87.5145 16.2725 87.5183 16.0959 87.5183 15.8591Z" fill="black"/>
</svg>
