<svg width="96" height="32" viewBox="0 0 96 32" fill="none" xmlns="http://www.w3.org/2000/svg">
<path d="M16 22H22.4221L23.3535 19.8723H16V22Z" fill="#00B8FF"/>
<path d="M16 19.4468L23.9173 18.383L24.8732 16.1135L16 17.3191V19.4468Z" fill="#00B8FF"/>
<path d="M16 16.8936L25.6086 14.5296L26.6871 12L16 14.695V16.8936Z" fill="#00B8FF"/>
<path d="M31.369 18.0047H33.477L34.1879 16.4208H31.369V15.3097H34.6536L35.4135 13.6312V13.6075H29.3101V20.8889H35.4135V19.1631H31.369V18.0047Z" fill="black"/>
<path d="M57.6943 14.2931C57.1306 13.844 56.3707 13.6075 55.4147 13.6075H52.1792V20.8652H54.2627V18.7848H55.2922C56.2726 18.7848 57.0325 18.5484 57.6453 18.0993C58.2336 17.6501 58.5277 16.9882 58.5277 16.1607C58.5522 15.3806 58.2581 14.7423 57.6943 14.2931ZM56.1256 16.9645C55.905 17.13 55.6108 17.2246 55.2432 17.2246H54.2627V15.3097H55.2432C55.6353 15.3097 55.9295 15.3806 56.1256 15.5461C56.3462 15.7116 56.4442 15.948 56.4442 16.2553C56.4442 16.5626 56.3462 16.799 56.1256 16.9645Z" fill="black"/>
<path d="M61.3467 13.6075H59.2632V20.8889H63.8959L64.6558 19.1158H61.3467V13.6075Z" fill="black"/>
<path d="M68.2345 13.5603L65.5382 19.7068L65.0234 20.8652H65.7343H67.2295L67.7688 19.565H70.6611L71.2004 20.8652H73.431L70.2199 13.5366H68.2345V13.5603ZM68.357 18.0047L69.2149 15.948L70.0483 18.0047H68.357Z" fill="black"/>
<path d="M77.6713 13.6075L76.1025 16.2553L74.5583 13.6075H72.1807L75.0485 18.1466V20.8889H77.132V18.1229L79.9999 13.6075H77.6713Z" fill="black"/>
<path d="M41.5903 13.6075L39.8745 18.2175L38.1587 13.6075H35.8301L38.894 20.9361H40.8305L43.8944 13.6075H41.5903Z" fill="black"/>
<path d="M47.4238 13.4893C45.2668 13.4893 43.502 15.1915 43.502 17.2719C43.502 19.3522 45.2668 21.0544 47.4238 21.0544C49.5809 21.0544 51.3457 19.3522 51.3457 17.2719C51.3212 15.1678 49.5809 13.4893 47.4238 13.4893ZM47.4238 19.234C46.2963 19.234 45.3648 18.3357 45.3648 17.2482C45.3648 16.1607 46.2963 15.2624 47.4238 15.2624C48.5514 15.2624 49.4828 16.1607 49.4828 17.2482C49.4828 18.3357 48.5514 19.234 47.4238 19.234Z" fill="black"/>
</svg>
