<svg width="62" height="32" viewBox="0 0 62 32" fill="none" xmlns="http://www.w3.org/2000/svg">
<path d="M16 19.6438H21.5863V17.7301H18.0852V16.5962H20.6405V14.7267H18.0852V13.5154H21.3485V11.5962H16V19.6438Z" fill="black"/>
<path d="M27.2664 15.407V14.0962H22.637V15.6615H24.6171V15.6836L22.4157 18.3219V19.6438H27.1503V18.0675H25.0042V18.0509L27.2664 15.407Z" fill="black"/>
<path d="M31.6412 14.0962V16.8838C31.6412 17.2489 31.5693 17.5199 31.431 17.7024C31.2928 17.8849 31.1102 17.9734 30.889 17.9734C30.629 17.9734 30.441 17.8905 30.3304 17.7135C30.2197 17.5365 30.1644 17.2544 30.1644 16.8562V14.0962H28.1456V17.3429C28.1456 18.9579 28.7983 19.7599 30.1091 19.7599C30.4078 19.7599 30.6843 19.7046 30.9443 19.5829C31.2043 19.4613 31.431 19.2843 31.6191 19.052H31.6412V19.6438H33.6711V14.0962H31.6412Z" fill="black"/>
<path d="M38.5271 14.0962V14.6382H38.5105C38.1178 14.2013 37.6089 13.98 36.9895 13.98C36.6576 13.98 36.3423 14.052 36.0492 14.1958C35.756 14.3396 35.5071 14.5331 35.297 14.7765C35.0868 15.0254 34.9153 15.3241 34.7936 15.6781C34.672 16.032 34.6111 16.4137 34.6111 16.8174C34.6111 17.3263 34.7107 17.7909 34.9209 18.2002C35.131 18.6095 35.4242 18.9358 35.8058 19.1737C36.1819 19.4115 36.6133 19.5276 37.0945 19.5276C37.714 19.5276 38.2063 19.334 38.5603 18.9469H38.5768V19.4502C38.5768 19.7102 38.4552 19.9259 38.2229 20.0918C37.985 20.2633 37.6532 20.3462 37.2273 20.3462C36.9673 20.3462 36.6852 20.3075 36.381 20.219C36.0768 20.1305 35.8279 20.0254 35.6288 19.8982L35.1808 21.4911C35.5293 21.6792 35.8833 21.8064 36.2372 21.8838C36.5912 21.9613 37.006 22 37.4817 22C37.9352 22 38.339 21.9502 38.693 21.8507C39.047 21.7511 39.3401 21.6073 39.5724 21.4248C39.8047 21.2478 39.9928 21.021 40.1421 20.7555C40.2859 20.49 40.391 20.1969 40.4574 19.8871C40.5182 19.5774 40.5514 19.2234 40.5514 18.8363V14.0962H38.5271ZM37.6366 17.7467C37.3545 17.7467 37.1222 17.6582 36.9341 17.4756C36.7461 17.2931 36.6521 17.0553 36.6521 16.7621C36.6521 16.4745 36.7461 16.2422 36.9341 16.0542C37.1222 15.8661 37.36 15.7721 37.6366 15.7721C37.9131 15.7721 38.1454 15.8661 38.3335 16.0542C38.5215 16.2422 38.6156 16.4745 38.6156 16.7621C38.6156 17.0553 38.5215 17.2931 38.3335 17.4756C38.1454 17.6582 37.9131 17.7467 37.6366 17.7467Z" fill="black"/>
<path d="M41.8012 19.6438H43.82V14.0962H41.8012V19.6438Z" fill="black"/>
<circle cx="44.6172" cy="12.1924" r="1.19237" fill="#F72442"/>
</svg>
