<svg width="95" height="32" viewBox="0 0 95 32" fill="none" xmlns="http://www.w3.org/2000/svg">
<path d="M22.6949 17.8187C21.8396 19.8462 20.6911 21.7964 20.6946 24.0624C20.6946 24.4299 20.5173 24.562 20.1323 24.5556C19.7131 24.5491 19.7199 24.3009 19.7267 24.0334C19.754 22.9374 20.0743 21.9124 20.6094 20.9486C21.2228 19.843 21.843 18.7438 22.4632 17.6414C23.1788 16.3682 22.8755 15.4624 21.4681 14.908C20.3776 14.4793 19.2496 14.1408 18.1387 13.7605C18.0433 13.7282 17.9479 13.6928 17.8013 13.6412C18.9804 12.065 19.846 10.3727 20.3844 8.44189C22.0815 9.57653 23.8808 10.4017 25.9051 10.9078C24.9952 12.2423 24.1364 13.5445 23.7036 15.0369C23.7377 15.0563 23.7718 15.0724 23.8059 15.0917C24.0989 14.6469 24.3988 14.2021 24.6885 13.754C25.0531 13.1899 25.3803 12.6065 25.7756 12.065C26.3072 11.3333 27.0365 10.8594 27.9975 10.8111C29.2754 10.7466 30.1512 11.6588 29.9978 12.8579C29.9876 12.9256 29.9842 12.9965 29.9774 13.0642C30.0251 13.0836 30.0728 13.1029 30.1205 13.1255C30.3761 12.6291 30.6317 12.1294 30.9111 11.5879C31.2724 12.4453 31.6336 13.306 31.9914 14.1602C31.4325 13.9539 30.8873 13.7573 30.3454 13.5574C30.3216 13.6025 30.2977 13.6477 30.2773 13.6896C30.3216 13.7347 30.3625 13.783 30.4136 13.8249C31.4939 14.6759 31.3644 16.1522 30.1512 16.8259C29.3333 17.2804 28.4643 17.3513 27.5613 17.1225C26.6412 16.8872 25.7245 16.6357 24.8044 16.394C24.634 16.3489 24.4602 16.3231 24.2455 16.3746C24.8078 16.7002 25.3735 17.0225 25.9323 17.3513C26.5117 17.693 27.108 18.0089 27.6533 18.3925C28.3042 18.847 28.6654 19.4884 28.7608 20.2524C28.9312 21.6159 27.5374 22.6183 26.1947 22.1058C26.1129 22.0736 26.0278 22.0413 25.9221 21.9994C25.8744 22.08 25.8267 22.1477 25.7926 22.2219C25.5166 22.8407 25.0395 23.2243 24.3239 23.2952C23.5707 23.3694 22.9471 23.1083 22.5109 22.5216C21.9657 21.7867 21.8328 20.9615 22.0474 20.1009C22.2383 19.3305 22.4768 18.5762 22.6949 17.8187Z" fill="white"/>
<path d="M22.6949 17.8187C21.8396 19.8462 20.6911 21.7964 20.6946 24.0624C20.6946 24.4299 20.5173 24.562 20.1323 24.5556C19.7131 24.5491 19.7199 24.3009 19.7267 24.0334C19.754 22.9374 20.0743 21.9124 20.6094 20.9486C21.2228 19.843 21.843 18.7438 22.4632 17.6414C23.1788 16.3682 22.8755 15.4624 21.4681 14.908C20.3776 14.4793 19.2496 14.1408 18.1387 13.7605C18.0433 13.7282 17.9479 13.6928 17.8013 13.6412C18.9804 12.065 19.846 10.3727 20.3844 8.44189C22.0815 9.57653 23.8808 10.4017 25.9051 10.9078C24.9952 12.2423 24.1364 13.5445 23.7036 15.0369C23.7377 15.0563 23.7718 15.0724 23.8059 15.0917C24.0989 14.6469 24.3988 14.2021 24.6885 13.754C25.0531 13.1899 25.3803 12.6065 25.7756 12.065C26.3072 11.3333 27.0365 10.8594 27.9975 10.8111C29.2754 10.7466 30.1512 11.6588 29.9978 12.8579C29.9876 12.9256 29.9842 12.9965 29.9774 13.0642C30.0251 13.0836 30.0728 13.1029 30.1205 13.1255C30.3761 12.6291 30.6317 12.1294 30.9111 11.5879C31.2724 12.4453 31.6336 13.306 31.9914 14.1602C31.4325 13.9539 30.8873 13.7573 30.3454 13.5574C30.3216 13.6025 30.2977 13.6477 30.2773 13.6896C30.3216 13.7347 30.3625 13.783 30.4136 13.8249C31.4939 14.6759 31.3644 16.1522 30.1512 16.8259C29.3333 17.2804 28.4643 17.3513 27.5613 17.1225C26.6412 16.8872 25.7245 16.6357 24.8044 16.394C24.634 16.3489 24.4602 16.3231 24.2455 16.3746C24.8078 16.7002 25.3735 17.0225 25.9323 17.3513C26.5117 17.693 27.108 18.0089 27.6533 18.3925C28.3042 18.847 28.6654 19.4884 28.7608 20.2524C28.9312 21.6159 27.5374 22.6183 26.1947 22.1058C26.1129 22.0736 26.0278 22.0413 25.9221 21.9994C25.8744 22.08 25.8267 22.1477 25.7926 22.2219C25.5166 22.8407 25.0395 23.2243 24.3239 23.2952C23.5707 23.3694 22.9471 23.1083 22.5109 22.5216C21.9657 21.7867 21.8328 20.9615 22.0474 20.1009C22.2383 19.3305 22.4768 18.5762 22.6949 17.8187Z" fill="url(#paint0_linear_23187_226887)"/>
<path d="M17.6161 17.8604C16.9788 18.1731 16.8425 18.721 16.5801 19.3174C16.2837 18.5212 16.0178 17.8153 15.718 17.0126C16.2837 17.3285 16.7301 17.6444 17.3912 17.509C16.6278 17.0803 16.2325 16.5259 16.4949 15.7136C16.6653 15.1882 17.1663 14.824 17.7354 14.7821C18.4237 14.7305 18.9008 15.027 19.303 15.7813C19.8175 15.4654 20.3969 15.2785 20.9455 15.6072C21.2624 15.7974 21.5657 16.1327 21.6952 16.4647C22.0292 17.3253 21.426 18.0119 20.206 18.2633C20.3151 19.1884 20.0868 19.7106 19.4393 20.0104C18.9247 20.2489 18.2602 20.1619 17.8274 19.7976C17.3094 19.356 17.231 18.7726 17.6161 17.8604Z" fill="white"/>
<path d="M17.6161 17.8604C16.9788 18.1731 16.8425 18.721 16.5801 19.3174C16.2837 18.5212 16.0178 17.8153 15.718 17.0126C16.2837 17.3285 16.7301 17.6444 17.3912 17.509C16.6278 17.0803 16.2325 16.5259 16.4949 15.7136C16.6653 15.1882 17.1663 14.824 17.7354 14.7821C18.4237 14.7305 18.9008 15.027 19.303 15.7813C19.8175 15.4654 20.3969 15.2785 20.9455 15.6072C21.2624 15.7974 21.5657 16.1327 21.6952 16.4647C22.0292 17.3253 21.426 18.0119 20.206 18.2633C20.3151 19.1884 20.0868 19.7106 19.4393 20.0104C18.9247 20.2489 18.2602 20.1619 17.8274 19.7976C17.3094 19.356 17.231 18.7726 17.6161 17.8604Z" fill="url(#paint1_linear_23187_226887)"/>
<path d="M35.4377 9.4873V23.5133" stroke="#58585A" stroke-width="0.5169" stroke-miterlimit="10"/>
<path d="M53.3564 15.1608C53.363 15.6462 53.3168 16.6009 53.3168 16.6009C53.3168 16.6009 52.947 16.6105 52.7753 16.6105C51.2928 16.6233 49.8103 16.6169 48.3278 16.6169C47.9184 16.6169 47.509 16.6169 47.0996 16.6169C47.0765 16.5849 47.0831 16.6073 47.0566 16.5754C47.6278 16.4189 47.6906 16.0198 47.6873 15.5663C47.6774 13.8388 47.6873 12.1113 47.6807 10.3838C47.6807 10.0485 47.7401 9.6909 47.2977 9.37158C49.2919 9.37158 51.1541 9.37158 53.0262 9.37158C53.0262 10.0453 53.0262 10.6872 53.0262 11.3929C52.8776 11.064 52.7489 10.8149 52.6498 10.5531C52.3361 9.7356 51.6527 9.54082 50.8471 9.54401C50.54 9.54401 50.2362 9.53124 49.9259 9.54082C49.5858 9.51847 49.4834 9.67174 49.4867 9.97509C49.4966 10.7606 49.4834 11.5461 49.4966 12.3316C49.5032 12.7308 49.599 12.8202 49.9853 12.734C50.4211 12.635 50.8107 12.4594 50.9593 11.974C51.0551 11.6611 51.2334 11.3737 51.3819 11.0576C51.3819 12.2614 51.3819 13.4652 51.3819 14.7042C50.9923 13.9282 50.781 12.9479 49.523 13.0246C49.5098 13.2321 49.4867 14.9724 49.4999 15.7068C49.5098 16.2113 49.7377 16.4413 50.2461 16.4604C51.4546 16.5115 53.1748 16.4923 53.1946 15.1608C53.2507 15.164 53.2738 15.164 53.3564 15.1608Z" fill="white"/>
<path d="M53.3564 15.1608C53.363 15.6462 53.3168 16.6009 53.3168 16.6009C53.3168 16.6009 52.947 16.6105 52.7753 16.6105C51.2928 16.6233 49.8103 16.6169 48.3278 16.6169C47.9184 16.6169 47.509 16.6169 47.0996 16.6169C47.0765 16.5849 47.0831 16.6073 47.0566 16.5754C47.6278 16.4189 47.6906 16.0198 47.6873 15.5663C47.6774 13.8388 47.6873 12.1113 47.6807 10.3838C47.6807 10.0485 47.7401 9.6909 47.2977 9.37158C49.2919 9.37158 51.1541 9.37158 53.0262 9.37158C53.0262 10.0453 53.0262 10.6872 53.0262 11.3929C52.8776 11.064 52.7489 10.8149 52.6498 10.5531C52.3361 9.7356 51.6527 9.54082 50.8471 9.54401C50.54 9.54401 50.2362 9.53124 49.9259 9.54082C49.5858 9.51847 49.4834 9.67174 49.4867 9.97509C49.4966 10.7606 49.4834 11.5461 49.4966 12.3316C49.5032 12.7308 49.599 12.8202 49.9853 12.734C50.4211 12.635 50.8107 12.4594 50.9593 11.974C51.0551 11.6611 51.2334 11.3737 51.3819 11.0576C51.3819 12.2614 51.3819 13.4652 51.3819 14.7042C50.9923 13.9282 50.781 12.9479 49.523 13.0246C49.5098 13.2321 49.4867 14.9724 49.4999 15.7068C49.5098 16.2113 49.7377 16.4413 50.2461 16.4604C51.4546 16.5115 53.1748 16.4923 53.1946 15.1608C53.2507 15.164 53.2738 15.164 53.3564 15.1608Z" fill="url(#paint2_linear_23187_226887)"/>
<path d="M71.433 9.37158C72.2974 9.37158 73.1023 9.37158 73.9793 9.37158C73.735 9.70924 73.8039 9.93541 74.0043 10.2062C74.4177 10.77 74.7779 11.3784 75.1725 11.9836C75.7112 11.3689 76.1591 10.856 76.5819 10.2731C76.7604 10.0246 76.6946 9.64234 76.3658 9.38114C76.9076 9.38114 77.3336 9.38114 77.8785 9.38114C77.3743 9.93859 76.9201 10.4164 76.4785 10.9293C76.1716 11.286 75.8835 11.6651 75.6047 12.0474C75.4607 12.2417 75.4732 12.4551 75.6141 12.6621C76.2499 13.5987 76.8794 14.5384 77.5152 15.4781C77.6468 15.6724 77.8879 16.0769 78.0476 16.2426C78.2481 16.4465 78.3013 16.4942 78.5581 16.5834C77.8723 16.6025 76.1215 16.6057 75.5076 16.5898C75.6799 16.5548 75.9774 16.4019 75.8991 16.1725C75.8302 15.9686 75.7331 15.768 75.539 15.4367C75.254 14.9652 74.9157 14.5225 74.6088 14.0637C74.4177 13.7802 74.2549 13.7356 74.0231 13.9937C73.5972 14.4683 73.1869 14.9589 72.8017 15.4685C72.6889 15.6182 72.6169 15.8635 72.6419 16.0515C72.6764 16.3318 72.7891 16.5197 73.2151 16.6185C72.3851 16.5802 71.7525 16.6185 70.9977 16.5834C71.7024 16.5261 73.6348 13.9204 73.8978 13.605C74.0983 13.3661 74.067 13.2451 73.9573 13.0763C73.45 12.3181 72.9269 11.5759 72.4102 10.8241C72.097 10.3718 71.7963 9.91311 71.433 9.37158Z" fill="white"/>
<path d="M71.433 9.37158C72.2974 9.37158 73.1023 9.37158 73.9793 9.37158C73.735 9.70924 73.8039 9.93541 74.0043 10.2062C74.4177 10.77 74.7779 11.3784 75.1725 11.9836C75.7112 11.3689 76.1591 10.856 76.5819 10.2731C76.7604 10.0246 76.6946 9.64234 76.3658 9.38114C76.9076 9.38114 77.3336 9.38114 77.8785 9.38114C77.3743 9.93859 76.9201 10.4164 76.4785 10.9293C76.1716 11.286 75.8835 11.6651 75.6047 12.0474C75.4607 12.2417 75.4732 12.4551 75.6141 12.6621C76.2499 13.5987 76.8794 14.5384 77.5152 15.4781C77.6468 15.6724 77.8879 16.0769 78.0476 16.2426C78.2481 16.4465 78.3013 16.4942 78.5581 16.5834C77.8723 16.6025 76.1215 16.6057 75.5076 16.5898C75.6799 16.5548 75.9774 16.4019 75.8991 16.1725C75.8302 15.9686 75.7331 15.768 75.539 15.4367C75.254 14.9652 74.9157 14.5225 74.6088 14.0637C74.4177 13.7802 74.2549 13.7356 74.0231 13.9937C73.5972 14.4683 73.1869 14.9589 72.8017 15.4685C72.6889 15.6182 72.6169 15.8635 72.6419 16.0515C72.6764 16.3318 72.7891 16.5197 73.2151 16.6185C72.3851 16.5802 71.7525 16.6185 70.9977 16.5834C71.7024 16.5261 73.6348 13.9204 73.8978 13.605C74.0983 13.3661 74.067 13.2451 73.9573 13.0763C73.45 12.3181 72.9269 11.5759 72.4102 10.8241C72.097 10.3718 71.7963 9.91311 71.433 9.37158Z" fill="url(#paint3_linear_23187_226887)"/>
<path d="M39.2188 9.37158C40.9418 9.37158 42.7219 9.37158 44.5369 9.37158C44.5369 9.88125 44.5369 10.3686 44.5369 10.856C44.3465 10.3017 43.9531 9.9577 43.4581 9.71561C43.3216 9.64872 43.1661 9.58501 43.017 9.58182C42.43 9.56589 41.8398 9.57545 41.1639 9.57545C41.1417 10.6266 41.1449 11.6492 41.1512 12.6685C42.1127 12.968 42.9059 12.4137 43.1598 11.3402C43.2296 12.4551 43.2137 13.5732 43.163 14.704C43.0297 14.2549 42.9504 13.7994 42.5569 13.484C42.1698 13.175 41.7287 12.9425 41.1607 13.0444C41.148 13.2515 41.1512 15.3061 41.1385 16.0037C41.1322 16.4337 41.2559 16.6185 41.6843 16.6185C40.7482 16.6185 39.8122 16.6185 38.8666 16.6185C39.1363 16.542 39.2696 16.5038 39.3457 16.3286C39.4346 16.1184 39.3965 15.7138 39.3965 15.4717C39.3997 13.6815 39.4028 11.5695 39.3901 9.77613C39.387 9.55634 39.333 9.48626 39.2188 9.37158Z" fill="white"/>
<path d="M39.2188 9.37158C40.9418 9.37158 42.7219 9.37158 44.5369 9.37158C44.5369 9.88125 44.5369 10.3686 44.5369 10.856C44.3465 10.3017 43.9531 9.9577 43.4581 9.71561C43.3216 9.64872 43.1661 9.58501 43.017 9.58182C42.43 9.56589 41.8398 9.57545 41.1639 9.57545C41.1417 10.6266 41.1449 11.6492 41.1512 12.6685C42.1127 12.968 42.9059 12.4137 43.1598 11.3402C43.2296 12.4551 43.2137 13.5732 43.163 14.704C43.0297 14.2549 42.9504 13.7994 42.5569 13.484C42.1698 13.175 41.7287 12.9425 41.1607 13.0444C41.148 13.2515 41.1512 15.3061 41.1385 16.0037C41.1322 16.4337 41.2559 16.6185 41.6843 16.6185C40.7482 16.6185 39.8122 16.6185 38.8666 16.6185C39.1363 16.542 39.2696 16.5038 39.3457 16.3286C39.4346 16.1184 39.3965 15.7138 39.3965 15.4717C39.3997 13.6815 39.4028 11.5695 39.3901 9.77613C39.387 9.55634 39.333 9.48626 39.2188 9.37158Z" fill="url(#paint4_linear_23187_226887)"/>
<path d="M62.808 14.6641C62.7822 15.3782 62.7629 15.9362 62.75 16.6185C60.637 16.6185 58.5723 16.6185 56.5076 16.6185C57.0036 16.4941 56.9907 16.1211 56.9907 15.7385C56.9875 13.8606 56.9939 11.5874 56.9843 9.70954C56.9843 9.48317 56.9843 9.51187 56.8619 9.37158C57.5576 9.37158 58.2888 9.37158 58.9878 9.37158C58.8235 9.51187 58.8235 9.51187 58.8203 9.78924C58.8074 11.546 58.8106 13.7586 58.8171 15.5153C58.8203 16.1881 59.0844 16.4367 59.7834 16.4463C60.3793 16.4559 60.9687 16.475 61.526 16.1785C62.0768 15.8852 62.386 15.4229 62.5857 14.8649C62.6115 14.7948 62.6308 14.7215 62.6501 14.6481C62.6888 14.6545 62.7725 14.6609 62.808 14.6641Z" fill="white"/>
<path d="M62.808 14.6641C62.7822 15.3782 62.7629 15.9362 62.75 16.6185C60.637 16.6185 58.5723 16.6185 56.5076 16.6185C57.0036 16.4941 56.9907 16.1211 56.9907 15.7385C56.9875 13.8606 56.9939 11.5874 56.9843 9.70954C56.9843 9.48317 56.9843 9.51187 56.8619 9.37158C57.5576 9.37158 58.2888 9.37158 58.9878 9.37158C58.8235 9.51187 58.8235 9.51187 58.8203 9.78924C58.8074 11.546 58.8106 13.7586 58.8171 15.5153C58.8203 16.1881 59.0844 16.4367 59.7834 16.4463C60.3793 16.4559 60.9687 16.475 61.526 16.1785C62.0768 15.8852 62.386 15.4229 62.5857 14.8649C62.6115 14.7948 62.6308 14.7215 62.6501 14.6481C62.6888 14.6545 62.7725 14.6609 62.808 14.6641Z" fill="url(#paint5_linear_23187_226887)"/>
<path d="M68.299 9.38819C68.1192 9.54319 68.0785 9.78359 68.0819 10.2328C68.0887 11.5645 68.0616 13.4023 68.0819 14.734C68.0921 15.2749 68.0853 15.7494 68.1124 16.2903C68.1972 16.4611 68.3092 16.5592 68.4788 16.6066C67.1797 16.6224 66.9897 16.6224 65.9586 16.6066C66.3215 16.4326 66.3589 16.1669 66.3589 15.5469C66.3623 13.9052 66.3724 11.536 66.3521 9.8943C66.3487 9.51472 66.369 9.57482 66.1723 9.38819C66.8676 9.36605 67.3595 9.36605 68.299 9.38819Z" fill="white"/>
<path d="M68.299 9.38819C68.1192 9.54319 68.0785 9.78359 68.0819 10.2328C68.0887 11.5645 68.0616 13.4023 68.0819 14.734C68.0921 15.2749 68.0853 15.7494 68.1124 16.2903C68.1972 16.4611 68.3092 16.5592 68.4788 16.6066C67.1797 16.6224 66.9897 16.6224 65.9586 16.6066C66.3215 16.4326 66.3589 16.1669 66.3589 15.5469C66.3623 13.9052 66.3724 11.536 66.3521 9.8943C66.3487 9.51472 66.369 9.57482 66.1723 9.38819C66.8676 9.36605 67.3595 9.36605 68.299 9.38819Z" fill="url(#paint6_linear_23187_226887)"/>
<path d="M54.0709 19.306C53.9001 19.303 53.813 19.3397 53.813 19.548C53.8195 20.6138 53.8034 21.6796 53.8259 22.7424C53.8356 23.1068 53.9967 23.4162 54.3996 23.5142C53.9774 23.5142 53.5552 23.5142 53.1331 23.5142C53.5552 23.3335 53.639 23.2171 53.6422 22.7271C53.6455 21.5571 53.6487 20.3841 53.639 19.2142C53.6358 19.0182 53.6229 18.6476 53.5262 18.5833C53.6841 18.5771 54.3029 18.5741 54.5285 18.5771C54.8959 18.5802 55.0345 18.6874 55.1666 19.0151C55.3889 19.5633 55.5952 20.0411 55.8111 20.5924C55.9626 20.9752 56.0915 21.3672 56.2365 21.7776C56.417 21.9124 57.5321 18.8773 57.5933 18.7058C57.6223 18.6231 57.7093 18.5741 57.7705 18.5741C58.2056 18.5618 58.6439 18.5679 59.1531 18.5679C58.8695 18.96 58.9339 19.3428 58.9339 19.7134C58.9307 20.7669 58.9307 21.8205 58.9371 22.8741C58.9404 23.2416 58.9919 23.4131 59.3142 23.5448C58.689 23.5448 58.0606 23.5448 57.3902 23.5448C57.4869 23.5111 57.6867 23.5234 57.748 23.3641C57.7802 23.0578 57.8543 20.5434 57.8543 19.6215C57.8543 19.4469 57.8608 19.2754 57.5901 19.306C57.4064 19.7716 56.0883 23.0487 56.0045 23.2324C55.9723 23.3029 55.8981 23.3549 55.8305 23.3488C55.7628 23.3427 55.6983 23.2232 55.6661 23.1589C55.3793 22.5066 54.1256 19.4531 54.0709 19.306Z" fill="#58585A"/>
<path d="M70.4586 23.5383C70.1267 23.1585 69.8173 22.8124 69.4886 22.4326C68.7377 21.5567 67.9836 20.6838 67.2488 19.7987C67.136 19.6609 67.0297 19.6364 66.8589 19.664C66.8492 19.7405 66.8299 21.7956 66.8395 22.7542C66.8621 23.3239 67.2295 23.425 67.4357 23.526C66.9523 23.526 66.4689 23.526 65.9823 23.526C66.2337 23.428 66.6462 23.3361 66.6268 22.7297C66.6333 21.5812 66.6268 20.2888 66.6365 19.1433C66.6397 18.8309 66.4367 18.6839 66.2014 18.5859C66.4045 18.5737 66.6526 18.5859 66.8557 18.589C67.8515 18.6257 67.584 18.4113 68.3349 19.2597C68.9182 19.9182 69.4628 20.6103 70.0365 21.2811C70.1074 21.3638 70.2298 21.5108 70.4232 21.6853C70.4232 21.3975 70.4232 21.033 70.4232 20.8462C70.4232 20.4082 70.4232 19.9702 70.4232 19.5323C70.4232 19.2046 70.4554 18.8707 70.088 18.6472C70.1041 18.6288 70.1203 18.6104 70.1364 18.592C70.4039 18.592 70.6746 18.592 71.0258 18.592C70.6874 18.8462 70.6101 19.1157 70.6133 19.4343C70.623 20.6655 70.6198 21.8936 70.6165 23.1248C70.6165 23.2596 70.6101 23.3882 70.6133 23.5383C70.5618 23.5352 70.5038 23.5321 70.4586 23.5383Z" fill="#58585A"/>
<path d="M49.1494 23.4653C49.1816 23.4531 49.2139 23.4378 49.2461 23.4316C49.5909 23.3551 49.636 23.2724 49.4975 22.9784C49.433 22.8375 49.3847 22.6905 49.3234 22.5496C49.2687 22.424 49.2074 22.3015 49.1204 22.1239C48.6596 22.1239 48.1633 22.1239 47.667 22.1239C47.0869 22.1239 47.0869 22.1239 46.9032 22.6507C46.684 23.2724 46.7356 23.4347 47.3769 23.5388C47.0385 23.5388 46.3134 23.5388 45.7849 23.5388C46.3811 23.3489 46.5326 22.8344 46.7388 22.4179C46.9161 22.0596 47.0933 21.689 47.2609 21.3368C47.4704 20.8957 47.6702 20.4486 47.8732 20.0045C48.0763 19.5573 48.2696 19.1071 48.4823 18.663C48.5145 18.5987 48.6273 18.5528 48.7369 18.5068C49.0302 19.1653 50.6222 22.7762 50.9799 23.205C51.0669 23.3091 51.1572 23.4623 51.3795 23.5388C50.5996 23.5572 49.8971 23.548 49.1559 23.5358C49.1559 23.5113 49.1526 23.4898 49.1494 23.4653ZM48.1214 20.0167C48.0118 20.2005 47.928 20.3751 47.8636 20.5006C47.6895 20.8529 47.5477 21.2173 47.3802 21.5726C47.277 21.7962 47.3286 21.9064 47.5864 21.9187C47.87 21.9309 48.1568 21.9279 48.4436 21.9217C48.84 21.9156 48.9625 21.7288 48.7917 21.3735C48.6016 20.9784 48.3502 20.4792 48.1214 20.0167Z" fill="#58585A"/>
<path d="M44.0616 18.3716C44.0616 18.9688 44.0616 19.5109 44.0616 20.053C43.8005 19.664 43.5911 19.2628 43.1979 18.9902C42.7983 18.7146 42.3632 18.5247 41.8637 18.5676C41.2901 18.6166 40.1782 18.8677 40.1589 21.1893C40.1428 22.984 41.1289 23.4036 41.6091 23.422C41.9056 23.4342 42.1602 23.425 42.4889 23.4128C42.708 23.4036 42.8241 23.3025 42.8241 23.1126C42.8273 22.6992 42.8208 22.2857 42.7918 21.8722C42.7725 21.6027 42.6243 21.5231 42.3793 21.4833C42.9079 21.4833 43.8199 21.4833 44.5224 21.4833C44.3677 21.5078 44.0938 21.566 44.0938 22.0223C44.0938 22.3408 44.1003 22.6624 44.0938 22.9809C44.0874 23.1984 43.9359 23.3209 43.7522 23.3852C43.5814 23.4465 43.5137 23.4801 43.1399 23.5383C42.7661 23.5965 42.0506 23.6547 41.4125 23.6088C40.5295 23.5475 38.8666 22.9503 38.8666 21.0086C38.8666 19.2383 40.5069 18.4635 41.4544 18.393C42.5308 18.3103 42.8531 18.5125 43.2752 18.6288C43.6781 18.7422 43.981 18.7452 44.0616 18.3716Z" fill="#58585A"/>
<path d="M78.0329 18.3716C78.0329 18.9688 78.0329 19.5109 78.0329 20.053C77.7718 19.664 77.5624 19.2628 77.1692 18.9902C76.7696 18.7146 76.3345 18.5247 75.835 18.5676C75.2614 18.6166 74.1495 18.8677 74.1302 21.1893C74.1141 22.984 75.1002 23.4036 75.5804 23.422C75.8769 23.4342 76.1315 23.425 76.4602 23.4128C76.6793 23.4036 76.7954 23.3025 76.7954 23.1126C76.7986 22.6992 76.7921 22.2857 76.7631 21.8722C76.7438 21.6027 76.5956 21.5231 76.3506 21.4833C76.8792 21.4833 77.7912 21.4833 78.4937 21.4833C78.339 21.5078 78.0651 21.566 78.0651 22.0223C78.0651 22.3408 78.0522 22.6624 78.0651 22.9809C78.0716 23.1984 77.9459 23.3056 77.7622 23.373C77.5914 23.4342 77.485 23.4832 77.1112 23.5414C76.7374 23.5996 76.0219 23.6578 75.3838 23.6118C74.5008 23.5506 72.8379 22.9534 72.8379 21.0116C72.8379 19.2414 74.4782 18.4665 75.4257 18.3961C76.5021 18.3134 76.8244 18.5155 77.2465 18.6319C77.6494 18.7422 77.9555 18.7452 78.0329 18.3716Z" fill="#58585A"/>
<path d="M63.559 18.5985C63.4397 18.7057 63.4107 18.868 63.414 19.1743C63.4204 20.0809 63.4011 21.3304 63.414 22.237C63.4204 22.6045 63.414 22.9261 63.4333 23.2967C63.4881 23.4131 63.5654 23.4774 63.6782 23.5111C62.8113 23.5203 62.6856 23.5203 61.996 23.5111C62.2377 23.3916 62.2635 23.2109 62.2635 22.7883C62.2667 21.6704 62.2731 20.0594 62.2602 18.9446C62.257 18.6873 62.2731 18.7272 62.141 18.6016C62.6018 18.5832 62.9306 18.5832 63.559 18.5985Z" fill="#58585A"/>
<defs>
<linearGradient id="paint0_linear_23187_226887" x1="31.9916" y1="16.4991" x2="17.8014" y2="16.4991" gradientUnits="userSpaceOnUse">
<stop stop-color="#54000F"/>
<stop offset="1" stop-color="#800027"/>
</linearGradient>
<linearGradient id="paint1_linear_23187_226887" x1="21.7865" y1="17.4602" x2="15.718" y2="17.4602" gradientUnits="userSpaceOnUse">
<stop stop-color="#54000F"/>
<stop offset="1" stop-color="#800027"/>
</linearGradient>
<linearGradient id="paint2_linear_23187_226887" x1="53.3571" y1="12.9951" x2="47.0567" y2="12.9951" gradientUnits="userSpaceOnUse">
<stop stop-color="#54000F"/>
<stop offset="1" stop-color="#800027"/>
</linearGradient>
<linearGradient id="paint3_linear_23187_226887" x1="78.5582" y1="12.9951" x2="70.9977" y2="12.9951" gradientUnits="userSpaceOnUse">
<stop stop-color="#54000F"/>
<stop offset="1" stop-color="#800027"/>
</linearGradient>
<linearGradient id="paint4_linear_23187_226887" x1="44.537" y1="12.9951" x2="38.8666" y2="12.9951" gradientUnits="userSpaceOnUse">
<stop stop-color="#54000F"/>
<stop offset="1" stop-color="#800027"/>
</linearGradient>
<linearGradient id="paint5_linear_23187_226887" x1="62.808" y1="12.9951" x2="56.5076" y2="12.9951" gradientUnits="userSpaceOnUse">
<stop stop-color="#54000F"/>
<stop offset="1" stop-color="#800027"/>
</linearGradient>
<linearGradient id="paint6_linear_23187_226887" x1="68.4788" y1="12.9951" x2="65.9586" y2="12.9951" gradientUnits="userSpaceOnUse">
<stop stop-color="#54000F"/>
<stop offset="1" stop-color="#800027"/>
</linearGradient>
</defs>
</svg>
