<svg width="62" height="32" viewBox="0 0 62 32" fill="none" xmlns="http://www.w3.org/2000/svg">
<path d="M36.7464 9H16V23L30.4518 22.9963L31.9821 20.6234H40.7357L42.1929 22.8259L42.3054 22.9963H46L45.5964 22.385L36.7464 9ZM30.3839 15.4795V19.4491L30.2821 19.5398C29.0571 20.629 27.2482 21.181 24.9036 21.181C20.8161 21.181 18.3768 19.2527 18.3768 16.0241C18.3768 14.3792 19.0393 13.0233 20.2929 12.1064C21.4411 11.2654 23.0357 10.8209 24.9036 10.8209C27.1643 10.8209 28.7732 11.2876 29.9696 12.2898L30.1929 12.4768L30.0143 12.7102L29.2143 13.7513L29.0286 13.9921L28.8036 13.7939C28.0125 13.1029 27.0429 12.6436 24.875 12.6436C21.9893 12.6436 20.5268 13.7698 20.5268 15.9926C20.5268 18.2562 21.95 19.3583 24.875 19.3583C26.4179 19.3583 27.5804 19.0879 28.4232 18.5322V17.0614H23.9161V15.1794H30.3839V15.4795ZM33.9268 17.6097L36.3071 13.9383L38.7357 17.6097H33.9268Z" fill="#1F345F"/>
</svg>
