<svg width="114" height="32" viewBox="0 0 114 32" fill="none" xmlns="http://www.w3.org/2000/svg">
<path fill-rule="evenodd" clip-rule="evenodd" d="M26.646 8.54743V14.7173C25.1313 13.1601 23.9572 12.8487 22.6187 13.6596C22.0899 13.9817 21.6858 14.4738 21.4726 15.0555C21.2593 15.6371 21.2494 16.274 21.4446 16.862C21.6255 17.4279 21.9943 17.9148 22.4898 18.2419C22.9853 18.569 23.5777 18.7165 24.1686 18.6601C24.1862 18.2958 24.2155 17.9197 24.2273 17.5437V16.345H31.9882C32.1878 19.3887 29.8278 22.5442 26.6812 23.5666C23.0414 24.7418 19.3135 23.4785 17.3351 20.3642C15.3626 17.2557 15.574 13.6067 17.9809 10.7686C20.2705 8.0656 24.1157 7.3781 26.646 8.54743Z" fill="#9BD100"/>
<path fill-rule="evenodd" clip-rule="evenodd" d="M81.6034 20.0562H79.3745V17.2906L79.1681 17.2473L77.7647 19.1253L76.1726 17.0849V20.0075H73.92V13.7673H76.2315L77.7765 15.943C78.3072 15.1582 78.8025 14.4546 79.2919 13.7402H81.6034V20.0562V20.0562ZM58.9071 15.9538L60.4225 13.7511H62.7812C62.8343 14.7685 62.7989 15.7914 62.8048 16.8089V20.0021H60.5994V17.2852L60.3871 17.2311L58.9424 19.1794L57.2914 17.0687V20.0075H55.1391C54.9386 19.3472 54.8737 15.4288 55.0506 13.7781H57.4093L58.9071 15.9538ZM66.8676 16.7927C66.8736 17.1675 67.0382 17.5255 67.3264 17.7911C67.6147 18.0567 68.0041 18.2091 68.4125 18.2161C69.1791 18.2053 69.928 17.5341 69.9339 16.8576C69.9191 16.4835 69.7502 16.1285 69.4613 15.8642C69.1723 15.6 68.7848 15.4463 68.3771 15.4342C67.9876 15.4508 67.6183 15.5984 67.3398 15.849C67.0614 16.0996 66.8933 16.4355 66.8676 16.7927V16.7927ZM68.3418 20.3052C66.219 20.2943 64.6504 18.8006 64.6681 16.8035C64.6929 15.902 65.1033 15.0456 65.8106 14.4197C66.518 13.7937 67.4654 13.4486 68.4479 13.4588C69.4515 13.4773 70.4061 13.8603 71.1025 14.5238C71.7989 15.1873 72.1802 16.0772 72.1628 16.9983C72.1333 18.9467 70.1285 20.4729 68.3535 20.2998L68.3418 20.3052ZM42.7442 13.8376C42.4258 14.3897 42.1546 14.866 41.8892 15.3098C40.2971 15.418 39.7074 15.7427 39.5129 16.5708C39.3713 17.1986 39.8372 17.9563 40.5271 18.2269C41.2347 18.5029 41.8362 18.3243 42.473 17.6153L41.2465 17.5071V16.1811C42.4199 16.0729 43.5934 16.127 44.7491 16.1486C44.9463 16.8686 44.871 17.6288 44.5357 18.3044C44.2003 18.9799 43.6248 19.5309 42.9035 19.8668C42.1324 20.2419 41.243 20.3585 40.3884 20.1965C39.5338 20.0345 38.7675 19.604 38.2215 18.9792C37.6796 18.3707 37.385 17.6082 37.3882 16.8222C37.3914 16.0363 37.6923 15.2759 38.2392 14.6711C38.7645 14.0712 39.5024 13.6592 40.3244 13.5069C41.1464 13.3547 42.0006 13.4717 42.7383 13.8376H42.7442ZM50.2271 17.6911L49.7082 16.4084L49.5018 16.4409L49.0065 17.6857H50.2271V17.6911ZM48.4522 13.7402H50.7755L53.6413 20.0021H51.206L50.7225 19.2173H48.4817L47.951 20.0508H45.5982L48.4581 13.7348L48.4522 13.7402ZM86.5094 17.6749H87.7065L87.1109 16.1703L86.5094 17.6749ZM91.2032 20.0562H88.7915L88.2843 19.2227H86.0495L85.5188 20.0562H83.1719L85.9552 13.7348H88.2785L91.2032 20.0508V20.0562ZM97.7957 13.7619V15.4721L95.7731 15.5912V20.0237H93.4498V15.5966L91.5039 15.4775V13.7619H97.7957Z" fill="black"/>
</svg>
