<svg width="80" height="32" viewBox="0 0 80 32" fill="none" xmlns="http://www.w3.org/2000/svg">
<path d="M29.5793 16.2291H22.8661V18.5056H26.7319C26.364 19.2558 25.877 19.8079 25.2741 20.1587C24.6713 20.5094 23.9322 20.688 23.0534 20.688C21.7047 20.688 20.567 20.2626 19.6474 19.4085C18.7278 18.5544 18.268 17.5151 18.268 16.2843C18.268 15.0957 18.7108 14.0857 19.5997 13.2576C20.4887 12.4294 21.582 12.0073 22.8967 12.0073C24.4056 12.0073 25.7237 12.5788 26.8579 13.7187L28.6461 12.0332C27.8286 11.1921 26.9942 10.5978 26.1427 10.2503C25.1311 9.84113 24.0446 9.63654 22.8831 9.63654C20.9724 9.63654 19.3715 10.1854 18.0773 11.2863C18.0841 11.322 18.0773 11.3642 18.0568 11.3967C18.05 11.4812 17.9785 11.5429 17.8865 11.5494C17.8831 11.5494 17.8797 11.5494 17.8729 11.5494C17.6856 11.6987 17.5289 11.8774 17.3824 12.069C17.3518 12.3645 17.0453 12.5756 16.8511 12.7964C16.8136 12.8646 16.7762 12.9361 16.7353 13.001C16.6263 13.1829 16.565 13.3745 16.5037 13.5726C16.4458 13.7577 16.3675 13.9331 16.2993 14.1117C16.1529 14.4852 16.095 14.8749 15.9724 15.2548C15.9077 15.4562 15.8225 15.6575 15.8089 15.8719C15.7953 16.083 15.8021 16.2876 15.7646 16.4954C15.7612 16.5084 15.7578 16.5214 15.751 16.5311C15.9621 17.8821 16.422 19.2071 17.2735 20.321C18.033 21.3115 19.1706 21.9968 20.3491 22.4547C21.5786 22.9321 22.9853 23.01 24.2898 22.8087C25.5534 22.6106 26.7694 22.1137 27.6277 21.1816C28.4996 20.2366 29.082 19.1064 29.4056 17.8886C29.4226 17.8237 29.4669 17.7879 29.518 17.7782C29.5759 17.4437 29.6065 17.1059 29.6065 16.7617L29.5793 16.2291Z" fill="black"/>
<path d="M29.5422 17.5896C29.4298 18.4015 29.1437 19.1842 28.6907 19.9311C28.0844 20.9281 27.301 21.6913 26.3405 22.2142C25.38 22.7403 24.2492 23.0001 22.955 23.0001C21.5687 23.0001 20.3358 22.7143 19.2492 22.1395C18.626 21.8082 18.0742 21.399 17.6007 20.9086C17.4986 20.8047 18.5238 21.1392 20.1144 21.2594C21.3848 21.3568 23.0708 21.2951 24.4672 20.9216C25.8875 20.5417 27.2159 19.7655 28.1184 19.0283C29.0687 18.2521 29.5524 17.5214 29.5422 17.5896Z" fill="url(#paint0_linear_17715_123547)"/>
<path d="M21.0069 22.7857C20.4381 22.6753 19.7364 22.4642 19.0178 22.0485C18.2038 21.5776 17.7099 21.0353 17.3727 20.665C17.1547 20.4215 16.8175 20.048 16.4939 19.4797C16.1636 18.8951 15.9286 18.2553 15.7957 17.5604C15.5675 16.3717 15.6663 15.2026 16.092 14.0595C16.3918 13.2508 16.8209 12.5461 17.3727 11.9453C17.7405 11.5491 18.1084 11.2601 18.1084 11.2601C18.1084 11.2601 17.8359 12.4162 17.6247 13.8776C17.325 15.9496 17.8359 17.8169 17.8359 17.8169C18.1901 19.1744 18.7623 20.1357 19.0042 20.5189C19.6785 21.5808 20.4449 22.3213 21.0069 22.7857Z" fill="url(#paint1_linear_17715_123547)"/>
<path d="M34.1908 17.859H30.7207L29.9413 19.9202H28.8149L31.9779 12.0226H32.9336L36.1023 19.9202H34.9816L34.1908 17.859ZM31.0506 17.002H33.8666L32.4558 13.3081L31.0506 17.002Z" fill="black"/>
<path d="M38.6281 12.0226L41.336 18.4665L44.0438 12.0226H45.4603V19.9202H44.3681V16.8447L44.4705 13.5251L41.7512 19.9202H40.915L38.2014 13.5414L38.3095 16.8447V19.9202H37.2173V12.0226H38.6281Z" fill="black"/>
<path d="M48.208 19.0686H52.9468V19.9202H46.9167V19.1391L51.4563 12.8796H46.9906V12.0226H52.7647V12.7874L48.208 19.0686Z" fill="black"/>
<path d="M55.5352 19.9202H54.4429V12.0226H55.5352V19.9202Z" fill="black"/>
<path d="M60.3422 15.0493L62.3276 12.0226H63.6132L60.9964 15.9388L63.6758 19.9202H62.3788L60.3422 16.8393L58.2942 19.9202H57.0029L59.688 15.9388L57.0654 12.0226H58.3454L60.3422 15.0493Z" fill="black"/>
<path d="M34.1908 17.859H30.7207L29.9413 19.9202H28.8149L31.9779 12.0226H32.9336L36.1023 19.9202H34.9816L34.1908 17.859ZM31.0506 17.002H33.8666L32.4558 13.3081L31.0506 17.002Z" stroke="black" stroke-width="0.838528"/>
<path d="M38.6281 12.0226L41.336 18.4665L44.0438 12.0226H45.4603V19.9202H44.3681V16.8447L44.4705 13.5251L41.7512 19.9202H40.915L38.2014 13.5414L38.3095 16.8447V19.9202H37.2173V12.0226H38.6281Z" stroke="black" stroke-width="0.838528"/>
<path d="M48.208 19.0686H52.9468V19.9202H46.9167V19.1391L51.4563 12.8796H46.9906V12.0226H52.7647V12.7874L48.208 19.0686Z" stroke="black" stroke-width="0.838528"/>
<path d="M55.5352 19.9202H54.4429V12.0226H55.5352V19.9202Z" stroke="black" stroke-width="0.838528"/>
<path d="M60.3422 15.0493L62.3276 12.0226H63.6132L60.9964 15.9388L63.6758 19.9202H62.3788L60.3422 16.8393L58.2942 19.9202H57.0029L59.688 15.9388L57.0654 12.0226H58.3454L60.3422 15.0493Z" stroke="black" stroke-width="0.838528"/>
<path d="M56.6859 11.4679C56.6688 11.2665 56.41 10.1169 55.0442 10.1169C53.7329 10.1169 53.4468 11.4679 53.4468 11.4679C53.5728 11.3217 54.1586 10.9548 55.0646 10.9548C55.974 10.9548 56.5599 11.3217 56.6859 11.4679Z" fill="#F2A50A"/>
<defs>
<linearGradient id="paint0_linear_17715_123547" x1="18.2194" y1="22.1452" x2="29.8749" y2="19.3491" gradientUnits="userSpaceOnUse">
<stop offset="0.00735868" stop-color="#352711"/>
<stop offset="1" stop-color="#F2A50A"/>
</linearGradient>
<linearGradient id="paint1_linear_17715_123547" x1="16.7867" y1="12.4656" x2="18.5727" y2="21.8491" gradientUnits="userSpaceOnUse">
<stop offset="0.00735868" stop-color="#352711"/>
<stop offset="1" stop-color="#F2A50A"/>
</linearGradient>
</defs>
</svg>
