<svg width="79" height="32" viewBox="0 0 79 32" fill="none" xmlns="http://www.w3.org/2000/svg">
<path d="M18.8203 12.5115C18.8264 12.5099 18.8355 12.5068 18.8355 12.5037C18.8386 12.4881 18.8371 12.471 18.8386 12.4554C18.8462 12.3994 18.8264 12.3433 18.8538 12.2857C18.8767 12.2358 18.8508 12.1751 18.8737 12.1175C18.895 12.0645 18.8889 12.0007 18.8966 11.9415C18.8996 11.915 18.9088 11.8885 18.9149 11.8621C18.9408 11.7546 18.9637 11.6471 18.9927 11.5412C19.0399 11.3637 19.1055 11.1908 19.1742 11.0195C19.2367 10.8622 19.316 10.7127 19.3923 10.5632C19.4671 10.4199 19.5525 10.2829 19.644 10.1505C19.7233 10.0352 19.8072 9.92466 19.8927 9.81408C20.0284 9.63965 20.1779 9.47924 20.3365 9.32817C20.4311 9.23784 20.5364 9.15842 20.634 9.07432C20.7835 8.94505 20.9513 8.84382 21.1099 8.73013C21.1496 8.7021 21.1877 8.67095 21.2304 8.6507C21.3418 8.59931 21.4409 8.523 21.5523 8.47627C21.7521 8.39217 21.9459 8.29406 22.1564 8.23799C22.2479 8.21307 22.3379 8.18037 22.4279 8.14922C22.4676 8.1352 22.5103 8.13365 22.5515 8.1243C22.6613 8.09938 22.7681 8.06512 22.8825 8.06201C22.9298 8.0293 22.9877 8.05733 23.035 8.03553C23.0884 8.01217 23.1418 8.03397 23.1921 8.02151C23.3294 7.98414 23.4682 8.0075 23.607 8.00438C23.7443 7.99971 23.8816 8.00127 24.0204 8.00438C24.0631 8.00438 24.1043 8.01684 24.147 8.02307C24.1867 8.0293 24.2233 8.02307 24.266 8.03864C24.3118 8.05578 24.3682 8.04176 24.4201 8.06045C24.4628 8.07602 24.5116 8.06979 24.5559 8.08381C24.5986 8.09627 24.6474 8.09004 24.684 8.12119C24.8457 8.12742 24.9921 8.1975 25.1447 8.24111C25.2606 8.27381 25.372 8.32676 25.4864 8.36881C25.6282 8.42177 25.7655 8.48718 25.8997 8.5557C26.0508 8.63357 26.1987 8.72234 26.3436 8.81267C26.4886 8.903 26.6182 9.01513 26.7601 9.10702C26.7982 9.13194 26.8318 9.1662 26.8684 9.19579C27.0408 9.3453 27.2009 9.50572 27.355 9.67547C27.5075 9.84523 27.6433 10.0321 27.7623 10.2283C27.8553 10.3825 27.9301 10.5492 28.0079 10.7127C28.0338 10.7672 28.0521 10.8248 28.0735 10.8809C28.078 10.8918 28.0735 10.9058 28.0735 10.9214C27.4023 10.9214 26.7342 10.9214 26.063 10.9214C26.0248 10.8638 25.9867 10.7999 25.9425 10.7423C25.8982 10.6847 25.8509 10.6302 25.8021 10.5756C25.7716 10.5414 25.7396 10.5102 25.7075 10.4791C25.6114 10.3794 25.5016 10.2984 25.3948 10.2128C25.2103 10.0664 25.0043 9.96515 24.7969 9.86236C24.6825 9.80629 24.5589 9.76892 24.4384 9.72998C24.356 9.70351 24.2706 9.68326 24.1852 9.66769C24.0921 9.65211 23.996 9.64432 23.9045 9.62719C23.7489 9.59916 23.5948 9.62096 23.4408 9.61162C23.3935 9.6085 23.3538 9.63965 23.305 9.63342C23.2638 9.62719 23.2211 9.63498 23.1784 9.649C23.1235 9.66613 23.0625 9.66146 23.0045 9.67236C22.942 9.68326 22.8809 9.69883 22.8215 9.71596C22.7467 9.73777 22.675 9.76736 22.6018 9.7876C22.527 9.80785 22.4554 9.84056 22.3867 9.8717C22.2677 9.92621 22.1503 9.98695 22.042 10.0617C21.987 10.0991 21.9306 10.1349 21.8757 10.1723C21.8101 10.2174 21.7415 10.2595 21.6835 10.3124C21.5676 10.4168 21.4486 10.5211 21.3464 10.6395C21.261 10.7392 21.1801 10.8466 21.1023 10.9557C20.9833 11.1161 20.8811 11.2858 20.8018 11.4665C20.7377 11.6144 20.6676 11.7639 20.6416 11.929C20.6355 11.9726 20.6203 12.0209 20.6004 12.0583C20.5776 12.1035 20.5928 12.1486 20.5699 12.1938C20.5455 12.2436 20.5532 12.3106 20.5471 12.3698C20.5425 12.4134 20.5318 12.4554 20.5287 12.499C20.5257 12.5411 20.5379 12.5878 20.5257 12.6252C20.4891 12.7436 20.5074 12.8635 20.512 12.9803C20.515 13.055 20.515 13.1329 20.5303 13.2077C20.5455 13.2809 20.5455 13.3556 20.5638 13.4272C20.5821 13.4973 20.6065 13.5674 20.6172 13.6391C20.6294 13.7185 20.663 13.7901 20.6813 13.868C20.6996 13.9443 20.724 14.0222 20.7591 14.0891C20.8262 14.2169 20.8796 14.3523 20.9574 14.4769C21.0169 14.5735 21.0748 14.6701 21.1404 14.7619C21.171 14.8055 21.1969 14.8507 21.232 14.8896C21.3281 14.9971 21.4196 15.1077 21.5248 15.2058C21.6774 15.3491 21.8421 15.4799 22.0206 15.5889C22.222 15.712 22.4309 15.8194 22.6582 15.8864C22.7208 15.9051 22.7833 15.9269 22.8459 15.9409C22.9099 15.9549 22.974 15.9736 23.0396 15.9845C23.1265 16.0001 23.215 16.0094 23.302 16.0234C23.4942 16.0546 23.6879 16.0328 23.8801 16.039C23.935 16.0406 23.9899 16.053 24.0464 16.025C24.0952 16.0016 24.1577 16.039 24.2096 16.0016C24.3972 15.9861 24.5742 15.9253 24.7481 15.8615C24.8808 15.8132 25.0074 15.7415 25.1325 15.6761C25.2667 15.6061 25.3903 15.5188 25.5123 15.4285C25.6892 15.2992 25.8357 15.1404 25.9821 14.9815C26.0996 14.8538 26.1987 14.7059 26.2826 14.5517C26.3162 14.491 26.3513 14.4302 26.3833 14.3726C26.3757 14.3632 26.3742 14.3617 26.3726 14.3586C26.3711 14.357 26.368 14.3555 26.365 14.3555C25.1111 14.3555 23.8572 14.3555 22.6064 14.3555C22.5972 14.3461 22.5896 14.3383 22.5804 14.329C22.5804 13.8073 22.5804 13.2824 22.5804 12.756C22.5881 12.7482 22.5972 12.7389 22.6064 12.7295C24.5772 12.7295 26.548 12.7295 28.525 12.7295C28.5265 12.7529 28.528 12.7778 28.528 12.8027C28.528 12.865 28.5235 12.9273 28.5296 12.9896C28.5418 13.1282 28.5097 13.2653 28.5067 13.4023C28.5052 13.4506 28.4945 13.5004 28.4884 13.5503C28.4823 13.597 28.4808 13.6453 28.467 13.6889C28.4548 13.7278 28.4655 13.773 28.4426 13.8057C28.4182 13.8415 28.4441 13.8851 28.4167 13.9225C28.3953 13.9521 28.4106 14.005 28.3923 14.0377C28.3724 14.0751 28.3908 14.1203 28.3557 14.1499C28.3496 14.2433 28.3053 14.3243 28.2794 14.4115C28.255 14.4956 28.2153 14.5751 28.1879 14.656C28.1375 14.8024 28.0689 14.9395 28.0018 15.0765C27.9331 15.2151 27.8523 15.3475 27.7653 15.4752C27.686 15.592 27.6067 15.7104 27.5197 15.8225C27.4557 15.9051 27.3825 15.9814 27.3108 16.0577C27.2284 16.1449 27.1445 16.2306 27.0591 16.3147C26.9889 16.3832 26.9203 16.4564 26.8425 16.514C26.7296 16.5981 26.6289 16.6993 26.5038 16.7648C26.2735 16.9548 26.0081 17.084 25.7457 17.2133C25.584 17.2943 25.4116 17.3535 25.2408 17.4111C25.1203 17.4516 24.9952 17.4812 24.8747 17.5263C24.7938 17.5185 24.7191 17.5559 24.6428 17.5715C24.5513 17.5902 24.4552 17.5871 24.3682 17.626C24.3652 17.6276 24.3621 17.626 24.3591 17.626C24.266 17.6322 24.173 17.6431 24.0784 17.6447C23.9914 17.6462 23.906 17.6743 23.8176 17.6665C23.7291 17.6587 23.6391 17.6665 23.5491 17.6649C23.4392 17.6618 23.3309 17.6338 23.2211 17.6462C23.1754 17.6182 23.122 17.6369 23.0762 17.6244C23.0274 17.6104 22.9755 17.6198 22.9313 17.6042C22.8855 17.5871 22.8352 17.6042 22.797 17.5808C22.7574 17.5559 22.7147 17.5777 22.6735 17.5512C22.6384 17.5279 22.5835 17.5388 22.5393 17.5279C22.4462 17.5014 22.3516 17.4625 22.254 17.4391C22.0709 17.3955 21.9001 17.3176 21.7262 17.2476C21.5782 17.1884 21.4394 17.1027 21.296 17.028C21.1389 16.9454 20.991 16.8457 20.8445 16.7445C20.7316 16.6651 20.6218 16.5794 20.515 16.4907C20.3594 16.3629 20.2176 16.2243 20.0788 16.0779C20.0101 16.0047 19.9506 15.9238 19.885 15.8474C19.824 15.7758 19.7645 15.7026 19.7111 15.6263C19.6486 15.536 19.5769 15.4519 19.5281 15.3506C19.4991 15.293 19.464 15.2401 19.4304 15.1871C19.3343 15.0392 19.2672 14.8756 19.1925 14.7183C19.1223 14.5704 19.0674 14.4115 19.0201 14.2527C18.9957 14.1717 18.9713 14.0891 18.9545 14.0066C18.9332 13.9007 18.9103 13.7948 18.892 13.6889C18.8843 13.6422 18.8905 13.5908 18.8737 13.5503C18.8538 13.502 18.8691 13.4537 18.8554 13.4101C18.831 13.3307 18.8401 13.2513 18.8371 13.1734C18.8371 13.1672 18.8249 13.1625 18.8188 13.1578C18.8203 12.9429 18.8203 12.728 18.8203 12.5115Z" fill="black"/>
<path d="M46.7052 15.2287C46.7632 15.0667 46.8166 14.9188 46.8669 14.7708C46.8974 14.6789 46.931 14.5886 46.9615 14.4983C46.9935 14.4079 47.0179 14.3145 47.0545 14.2242C47.0927 14.1307 47.1232 14.0311 47.1506 13.9329C47.1812 13.8255 47.2254 13.7227 47.2574 13.6152C47.3261 13.3894 47.4054 13.1683 47.4832 12.9471C47.5427 12.7758 47.5945 12.6029 47.6617 12.4347C47.7013 12.3335 47.7334 12.2307 47.7669 12.1264C47.7974 12.0345 47.831 11.9441 47.8615 11.8538C47.8935 11.7619 47.9179 11.67 47.9561 11.5797C47.9942 11.4863 48.0247 11.3866 48.0522 11.2869C48.0827 11.1795 48.1269 11.0767 48.1589 10.9692C48.22 10.773 48.2978 10.583 48.3572 10.3867C48.3771 10.3229 48.4106 10.2653 48.4213 10.1967C48.4305 10.1344 48.4579 10.0753 48.4793 10.0161C48.5006 9.95378 48.5266 9.89148 48.5495 9.83074C48.5922 9.71549 48.6257 9.59558 48.6669 9.47877C48.6989 9.38844 48.7325 9.29655 48.763 9.20623C48.7935 9.11434 48.821 9.02245 48.8561 8.93212C48.8942 8.83401 48.9201 8.73122 48.9552 8.63154C48.9979 8.50851 49.0376 8.38547 49.0788 8.26244C49.0879 8.23752 49.0971 8.2126 49.1078 8.18457C49.8888 8.18457 50.6652 8.18457 51.4462 8.18457C51.4462 11.276 51.4462 14.3706 51.4462 17.4682C50.8879 17.4682 50.3296 17.4682 49.7637 17.4682C49.7637 15.1539 49.7637 12.8365 49.7637 10.5051C49.7423 10.5176 49.7271 10.5222 49.724 10.5316C49.6905 10.625 49.66 10.72 49.6264 10.8135C49.5684 10.9785 49.5181 11.1452 49.4571 11.3103C49.3915 11.4878 49.3396 11.6716 49.2801 11.8522C49.2344 11.9924 49.1871 12.1326 49.1398 12.2727C49.0711 12.4783 49.0025 12.6855 48.9339 12.891C48.8942 13.011 48.853 13.1309 48.8133 13.2524C48.7508 13.4377 48.6883 13.6246 48.6272 13.8099C48.58 13.9501 48.5342 14.0902 48.4884 14.232C48.4198 14.4375 48.3496 14.6431 48.2825 14.8502C48.2383 14.9889 48.1879 15.1243 48.1437 15.263C48.0903 15.4296 48.0354 15.5947 47.9759 15.7598C47.9179 15.9217 47.8645 16.0853 47.8142 16.2503C47.77 16.3983 47.715 16.5416 47.6662 16.688C47.6388 16.7705 47.6113 16.8546 47.5839 16.9372C47.5579 17.0166 47.5289 17.0976 47.503 17.177C47.471 17.272 47.4405 17.367 47.4084 17.4667C46.9325 17.4667 46.4505 17.4667 45.9639 17.4667C45.912 17.3016 45.8647 17.1303 45.8022 16.9636C45.7198 16.7487 45.6573 16.5291 45.5825 16.3126C45.4879 16.0354 45.4025 15.7551 45.3034 15.4794C45.2393 15.3003 45.1829 15.1197 45.1218 14.939C45.0334 14.6789 44.9449 14.4188 44.8625 14.1572C44.8061 13.9797 44.7405 13.8037 44.681 13.6261C44.6459 13.5233 44.6108 13.4206 44.5773 13.3178C44.53 13.1745 44.4842 13.0312 44.4369 12.8879C44.4079 12.8023 44.3759 12.7182 44.3469 12.6325C44.2996 12.4892 44.2539 12.3459 44.2051 12.2027C44.17 12.0968 44.1318 11.9924 44.0968 11.8865C44.0769 11.8258 44.0586 11.765 44.0388 11.7059C44.0174 11.6436 43.9961 11.5797 43.9747 11.5174C43.9549 11.4567 43.9335 11.3975 43.9137 11.3367C43.8298 11.0751 43.7307 10.8197 43.6544 10.5549C43.6498 10.5409 43.6391 10.5285 43.63 10.516C43.6254 10.5176 43.6224 10.5176 43.6208 10.5191C43.6193 10.5207 43.6162 10.5238 43.6162 10.5269C43.6162 12.8396 43.6162 15.1524 43.6162 17.4682C43.0534 17.4682 42.492 17.4682 41.9291 17.4682C41.9291 14.3752 41.9291 11.2822 41.9291 8.18613C42.7041 8.18613 43.4805 8.18613 44.2676 8.18613C44.2783 8.20793 44.2981 8.23752 44.3042 8.26867C44.3362 8.40105 44.3942 8.52564 44.4354 8.65491C44.4873 8.81532 44.5346 8.97884 44.5986 9.13458C44.6535 9.26852 44.6856 9.41024 44.7451 9.54262C44.7878 9.63762 44.8091 9.74353 44.8457 9.8432C44.8717 9.91328 44.8976 9.98493 44.922 10.0566C44.9464 10.1282 44.9693 10.1998 44.9968 10.2699C45.0273 10.3478 45.0517 10.4303 45.0761 10.5113C45.102 10.5954 45.134 10.6764 45.16 10.7605C45.1859 10.8399 45.2134 10.9194 45.2469 10.9988C45.2805 11.0782 45.2973 11.167 45.3293 11.248C45.3827 11.3819 45.4162 11.5236 45.4742 11.6576C45.5169 11.7572 45.5444 11.8632 45.5779 11.9659C45.6008 12.0376 45.6313 12.1077 45.6542 12.1793C45.6756 12.2478 45.6984 12.3164 45.7259 12.3849C45.7671 12.4846 45.79 12.592 45.8296 12.6932C45.883 12.8319 45.9166 12.9751 45.9776 13.1122C46.0112 13.1885 46.0325 13.2726 46.0569 13.352C46.0828 13.4361 46.1149 13.5171 46.1408 13.6012C46.1652 13.6806 46.1912 13.7616 46.2278 13.8395C46.2628 13.9142 46.2796 13.9999 46.3086 14.0793C46.3345 14.1494 46.3605 14.2211 46.3849 14.2927C46.4093 14.3643 46.4352 14.4344 46.4596 14.5061C46.4947 14.6088 46.5252 14.7132 46.5603 14.816C46.6045 14.9452 46.6534 15.0792 46.7052 15.2287Z" fill="black"/>
<path d="M54.8157 13.6639C54.8157 14.4021 54.8157 15.1294 54.8157 15.8599C55.882 15.8599 56.9467 15.8599 58.0161 15.8599C58.0161 16.3972 58.0161 16.9314 58.0161 17.4671C56.3869 17.4671 54.7593 17.4671 53.1286 17.4671C53.1286 14.3741 53.1286 11.2827 53.1286 8.1881C53.2064 8.17253 57.6835 8.1663 58.0176 8.18187C58.0176 8.71918 58.0176 9.25804 58.0176 9.80313C56.9529 9.80313 55.8866 9.80313 54.8173 9.80313C54.8173 10.5569 54.8173 11.3045 54.8173 12.0582C55.8378 12.0582 56.8598 12.0582 57.8849 12.0582C57.8849 12.5971 57.8849 13.1282 57.8849 13.6639C56.8628 13.6639 55.8423 13.6639 54.8157 13.6639Z" fill="black"/>
<path d="M32.3492 8.18359C32.9487 8.18359 33.539 8.18359 34.1309 8.18359C34.1629 8.27081 34.1858 8.36581 34.224 8.45458C34.2667 8.55426 34.2911 8.66016 34.3292 8.76295C34.3551 8.83303 34.3826 8.90467 34.4055 8.97475C34.4299 9.04639 34.4497 9.11803 34.4787 9.18812C34.5107 9.26599 34.5321 9.34853 34.558 9.42951C34.5839 9.51361 34.6175 9.5946 34.6419 9.6787C34.6663 9.75813 34.6923 9.83911 34.7289 9.91542C34.7624 9.98706 34.7792 10.0696 34.8067 10.1475C34.8326 10.2222 34.8631 10.2939 34.886 10.3686C34.9073 10.4418 34.9348 10.5119 34.9607 10.582C34.9958 10.6817 35.0263 10.7829 35.0599 10.8826C35.0843 10.9542 35.1133 11.0243 35.1361 11.0959C35.1575 11.1645 35.1804 11.233 35.2078 11.3015C35.249 11.4027 35.2765 11.5071 35.3116 11.6114C35.336 11.6831 35.365 11.7532 35.3878 11.8248C35.4092 11.8933 35.4306 11.9634 35.4595 12.0304C35.4946 12.1098 35.5114 12.1986 35.5419 12.2796C35.6029 12.4369 35.6411 12.6019 35.7097 12.7577C35.7433 12.834 35.7631 12.9181 35.789 12.9991C35.815 13.0832 35.847 13.1642 35.8729 13.2483C35.8973 13.3277 35.9233 13.4087 35.9599 13.485C35.9934 13.5566 36.0102 13.6392 36.0377 13.717C36.0636 13.7918 36.0926 13.8634 36.117 13.9382C36.1399 14.0098 36.1658 14.0815 36.1917 14.1516C36.2268 14.2512 36.2573 14.3525 36.2909 14.4521C36.3153 14.5238 36.3443 14.5923 36.3672 14.6655C36.3885 14.7356 36.4099 14.8041 36.4389 14.8711C36.4724 14.9521 36.4999 15.0362 36.5197 15.1203C36.5304 15.1639 36.5609 15.195 36.57 15.2526C36.596 15.1935 36.6234 15.1498 36.6372 15.1016C36.6844 14.9194 36.7577 14.7465 36.8156 14.5689C36.8507 14.4568 36.8858 14.3431 36.93 14.2357C36.9728 14.1282 36.9987 14.0161 37.0444 13.9117C37.1039 13.7793 37.1314 13.6361 37.1924 13.5037C37.226 13.432 37.2428 13.3495 37.2702 13.2716C37.2961 13.1984 37.3236 13.1237 37.3495 13.0505C37.3739 12.9788 37.3968 12.9072 37.4243 12.8371C37.4548 12.7561 37.4731 12.6689 37.5051 12.5879C37.5509 12.4727 37.5799 12.3528 37.6287 12.2391C37.6638 12.1596 37.6866 12.074 37.7141 11.9914C37.737 11.9198 37.7644 11.8497 37.7889 11.7781C37.8133 11.7064 37.8361 11.6348 37.8636 11.5647C37.8941 11.49 37.9139 11.4105 37.9414 11.3327C37.9673 11.2595 37.9948 11.1847 38.0207 11.1115C38.0451 11.0399 38.068 10.9682 38.0955 10.8981C38.126 10.8172 38.1443 10.7299 38.1763 10.649C38.2221 10.5337 38.2511 10.4138 38.3014 10.3001C38.3365 10.2207 38.3594 10.135 38.3868 10.0525C38.4097 9.98083 38.4372 9.91075 38.4616 9.83911C38.486 9.76747 38.5088 9.69583 38.5363 9.62575C38.5668 9.55099 38.5866 9.47156 38.6141 9.39369C38.64 9.3205 38.669 9.2473 38.6934 9.17254C38.7178 9.1009 38.7407 9.02926 38.7682 8.95918C38.7987 8.87819 38.817 8.79098 38.849 8.71C38.9024 8.57606 38.9329 8.43278 38.9939 8.3004C39.0092 8.26769 39.0153 8.23032 39.026 8.18982C39.6148 8.18982 40.2082 8.18982 40.8092 8.18982C39.6331 11.2859 38.4585 14.3774 37.2824 17.4735C36.8248 17.4735 36.3611 17.4735 35.8943 17.4735C34.7106 14.3758 33.5314 11.2828 32.3492 8.18359Z" fill="black"/>
<path d="M31.3916 17.4684C30.8303 17.4684 30.2705 17.4684 29.7091 17.4684C29.7091 14.3723 29.7091 11.2778 29.7091 8.18164C30.2705 8.18164 30.8303 8.18164 31.3916 8.18164C31.3916 11.2778 31.3916 14.3723 31.3916 17.4684Z" fill="black"/>
<path d="M19.5801 21.7604C19.5831 21.7588 19.5877 21.7588 19.5877 21.7573C19.5892 21.7479 19.5877 21.7386 19.5892 21.7292C19.5938 21.6996 19.5831 21.6716 19.5969 21.6405C19.6075 21.6155 19.5953 21.586 19.606 21.5579C19.6152 21.5361 19.6106 21.5096 19.6152 21.4863C19.6274 21.4318 19.6396 21.3788 19.6518 21.3243C19.6609 21.2823 19.6747 21.2402 19.6838 21.1982C19.6899 21.167 19.7067 21.1374 19.7174 21.1063C19.7372 21.0471 19.7601 20.9895 19.786 20.9334C19.8028 20.8991 19.8165 20.8633 19.8333 20.8291C19.8836 20.7309 19.9431 20.6391 20.0026 20.5456C20.027 20.5082 20.0591 20.4771 20.085 20.4413C20.1567 20.3432 20.2421 20.2591 20.3291 20.175C20.387 20.1189 20.4511 20.069 20.5152 20.0208C20.5548 19.9896 20.5975 19.9647 20.6357 19.932C20.6662 19.9055 20.7074 19.8931 20.7409 19.8697C20.805 19.8245 20.8767 19.7934 20.9453 19.7591C20.9926 19.7358 21.0445 19.7155 21.0933 19.6953C21.1482 19.6719 21.2046 19.6532 21.2611 19.6361C21.3053 19.6221 21.3511 19.6096 21.3969 19.6003C21.4304 19.5925 21.4655 19.5863 21.4991 19.5754C21.5097 19.5722 21.5235 19.5738 21.5357 19.5722C21.5479 19.5707 21.5585 19.5645 21.5692 19.5629C21.6318 19.5551 21.6958 19.5489 21.7584 19.5411C21.8224 19.5333 21.885 19.5364 21.9475 19.5349C22.0101 19.5333 22.0726 19.5333 22.1352 19.5349C22.158 19.5349 22.1794 19.5411 22.2023 19.5442C22.2252 19.5458 22.2465 19.5442 22.2694 19.552C22.2892 19.5598 22.3136 19.5582 22.335 19.5613C22.3655 19.5644 22.3945 19.5722 22.4235 19.5769C22.4524 19.58 22.4829 19.5863 22.5104 19.594C22.5516 19.6049 22.5928 19.6143 22.6324 19.6299C22.6813 19.6485 22.7331 19.661 22.7819 19.6781C22.8216 19.6922 22.8597 19.7108 22.8994 19.7249C22.9924 19.7591 23.0779 19.8105 23.1663 19.8557C23.2258 19.8868 23.2823 19.9258 23.3387 19.9631C23.3967 20.0036 23.4531 20.0457 23.508 20.0893C23.5401 20.1158 23.5706 20.1454 23.6011 20.1734C23.6362 20.2061 23.6728 20.2372 23.7063 20.2715C23.7429 20.3089 23.778 20.3463 23.8085 20.3868C23.8619 20.4553 23.9153 20.5254 23.9611 20.6001C24.0023 20.6671 24.0328 20.7387 24.0694 20.8088C24.0724 20.8135 24.0694 20.8213 24.0694 20.8291C23.8955 20.8291 23.7216 20.8291 23.5477 20.8291C23.5157 20.7777 23.4806 20.7247 23.444 20.6733C23.4043 20.6188 23.3616 20.5659 23.3158 20.5176C23.2487 20.4459 23.1724 20.3836 23.0931 20.326C23.0565 20.298 23.0184 20.27 22.9787 20.2466C22.9085 20.2045 22.8353 20.1687 22.7621 20.1313C22.7011 20.1002 22.637 20.0784 22.5729 20.055C22.5409 20.0441 22.5089 20.0363 22.4768 20.0254C22.4448 20.013 22.4097 20.0161 22.3807 19.9974C22.3365 20.0005 22.2968 19.9756 22.2526 19.9787C22.216 19.9585 22.1763 19.9725 22.1382 19.9616C22.1001 19.9522 22.0574 19.96 22.0162 19.9585C22.007 19.9585 21.9994 19.96 21.9902 19.9522C21.9826 19.946 21.9689 19.946 21.9597 19.9491C21.9201 19.9647 21.8804 19.9554 21.8407 19.9585C21.8148 19.96 21.7904 19.9569 21.7645 19.9678C21.7431 19.9756 21.7172 19.9678 21.6928 19.9772C21.6668 19.9881 21.6363 19.9849 21.6074 19.9881C21.5738 19.9927 21.5402 19.999 21.5082 20.0099C21.4502 20.027 21.3907 20.041 21.3328 20.0644C21.2931 20.0815 21.2504 20.094 21.2107 20.1127C21.1589 20.136 21.107 20.1609 21.0582 20.1874C21.0155 20.2108 20.9728 20.2326 20.9316 20.259C20.8675 20.3027 20.805 20.3478 20.7424 20.3945C20.7135 20.4163 20.6891 20.4413 20.6631 20.4662C20.6174 20.5113 20.5731 20.555 20.5304 20.6017C20.4602 20.6764 20.4008 20.759 20.3458 20.8446C20.297 20.9194 20.2528 20.9957 20.2147 21.0767C20.178 21.1546 20.1475 21.234 20.1216 21.315C20.1048 21.3664 20.0911 21.4178 20.0758 21.4692C20.0713 21.4878 20.0728 21.5081 20.0667 21.5268C20.0575 21.5501 20.0621 21.5797 20.0545 21.6031C20.0453 21.6296 20.0514 21.656 20.0453 21.681C20.0377 21.7059 20.0377 21.7292 20.0377 21.7542C20.0377 21.7806 20.0392 21.8087 20.0377 21.8351C20.0362 21.8616 20.0209 21.8881 20.0301 21.913C20.0438 21.9488 20.0362 21.9846 20.0377 22.0205C20.0392 22.0329 20.0392 22.0469 20.0377 22.0594C20.0347 22.0812 20.0438 22.0983 20.0469 22.1186C20.0499 22.1357 20.0392 22.156 20.056 22.1731C20.0606 22.1778 20.056 22.1887 20.0575 22.1965C20.0575 22.2058 20.0545 22.2167 20.0575 22.2245C20.0713 22.2556 20.0697 22.2899 20.0789 22.321C20.088 22.3506 20.0957 22.3818 20.1018 22.4114C20.1094 22.4456 20.1216 22.4768 20.1323 22.5095C20.143 22.5422 20.1552 22.5733 20.1674 22.6045C20.1826 22.6465 20.2024 22.6855 20.2192 22.7275C20.2345 22.7665 20.2589 22.8038 20.2802 22.8412C20.2924 22.8615 20.3092 22.8802 20.3199 22.902C20.3474 22.958 20.3885 23.0047 20.4236 23.0546C20.4953 23.1589 20.5899 23.2415 20.6769 23.3318C20.7028 23.3583 20.7348 23.3816 20.7653 23.4034C20.8065 23.433 20.8462 23.4657 20.8889 23.4938C20.9636 23.5436 21.0414 23.5872 21.1208 23.6277C21.2092 23.6729 21.3007 23.7087 21.3953 23.7383C21.4533 23.7554 21.5097 23.7788 21.5707 23.7819C21.5875 23.799 21.6104 23.7834 21.6257 23.7959C21.644 23.8099 21.6653 23.7943 21.6836 23.8053C21.7019 23.8177 21.7233 23.8053 21.7416 23.8115C21.7767 23.8224 21.8118 23.813 21.8453 23.8224C21.8972 23.8348 21.9491 23.8255 22.0009 23.8302C22.0665 23.8364 22.1291 23.8193 22.1946 23.8193C22.216 23.8193 22.2404 23.8146 22.2602 23.8099C22.2816 23.8053 22.306 23.8099 22.3213 23.8006C22.3411 23.7881 22.3624 23.799 22.3823 23.7866C22.3991 23.7757 22.4235 23.7803 22.4418 23.7725C22.4906 23.7554 22.5394 23.7445 22.5882 23.7274C22.6782 23.6962 22.7636 23.6573 22.849 23.6152C22.9482 23.567 23.0367 23.5031 23.1267 23.4439C23.1694 23.4159 23.2075 23.377 23.2457 23.3427C23.2838 23.3084 23.3235 23.2742 23.3585 23.2368C23.4196 23.1714 23.476 23.0997 23.5294 23.0266C23.5706 22.9689 23.6041 22.9082 23.6407 22.8474C23.6911 22.7618 23.7338 22.6481 23.7612 22.5624C23.7674 22.5422 23.775 22.5204 23.7841 22.4955C22.9528 22.4955 22.126 22.4955 21.2992 22.4955C21.2992 22.3538 21.2992 22.2151 21.2992 22.075C22.3075 22.075 23.3158 22.075 24.3272 22.075C24.3211 22.1061 24.3318 22.1357 24.318 22.1684C24.3089 22.1902 24.3119 22.2198 24.3089 22.2463C24.3043 22.2852 24.2936 22.3242 24.289 22.3631C24.2845 22.4005 24.2692 22.4347 24.2631 22.4721C24.2479 22.55 24.2204 22.6232 24.196 22.6979C24.1762 22.7571 24.1533 22.8147 24.1258 22.8708C24.1182 22.8879 24.1106 22.9066 24.1029 22.9238C24.0801 22.9689 24.0541 23.0125 24.0312 23.0561C23.9977 23.1231 23.9535 23.1838 23.9138 23.2461C23.894 23.2773 23.8741 23.3069 23.8512 23.3349C23.7826 23.4206 23.7109 23.5016 23.6331 23.5779C23.5736 23.6371 23.5111 23.69 23.4455 23.7414C23.3982 23.7788 23.3494 23.8146 23.3006 23.8489C23.2624 23.8753 23.2213 23.8987 23.1801 23.9236C23.1175 23.9625 23.0519 23.9937 22.9863 24.0248C22.9268 24.0529 22.8674 24.0809 22.8048 24.1012C22.7774 24.1105 22.7514 24.123 22.7224 24.1307C22.669 24.1463 22.6172 24.1635 22.5623 24.1759C22.5363 24.1821 22.5104 24.1868 22.486 24.1962C22.4616 24.2039 22.4372 24.2039 22.4128 24.2133C22.3945 24.2211 22.3716 24.218 22.3518 24.2226C22.3152 24.232 22.2755 24.2273 22.2389 24.2351C22.1946 24.2444 22.1489 24.2366 22.1062 24.2444C22.0329 24.2585 21.9613 24.2538 21.8896 24.2507C21.8453 24.2491 21.8011 24.2444 21.7568 24.2429C21.7416 24.2413 21.7263 24.2335 21.7096 24.2335C21.6943 24.2335 21.6806 24.2366 21.6653 24.2289C21.6516 24.2211 21.6318 24.2289 21.615 24.2242C21.5799 24.2148 21.5433 24.2148 21.5097 24.2039C21.4762 24.193 21.438 24.1977 21.4075 24.1759C21.3648 24.1759 21.3282 24.1572 21.287 24.1463C21.2489 24.137 21.2123 24.1214 21.1757 24.1089C21.1345 24.0934 21.0933 24.0794 21.0536 24.0622C20.9911 24.0342 20.927 24.0108 20.8675 23.975C20.8111 23.9423 20.7516 23.9112 20.6967 23.8753C20.6601 23.852 20.6235 23.8302 20.5899 23.8037C20.5579 23.7788 20.5243 23.7554 20.4923 23.7321C20.3809 23.6495 20.2848 23.5498 20.1887 23.4502C20.1506 23.4097 20.117 23.3661 20.0819 23.3225C20.0163 23.2446 19.9614 23.1589 19.908 23.0733C19.8745 23.0219 19.8501 22.9627 19.8211 22.9082C19.783 22.8381 19.7525 22.7649 19.7235 22.6902C19.7036 22.6419 19.6899 22.5889 19.6747 22.5375C19.6594 22.4846 19.6441 22.4316 19.635 22.3756C19.6304 22.3491 19.6243 22.3226 19.6182 22.2961C19.6121 22.2712 19.6121 22.2432 19.6075 22.2183C19.5938 22.1528 19.5877 22.0859 19.5892 22.0189C19.5892 22.0158 19.5831 22.0142 19.5801 22.0111C19.5801 21.927 19.5801 21.8429 19.5801 21.7604Z" fill="black"/>
<path d="M39.0433 19.6105C39.0555 19.6401 39.0693 19.6682 39.0815 19.6962C39.0952 19.7305 39.1089 19.7647 39.1227 19.799C39.1471 19.8582 39.1745 19.9142 39.1944 19.975C39.205 20.0046 39.2188 20.0326 39.231 20.0606C39.2645 20.1307 39.292 20.2055 39.3225 20.2771C39.3499 20.341 39.3774 20.4048 39.4003 20.4687C39.4201 20.5232 39.4445 20.5777 39.4674 20.6322C39.4918 20.6883 39.5132 20.7443 39.5391 20.7988C39.5528 20.8269 39.5666 20.8549 39.5742 20.8845C39.5818 20.9141 39.6062 20.9359 39.6047 20.9686C39.6337 21.0122 39.6459 21.0636 39.6657 21.1103C39.6901 21.1664 39.7176 21.2224 39.7359 21.2816C39.745 21.3081 39.7588 21.333 39.7694 21.3579C39.8045 21.4374 39.8396 21.5168 39.8716 21.5978C39.8991 21.6663 39.9296 21.7333 39.9571 21.8018C39.9815 21.861 40.0074 21.9217 40.0318 21.9809C40.0593 22.0494 40.0882 22.1164 40.1172 22.1849C40.1447 22.2519 40.1721 22.3189 40.2011 22.3843C40.2301 22.4528 40.2591 22.5198 40.2866 22.5883C40.314 22.6553 40.3415 22.7222 40.3704 22.7876C40.3842 22.8219 40.3994 22.8562 40.4116 22.8904C40.4238 22.9247 40.4421 22.9574 40.4528 22.9932C40.462 23.0259 40.4818 23.0539 40.494 23.0851C40.5154 23.1427 40.5428 23.1988 40.5642 23.2564C40.5749 23.286 40.5901 23.3156 40.6023 23.3467C40.6145 23.3794 40.6328 23.4106 40.6481 23.4433C40.6511 23.4495 40.6496 23.4589 40.6511 23.4776C40.6603 23.4604 40.6649 23.4526 40.6679 23.4433C40.6801 23.4153 40.6923 23.3872 40.7045 23.3576C40.7289 23.3 40.7533 23.244 40.7762 23.1863C40.8037 23.1194 40.8311 23.0524 40.8601 22.987C40.8891 22.9185 40.9181 22.8515 40.9455 22.783C40.973 22.716 41.002 22.649 41.0294 22.5836C41.0584 22.5151 41.0874 22.4481 41.1149 22.3796C41.1423 22.3142 41.1698 22.2488 41.1957 22.1834C41.2064 22.1553 41.2232 22.1304 41.2293 22.1024C41.2354 22.0743 41.2552 22.0525 41.2598 22.0229C41.2643 21.9965 41.2827 21.9731 41.2949 21.9466C41.3193 21.8906 41.3452 21.8329 41.3681 21.7753C41.394 21.7084 41.423 21.6414 41.452 21.576C41.481 21.5075 41.5084 21.4405 41.5374 21.372C41.5649 21.305 41.5923 21.238 41.6213 21.1726C41.6503 21.1056 41.6777 21.0371 41.7067 20.9686C41.7342 20.9016 41.7632 20.8362 41.7906 20.7692C41.8196 20.7007 41.8486 20.6337 41.876 20.5652C41.9035 20.4983 41.931 20.4313 41.9599 20.3659C41.9889 20.2974 42.0179 20.2304 42.0454 20.1619C42.0728 20.0949 42.1018 20.0295 42.1293 19.9625C42.1567 19.8955 42.1842 19.8286 42.2132 19.7632C42.2345 19.7133 42.2543 19.6619 42.2772 19.6105C42.5076 19.6105 42.7364 19.6105 42.9667 19.6105C42.9743 19.6526 42.9774 23.9557 42.9698 24.1581C42.8218 24.1581 42.6723 24.1581 42.5228 24.1581C42.5228 24.1581 42.5213 24.1581 42.5213 24.1566C42.5213 24.155 42.5198 24.1535 42.5198 24.1519C42.5198 22.8079 42.5198 21.4654 42.5198 20.1089C42.5106 20.126 42.5045 20.1323 42.5015 20.1416C42.4938 20.1619 42.4877 20.1837 42.4786 20.2039C42.4465 20.2787 42.4115 20.3519 42.3825 20.4282C42.3565 20.4967 42.3291 20.5652 42.3001 20.6337C42.2787 20.6851 42.2589 20.7381 42.236 20.7895C42.2162 20.8347 42.201 20.8845 42.1796 20.9281C42.1567 20.9764 42.1384 21.0262 42.1171 21.0745C42.0957 21.1243 42.0713 21.1726 42.0576 21.2271C42.0515 21.2536 42.0332 21.277 42.0225 21.3034C42.0072 21.3408 41.995 21.3782 41.9782 21.414C41.963 21.4514 41.9462 21.4872 41.934 21.5246C41.9248 21.5573 41.905 21.5853 41.8913 21.6165C41.8715 21.6663 41.8486 21.7177 41.8303 21.7691C41.8211 21.794 41.8089 21.8174 41.7998 21.8423C41.7784 21.8937 41.7555 21.9451 41.7357 21.998C41.7174 22.0448 41.7006 22.093 41.6793 22.1366C41.6564 22.1849 41.6426 22.2363 41.6167 22.283C41.603 22.3064 41.5954 22.3344 41.5877 22.3625C41.5801 22.3889 41.5633 22.4092 41.5572 22.4357C41.5526 22.459 41.5374 22.4808 41.5282 22.5042C41.5054 22.5556 41.484 22.607 41.4626 22.6599C41.4443 22.7066 41.4276 22.7549 41.4062 22.7985C41.3833 22.8468 41.3696 22.8982 41.3437 22.9449C41.3299 22.9683 41.3223 22.9963 41.3147 23.0244C41.3071 23.0508 41.2903 23.0711 41.2842 23.0976C41.2796 23.1209 41.2659 23.1443 41.2552 23.1661C41.2323 23.2175 41.2125 23.2689 41.1911 23.3218C41.1713 23.3685 41.156 23.4168 41.1347 23.4604C41.1118 23.5087 41.0981 23.5601 41.0721 23.6068C41.0584 23.6302 41.0508 23.6582 41.0432 23.6863C41.0355 23.7127 41.0188 23.733 41.0127 23.7595C41.0081 23.7828 40.9928 23.8046 40.9837 23.828C40.9623 23.8778 40.941 23.9292 40.9211 23.979C40.9013 24.0273 40.8784 24.0725 40.8632 24.1223C40.8586 24.1348 40.8494 24.1457 40.8433 24.1566C40.7152 24.1566 40.5901 24.1566 40.4605 24.1566C40.4452 24.1239 40.4238 24.0912 40.4147 24.0569C40.4071 24.0242 40.3903 23.9962 40.3781 23.9666C40.3506 23.8981 40.3232 23.8295 40.2942 23.7626C40.2621 23.6863 40.2316 23.6099 40.2011 23.5336C40.1676 23.448 40.1325 23.3639 40.0989 23.2798C40.0776 23.2268 40.0547 23.1739 40.0333 23.1209C40.0089 23.0602 39.9784 22.9994 39.9601 22.9356C39.954 22.9122 39.9403 22.8904 39.9296 22.8671C39.8915 22.7736 39.8549 22.6817 39.8167 22.5883C39.7954 22.5369 39.774 22.4839 39.7527 22.4325C39.7267 22.3718 39.6993 22.3111 39.6779 22.2472C39.6672 22.2161 39.6535 22.188 39.6398 22.1569C39.6108 22.0868 39.5833 22.0167 39.5544 21.9482C39.533 21.8999 39.5132 21.8501 39.4933 21.8018C39.4659 21.7364 39.4369 21.6725 39.4155 21.604C39.4064 21.5775 39.3927 21.5526 39.382 21.5261C39.3454 21.4343 39.3072 21.3439 39.2706 21.252C39.2493 21.2006 39.2294 21.1477 39.2066 21.0963C39.1959 21.0745 39.1852 21.0511 39.1791 21.0262C39.173 21.0013 39.1501 20.9842 39.1516 20.9561C39.1211 20.9125 39.1074 20.8596 39.0876 20.8097C39.0601 20.7443 39.0342 20.6789 39.0083 20.6119C38.9899 20.5637 38.9701 20.5169 38.9488 20.4687C38.9213 20.4017 38.8923 20.3363 38.8679 20.2678C38.8572 20.2366 38.842 20.2055 38.8283 20.1743C38.8191 20.1541 38.8099 20.1338 38.8008 20.1136C38.7962 20.1151 38.7947 20.1167 38.7947 20.1167C38.7932 20.1182 38.7932 20.1198 38.7932 20.1198C38.7932 21.4638 38.7932 22.8079 38.7932 24.1535C38.6422 24.1535 38.4927 24.1535 38.3432 24.1535C38.3432 22.6381 38.3432 21.1228 38.3432 19.6074C38.5781 19.6105 38.8084 19.6105 39.0433 19.6105Z" fill="black"/>
<path d="M33.4064 24.1581C33.2401 24.1581 33.0769 24.1581 32.9106 24.1581C32.8832 24.0958 32.8527 24.0319 32.8267 23.9649C32.8084 23.9167 32.7871 23.8699 32.7673 23.8217C32.7505 23.7827 32.7337 23.7438 32.7184 23.7033C32.7047 23.6644 32.6834 23.6285 32.6712 23.588C32.6635 23.5616 32.6467 23.5382 32.6361 23.5117C32.6117 23.4557 32.5857 23.398 32.5628 23.3404C32.5369 23.2734 32.5079 23.2065 32.479 23.1411C32.45 23.0725 32.4225 23.0056 32.3935 22.9371C32.3661 22.8701 32.3386 22.8031 32.3096 22.7377C32.2944 22.7034 32.2806 22.6692 32.2654 22.6334C31.579 22.6334 30.891 22.6334 30.2015 22.6334C30.1801 22.6972 30.1435 22.758 30.1237 22.8265C30.1161 22.853 30.0993 22.8779 30.0886 22.9028C30.0612 22.9666 30.0307 23.0289 30.0063 23.0928C29.9773 23.1675 29.9437 23.2392 29.9132 23.3124C29.8827 23.3856 29.8522 23.4588 29.8201 23.532C29.7866 23.6067 29.7576 23.6815 29.724 23.7562C29.6951 23.8217 29.6691 23.8902 29.6402 23.9556C29.6173 24.007 29.5959 24.0584 29.573 24.1098C29.5669 24.1253 29.5624 24.1409 29.5578 24.1565C29.3991 24.1565 29.2405 24.1565 29.0818 24.1565C29.7164 22.6396 30.3495 21.1258 30.984 19.6089C31.1518 19.6089 31.3227 19.6089 31.492 19.6089C32.1296 21.1258 32.7688 22.6411 33.4064 24.1581ZM31.2388 20.1431C31.222 20.1851 31.2083 20.2225 31.193 20.2614C31.1686 20.3222 31.1442 20.3814 31.1183 20.4405C31.0893 20.5091 31.0603 20.5791 31.0298 20.6477C31.0054 20.7037 30.981 20.7614 30.9566 20.819C30.9474 20.8423 30.9337 20.8642 30.9276 20.8875C30.9062 20.9592 30.8712 21.0246 30.8452 21.0931C30.833 21.1274 30.8162 21.1616 30.8025 21.1943C30.7888 21.2286 30.7735 21.2628 30.7598 21.2956C30.7354 21.3532 30.7125 21.4092 30.6881 21.4669C30.6774 21.4918 30.6591 21.5167 30.653 21.5432C30.6439 21.579 30.6271 21.6117 30.6134 21.6475C30.5996 21.6833 30.5829 21.7176 30.5676 21.7534C30.5432 21.8111 30.5173 21.8671 30.4944 21.9247C30.4852 21.9497 30.4715 21.973 30.4623 21.9979C30.4395 22.0634 30.409 22.1256 30.383 22.1895C30.38 22.1957 30.3785 22.202 30.3754 22.2097C30.5417 22.2175 32.0473 22.2144 32.0884 22.2066C32.0854 22.2035 32.0808 22.2004 32.0793 22.1957C32.0625 22.1506 32.0412 22.1054 32.0244 22.0602C32.0152 22.0369 32.0015 22.0151 31.9954 21.9917C31.9771 21.9279 31.9451 21.8687 31.9222 21.8064C31.9023 21.7534 31.8764 21.7036 31.8566 21.6522C31.8474 21.6273 31.8337 21.6039 31.8261 21.579C31.8062 21.5151 31.7773 21.456 31.7529 21.3937C31.7254 21.3251 31.6995 21.2566 31.669 21.1896C31.6583 21.1678 31.6461 21.1445 31.64 21.1211C31.6262 21.0682 31.6018 21.0183 31.5805 20.9685C31.5591 20.9202 31.5393 20.8704 31.5195 20.8221C31.4935 20.7582 31.4676 20.6928 31.4417 20.629C31.4203 20.5791 31.4005 20.5278 31.3791 20.4779C31.3578 20.4265 31.3334 20.3751 31.3181 20.3222C31.309 20.291 31.2891 20.2646 31.2815 20.2318C31.2723 20.2007 31.254 20.1742 31.2388 20.1431Z" fill="black"/>
<path d="M50.7934 21.6525C50.7934 21.7958 50.7934 21.9344 50.7934 22.0761C50.1558 22.0761 49.5182 22.0761 48.879 22.0761C48.879 22.6337 48.879 23.1897 48.879 23.7472C49.538 23.7472 50.1985 23.7472 50.859 23.7472C50.859 23.8843 50.859 24.0197 50.859 24.1552C50.8209 24.163 48.577 24.1661 48.4183 24.1584C48.4183 22.643 48.4183 21.1292 48.4183 19.6123C49.2314 19.6123 50.0444 19.6123 50.8605 19.6123C50.8605 19.7509 50.8605 19.8895 50.8605 20.0312C50.2 20.0312 49.5395 20.0312 48.879 20.0312C48.879 20.5732 48.879 21.1121 48.879 21.6525C49.5151 21.6525 50.1512 21.6525 50.7934 21.6525Z" fill="black"/>
<path d="M58.2431 20.7693C58.0875 20.7693 57.9365 20.7693 57.7825 20.7693C57.7825 20.7537 57.7825 20.7397 57.7825 20.7257C57.7825 20.6961 57.7809 20.6681 57.7748 20.6385C57.7687 20.6104 57.7641 20.5824 57.7565 20.5559C57.726 20.4485 57.7169 20.4313 57.6635 20.3363C57.6406 20.2958 57.6147 20.26 57.5826 20.2258C57.5719 20.2133 57.5643 20.1962 57.5521 20.1868C57.4987 20.1432 57.4484 20.0949 57.3874 20.0607C57.3401 20.0342 57.2928 20.0077 57.2409 19.9937C57.2043 19.9828 57.1692 19.9703 57.1296 19.9641C57.0991 19.9594 57.0701 19.9579 57.0396 19.9563C57.0228 19.9548 57.0045 19.9423 56.9923 19.9485C56.9694 19.9594 56.9481 19.9563 56.9252 19.9563C56.8764 19.9563 56.8321 19.9735 56.7848 19.9812C56.7299 19.9906 56.6796 20.0171 56.6292 20.0373C56.5942 20.0513 56.5621 20.0747 56.5316 20.0981C56.4828 20.1323 56.4355 20.1712 56.3959 20.2164C56.3226 20.3021 56.2677 20.3986 56.2342 20.5076C56.2235 20.545 56.2036 20.5824 56.2128 20.6229C56.193 20.6914 56.2021 20.7615 56.2052 20.83C56.2082 20.8799 56.2204 20.9297 56.2387 20.978C56.2555 21.0247 56.2753 21.0699 56.3043 21.1088C56.3531 21.1758 56.4111 21.235 56.4813 21.2832C56.5301 21.3175 56.5804 21.3486 56.6323 21.3751C56.7101 21.4141 56.7909 21.4468 56.8748 21.4732C56.9496 21.4966 57.0259 21.52 57.1021 21.5402C57.1921 21.5651 57.2806 21.5932 57.3675 21.6259C57.424 21.6477 57.4819 21.6695 57.5369 21.6959C57.5628 21.7084 57.5918 21.7177 57.6162 21.7333C57.6986 21.7832 57.7825 21.8283 57.8587 21.8891C57.8938 21.9171 57.9274 21.9451 57.9609 21.9732C57.9792 21.9887 57.9991 22.0043 58.0158 22.0214C58.0784 22.0915 58.1379 22.1647 58.1882 22.2457C58.2172 22.294 58.2431 22.3438 58.2614 22.3968C58.2767 22.4419 58.295 22.4855 58.3026 22.5338C58.3072 22.5603 58.3133 22.5868 58.3209 22.6117C58.3286 22.6366 58.3255 22.6631 58.3392 22.6865C58.3408 22.6896 58.3408 22.6927 58.3392 22.6958C58.3347 22.7487 58.353 22.8017 58.3499 22.8547C58.3469 22.9092 58.3545 22.9637 58.3469 23.0182C58.3423 23.0587 58.3392 23.0992 58.3301 23.1397C58.3225 23.1786 58.3118 23.2144 58.3026 23.2533C58.2645 23.4122 58.2264 23.4667 58.1684 23.5851C58.1501 23.624 58.1196 23.6567 58.0952 23.6941C58.0494 23.7642 57.9899 23.8202 57.9319 23.8794C57.877 23.937 57.813 23.9822 57.7474 24.0258C57.7016 24.057 57.6528 24.085 57.6025 24.1084C57.5308 24.1411 57.4591 24.1738 57.3813 24.1893C57.3569 24.194 57.334 24.2049 57.3096 24.2096C57.2867 24.2143 57.2608 24.2096 57.2409 24.2267C57.2379 24.2298 57.2318 24.2267 57.2272 24.2267C57.186 24.2252 57.1464 24.2423 57.1036 24.2361C57.0579 24.2532 57.0091 24.2407 56.9618 24.247C56.9313 24.2501 56.9053 24.2376 56.8764 24.2361C56.8489 24.2345 56.8214 24.2423 56.7955 24.2283C56.7848 24.222 56.7681 24.2283 56.7543 24.2267C56.7421 24.2252 56.7314 24.2189 56.7208 24.2174C56.675 24.2143 56.6308 24.2018 56.5865 24.1878C56.5499 24.1769 56.5133 24.1675 56.4782 24.1551C56.4187 24.1348 56.3638 24.1052 56.3074 24.0772C56.2418 24.0429 56.1808 24.0009 56.1213 23.9557C56.0755 23.9199 56.0298 23.8841 55.9901 23.8405C55.9169 23.7595 55.8513 23.6723 55.7979 23.5757C55.772 23.5274 55.7476 23.4776 55.7292 23.4278C55.7094 23.3733 55.6896 23.3156 55.6759 23.258C55.6682 23.2238 55.6606 23.1879 55.6515 23.1537C55.6423 23.1225 55.6484 23.0851 55.6392 23.0524C55.6255 23.001 55.6347 22.9497 55.6316 22.8983C55.6316 22.8936 55.6331 22.8889 55.6331 22.8842C55.7826 22.8842 55.9306 22.8842 56.0831 22.8842C56.0755 22.9263 56.0908 22.9668 56.0938 23.0088C56.0984 23.0602 56.1106 23.1116 56.1259 23.163C56.1426 23.2222 56.164 23.2783 56.1884 23.3328C56.2006 23.3608 56.2143 23.3857 56.2296 23.4106C56.2448 23.4371 56.2647 23.4589 56.2814 23.4854C56.3181 23.5415 56.3669 23.5851 56.4157 23.6287C56.4599 23.6692 56.5133 23.7019 56.5682 23.7268C56.6323 23.7564 56.6964 23.7813 56.7665 23.7953C56.8062 23.8031 56.8459 23.8078 56.8855 23.8156C56.9481 23.828 57.0091 23.8187 57.0701 23.8234C57.0975 23.8249 57.1235 23.8125 57.1509 23.8125C57.1769 23.8125 57.2028 23.8015 57.2272 23.7953C57.2531 23.7891 57.2775 23.7829 57.3035 23.7735C57.3462 23.7579 57.3874 23.7408 57.427 23.719C57.4697 23.6956 57.5094 23.6676 57.5491 23.638C57.6025 23.5991 57.6452 23.5492 57.6909 23.501C57.7184 23.4714 57.7413 23.4371 57.7611 23.4013C57.7779 23.3717 57.7931 23.3421 57.8114 23.3125C57.8328 23.2751 57.8358 23.23 57.8603 23.1942C57.8587 23.1568 57.8816 23.1241 57.8786 23.0867C57.8999 23.0587 57.8831 23.0244 57.8938 22.9933C57.9045 22.9637 57.8969 22.9278 57.8969 22.8936C57.8938 22.8017 57.8786 22.7129 57.8465 22.6273C57.8114 22.5307 57.7642 22.4404 57.6879 22.3687C57.6711 22.3532 57.6543 22.3345 57.6375 22.3173C57.5964 22.2753 57.546 22.2441 57.4987 22.2099C57.4438 22.171 57.3843 22.1445 57.3264 22.1133C57.2775 22.0869 57.2242 22.0713 57.1738 22.0495C57.1464 22.037 57.1159 22.0292 57.0869 22.0199C57.0121 21.9965 56.9358 21.9747 56.8611 21.9498C56.7726 21.9218 56.6842 21.8953 56.5972 21.861C56.5438 21.8392 56.4889 21.819 56.4355 21.7956C56.3836 21.7723 56.3333 21.7458 56.2845 21.7146C56.2433 21.6882 56.2021 21.6648 56.1609 21.6352C56.1365 21.6181 56.1106 21.6009 56.0892 21.5807C56.0725 21.5651 56.0526 21.5527 56.0374 21.5355C55.952 21.4452 55.8803 21.3455 55.8314 21.2287C55.8086 21.1742 55.7887 21.1181 55.7796 21.059C55.7735 21.0231 55.7674 20.9873 55.7598 20.9515C55.7506 20.9063 55.7537 20.8612 55.7521 20.816C55.7521 20.8051 55.7491 20.7958 55.7445 20.7849C55.7384 20.7693 55.7369 20.7475 55.743 20.7335C55.7567 20.7023 55.7476 20.6712 55.7506 20.6416C55.7567 20.5731 55.7674 20.5061 55.7857 20.4407C55.7979 20.3971 55.8131 20.355 55.8238 20.313C55.8315 20.2865 55.8482 20.2647 55.8543 20.2398C55.8604 20.2149 55.8772 20.1946 55.8879 20.1728C55.9108 20.1261 55.9382 20.0856 55.9672 20.0435C55.984 20.0202 56.0008 19.9968 56.0191 19.975C56.0374 19.9517 56.0618 19.9345 56.077 19.908C56.0862 19.894 56.106 19.8862 56.1182 19.8738C56.1731 19.813 56.2403 19.7694 56.3074 19.7258C56.3745 19.6822 56.4492 19.6511 56.5225 19.6184C56.5774 19.595 56.6338 19.5857 56.6887 19.5639C56.704 19.5576 56.7238 19.5592 56.7406 19.5545C56.7711 19.5467 56.8047 19.5514 56.8352 19.5421C56.884 19.528 56.9328 19.5358 56.9816 19.5343C57.032 19.5327 57.0823 19.5312 57.1326 19.5358C57.1555 19.5374 57.1814 19.5389 57.2028 19.5467C57.2257 19.5545 57.2516 19.5467 57.2714 19.5639C57.3462 19.5654 57.4133 19.5997 57.4819 19.623C57.5475 19.6464 57.6086 19.6807 57.6681 19.7196C57.7199 19.7523 57.7687 19.7897 57.816 19.8271C57.8557 19.8582 57.8877 19.8987 57.9228 19.9345C57.9823 19.9953 58.0265 20.0685 58.0723 20.1401C58.1333 20.2367 58.1623 20.3457 58.2019 20.45C58.208 20.4687 58.205 20.489 58.2111 20.5076C58.2202 20.531 58.2141 20.5606 58.2233 20.584C58.2355 20.6182 58.2294 20.6525 58.2325 20.6852C58.234 20.6992 58.2401 20.7117 58.2416 20.7241C58.2447 20.7381 58.2431 20.7522 58.2431 20.7693Z" fill="black"/>
<path d="M16.4196 8.00146H16.0001V24.2467H16.4196V8.00146Z" fill="black"/>
<path d="M62.83 8.00146H62.4105V24.2467H62.83V8.00146Z" fill="black"/>
</svg>
