<svg width="94" height="32" viewBox="0 0 94 32" fill="none" xmlns="http://www.w3.org/2000/svg">
<path d="M35.2716 18.9954H33.6702V16.65H31.5939V18.9954H29.9883V13.0227H31.5939V15.2798H33.6744V13.0227H35.2758V18.9954H35.2716ZM37.8229 17.9656L37.5371 18.9954H35.8727L37.6632 13.0269H40.0842L41.9042 18.9954H40.2734L39.9581 17.9656H37.8187H37.8229ZM38.8989 14.2122L38.1634 16.8097H39.6513L38.8947 14.2122H38.8989ZM42.5052 13.0227H45.7584C46.3006 13.0269 46.7336 13.132 47.0572 13.3295C47.3766 13.5313 47.5406 13.939 47.5406 14.5527C47.5406 14.9015 47.4943 15.1999 47.3977 15.4521C47.3094 15.7043 47.0446 15.8724 46.6075 15.9439V15.9859C47.0152 16.028 47.2884 16.1541 47.4271 16.3726C47.5658 16.5828 47.6372 16.8896 47.6372 17.2847C47.6372 17.9572 47.5027 18.4069 47.2379 18.6423C46.9731 18.8777 46.4898 18.9954 45.7837 18.9954H42.5052V13.0227ZM45.128 15.4143C45.1527 15.4204 45.1782 15.4232 45.2036 15.4227H45.2625C45.4558 15.4185 45.6197 15.3891 45.75 15.3471C45.8845 15.305 45.9518 15.1579 45.9518 14.9141C45.9518 14.6956 45.914 14.5485 45.8425 14.4686C45.7668 14.3845 45.6239 14.3467 45.4054 14.3467H44.1108V15.4143H45.128ZM45.1742 17.6798C45.4264 17.684 45.6366 17.663 45.7963 17.6125C45.9644 17.5621 46.0443 17.3898 46.0443 17.0956C46.0443 16.8181 45.9812 16.65 45.8509 16.5996C45.7248 16.5491 45.5315 16.5239 45.2835 16.5239H44.1066V17.6798H45.1742ZM49.7682 17.9656L49.4824 18.9954H47.818L49.6085 13.0269H52.0337L53.8537 18.9954H52.2229L51.9076 17.9656H49.7682ZM50.8442 14.2122L50.1087 16.8097H51.5966L50.84 14.2122H50.8442ZM60.234 18.9954H57.5272L55.846 14.4013H55.7619L55.8334 18.9954H54.2656V13.0227H56.964L58.6452 17.5621H58.7083L58.6452 13.0227H60.2298V18.9954H60.234ZM62.6256 15.4143H65.1685V16.5239H62.6256V17.6798H65.3997V18.9954H61.0242V13.0227H65.345V14.3383H62.6214V15.4143H62.6256ZM66.152 13.0227H69.1615C69.9265 13.0269 70.4729 13.1572 70.8007 13.4136C71.1286 13.6658 71.2925 14.1912 71.2925 14.994C71.2925 15.4395 71.2462 15.801 71.1454 16.0784C71.0487 16.36 70.7209 16.5576 70.166 16.6752V16.7299C70.5359 16.7551 70.8091 16.8644 70.9856 17.0661C71.1749 17.3056 71.2692 17.6064 71.2505 17.911V18.9954H69.6196V18.1968C69.6196 17.9614 69.5734 17.7681 69.4809 17.6294C69.3885 17.4906 69.2119 17.4192 68.9471 17.4192H67.7576V18.9954H66.1563V13.0227H66.152ZM69.027 16.049C69.3212 16.0574 69.4977 15.9901 69.5608 15.8514C69.6314 15.6636 69.6629 15.4634 69.6533 15.263C69.6533 14.9688 69.6238 14.7544 69.5566 14.6157C69.4893 14.477 69.2876 14.4098 68.9471 14.4098L67.7576 14.4013V16.049H69.027ZM71.9187 15.6959C71.9199 15.3315 71.948 14.9676 72.0028 14.6073C72.1121 13.939 72.4189 13.5061 72.9149 13.3085C73.4109 13.111 73.9447 13.0059 74.5163 12.9975H74.697C75.7268 12.9975 76.4497 13.1698 76.8616 13.5187C77.2735 13.8675 77.4795 14.5863 77.4795 15.6623C77.4795 16.7677 77.3576 17.6083 77.118 18.1842C76.8742 18.7558 76.084 19.0416 74.739 19.0416C74.5385 19.0405 74.3381 19.0335 74.138 19.0206C73.6883 19.0038 73.2595 18.9113 72.8603 18.7432C72.461 18.5751 72.1877 18.243 72.0448 17.7428C71.9848 17.5418 71.9481 17.3344 71.9356 17.125C71.923 16.9148 71.9187 16.7047 71.9187 16.4945V16.049V15.6959ZM73.558 16.0238V16.381C73.558 16.8013 73.6 17.125 73.6925 17.3477C73.7849 17.5705 74.075 17.6798 74.5709 17.6798C75.1173 17.6798 75.4662 17.5915 75.6133 17.415C75.7604 17.2385 75.8319 16.898 75.8319 16.3894V16.1751L75.8445 15.9523V15.7379V15.5194C75.8445 15.1201 75.7856 14.8301 75.6721 14.6451C75.5587 14.4602 75.2855 14.3677 74.8567 14.3677C74.2347 14.3677 73.869 14.4518 73.7513 14.6199C73.6336 14.788 73.5706 15.242 73.558 15.9943V16.0322V16.0238Z" fill="black"/>
<path fill-rule="evenodd" clip-rule="evenodd" d="M21.0777 9.79893C21.2458 9.79893 21.3803 9.66443 21.3803 9.50051V8.63466C21.3803 8.55496 21.3487 8.47852 21.2923 8.42216C21.236 8.3658 21.1595 8.33414 21.0798 8.33414C21.0001 8.33414 20.9237 8.3658 20.8673 8.42216C20.811 8.47852 20.7793 8.55496 20.7793 8.63466V9.50051C20.7793 9.66863 20.9138 9.79893 21.0777 9.79893Z" fill="url(#paint0_linear_8908_285591)"/>
<path fill-rule="evenodd" clip-rule="evenodd" d="M19.8834 10.5933C20.0515 10.5933 20.1818 10.4588 20.1818 10.2949V9.42907C20.1818 9.34992 20.1504 9.27402 20.0944 9.21805C20.0384 9.16209 19.9625 9.13065 19.8834 9.13065C19.8042 9.13065 19.7283 9.16209 19.6724 9.21805C19.6164 9.27402 19.585 9.34992 19.585 9.42907V10.2949C19.585 10.4588 19.7195 10.5891 19.8834 10.5891V10.5933Z" fill="url(#paint1_linear_8908_285591)"/>
<path fill-rule="evenodd" clip-rule="evenodd" d="M19.883 8.59187C20.0509 8.59187 20.181 8.46174 20.181 8.29803C20.181 8.21899 20.1496 8.14318 20.0937 8.08729C20.0378 8.0314 19.962 8 19.883 8C19.8039 8 19.7281 8.0314 19.6723 8.08729C19.6164 8.14318 19.585 8.21899 19.585 8.29803C19.585 8.46174 19.7193 8.59187 19.883 8.59187Z" fill="url(#paint2_linear_8908_285591)"/>
<path fill-rule="evenodd" clip-rule="evenodd" d="M22.2749 10.8195C22.4386 10.8195 22.5687 10.6852 22.5687 10.5215V10.5299C22.5687 10.4908 22.561 10.452 22.546 10.4159C22.5311 10.3797 22.5091 10.3468 22.4814 10.3192C22.4538 10.2915 22.4209 10.2695 22.3847 10.2546C22.3486 10.2396 22.3098 10.2319 22.2707 10.2319C22.2315 10.2319 22.1928 10.2396 22.1566 10.2546C22.1205 10.2695 22.0876 10.2915 22.0599 10.3192C22.0323 10.3468 22.0103 10.3797 21.9953 10.4159C21.9804 10.452 21.9727 10.4908 21.9727 10.5299V10.5215C21.9727 10.6894 22.107 10.8195 22.2749 10.8195Z" fill="url(#paint3_linear_8908_285591)"/>
<path fill-rule="evenodd" clip-rule="evenodd" d="M24.6585 13.0353C24.4987 13.0353 24.3642 13.1656 24.3642 13.3296V13.4809C24.362 13.56 24.3284 13.635 24.2709 13.6894C24.2133 13.7438 24.1366 13.7731 24.0574 13.7709C23.9783 13.7687 23.9032 13.7351 23.8489 13.6775C23.7945 13.62 23.7652 13.5432 23.7674 13.4641V12.7201C23.7674 12.6404 23.7357 12.564 23.6794 12.5076C23.623 12.4513 23.5466 12.4196 23.4669 12.4196C23.3872 12.4196 23.3107 12.4513 23.2544 12.5076C23.198 12.564 23.1663 12.6404 23.1663 12.7201V12.7327C23.1713 12.7746 23.1674 12.8171 23.1548 12.8573C23.1422 12.8975 23.1212 12.9347 23.0932 12.9662C23.0652 12.9977 23.0308 13.023 22.9924 13.0403C22.9539 13.0576 22.9122 13.0665 22.87 13.0665C22.8279 13.0665 22.7862 13.0576 22.7477 13.0403C22.7092 13.023 22.6749 12.9977 22.6469 12.9662C22.6189 12.9347 22.5979 12.8975 22.5853 12.8573C22.5726 12.8171 22.5687 12.7746 22.5737 12.7327V11.4844C22.5737 11.4452 22.566 11.4064 22.551 11.3702C22.536 11.334 22.514 11.3011 22.4863 11.2734C22.4586 11.2457 22.4257 11.2237 22.3895 11.2087C22.3533 11.1937 22.3145 11.186 22.2753 11.186C22.2361 11.186 22.1973 11.1937 22.1611 11.2087C22.1249 11.2237 22.092 11.2457 22.0643 11.2734C22.0366 11.3011 22.0146 11.334 21.9996 11.3702C21.9846 11.4064 21.9769 11.4452 21.9769 11.4844V11.9636C21.9769 12.1317 21.8255 12.2578 21.6784 12.2578C21.5103 12.2578 21.38 12.1317 21.38 11.9636V10.6185C21.38 10.5388 21.3484 10.4624 21.292 10.406C21.2356 10.3497 21.1592 10.318 21.0795 10.318C20.9998 10.318 20.9233 10.3497 20.867 10.406C20.8106 10.4624 20.779 10.5388 20.779 10.6185V11.787C20.779 11.8662 20.7475 11.9421 20.6916 11.998C20.6356 12.054 20.5597 12.0854 20.4805 12.0854C20.4014 12.0854 20.3255 12.054 20.2695 11.998C20.2136 11.9421 20.1821 11.8662 20.1821 11.787V11.3667C20.1821 11.2876 20.1507 11.2117 20.0947 11.1557C20.0387 11.0997 19.9628 11.0683 19.8837 11.0683C19.8045 11.0683 19.7286 11.0997 19.6727 11.1557C19.6167 11.2117 19.5853 11.2876 19.5853 11.3667V12.2662C19.5853 12.3453 19.5538 12.4212 19.4979 12.4772C19.4419 12.5332 19.366 12.5646 19.2869 12.5646C19.2077 12.5646 19.1318 12.5332 19.0758 12.4772C19.0199 12.4212 18.9884 12.3453 18.9884 12.2662V11.0178C18.9884 10.9387 18.957 10.8628 18.901 10.8068C18.8451 10.7509 18.7692 10.7194 18.69 10.7194C18.6109 10.7194 18.535 10.7509 18.479 10.8068C18.423 10.8628 18.3916 10.9387 18.3916 11.0178V12.9303C18.3916 13.0094 18.3601 13.0853 18.3042 13.1413C18.2482 13.1973 18.1723 13.2287 18.0932 13.2287C18.014 13.2287 17.9381 13.1973 17.8821 13.1413C17.8262 13.0853 17.7947 13.0094 17.7947 12.9303V12.4259C17.7947 12.3467 17.7633 12.2708 17.7073 12.2149C17.6514 12.1589 17.5755 12.1275 17.4963 12.1275C17.4172 12.1275 17.3413 12.1589 17.2853 12.2149C17.2293 12.2708 17.1979 12.3467 17.1979 12.4259V13.8297C17.1979 13.9089 17.1665 13.9848 17.1105 14.0408C17.0545 14.0967 16.9786 14.1282 16.8995 14.1282C16.8203 14.1282 16.7444 14.0967 16.6885 14.0408C16.6325 13.9848 16.601 13.9089 16.601 13.8297V13.3674C16.601 13.2883 16.5696 13.2123 16.5136 13.1564C16.4577 13.1004 16.3818 13.069 16.3026 13.069C16.2235 13.069 16.1476 13.1004 16.0916 13.1564C16.0356 13.2123 16.0042 13.2883 16.0042 13.3674L16 13.8297V18.9996L20.4805 21.5887L24.9527 18.9996V15.7296V13.3338C24.9527 13.1656 24.8224 13.0353 24.6585 13.0353ZM22.5905 18.1043H21.1825V17.0409H19.7744V18.1085H18.3706V14.7586H19.7744V15.8851H21.1825V14.7586H22.5905V18.1127V18.1043Z" fill="url(#paint4_linear_8908_285591)"/>
<defs>
<linearGradient id="paint0_linear_8908_285591" x1="16.1007" y1="9.06653" x2="25.0131" y2="9.06653" gradientUnits="userSpaceOnUse">
<stop stop-color="#EE344D"/>
<stop offset="1" stop-color="#F89927"/>
</linearGradient>
<linearGradient id="paint1_linear_8908_285591" x1="16.4545" y1="9.86199" x2="25.2275" y2="9.86199" gradientUnits="userSpaceOnUse">
<stop stop-color="#EE344D"/>
<stop offset="1" stop-color="#F89927"/>
</linearGradient>
<linearGradient id="paint2_linear_8908_285591" x1="16.2625" y1="8.29593" x2="25.0544" y2="8.29593" gradientUnits="userSpaceOnUse">
<stop stop-color="#EE344D"/>
<stop offset="1" stop-color="#F89927"/>
</linearGradient>
<linearGradient id="paint3_linear_8908_285591" x1="16.2206" y1="10.5257" x2="24.9321" y2="10.5257" gradientUnits="userSpaceOnUse">
<stop stop-color="#EE344D"/>
<stop offset="1" stop-color="#F89927"/>
</linearGradient>
<linearGradient id="paint4_linear_8908_285591" x1="16" y1="15.9534" x2="24.9527" y2="15.9534" gradientUnits="userSpaceOnUse">
<stop stop-color="#EE344D"/>
<stop offset="1" stop-color="#F89927"/>
</linearGradient>
</defs>
</svg>
