<svg width="89" height="32" viewBox="0 0 89 32" fill="none" xmlns="http://www.w3.org/2000/svg">
<path d="M19.773 15.47H21.4019V16.7843L23.981 16.8501V9.46838C23.981 9.38237 23.9362 9.32593 23.867 9.32593H21.5132C21.4454 9.32593 21.3992 9.38237 21.3992 9.46838V12.9624H19.7703V9.46838C19.7703 9.38237 19.7242 9.32593 19.6563 9.32593H17.3351C17.2659 9.32593 17.2197 9.38237 17.2197 9.46838V16.6781L19.773 16.7426V15.47Z" fill="black"/>
<path d="M29.9551 9.44015C29.9333 9.35415 29.8913 9.32593 29.837 9.32593H27.2877C27.2348 9.32593 27.1914 9.35415 27.1696 9.44015L25.0127 16.877L32.1147 17.0638L29.9551 9.44015ZM27.8796 15.6971L28.5515 11.4949L29.203 15.6971H27.8796Z" fill="black"/>
<path d="M42.0924 16.9576L43.2163 15.3289L44.0674 17.3648L46.7198 17.432L44.7597 13.1209L47.2655 9.49254C47.3307 9.39309 47.2872 9.32187 47.2017 9.32187H44.5452C44.5179 9.32251 44.4913 9.3308 44.4684 9.34578C44.4456 9.36076 44.4275 9.38182 44.4163 9.40653L42.0924 13.1021V9.46835C42.0924 9.38234 42.049 9.3259 41.9852 9.3259H39.8133C39.7481 9.3259 39.7061 9.38234 39.7061 9.46835V17.2533L42.0951 17.3137L42.0924 16.9576Z" fill="black"/>
<path d="M54.6275 16.0498C54.6275 12.1849 50.224 13.5583 50.224 12.029C50.224 11.5909 50.5987 11.392 51.1131 11.392C51.7131 11.392 52.3022 11.6608 52.8913 12.2709C52.9006 12.2846 52.9134 12.2955 52.9284 12.3026C52.9434 12.3097 52.96 12.3126 52.9765 12.3111C52.9931 12.3096 53.0089 12.3037 53.0223 12.294C53.0358 12.2843 53.0463 12.2713 53.0529 12.2561L54.2515 10.6126C54.2733 10.5835 54.2843 10.5477 54.2826 10.5115C54.2808 10.4752 54.2665 10.4407 54.242 10.4137C53.3949 9.43944 52.4094 9 51.2095 9C49.5806 9 47.8349 9.79287 47.8349 12.3274C47.8349 16.3898 52.2914 14.7759 52.2914 16.4463C52.2914 16.9569 51.8746 17.2109 51.2746 17.2109C50.524 17.2109 49.7815 16.8293 49.0349 15.8241C48.9928 15.7676 48.9277 15.7528 48.8856 15.8241L47.7236 17.4568L54.3302 17.6262C54.5341 17.1255 54.6352 16.5896 54.6275 16.0498Z" fill="black"/>
<path d="M60.0556 9.44015C60.0339 9.35415 59.9904 9.32593 59.9375 9.32593H57.3883C57.334 9.32593 57.2919 9.35415 57.2702 9.44015L54.8906 17.6376L62.4352 17.8311L60.0556 9.44015ZM57.9788 15.6971L58.6575 11.4949L59.3022 15.6971H57.9788Z" fill="black"/>
<path d="M67.1507 13.7687L67.8213 17.9722L70.5741 18.0434L72.993 9.48179C73.0147 9.38234 72.9822 9.3259 72.9075 9.3259H70.6338C70.57 9.3259 70.5266 9.36891 70.5157 9.46029L69.3144 14.4325L68.3317 9.46029C68.3208 9.38906 68.2774 9.3259 68.2136 9.3259H66.0892C66.0254 9.3259 65.982 9.38234 65.9711 9.46029L64.9883 14.4325L63.7816 9.45357C63.7707 9.36891 63.7273 9.31918 63.6635 9.31918H61.3939C61.3192 9.31918 61.2867 9.37562 61.3084 9.47507L63.6771 17.8701L66.4856 17.9427L67.1507 13.7687Z" fill="black"/>
<path d="M38.597 16.4342C38.5976 16.4261 38.5954 16.418 38.5908 16.4113C38.5862 16.4045 38.5795 16.3995 38.5716 16.397C38.5638 16.3945 38.5554 16.3947 38.5476 16.3976C38.5399 16.4004 38.5334 16.4058 38.5292 16.4127C38.3716 16.6458 38.1577 16.8361 37.9068 16.9664C37.656 17.0966 37.3762 17.1627 37.093 17.1586C35.8401 17.1586 35.2496 15.9276 35.2496 14.2854C35.2496 12.7991 35.741 11.4822 37.1174 11.4822C37.3955 11.4717 37.6715 11.5319 37.9194 11.6571C38.1672 11.7822 38.3785 11.9681 38.5332 12.1971C38.5378 12.2036 38.5443 12.2085 38.5518 12.2111C38.5593 12.2138 38.5675 12.214 38.5752 12.2118C38.5829 12.2095 38.5896 12.205 38.5945 12.1987C38.5994 12.1925 38.6022 12.1848 38.6025 12.1769V9.4207C38.603 9.3895 38.5936 9.35891 38.5756 9.33332C38.5576 9.30774 38.5318 9.28846 38.502 9.27825C38.0216 9.11456 37.5169 9.03144 37.0088 9.03233C34.2438 9.03233 32.4615 11.4392 32.4615 14.4695C32.4497 15.3665 32.6277 16.2559 32.9841 17.0806L38.5984 17.2244L38.597 16.4342Z" fill="black"/>
<path d="M20.1799 19.5748C20.1799 19.6594 20.2246 19.7091 20.2939 19.7091H22.6409C22.7087 19.7091 22.7549 19.6527 22.7549 19.5748V17.2459L20.1758 17.1787L20.1799 19.5748Z" fill="black"/>
<path d="M16.114 19.7158H18.4434C18.5126 19.7158 18.5587 19.6594 18.5587 19.5814V17.137L16 17.0725V19.5747C16 19.6594 16.0462 19.7158 16.114 19.7158Z" fill="black"/>
<path d="M23.216 19.7159H25.563C25.5938 19.7133 25.6228 19.7009 25.6458 19.6805C25.6688 19.6602 25.6846 19.633 25.6906 19.603L25.9906 18.3142H28.624L28.924 19.603C28.93 19.633 28.9458 19.6602 28.9688 19.6805C28.9918 19.7009 29.0208 19.7133 29.0516 19.7159H31.3986C31.4732 19.7159 31.5058 19.646 31.4841 19.5466L30.8909 17.4542L23.7902 17.2714L23.1305 19.5466C23.0993 19.646 23.1414 19.7159 23.216 19.7159Z" fill="black"/>
<path d="M43.6241 19.6164C43.632 19.6444 43.6489 19.669 43.6721 19.6867C43.6953 19.7044 43.7237 19.7141 43.7531 19.7145H46.2059C46.2914 19.7145 46.324 19.6446 46.2806 19.5452L45.5001 17.8264L42.8477 17.7579L43.6241 19.6164Z" fill="black"/>
<path d="M38.5894 19.7159H40.7613C40.8265 19.7159 40.8685 19.6594 40.8685 19.5815V17.7095L38.4795 17.6477V19.5748C38.4822 19.6594 38.5256 19.7159 38.5894 19.7159Z" fill="black"/>
<path d="M46.3128 18.3142C46.7273 18.8514 47.2614 19.2868 47.8735 19.5865C48.4856 19.8863 49.1592 20.0423 49.8421 20.0424C51.2388 20.0424 52.5447 19.3705 53.1121 18.0267L46.5001 17.8533L46.3128 18.1221C46.2911 18.1495 46.2793 18.1833 46.2793 18.2182C46.2793 18.253 46.2911 18.2868 46.3128 18.3142Z" fill="black"/>
<path d="M53.3165 19.7159H55.6621C55.693 19.7133 55.7223 19.701 55.7455 19.6806C55.7688 19.6603 55.7847 19.6331 55.7911 19.603L56.0911 18.3142H58.7258L59.0299 19.603C59.0364 19.633 59.0524 19.6601 59.0756 19.6804C59.0988 19.7007 59.128 19.7131 59.1588 19.7159H61.5004C61.5764 19.7159 61.6076 19.646 61.5872 19.5466L61.214 18.2296L53.6694 18.0361L53.231 19.5466C53.193 19.646 53.2418 19.7159 53.3165 19.7159Z" fill="black"/>
<path d="M66.7951 19.5882C66.8059 19.6594 66.848 19.7159 66.9118 19.7159H68.9113C68.9751 19.7159 69.0172 19.6742 69.028 19.5882L69.3538 18.4379L66.5996 18.368L66.7951 19.5882Z" fill="black"/>
<path d="M62.9488 19.7159H64.9469C65.0107 19.7159 65.0542 19.6594 65.065 19.5882L65.2646 18.3331L62.4561 18.2618L62.8307 19.5882C62.8416 19.6742 62.8836 19.7159 62.9488 19.7159Z" fill="black"/>
<path d="M35.8367 20.1028C36.3244 20.1048 36.8094 20.0314 37.2742 19.8851C37.3044 19.8748 37.3305 19.8554 37.349 19.8296C37.3675 19.8038 37.3774 19.773 37.3774 19.7413V17.6194L31.7617 17.4756C32.4798 19.0788 33.9037 20.1028 35.8367 20.1028Z" fill="black"/>
<path d="M19.528 22.9438H18.6402V22.5407C18.6402 22.4694 18.5981 22.4332 18.5126 22.4332H18.3294C18.2439 22.4332 18.2018 22.4694 18.2018 22.5407V24.332C18.2018 24.4032 18.2439 24.4395 18.3294 24.4395H18.5126C18.5981 24.4395 18.6402 24.4032 18.6402 24.332V23.8093H18.385V23.2717H19.528V24.3965C19.528 24.7997 19.2782 24.9999 18.7773 24.9999H18.0592C17.5584 24.9999 17.3086 24.7997 17.3086 24.3965V22.4762C17.3086 22.0748 17.5588 21.8737 18.0592 21.8728H18.7828C19.2832 21.8728 19.5334 22.0739 19.5334 22.4762L19.528 22.9438Z" fill="#808184"/>
<path d="M29.0109 24.9918L28.9091 24.5255H28.1232L28.0159 24.9918H27.1377L27.9807 21.8674H29.0666L29.9095 24.9918H29.0109ZM28.2616 23.9167H28.772L28.5209 22.7933L28.2616 23.9167Z" fill="#808184"/>
<path d="M38.3589 24.9918H37.5635V21.8728H38.5327L39.0756 23.5418L39.6064 21.8728H40.5688V24.9918H39.7774V23.011L39.3702 24.3213H38.758L38.3508 23.0218L38.3589 24.9918Z" fill="#808184"/>
<path d="M48.4336 21.8728H49.3268V24.9918H48.4336V21.8728Z" fill="#808184"/>
<path d="M58.6807 21.8728H59.4951V24.9918H58.7322L58.002 23.3523V24.9918H57.1875V21.8728H57.9449L58.6752 23.5418L58.6807 21.8728Z" fill="#808184"/>
<path d="M69.5543 22.9438H68.6679V22.5407C68.6679 22.4694 68.6258 22.4332 68.5403 22.4332H68.357C68.2715 22.4332 68.2294 22.4694 68.2294 22.5407V24.332C68.2294 24.4032 68.2715 24.4395 68.357 24.4395H68.5322C68.6177 24.4395 68.6598 24.4032 68.6598 24.332V23.8093H68.4046V23.2717H69.5529V24.3965C69.5529 24.7997 69.3032 24.9999 68.8036 24.9999H68.0788C67.5779 24.9999 67.3281 24.7997 67.3281 24.3965V22.4762C67.3281 22.0748 67.5783 21.8737 68.0788 21.8728H68.8036C69.3032 21.8728 69.5529 22.0739 69.5529 22.4762L69.5543 22.9438Z" fill="#808184"/>
</svg>
