<svg width="71" height="32" viewBox="0 0 71 32" fill="none" xmlns="http://www.w3.org/2000/svg">
<g clip-path="url(#clip0_17715_123502)">
<path d="M22.3017 32C21.4409 32 20.5801 32 19.7193 32C18.5337 31.6164 17.7378 30.8492 17.2506 29.7303C16.877 28.8831 16.4223 28.052 16 27.2208C16 26.054 16 24.8871 16 23.7203C16.0487 23.4646 16.1137 23.2088 16.1624 22.969C16.3736 22.042 16.471 21.067 16.8446 20.2198C17.1856 19.4366 17.5429 18.7812 16.8608 18.03C16.7309 17.8861 16.7958 17.5665 16.8121 17.3427C17.1369 13.5704 17.4455 9.79822 17.8028 6.02599C17.8191 5.8182 18.1439 5.51451 18.355 5.49852C19.768 5.33868 21.1973 5.25876 22.6103 5.13089C23.601 5.05097 24.5755 4.93908 25.6312 4.84318C25.2089 3.66036 25.3064 2.55746 26.086 1.69433C27.4665 0.143877 27.9375 -0.175804 29.5454 0.911109C30.2276 0.239781 30.9747 -0.383596 31.9817 0.319701C33.3459 1.27874 33.7033 2.58943 33.216 4.15586C33.6058 4.15586 33.9144 4.18783 34.2392 4.15586C39.3228 3.70831 44.4227 3.26076 49.5063 2.81321C49.6849 2.79722 49.9773 2.79722 50.026 2.87714C50.4158 3.64438 51.033 4.41161 51.0817 5.19483C51.1629 6.5215 50.903 7.88014 50.7731 9.2228C50.7569 9.39862 50.7244 9.59043 50.6756 9.76625C50.5457 10.3736 50.3183 10.997 50.2859 11.6044C50.2371 12.4356 50.3346 13.2668 50.3508 14.0979C50.3508 14.3697 50.3021 14.6414 50.2696 14.993C50.9193 14.993 51.4877 14.9291 52.0399 15.009C52.6896 15.0889 53.5666 15.1049 53.9077 15.5045C54.5411 16.2558 55.1583 17.1509 54.9634 18.3017C54.7848 19.3726 54.7523 20.4596 54.6386 21.5465C54.6061 21.8182 54.4112 22.1379 54.4924 22.3617C54.9959 23.5605 54.8172 24.7752 54.5899 25.9581C54.1676 28.1159 52.9007 29.2668 50.7081 29.4586C47.4923 29.7463 44.2765 29.97 41.0607 30.2258C35.7984 30.6574 30.5524 31.0889 25.3064 31.5525C24.2994 31.6324 23.3087 31.8402 22.3017 32ZM37.7474 20.9231C37.7961 20.9231 37.8611 20.9231 37.9098 20.9231C37.7474 22.8891 37.585 24.8552 37.4063 26.9011C38.0397 26.8532 38.6244 26.7732 39.2091 26.7573C39.6477 26.7573 39.7451 26.5495 39.7776 26.1659C39.9238 24.2957 40.1024 22.4256 40.2486 20.5555C40.3298 19.5325 40.3948 18.5095 40.476 17.4546C40.005 17.4865 39.6314 17.5025 39.2579 17.5185C36.984 17.6144 36.984 17.6144 36.513 19.8202C36.2694 20.9391 36.0258 22.058 35.7822 23.1609C35.7334 23.1449 35.6847 23.1449 35.636 23.1289C35.5548 21.3706 35.4736 19.6284 35.3761 17.8222C34.1418 17.9341 32.9886 18.046 31.7868 18.1579C31.5269 21.2428 31.267 24.2797 30.9909 27.4286C31.8355 27.3487 32.5501 27.3007 33.2485 27.2368C33.4434 25.1269 33.622 23.1289 33.8007 21.1469C33.8494 21.1469 33.8982 21.1469 33.9469 21.1469C34.0606 23.1449 34.1905 25.1269 34.3042 27.1409C35.0351 27.0929 35.6847 27.045 36.3506 26.981C36.8216 24.9511 37.2764 22.9371 37.7474 20.9231ZM19.2158 6.95307C18.9397 10.054 18.6799 13.1069 18.42 16.2078C19.297 16.1279 20.0441 16.064 20.8237 16C20.9374 14.7693 21.0511 13.6184 21.1648 12.4196C21.5221 12.3876 21.8307 12.3557 22.2043 12.3077C22.1231 13.5545 22.0418 14.7053 21.9606 15.8881C22.659 15.8402 23.2437 15.7762 23.8284 15.7603C24.2832 15.7443 24.3969 15.5365 24.4293 15.1209C24.543 13.4905 24.7217 11.8602 24.8679 10.2138C24.9816 8.96705 25.0628 7.70432 25.1602 6.39363C24.5918 6.44158 24.1045 6.55347 23.6335 6.5215C22.8702 6.45756 22.6753 6.8252 22.6428 7.49652C22.6103 8.39163 22.4966 9.27075 22.4154 10.1659C22.0094 10.1659 21.7008 10.1659 21.3435 10.1659C21.4409 8.99902 21.5384 7.88014 21.6358 6.72929C20.9049 6.79323 20.2553 6.84118 19.6219 6.88913C19.5244 6.88913 19.427 6.90511 19.2158 6.95307ZM31.9654 8.99902C31.9329 8.99902 31.9167 8.99902 31.8842 8.98304C31.8842 8.48753 31.9167 7.97604 31.8842 7.48054C31.803 6.50551 31.3482 5.96206 30.3737 5.96206C29.448 5.94607 28.506 6.07395 27.5964 6.28174C26.8493 6.45756 26.2809 7.017 26.1997 7.76825C25.9561 9.78224 25.7124 11.8122 25.615 13.8422C25.5663 14.993 26.1834 15.4566 27.3528 15.4566C28.0675 15.4566 28.8146 15.3926 29.5129 15.2488C30.5199 15.041 31.2021 14.4016 31.3645 13.3946C31.6081 11.9401 31.7705 10.4696 31.9654 8.99902ZM27.8888 26.1818C27.9375 26.7253 27.9862 27.2048 28.035 27.7323C28.847 27.6524 29.5942 27.5724 30.4225 27.4925C30.1139 24.4396 29.8215 21.4186 29.5292 18.3657C28.4897 18.4616 27.5315 18.5734 26.5732 18.6214C26.1185 18.6374 25.9398 18.7972 25.8261 19.2448C25.1277 21.978 24.3806 24.7113 23.6498 27.4446C23.601 27.6364 23.601 27.8442 23.5685 28.1159C24.3481 28.036 25.1277 28.1479 25.6962 27.8282C26.0697 27.6204 26.1185 26.8372 26.3134 26.3097C26.8493 26.2458 27.3528 26.2138 27.8888 26.1818ZM20.5639 22.8252C21.0349 23.5125 19.9629 24.3916 21.1323 24.8392C21.0998 25.1589 21.0674 25.4626 21.0349 25.7822C21.0024 26.1339 21.1161 26.5814 20.5151 26.5655C19.9467 26.5495 19.8492 26.1818 19.8817 25.7503C19.9792 24.4875 20.0929 23.2248 20.2228 21.9621C20.2878 21.3547 20.6451 21.003 21.2785 20.971C22.0418 20.9231 22.8214 20.8751 23.5848 20.8272C23.6335 20.2198 23.6822 19.6763 23.7472 18.9251C22.5453 19.005 21.4409 19.021 20.3365 19.1489C19.2321 19.2927 18.4525 19.9641 18.1439 21.003C17.5754 22.969 17.3318 24.999 17.6242 27.045C17.7703 28.02 18.3225 28.5315 19.3295 28.4995C20.369 28.4676 21.4084 28.3077 22.4316 28.1159C22.659 28.0679 22.9676 27.7003 23.0001 27.4446C23.1463 26.4056 23.2112 25.3347 23.2924 24.2797C23.3412 23.7363 23.3899 23.1928 23.4386 22.5854C22.4804 22.6494 21.6358 22.7293 20.5639 22.8252ZM46.599 26.0859C47.7359 26.022 48.8079 26.022 49.8636 25.8941C50.903 25.7663 51.6014 25.1269 51.8126 24.1359C51.9912 23.2408 52.0562 22.3137 52.0724 21.3866C52.0724 20.6993 51.6664 20.2678 50.9193 20.2038C50.6594 20.1878 50.3833 20.1079 50.1234 20.0919C49.6687 20.0759 49.3114 19.996 49.3601 19.4206C49.4088 18.9091 49.5063 18.4775 50.1722 18.4616C50.8056 18.4456 51.439 18.3816 52.1211 18.3177C52.1699 17.7103 52.2186 17.1669 52.2836 16.3836C51.1466 16.4636 50.1234 16.4955 49.1002 16.6394C47.9471 16.7992 47.3461 17.5984 47.0863 18.6534C46.9726 19.1329 46.9239 19.6444 46.9076 20.1399C46.8589 21.8981 47.0538 22.1059 48.7916 22.2498C49.2951 22.2977 49.7012 22.3457 49.6524 23.001C49.6037 23.6084 49.4413 24.008 48.7104 24.024C48.0445 24.024 47.3949 24.1199 46.729 24.1679C46.6802 24.5515 46.6153 24.8392 46.599 25.1269C46.5828 25.3826 46.599 25.6224 46.599 26.0859ZM43.4969 24.3916C43.4644 22.7453 43.4644 22.7453 44.9586 22.6014C45.0723 22.5854 45.186 22.6014 45.2672 22.5535C45.3809 22.4735 45.5433 22.3617 45.5596 22.2498C45.6245 21.7063 45.6408 21.1629 45.6895 20.5874C45.0074 20.6354 44.4064 20.6674 43.7568 20.7153C43.7892 20.1239 43.8217 19.6444 43.8542 19.1489C44.6825 19.053 45.4296 18.973 46.193 18.8931C46.2417 18.2218 46.2904 17.6144 46.3554 16.9271C44.715 17.0709 43.1721 17.1988 41.5966 17.3427C41.3368 20.4596 41.0769 23.5125 40.8008 26.6294C42.4737 26.4855 44.0166 26.3417 45.5596 26.2138C45.6245 25.5105 45.6733 24.8871 45.722 24.2318C44.9424 24.2797 44.244 24.3277 43.4969 24.3916ZM47.5086 10.006C47.5735 9.39862 47.6385 8.77524 47.6872 8.13588C46.9888 8.13588 46.4041 8.13588 45.7545 8.13588C45.7545 7.92809 45.7707 7.75227 45.7545 7.57644C45.6895 6.80921 45.9818 6.45756 46.8102 6.5215C47.2487 6.55347 47.7034 6.44158 48.1582 6.37764C48.2232 5.70631 48.2881 5.11491 48.3694 4.41161C46.7127 4.55547 45.186 4.68334 43.5781 4.81121C43.3182 7.91211 43.0584 10.9491 42.7823 14.0979C44.4389 13.9541 45.9818 13.8102 47.541 13.6823C47.606 12.979 47.6547 12.3716 47.7034 11.7163C46.8751 11.7643 46.193 11.8122 45.3972 11.8602C45.4296 11.3007 45.4784 10.7892 45.5108 10.2138C46.193 10.1499 46.8102 10.0859 47.5086 10.006ZM34.9701 12.7393C35.1812 10.2937 35.3761 7.92809 35.5873 5.51451C34.7102 5.59443 33.9631 5.65836 33.1673 5.7223C32.8912 8.8232 32.6313 11.8602 32.3552 15.009C33.8982 14.8652 35.3599 14.7373 36.8379 14.6094C36.9028 13.8901 36.9516 13.2508 37.0165 12.5635C36.2857 12.6274 35.6847 12.6753 34.9701 12.7393ZM38.3646 5.27475C38.1047 8.39163 37.8448 11.4126 37.5687 14.5615C39.1279 14.4176 40.5734 14.2897 42.0352 14.1619C42.1001 13.4426 42.1651 12.8192 42.2138 12.1319C41.4992 12.1798 40.8658 12.2278 40.1674 12.2757C40.3785 9.84617 40.5734 7.51251 40.7683 5.08294C39.9238 5.14687 39.1929 5.21081 38.3646 5.27475ZM30.2925 2.10991C29.6104 3.021 29.5942 3.8202 30.1788 4.15586C30.6823 4.44358 31.5594 4.1239 31.8842 3.5165C32.2578 2.81321 31.9167 1.88613 31.1371 1.5185C30.861 2.46156 30.8123 2.50951 30.2925 2.10991ZM27.2229 2.46156C26.7194 3.34068 26.6869 4.09193 27.1579 4.39562C27.6127 4.69932 28.506 4.42759 28.8633 3.90012C29.318 3.22879 29.0419 2.3177 28.2136 1.72629C27.97 2.10991 28.1324 2.97305 27.2229 2.46156Z" fill="black"/>
<path d="M37.7472 20.9231C37.2924 22.9371 36.8214 24.9351 36.3504 26.9811C35.6845 27.029 35.0511 27.077 34.304 27.1409C34.1903 25.1269 34.0604 23.1449 33.9467 21.1469C33.898 21.1469 33.8492 21.1469 33.8005 21.1469C33.6218 23.1449 33.4432 25.1269 33.2483 27.2368C32.5499 27.3008 31.8353 27.3647 30.9907 27.4286C31.2668 24.2958 31.5267 21.2428 31.7866 18.1579C32.9884 18.046 34.1416 17.9501 35.3759 17.8222C35.4571 19.6124 35.5383 21.3707 35.6358 23.1289C35.6845 23.1449 35.7332 23.1449 35.782 23.1609C36.0256 22.042 36.2855 20.9391 36.5128 19.8202C36.9838 17.6144 36.9838 17.6144 39.2577 17.5185C39.6312 17.5025 40.0048 17.4706 40.4758 17.4546C40.3946 18.5255 40.3296 19.5485 40.2484 20.5555C40.086 22.4256 39.9236 24.2958 39.7774 26.1659C39.7449 26.5495 39.6475 26.7413 39.2089 26.7573C38.6242 26.7733 38.0395 26.8532 37.4061 26.9012C37.5848 24.8552 37.7472 22.8892 37.9096 20.9231C37.8446 20.9231 37.7959 20.9231 37.7472 20.9231Z" fill="white"/>
<path d="M19.2158 6.95312C19.4107 6.92115 19.5243 6.88918 19.6218 6.8732C20.2552 6.82525 20.9049 6.77729 21.6357 6.71336C21.5383 7.88019 21.4408 8.98309 21.3434 10.1499C21.6845 10.1499 21.9931 10.1499 22.4153 10.1499C22.4965 9.2708 22.594 8.37569 22.6427 7.49657C22.6752 6.82525 22.8701 6.45761 23.6335 6.52155C24.1045 6.55352 24.5917 6.44163 25.1602 6.39368C25.0627 7.70437 24.9815 8.95112 24.8678 10.2139C24.7216 11.8442 24.5592 13.4746 24.4293 15.1209C24.3968 15.5525 24.2831 15.7443 23.8283 15.7603C23.2437 15.7763 22.659 15.8402 21.9606 15.8882C22.0418 14.7213 22.123 13.5705 22.2042 12.3078C21.8306 12.3397 21.5221 12.3717 21.1647 12.4196C21.051 13.6025 20.9374 14.7693 20.8237 16.0001C20.0441 16.064 19.297 16.1279 18.4199 16.2079C18.6798 13.091 18.9559 10.054 19.2158 6.95312Z" fill="white"/>
<path d="M31.9654 8.99899C31.7705 10.4695 31.6081 11.94 31.3645 13.3946C31.2021 14.4176 30.5199 15.0569 29.5129 15.2487C28.8146 15.3926 28.0675 15.4405 27.3528 15.4565C26.1834 15.4725 25.5663 14.993 25.615 13.8421C25.6962 11.8122 25.9398 9.78221 26.1997 7.76822C26.2971 7.00099 26.8656 6.44155 27.5964 6.28171C28.506 6.07392 29.448 5.94604 30.3738 5.94604C31.3482 5.96203 31.803 6.4895 31.8842 7.46453C31.9167 7.96003 31.8842 8.47152 31.8842 8.96702C31.9167 8.98301 31.9492 8.99899 31.9654 8.99899ZM29.448 8.05593C28.7821 7.84814 28.4573 8.07192 28.3923 8.67931C28.2624 10.022 28.0999 11.3646 28.0187 12.7073C28.0025 12.963 28.2948 13.2348 28.441 13.4905C28.6684 13.2507 29.0582 13.027 29.0907 12.7552C29.2693 11.4765 29.3668 10.1818 29.4805 8.8871C29.5129 8.61537 29.4642 8.32766 29.448 8.05593Z" fill="white"/>
<path d="M27.8891 26.1819C27.3369 26.2299 26.8334 26.2618 26.3137 26.2938C26.1188 26.8213 26.07 27.6045 25.6965 27.8123C25.1443 28.116 24.3484 28.0201 23.5688 28.1C23.6013 27.8123 23.6013 27.6205 23.6501 27.4287C24.3809 24.6954 25.128 21.9781 25.8264 19.2289C25.9401 18.7813 26.1025 18.6374 26.5735 18.6055C27.5318 18.5575 28.49 18.4456 29.5295 18.3497C29.8381 21.4027 30.1304 24.4237 30.4228 27.4766C29.5945 27.5565 28.8473 27.6364 28.0353 27.7164C27.9865 27.2049 27.9541 26.7094 27.8891 26.1819ZM27.613 20.8912C27.5643 20.8752 27.5318 20.8752 27.4831 20.8592C27.2232 21.9941 26.9796 23.113 26.7035 24.3597C27.142 24.2958 27.4668 24.2478 27.8079 24.1839C27.7267 23.033 27.678 21.9621 27.613 20.8912Z" fill="white"/>
<path d="M20.5638 22.8251C21.6357 22.7292 22.4803 22.6493 23.4385 22.5694C23.3898 23.1928 23.3411 23.7202 23.2924 24.2637C23.1949 25.3186 23.1462 26.3736 23 27.4285C22.9675 27.6843 22.6589 28.0519 22.4316 28.0999C21.4083 28.2917 20.3689 28.4515 19.3294 28.4835C18.3225 28.5154 17.7702 28.004 17.6241 27.0289C17.3155 24.983 17.5753 22.969 18.1438 20.987C18.4524 19.932 19.232 19.2607 20.3364 19.1328C21.4408 18.989 22.5615 18.973 23.7471 18.9091C23.6822 19.6603 23.6334 20.2038 23.5847 20.8112C22.8214 20.8591 22.0418 20.9071 21.2784 20.955C20.645 21.003 20.2877 21.3386 20.2227 21.946C20.0928 23.2088 19.9953 24.4715 19.8816 25.7342C19.8492 26.1658 19.9466 26.5334 20.5151 26.5494C21.116 26.5654 21.0023 26.1178 21.0348 25.7662C21.0673 25.4465 21.0998 25.1428 21.1322 24.8231C19.9628 24.3916 21.0348 23.5125 20.5638 22.8251Z" fill="white"/>
<path d="M46.599 26.086C46.599 25.6224 46.5828 25.3827 46.599 25.1589C46.6153 24.8712 46.6802 24.5835 46.7289 24.1999C47.3949 24.1519 48.0445 24.072 48.7104 24.056C49.4413 24.056 49.6037 23.6404 49.6524 23.033C49.7012 22.3777 49.2951 22.3138 48.7916 22.2818C47.0375 22.1379 46.8589 21.9301 46.9076 20.1719C46.9238 19.6764 46.9726 19.1649 47.0863 18.6854C47.3299 17.6304 47.9471 16.8312 49.1002 16.6714C50.1234 16.5275 51.1466 16.4956 52.2836 16.4156C52.2186 17.1829 52.1699 17.7423 52.1211 18.3497C51.439 18.3977 50.8056 18.4776 50.1722 18.4936C49.5063 18.5096 49.4088 18.9411 49.3601 19.4526C49.2951 20.028 49.6687 20.092 50.1234 20.1239C50.3833 20.1399 50.6594 20.2198 50.9193 20.2358C51.6664 20.2838 52.0887 20.7313 52.0724 21.4186C52.0724 22.3297 52.0074 23.2728 51.8126 24.1679C51.6014 25.1589 50.903 25.8143 49.8636 25.9261C48.8079 26.022 47.7197 26.022 46.599 26.086Z" fill="white"/>
<path d="M43.4967 24.3917C44.2439 24.3437 44.9422 24.2958 45.7381 24.2318C45.6894 24.8872 45.6406 25.4946 45.5757 26.2138C44.0327 26.3417 42.4898 26.4856 40.8169 26.6294C41.0768 23.5125 41.3366 20.4596 41.6127 17.3427C43.1882 17.1989 44.7311 17.071 46.3715 16.9271C46.3228 17.6144 46.274 18.2218 46.2091 18.8932C45.4457 18.9731 44.6986 19.053 43.8703 19.1489C43.8378 19.6284 43.8053 20.1239 43.7729 20.7153C44.4225 20.6674 45.0234 20.6354 45.7056 20.5875C45.6731 21.1629 45.6406 21.7063 45.5757 22.2498C45.5594 22.3617 45.397 22.4896 45.2833 22.5535C45.2021 22.6015 45.0722 22.5855 44.9747 22.6015C43.4643 22.7453 43.4643 22.7453 43.4967 24.3917Z" fill="white"/>
<path d="M47.5084 10.006C46.81 10.086 46.1928 10.1659 45.5269 10.2298C45.4944 10.7893 45.4457 11.3167 45.4132 11.8762C46.1928 11.8282 46.8912 11.7803 47.7195 11.7323C47.6708 12.3717 47.6058 12.995 47.5571 13.6983C45.9979 13.8422 44.455 13.9701 42.7983 14.1139C43.0744 10.9651 43.3343 7.92811 43.5942 4.82721C45.1858 4.69934 46.7288 4.55548 48.3854 4.42761C48.3042 5.13091 48.2555 5.72232 48.1743 6.39365C47.7195 6.4416 47.2648 6.56947 46.8262 6.5375C45.9979 6.47357 45.7056 6.82521 45.7705 7.59245C45.7868 7.76827 45.7705 7.9441 45.7705 8.15189C46.4202 8.15189 47.0049 8.15189 47.7033 8.15189C47.6383 8.77526 47.5733 9.39864 47.5084 10.006Z" fill="white"/>
<path d="M34.9699 12.7393C35.6683 12.6754 36.2854 12.6274 37.0163 12.5635C36.9513 13.2508 36.9026 13.8902 36.8376 14.6094C35.3597 14.7373 33.9142 14.8652 32.355 15.009C32.6311 11.8602 32.891 8.82322 33.1671 5.72232C33.9629 5.65838 34.6938 5.59445 35.587 5.51453C35.3759 7.92811 35.181 10.2778 34.9699 12.7393Z" fill="white"/>
<path d="M38.3646 5.27469C39.1929 5.21075 39.9237 5.14681 40.7845 5.06689C40.5734 7.51245 40.3785 9.84612 40.1836 12.2597C40.882 12.2118 41.4992 12.1638 42.23 12.1158C42.1651 12.8032 42.1163 13.4265 42.0514 14.1458C40.5896 14.2737 39.1279 14.4016 37.585 14.5454C37.8448 11.4125 38.1047 8.39157 38.3646 5.27469Z" fill="white"/>
<path d="M30.2926 2.10996C30.796 2.50956 30.861 2.46161 31.1371 1.51855C31.9167 1.88619 32.2578 2.81326 31.8842 3.51656C31.5594 4.12395 30.6824 4.44363 30.1789 4.15592C29.5942 3.82025 29.6267 3.02105 30.2926 2.10996Z" fill="white"/>
<path d="M27.223 2.46159C28.1325 2.98906 27.9701 2.10994 28.1975 1.74231C29.0258 2.31773 29.3019 3.22882 28.8471 3.90015C28.4898 4.42762 27.5965 4.68337 27.1418 4.39566C26.687 4.09196 26.7195 3.34071 27.223 2.46159Z" fill="white"/>
<path d="M29.448 8.05594C29.4642 8.32767 29.5129 8.61538 29.4805 8.88711C29.3668 10.1818 29.2693 11.4765 29.0907 12.7552C29.0582 13.027 28.6684 13.2348 28.441 13.4905C28.2948 13.2348 28.0025 12.963 28.0187 12.7073C28.0999 11.3646 28.2461 10.022 28.3923 8.67932C28.4572 8.07193 28.7821 7.84815 29.448 8.05594Z" fill="black"/>
<path d="M27.6127 20.8911C27.6776 21.962 27.7426 23.033 27.8075 24.1998C27.4665 24.2477 27.1416 24.2957 26.7031 24.3756C26.9792 23.1289 27.2391 22.01 27.4827 20.8751C27.5152 20.8751 27.5639 20.8751 27.6127 20.8911Z" fill="black"/>
</g>
<defs>
<clipPath id="clip0_17715_123502">
<rect width="71" height="32" fill="white"/>
</clipPath>
</defs>
</svg>
