<svg width="81" height="32" viewBox="0 0 81 32" fill="none" xmlns="http://www.w3.org/2000/svg">
<path d="M44.1791 4.04705C43.7776 4.00556 43.3756 3.96401 42.9736 3.91956H37.5816C37.4198 3.96025 37.2446 4.00095 37.0693 4.02808C36.3899 4.11839 35.7104 4.1978 35.0318 4.2771C33.5699 4.44794 32.1117 4.61835 30.6663 4.89629C26.8514 5.62884 23.2118 6.89046 19.9766 9.14238C18.4264 10.2276 17.0784 11.5164 16.2426 13.2528C16.1797 13.3885 16.1288 13.5241 16.0779 13.6598C16.0524 13.7276 16.027 13.7954 16 13.8633C17.5098 11.747 19.4509 10.1869 21.6886 9.02029C22.7939 8.43696 23.9398 7.9079 25.126 7.48736C33.0118 4.71994 41.0729 4.40792 49.2418 5.94086C53.1241 6.67341 56.8715 7.88077 60.1607 10.1598C62.7623 11.9641 64.7843 14.1753 64.663 17.6753C64.7978 17.2683 64.9326 16.8613 64.973 16.4408C65.1078 14.9621 64.69 13.6191 63.8812 12.3982C62.7623 10.7024 61.2256 9.4544 59.5136 8.43696C55.537 6.06295 51.1695 4.93699 46.6402 4.32653C45.8246 4.21709 45.0028 4.13217 44.1791 4.04705Z" fill="#314C90"/>
<path d="M63.046 21.1617C63.9761 20.2256 64.7445 19.1811 65.0006 17.838C63.9087 19.8322 62.2776 21.2702 60.35 22.3555C58.8941 23.183 57.3709 23.9698 55.7937 24.526C47.3147 27.4833 38.6875 27.6732 29.9794 25.6655C26.3667 24.838 22.9293 23.5085 19.9772 21.1752C18.2517 19.8051 16.9037 18.1365 16.5128 15.8574C16.4527 15.5119 16.4309 15.1553 16.409 14.7982C16.3966 14.5946 16.3841 14.3908 16.3645 14.1889H16.1893C16.1803 14.4547 16.161 14.722 16.1416 14.9898C16.1026 15.5283 16.0634 16.0691 16.1084 16.6036C16.2837 18.6249 17.4025 20.1714 18.8314 21.5144C20.4894 23.0744 22.444 24.1868 24.52 25.0686C28.9953 26.9814 33.7134 27.8225 38.5527 28.026C44.457 28.2837 50.2534 27.6325 55.8341 25.5434C58.5167 24.5395 61.0105 23.2237 63.046 21.1617Z" fill="#314C90"/>
<path fill-rule="evenodd" clip-rule="evenodd" d="M27.6332 18.557C27.3906 19.1675 27.0536 19.6966 26.2987 19.6694C25.746 19.6559 25.2607 19.1268 25.0855 18.3807C24.7215 16.9291 25.3416 15.0164 26.4739 14.1482C27.3906 13.4427 28.0646 13.5241 28.7655 14.4466C28.797 14.3742 28.827 14.3034 28.8569 14.2326C28.9168 14.0909 28.9767 13.9492 29.0486 13.7954H30.3831C30.4667 13.7954 30.5503 13.8117 30.6526 13.8317C30.6824 13.8375 30.7137 13.8436 30.7471 13.8497C30.742 13.9264 30.7427 13.9992 30.7433 14.0689C30.7444 14.1842 30.7453 14.2909 30.7201 14.3923C30.2483 16.3458 29.7765 18.2993 29.2913 20.2392C28.9947 21.433 28.3072 22.2605 27.0536 22.4911C25.9482 22.6946 24.9911 22.0977 24.9237 21.1752C24.8833 20.6869 24.9776 20.1985 25.5168 20.1171C25.773 20.0764 26.1774 20.307 26.3257 20.5376C26.5953 20.9717 26.4874 21.4601 26.056 21.7993C25.9924 21.8526 25.912 21.8808 25.8281 21.9102C25.8054 21.9182 25.7825 21.9262 25.7595 21.9349C26.2583 22.3419 26.6627 22.3148 26.9053 21.6907C27.1845 20.9834 27.395 20.2414 27.6054 19.4994C27.6896 19.2027 27.7738 18.9059 27.8624 18.6113C27.8219 18.6045 27.7849 18.5943 27.7478 18.5842C27.7107 18.574 27.6736 18.5638 27.6332 18.557ZM27.6332 18.557C27.6557 18.4892 27.6811 18.4214 27.7066 18.3535C27.7575 18.2179 27.8085 18.0822 27.8354 17.9466C27.8701 17.807 27.905 17.6674 27.94 17.5279C28.1496 16.6907 28.3592 15.8535 28.5094 15.0164C28.5373 14.8572 28.424 14.6722 28.3111 14.488C28.2605 14.4054 28.21 14.323 28.1724 14.2431C28.1207 14.3125 28.0607 14.3791 28.0009 14.4456C27.8734 14.5871 27.7465 14.7282 27.7006 14.8943C27.3906 16.0474 27.121 17.214 26.8649 18.3671C26.8287 18.5127 26.835 18.6644 26.843 18.859C26.847 18.9545 26.8514 19.0604 26.8514 19.1811L26.9264 19.1201C27.2335 18.8704 27.4334 18.7079 27.6332 18.557Z" fill="#314C90"/>
<path d="M20.6019 18.0087C20.4501 18.7335 20.3035 19.4327 19.2352 19.3031C19.99 19.6559 23.3196 19.6152 23.751 19.276C22.8343 19.3438 22.8748 18.8419 23.0096 18.2315C23.4274 16.3595 23.8454 14.4872 24.2228 12.6152C24.3711 11.8691 24.5193 11.2044 25.4495 11.1637C25.4573 11.1637 25.4606 11.1362 25.4646 11.1025C25.4675 11.0782 25.4708 11.0508 25.4764 11.028H21.0145C22.0255 11.53 22.0255 11.53 21.7829 12.6288C21.6753 13.1144 21.5666 13.5989 21.458 14.083C21.1724 15.3568 20.8873 16.6282 20.6236 17.9059L20.6019 18.0087Z" fill="#314C90"/>
<path d="M56.4671 11.1637C55.8688 11.6967 55.7629 12.3445 55.6562 12.9976C55.6162 13.2421 55.5761 13.4874 55.51 13.7276C55.874 13.7819 56.1705 13.8226 56.4671 13.8633C56.4806 13.9175 56.4941 13.9718 56.521 14.0125C56.4702 14.0338 56.4181 14.0631 56.3659 14.0925C56.2518 14.1567 56.1375 14.221 56.0357 14.2024C55.4755 14.1255 55.4084 14.4723 55.3345 14.854L55.3213 14.9214C55.2196 15.4302 55.1172 15.9397 55.0147 16.4496C54.6555 18.237 54.2954 20.029 53.9598 21.8128C53.852 22.3554 53.6363 22.5861 53.0701 22.5318C52.7093 22.4936 52.3418 22.5025 51.9865 22.5111C51.8374 22.5147 51.6903 22.5182 51.5469 22.5182C51.635 22.3065 51.7248 22.1127 51.81 21.9289C51.9594 21.6065 52.0946 21.3148 52.1804 21.0124C52.6775 19.1594 53.1556 17.2874 53.6386 15.3962C53.7319 15.0307 53.8255 14.6644 53.9194 14.2974C53.5958 14.216 53.2858 14.1346 52.9892 14.0532C52.9892 14.0193 52.9926 13.9854 52.996 13.9514C52.9994 13.9175 53.0027 13.8836 53.0027 13.8497C53.3397 13.809 53.6767 13.7683 53.9329 13.7412C54.0301 13.5563 54.1235 13.3724 54.2159 13.1905C54.4692 12.6918 54.715 12.2078 55.0113 11.7606C55.3483 11.2315 55.8605 10.8924 56.5345 10.9331C57.3029 10.9873 57.869 11.7606 57.5859 12.466C57.4916 12.7102 57.1141 13.0358 56.9659 12.9951C56.7097 12.9272 56.3997 12.6152 56.3458 12.3575C56.268 12.1324 56.3235 11.8721 56.3908 11.5562C56.4168 11.434 56.4446 11.3036 56.4671 11.1637Z" fill="#314C90"/>
<path fill-rule="evenodd" clip-rule="evenodd" d="M50.7786 19.2353C51.7626 18.557 52.2479 17.5803 52.3018 16.4543C52.2883 15.3012 51.8704 14.433 50.8999 13.9447C50.0102 13.4834 49.0936 13.592 48.2982 14.1753C47.139 15.0299 46.748 16.2237 47.0042 17.6346C47.3412 19.4524 49.2553 20.2663 50.7786 19.2353ZM50.5116 14.3635C50.5489 14.427 50.5841 14.4868 50.6168 14.528C50.5306 14.8913 50.4473 15.2469 50.3655 15.5965L50.3636 15.605L50.3633 15.6061C50.1007 16.7284 49.8525 17.7891 49.5654 18.8419C49.5199 18.9884 49.3578 19.0978 49.1951 19.2076C49.1166 19.2606 49.038 19.3136 48.9722 19.371C48.9391 19.296 48.8945 19.2184 48.8498 19.1406C48.749 18.9652 48.6477 18.7888 48.6757 18.6384C48.9588 17.2412 49.2823 15.8303 49.6462 14.4466C49.7002 14.2702 50.0237 14.0532 50.2259 14.0532C50.3292 14.0532 50.426 14.2178 50.5116 14.3635Z" fill="#314C90"/>
<path fill-rule="evenodd" clip-rule="evenodd" d="M39.0105 13.6869C40.709 13.7005 41.8143 15.3826 41.3425 17.2412C40.9112 18.9233 39.2531 20.0357 37.8242 19.588C36.3414 19.1268 35.6674 17.3632 36.3145 15.654C36.7863 14.433 37.8107 13.6734 39.0105 13.6869ZM37.7568 18.8826C37.7824 18.9193 37.8089 18.966 37.8369 19.0153C37.9125 19.1482 37.9992 19.3006 38.1073 19.3303C38.2556 19.371 38.4848 19.1946 38.633 19.059C38.7211 18.9814 38.7552 18.8406 38.7868 18.7103L38.7955 18.6747C38.7997 18.6577 38.8039 18.641 38.8083 18.6249C38.8866 18.2881 38.9668 17.9523 39.0469 17.6169C39.27 16.6825 39.4925 15.7512 39.671 14.8129C39.6988 14.6544 39.6056 14.4638 39.514 14.2764C39.4723 14.1912 39.4309 14.1066 39.4014 14.0261C39.3311 14.0843 39.2494 14.1388 39.1675 14.1933C38.9826 14.3165 38.7969 14.4401 38.7409 14.6094C38.572 15.1097 38.4619 15.6297 38.3515 16.1512C38.3033 16.379 38.255 16.6073 38.2017 16.8342C38.0839 17.4031 37.9558 17.9824 37.8175 18.6083L37.7568 18.8826Z" fill="#314C90"/>
<path d="M57.0287 14.1707C57.1882 14.2143 57.3549 14.26 57.5321 14.311C57.4884 14.4903 57.4439 14.6688 57.3995 14.8465L57.3993 14.8475C57.266 15.3814 57.1344 15.9085 57.0334 16.4272C57.0176 16.5022 57.0015 16.5774 56.9854 16.6527L56.9848 16.6556C56.8497 17.2874 56.7127 17.9276 56.7368 18.557C56.7503 18.9098 57.1142 19.3981 57.4512 19.5473C57.7613 19.6966 58.3544 19.588 58.6105 19.3574C59.2306 18.8012 59.5541 18.028 59.7159 16.997C59.5692 17.2487 59.4654 17.5033 59.3645 17.7504C59.1502 18.2755 58.9497 18.767 58.3814 19.1268C58.3904 18.9816 58.3949 18.8561 58.3989 18.7443C58.4068 18.5218 58.4129 18.3532 58.4488 18.1908C58.5633 17.6753 58.6847 17.1598 58.806 16.6443C58.9272 16.129 59.0487 15.613 59.1632 15.0978C59.1704 15.0641 59.1774 15.0304 59.1844 14.9969C59.2812 14.5295 59.3728 14.0876 60.0394 14.1889C60.0849 14.1889 60.1427 14.1147 60.2127 14.0248C60.2465 13.9815 60.283 13.9345 60.3225 13.8904C60.181 13.8565 60.0563 13.8294 59.9316 13.8022C59.8069 13.7751 59.6822 13.748 59.5406 13.7141C59.6059 13.3804 59.6694 13.0505 59.733 12.7195C59.8402 12.1622 59.948 11.6017 60.0664 11.0145C59.9065 11.0145 59.764 11.0197 59.6327 11.0246C59.3986 11.0332 59.2 11.0405 59.0014 11.0145C58.4892 10.9466 58.2196 11.123 58.1387 11.6656C58.0533 12.1625 57.9277 12.6458 57.8044 13.1205C57.7526 13.3198 57.7013 13.5175 57.6534 13.7141C57.4814 13.754 57.3224 13.7874 57.1716 13.8191C57.0151 13.852 56.8675 13.883 56.7233 13.9175C56.7296 13.9493 56.733 13.9782 56.7362 14.0054C56.7398 14.0363 56.7431 14.0651 56.7503 14.0939C56.8409 14.1192 56.9336 14.1446 57.0287 14.1707Z" fill="#314C90"/>
<path d="M45.7504 14.2974C45.7344 14.278 45.7206 14.2608 45.7084 14.2457C45.6694 14.1973 45.6464 14.1688 45.6156 14.1482C44.8742 13.8497 44.2676 13.9311 44.025 14.3652C43.7554 14.84 44.0115 15.3826 44.726 15.8574C44.7971 15.9064 44.8692 15.9543 44.9415 16.0023C45.1297 16.1273 45.319 16.2531 45.4943 16.4001C46.4649 17.214 46.3975 18.5299 45.346 19.2624C44.4698 19.8729 43.1218 19.8186 42.3535 19.0725C42.1108 18.8419 41.9491 18.4756 41.8682 18.1501C41.7738 17.7295 41.8951 17.2411 42.4074 17.2547C42.7309 17.2683 43.1758 17.5396 43.324 17.8245C43.5262 18.2179 43.3914 18.6656 42.8792 18.8555C42.8131 18.8776 42.7561 18.8907 42.642 18.917L42.5557 18.9369C43.041 19.371 43.5397 19.4524 44.052 19.3303C44.7125 19.1811 44.9147 18.4078 44.389 17.8923C44.1302 17.6423 43.8238 17.4483 43.5185 17.255C43.4262 17.1966 43.3339 17.1382 43.2432 17.0784C42.5826 16.6578 42.1647 16.1152 42.313 15.2877C42.4613 14.433 43.014 13.9582 43.8228 13.7412C44.8203 13.4699 45.9122 13.7954 46.384 14.4873C46.6941 14.9621 46.6536 15.6268 46.2492 15.8167C45.8178 16.0202 45.4539 15.8439 45.2112 15.464C44.9147 15.0164 45.1304 14.5687 45.7504 14.2974Z" fill="#314C90"/>
<path d="M33.909 15.8001C34.0243 15.3992 34.1397 14.9983 34.252 14.5958C34.3194 14.6094 34.3868 14.623 34.4542 14.623C34.4677 15.5726 34.7642 16.1152 35.2765 16.1016C35.7752 16.0881 36.1527 15.4233 35.9909 14.6365C35.91 14.2974 35.6135 13.8226 35.3304 13.7547C35.0608 13.6869 34.616 13.9989 34.3733 14.2567C34.1949 14.4542 34.0814 14.7112 33.9469 15.0158C33.8781 15.1714 33.8039 15.3394 33.7128 15.5183V14.8807C33.6858 14.3381 33.4971 13.8904 32.9444 13.7276C32.3917 13.5648 31.9604 13.8497 31.7043 14.3109C31.5066 14.6727 31.3448 15.0586 31.183 15.4444C31.1022 15.6374 31.0213 15.8303 30.9359 16.0202C30.9561 16.027 30.9797 16.0372 31.0033 16.0474C31.0269 16.0575 31.0505 16.0677 31.0707 16.0745C31.2055 15.7828 31.3437 15.4877 31.4819 15.1926C31.62 14.8976 31.7582 14.6026 31.893 14.3109C31.9739 14.3516 32.0682 14.3788 32.1626 14.4059C32.0756 15.3249 31.8484 16.2203 31.6212 17.1155C31.4259 17.8852 31.2306 18.6548 31.1246 19.4388C32.7153 19.7915 32.8501 19.6966 33.241 18.2179C33.4477 17.4039 33.6783 16.602 33.909 15.8001Z" fill="#314C90"/>
</svg>
