<svg width="147" height="40" viewBox="0 0 147 40" fill="none" xmlns="http://www.w3.org/2000/svg">
<path fill-rule="evenodd" clip-rule="evenodd" d="M47.3701 10H46.0022L45.9668 10.0096C45.9209 10.0222 45.8735 10.0352 45.8287 10.0412C45.6773 10.0621 45.5258 10.0803 45.3746 10.0983C45.0667 10.1352 44.7599 10.1719 44.4568 10.2321C39.8971 11.1308 36.2615 14.8451 36.0153 19.5517C35.9265 21.1879 36.2695 22.7456 37.012 24.232C39.0578 28.3283 43.9161 30.6947 48.617 29.8185C52.3616 29.1221 54.9804 27.0777 56.542 23.8539C56.5793 23.7772 56.6131 23.6973 56.6492 23.6119C56.6677 23.568 56.6869 23.5227 56.7074 23.4757C57.7525 24.2695 58.9187 24.6701 60.2583 24.5653C61.6061 24.4604 62.7117 23.9138 63.5792 22.9627C65.0238 21.3789 65.0763 18.9863 63.7043 17.3388C63.0183 16.5188 62.1427 15.9497 61.0532 15.7063C59.4715 15.3543 58.039 15.6801 56.7599 16.6386C56.7447 16.6051 56.7303 16.5765 56.7173 16.5506C56.7028 16.5217 56.6898 16.4958 56.6792 16.4701C56.0053 14.8226 54.94 13.426 53.4793 12.299C51.9621 11.1233 50.223 10.3894 48.2619 10.1161C47.9675 10.0749 47.6686 10.0374 47.3701 10ZM39.7962 19.5592C39.7922 18.9339 39.9213 18.3348 40.2199 17.7619C39.5581 17.2527 39.538 16.545 39.8204 16.062C40.2764 15.2944 41.3901 15.1784 42.0397 15.8411C42.1366 15.9422 42.2012 15.9459 42.3262 15.8973C43.9968 15.2607 45.514 15.4966 46.8859 16.5787C46.9384 16.6236 46.9949 16.6686 47.0231 16.691C47.1447 16.6138 47.2616 16.5339 47.3771 16.4549C47.603 16.3006 47.824 16.1496 48.0642 16.0283C50.6265 14.7403 53.7618 16.1706 54.246 18.8403C54.2904 19.0949 54.3186 19.357 54.3186 19.6191C54.3217 20.5548 54.3179 21.4925 54.3141 22.4293L54.314 22.4363C54.3128 22.7455 54.3116 23.0545 54.3106 23.3634C54.3106 23.7565 54.1814 24.101 53.8344 24.3481C53.4591 24.6177 53.0355 24.6701 52.6037 24.4867C52.1598 24.2957 51.9258 23.955 51.8854 23.5019C51.8828 23.4645 51.8837 23.427 51.8845 23.3896C51.885 23.3709 51.8854 23.3521 51.8854 23.3334C51.8834 22.6913 51.8824 22.0482 51.8814 21.4051C51.8804 20.762 51.8794 20.1189 51.8774 19.4768C51.8733 18.6531 51.1349 17.8967 50.2795 17.8368C49.2949 17.7657 48.4516 18.346 48.3184 19.2184C48.2682 19.528 48.269 19.8464 48.2698 20.1632L48.27 20.2818C48.2654 20.8873 48.266 21.4941 48.2667 22.1007C48.2672 22.5554 48.2677 23.0105 48.2659 23.4645C48.2619 24.0149 47.8059 24.5054 47.241 24.5728C46.6115 24.6514 46.0466 24.3144 45.8893 23.7528C45.8529 23.6217 45.8408 23.4794 45.8408 23.3446C45.8388 22.9178 45.8388 22.49 45.8388 22.0622C45.8388 21.6344 45.8388 21.2067 45.8368 20.7798C45.8368 20.3306 45.8287 19.8815 45.8207 19.4323C45.8045 18.601 45.0338 17.8742 44.1663 17.8331C43.0526 17.7769 42.2899 18.5931 42.2536 19.357L42.2531 19.368C42.2371 19.69 42.2213 20.0084 42.2213 20.3305C42.2177 20.8105 42.2182 21.2896 42.2187 21.7687C42.2193 22.3436 42.2199 22.9185 42.2133 23.4944C42.2092 24.1085 41.6604 24.599 41.0108 24.5952C40.3571 24.5915 39.8164 24.101 39.8124 23.4907C39.8063 22.6958 39.8071 21.8989 39.8078 21.103C39.8081 20.8378 39.8083 20.5728 39.8083 20.308C39.8083 20.1826 39.8053 20.0581 39.8023 19.9336C39.7992 19.8091 39.7962 19.6846 39.7962 19.5592ZM62.3122 19.9935C62.3404 21.3152 61.2631 22.3299 59.8831 22.3299C58.7815 22.3636 57.4499 21.5661 57.466 20.0047C57.4741 18.6905 58.6604 17.8031 59.8911 17.8031C61.142 17.8031 62.284 18.7242 62.3122 19.9935Z" fill="#2CCBFC"/>
<path d="M109.976 22.1847L109.994 22.1316C109.994 21.9072 109.994 21.682 110.002 21.4576C109.999 21.4505 109.997 21.4435 109.994 21.4366L109.99 21.4248L109.983 21.4073C109.97 21.3769 109.958 21.3469 109.953 21.3153C109.751 20.1471 108.581 19.1623 107.31 19.1137C106.887 19.0992 106.463 19.0987 106.039 19.0982C105.803 19.0979 105.568 19.0976 105.333 19.0949L105.276 19.0943L105.135 19.0932C104.904 19.0916 104.675 19.09 104.445 19.0725C104.203 19.0575 104.042 18.9152 103.973 18.698C103.86 18.3274 104.122 17.9979 104.542 17.9979C105.204 17.9936 105.864 17.9942 106.525 17.9948C107.02 17.9953 107.516 17.9957 108.012 17.9941C108.662 17.9941 109.114 17.6758 109.32 17.103C109.586 16.3541 108.936 15.4442 108.053 15.4705C107.291 15.4929 106.528 15.4888 105.765 15.4846C105.384 15.4825 105.003 15.4804 104.623 15.4817C104.417 15.4854 104.207 15.5004 104.005 15.5416C102.593 15.8262 101.617 16.927 101.564 18.2712C101.5 19.8176 102.859 21.2779 104.635 21.2329C105.206 21.2213 105.774 21.2255 106.344 21.2297C106.507 21.2309 106.67 21.2321 106.834 21.2329C106.939 21.2329 107.052 21.2404 107.153 21.2629C107.492 21.3415 107.665 21.656 107.548 21.9631C107.455 22.2027 107.242 22.3263 106.911 22.3263C106.446 22.3263 105.982 22.3258 105.519 22.3254L105.511 22.3254C104.579 22.3246 103.647 22.3238 102.714 22.3263C101.988 22.3263 101.459 22.9029 101.568 23.5731C101.649 24.0973 102.145 24.4717 102.771 24.4755C103.957 24.4792 105.139 24.4792 106.322 24.4755C106.685 24.4755 107.048 24.4755 107.407 24.4418C108.622 24.3294 109.626 23.502 109.913 22.3936C109.929 22.3251 109.953 22.2542 109.976 22.1847Z" fill="#2CCBFC"/>
<path fill-rule="evenodd" clip-rule="evenodd" d="M66.265 22.3224C66.2065 22.1643 66.1452 22.0098 66.0846 21.8572C65.953 21.5258 65.8248 21.203 65.7364 20.8697C65.6516 20.5478 65.6478 20.1987 65.6441 19.8614L65.6436 19.8138C65.6315 18.4284 65.6275 17.043 65.6234 15.6576C65.6194 14.9013 65.6194 14.1487 65.6234 13.3923C65.6234 12.7745 66.1157 12.2765 66.8178 12.1829C67.4191 12.1005 68.105 12.5087 68.2705 13.0553C68.3028 13.1676 68.3068 13.2875 68.3068 13.4073C68.3068 14.2385 68.3068 15.066 68.3028 15.8972V16.1331C69.6586 15.4442 71.0426 15.3955 72.4468 15.8972C73.4193 16.2455 74.1658 16.8595 74.7146 17.6795C75.8323 19.3457 75.6507 21.5062 74.3111 22.9777C73.044 24.3706 70.5866 25.2168 68.1777 24.0074C67.8266 24.5765 67.298 24.8386 66.5959 24.6813C66.035 24.5578 65.6799 24.2021 65.5912 23.6741C65.4943 23.0863 65.7162 22.607 66.265 22.3224ZM70.6028 22.3299C71.7326 22.3599 73.0238 21.5286 73.0279 20.0085C73.0279 18.8028 71.9263 17.8218 70.6189 17.8068C69.3236 17.7956 68.2019 18.7541 68.1817 19.9748C68.1575 21.3265 69.2147 22.3299 70.6028 22.3299Z" fill="#2CCBFC"/>
<path fill-rule="evenodd" clip-rule="evenodd" d="M93.5343 20.1807C93.5504 17.5185 91.2746 15.5565 88.7083 15.5752C86.1258 15.5602 83.858 17.5484 83.8903 20.2069C83.9186 22.5807 86.1137 24.5914 88.7163 24.5914C91.323 24.5877 93.5222 22.562 93.5343 20.1807ZM88.8898 17.8105C90.1165 17.8667 91.1737 18.9188 91.1293 20.0683C91.1414 21.3676 89.9672 22.4197 88.5307 22.3299C87.4089 22.2587 86.1903 21.3788 86.2952 19.8661C86.3759 18.7204 87.4533 17.7431 88.8898 17.8105Z" fill="#2CCBFC"/>
<path d="M98.4654 15.4791C98.8411 15.4806 99.2029 15.4821 99.5668 15.4741C100.148 15.4591 100.543 15.7175 100.781 16.1818C101.032 16.6648 100.951 17.1291 100.6 17.5484C100.342 17.8555 99.9986 17.994 99.5789 17.9903C99.2366 17.9878 98.8943 17.9886 98.5438 17.9894C98.3654 17.9898 98.1849 17.9903 98.0012 17.9903C97.9996 18.0203 97.9975 18.0482 97.9955 18.0749C97.9922 18.118 97.9891 18.1585 97.9891 18.1999C97.9891 19.1983 97.9931 20.193 97.9971 21.1914L97.9972 21.1954C98.0012 21.8731 98.4814 22.3224 99.2077 22.3262C99.2673 22.3262 99.3269 22.3251 99.3863 22.324C99.5765 22.3206 99.7658 22.3173 99.9501 22.3486C100.547 22.446 100.951 22.9028 100.931 23.4195C100.911 23.9662 100.495 24.4117 99.8694 24.4641C99.1512 24.5241 98.4329 24.5053 97.751 24.2283C96.6252 23.7752 95.9554 22.9664 95.7657 21.8581C95.6941 21.4291 95.6975 20.9899 95.7009 20.5511C95.7021 20.3962 95.7033 20.2414 95.7012 20.0871C95.6947 19.5683 95.6986 19.0472 95.7025 18.5275L95.7052 18.14C95.7052 18.0277 95.6527 17.9903 95.5317 17.9903C95.4142 17.9919 95.2959 17.9914 95.1775 17.991C95.0196 17.9903 94.8613 17.9897 94.7045 17.994C93.8369 18.009 93.2478 17.1927 93.4294 16.4551C93.5504 15.9684 94.0064 15.4329 94.765 15.4778C94.9034 15.4863 95.043 15.484 95.1831 15.4818C95.2924 15.4801 95.4019 15.4783 95.5115 15.4816C95.6527 15.4853 95.7012 15.4404 95.6971 15.3094C95.6931 14.9611 95.6891 14.6092 95.7092 14.261C95.7375 13.8304 96.1127 13.4372 96.5566 13.3399C97.287 13.1789 97.9689 13.6806 97.981 14.392C98.0003 14.6759 97.9991 14.9598 97.9978 15.2532L97.9978 15.2582C97.9976 15.301 97.9974 15.344 97.9973 15.3872C97.9972 15.4173 97.9972 15.4475 97.9972 15.4778C98.1562 15.4778 98.3121 15.4785 98.4654 15.4791Z" fill="#2CCBFC"/>
<path d="M82.9588 19.8446C82.9606 19.3586 82.9623 18.8727 82.9623 18.3872C82.9583 16.7267 82.9583 15.07 82.9583 13.4133V13.4073C82.9583 13.2875 82.9542 13.1564 82.9179 13.0404C82.7444 12.5012 82.0625 12.1043 81.4693 12.1867C80.7672 12.284 80.2749 12.7745 80.2749 13.3961C80.2709 15.7175 80.2709 18.0352 80.2709 20.3567C80.2709 20.662 80.2724 20.9673 80.274 21.2726C80.2774 21.9596 80.2808 22.6465 80.2669 23.3334C80.2507 24.1047 80.9811 24.5877 81.6267 24.5877C82.2804 24.5877 82.9825 24.0748 82.9704 23.3446C82.9504 22.1789 82.9546 21.0114 82.9588 19.8446Z" fill="#2CCBFC"/>
<path d="M78.7174 20.0721C78.7174 20.4038 78.718 20.7354 78.7187 21.0671C78.7203 21.8962 78.722 22.7252 78.7133 23.5543C78.7053 24.1347 78.1686 24.599 77.5633 24.5915C76.954 24.584 76.4335 24.1122 76.4335 23.5356C76.4311 22.603 76.433 21.6704 76.435 20.7385C76.4362 20.1182 76.4375 19.4971 76.4375 18.8777C76.4375 18.6614 76.4369 18.4454 76.4362 18.2296C76.4346 17.6907 76.4329 17.1523 76.4416 16.6124C76.4537 15.8935 77.2446 15.3955 77.9628 15.6389C78.3905 15.7849 78.7093 16.1855 78.7093 16.6161C78.712 17.3438 78.7111 18.0697 78.7102 18.7962V18.7996C78.7098 19.1636 78.7093 19.5278 78.7093 19.8924V20.0796C78.7133 20.0721 78.7133 20.0721 78.7174 20.0721Z" fill="#2CCBFC"/>
<path d="M79.0363 13.7069C79.0323 13.0067 78.4391 12.4675 77.6845 12.4713C76.9219 12.475 76.3449 13.0217 76.3489 13.7443C76.353 14.4445 76.9421 14.9874 77.6926 14.9874C78.4593 14.9874 79.0403 14.4333 79.0363 13.7069Z" fill="#2CCBFC"/>
</svg>
