<svg width="97" height="32" viewBox="0 0 97 32" fill="none" xmlns="http://www.w3.org/2000/svg">
<path d="M31.4607 13.42C31.0307 13.85 30.6008 14.2938 30.1708 14.7238C29.1721 15.7363 28.1873 16.735 27.1887 17.7475C26.8697 18.0804 26.5368 18.4133 26.2178 18.7323C26.19 18.76 26.1762 18.8432 26.1068 18.7739C26.1207 18.7184 26.1346 18.6768 26.1346 18.6213C26.1346 18.011 26.1346 17.4007 26.1346 16.8043C26.1623 16.7766 26.2039 16.7489 26.2316 16.7211C26.8974 16.0553 27.5771 15.3757 28.2428 14.7099C28.6728 14.28 29.1166 13.8361 29.5466 13.4061C29.7547 13.4061 29.9627 13.4061 30.1708 13.4061C30.6008 13.4061 31.0307 13.4061 31.4746 13.4061C31.4746 13.3923 31.4746 13.4061 31.4607 13.42Z" fill="#27B475"/>
<path d="M31.4746 13.3926C31.0446 13.3926 30.6146 13.3926 30.1708 13.3926C29.9627 13.3926 29.7547 13.3926 29.5466 13.3926C29.5327 13.3787 29.5327 13.3648 29.5189 13.3648C28.4231 12.2691 27.3274 11.1733 26.2178 10.0637C26.19 10.036 26.1623 10.0082 26.1346 9.98051C26.1346 9.31474 26.1346 8.66284 26.1346 7.99707C26.1762 8.02481 26.2316 8.06642 26.2733 8.09416C27.1887 9.00959 28.0902 9.92503 28.9918 10.8543C29.7824 11.6588 30.573 12.4633 31.3636 13.2677C31.4191 13.3094 31.4468 13.351 31.4746 13.3926Z" fill="#73C05D"/>
<path d="M26.1346 8.01074C26.1346 8.67651 26.1346 9.32841 26.1346 9.99418C26.1068 10.0219 26.093 10.0497 26.0652 10.0635C24.9556 11.1731 23.846 12.2828 22.7364 13.3924C22.0983 13.3924 21.4603 13.3924 20.8084 13.3924C20.9749 13.2121 21.1552 13.0318 21.3216 12.8514C22.3757 11.7834 23.4299 10.7154 24.4979 9.64742C25.0111 9.13423 25.5104 8.62103 26.0236 8.10783C26.0652 8.06622 26.1068 8.03848 26.1346 8.01074Z" fill="#34B678"/>
<path d="M20.8084 13.3926C21.4464 13.3926 22.0845 13.3926 22.7364 13.3926C22.7502 13.4064 22.7502 13.4203 22.7641 13.4203C23.8876 14.5438 25.0111 15.6673 26.1346 16.7908C26.1346 17.4011 26.1346 18.0114 26.1346 18.6078C26.1346 18.6632 26.1207 18.7049 26.1068 18.7603C25.3994 18.0391 24.6782 17.3178 23.9708 16.5966C23.1386 15.7644 22.3203 14.9183 21.488 14.0861C21.28 13.878 21.0719 13.67 20.8639 13.4481C20.85 13.4481 20.8362 13.4203 20.8084 13.3926Z" fill="#01926A"/>
<path d="M16.7306 19.7866C16.7445 19.7589 16.7583 19.7312 16.7722 19.7034C17.5212 18.9406 18.2702 18.1916 19.0192 17.4426C19.574 16.8739 20.1288 16.3191 20.6836 15.7504C20.7252 15.7088 20.7668 15.6811 20.8084 15.6533C20.8084 16.1249 20.8084 16.5826 20.8084 17.0542C20.7807 17.082 20.7391 17.1097 20.7113 17.1374C20.1288 17.72 19.5324 18.3164 18.9498 18.8989C18.6585 19.1902 18.3673 19.4815 18.076 19.7866C17.6322 19.7866 17.1744 19.7866 16.7306 19.7866Z" fill="#35B678"/>
<path d="M31.3221 15.6674C31.3914 15.6119 31.4053 15.6813 31.433 15.709C31.7104 15.9725 31.974 16.2499 32.2514 16.5274C33.2777 17.5676 34.318 18.6079 35.3444 19.662C35.386 19.7036 35.3999 19.7452 35.4415 19.7868C34.9977 19.7868 34.5399 19.7868 34.0961 19.7868C34.0822 19.773 34.0683 19.7452 34.0545 19.7314C33.1807 18.8575 32.3068 17.9837 31.433 17.1099C31.4191 17.096 31.3914 17.0683 31.3637 17.0544C31.3637 16.6522 31.3637 16.2361 31.3637 15.8338C31.3498 15.7784 31.3359 15.7229 31.3221 15.6674Z" fill="#73C05D"/>
<path d="M31.3775 23.8782C31.322 23.9337 31.2943 23.8644 31.2804 23.8505C31.0307 23.6008 30.795 23.365 30.5453 23.1154C29.6021 22.1583 28.6451 21.2013 27.7019 20.2442C27.5632 20.1055 27.4245 19.9668 27.2858 19.8281C27.2719 19.8143 27.2858 19.7865 27.2858 19.7588C27.3413 19.7727 27.3968 19.7865 27.4522 19.7865C27.8406 19.7865 28.229 19.7865 28.6173 19.7865C28.6589 19.8143 28.6867 19.8559 28.7283 19.8836C29.5605 20.7158 30.3927 21.548 31.2388 22.3803C31.2804 22.4219 31.3359 22.4496 31.3775 22.4773C31.3775 22.9489 31.3775 23.4205 31.3775 23.8782Z" fill="#02926A"/>
<path d="M26.2178 23.9892C26.1762 23.9892 26.1346 24.0031 26.1068 24.0031C25.1498 24.0031 24.1927 24.0031 23.2357 24.0031C23.2218 24.0031 23.2079 24.0031 23.1802 24.0031C23.1941 23.9754 23.2079 23.9476 23.2357 23.9337C24.1927 22.9628 25.1359 22.0058 26.0929 21.0488C26.1346 21.0071 26.19 20.9794 26.2316 20.9517C26.2316 21.9642 26.2178 22.9767 26.2178 23.9892Z" fill="#35B778"/>
<path d="M16.7306 19.7866C17.1744 19.7866 17.6322 19.7866 18.076 19.7866C18.9498 20.6604 19.8375 21.5481 20.7113 22.422C20.7391 22.4497 20.7807 22.4774 20.8084 22.5052C20.8084 22.9629 20.8084 23.4345 20.8084 23.8922C20.7668 23.8645 20.7391 23.8506 20.7113 23.8228C19.3937 22.4913 18.0899 21.1736 16.7722 19.8421C16.7445 19.8282 16.7445 19.8005 16.7306 19.7866Z" fill="#01926A"/>
<path d="M20.8084 23.8922C20.8084 23.4345 20.8084 22.9629 20.8084 22.5052C21.0303 22.2833 21.2384 22.0752 21.4603 21.8533C22.1538 21.1598 22.8473 20.4663 23.5408 19.7866C23.9847 19.7866 24.4424 19.7866 24.8862 19.7866C24.7753 19.8976 24.6782 20.0224 24.5672 20.1334C23.6795 21.0349 22.7918 21.9226 21.9042 22.8242C21.5851 23.1571 21.2523 23.49 20.9332 23.809C20.8916 23.8367 20.85 23.8645 20.8084 23.8922Z" fill="#27B475"/>
<path d="M26.2178 23.9894C26.2178 22.9769 26.2178 21.9505 26.2178 20.938C26.4397 21.1599 26.6755 21.3818 26.8974 21.6038C27.6603 22.3666 28.4093 23.1433 29.1722 23.9062C29.1999 23.9339 29.2138 23.9617 29.2554 23.9894C29.2138 23.9894 29.186 24.0033 29.1583 24.0033C28.2151 24.0033 27.2719 24.0033 26.3288 24.0033C26.301 24.0033 26.2594 24.0033 26.2178 23.9894Z" fill="#75C160"/>
<path d="M24.8724 19.773C24.4285 19.773 23.9708 19.773 23.527 19.773C23.4992 19.7452 23.4854 19.7175 23.4576 19.6897C22.5699 18.8021 21.6822 17.9282 20.8084 17.0405C20.8084 16.569 20.8084 16.1112 20.8084 15.6396C21.1968 16.028 21.5851 16.4164 21.9596 16.7909C22.8889 17.734 23.8321 18.6772 24.7614 19.6204C24.803 19.6897 24.8446 19.7314 24.8724 19.773Z" fill="#73C15D"/>
<path d="M28.6312 19.7867C28.2429 19.7867 27.8545 19.7867 27.4661 19.7867C27.4106 19.7867 27.3552 19.7729 27.2997 19.759C27.5355 19.5093 27.7851 19.2597 28.0209 19.0239C29.1167 17.9143 30.2263 16.7908 31.3359 15.6812C31.3498 15.7366 31.3636 15.7782 31.3636 15.8337C31.3636 16.236 31.3636 16.6521 31.3636 17.0543C30.7811 17.6368 30.1986 18.2055 29.6299 18.7881C29.2831 19.121 28.9502 19.4538 28.6312 19.7867Z" fill="#34B778"/>
<path d="M31.3775 23.8783C31.3775 23.4206 31.3775 22.949 31.3775 22.4913C32.2791 21.5897 33.1806 20.6882 34.0822 19.7866C34.526 19.7866 34.9838 19.7866 35.4276 19.7866C35.2473 19.9808 35.067 20.1611 34.8867 20.3553C33.7493 21.5065 32.612 22.6577 31.4607 23.809C31.4469 23.8228 31.4052 23.8506 31.3775 23.8783Z" fill="#28B575"/>
<path d="M31.4608 13.4203C31.4608 13.4064 31.4608 13.3926 31.4608 13.3926C31.4746 13.3926 31.4746 13.4064 31.4608 13.4203Z" fill="#73C05D"/>
<path d="M26.1346 16.8047C25.0111 15.6812 23.8876 14.5577 22.7641 13.4342C22.7503 13.4204 22.7503 13.4065 22.7364 13.4065C23.846 12.2969 24.9556 11.1873 26.0652 10.0777C26.093 10.0499 26.1068 10.0222 26.1346 10.0083C26.1623 10.036 26.1901 10.0638 26.2178 10.0915C27.3136 11.1873 28.4093 12.283 29.5189 13.3926C29.5328 13.4065 29.5328 13.4204 29.5467 13.4204C29.1167 13.8503 28.6867 14.2942 28.2429 14.7242C27.5771 15.3899 26.8974 16.0696 26.2317 16.7353C26.2039 16.7492 26.1762 16.777 26.1346 16.8047ZM26.1346 15.7644C26.1623 15.7367 26.2039 15.7228 26.2317 15.6951C26.9668 14.96 27.7158 14.211 28.4509 13.4758C28.4786 13.4481 28.4925 13.4204 28.5203 13.3926C28.4925 13.3649 28.4786 13.3233 28.4509 13.2955C27.7158 12.5604 26.9807 11.8253 26.2455 11.0902C26.2178 11.0624 26.1762 11.0486 26.1485 11.0208C26.1346 11.0347 26.1068 11.0486 26.093 11.0624C25.344 11.8114 24.595 12.5604 23.846 13.3094C23.8183 13.3371 23.8044 13.3649 23.7905 13.3926C23.8044 13.4204 23.8183 13.4342 23.846 13.462C24.595 14.211 25.344 14.96 26.093 15.7089C26.093 15.7367 26.1207 15.7506 26.1346 15.7644Z" fill="#010202"/>
<path d="M20.8084 17.0542C21.6961 17.9419 22.5838 18.8157 23.4576 19.7034C23.4853 19.7311 23.4992 19.7589 23.527 19.7866C22.8334 20.4801 22.1399 21.1736 21.4464 21.8533C21.2245 22.0752 21.0165 22.2833 20.7945 22.5052C20.7668 22.4774 20.7252 22.4497 20.6974 22.422C19.8236 21.5481 18.9359 20.6604 18.0621 19.7866C18.3534 19.4954 18.6447 19.2041 18.9359 18.8989C19.5185 18.3164 20.1149 17.72 20.6974 17.1374C20.739 17.1097 20.7807 17.0819 20.8084 17.0542ZM22.5006 19.7866C22.4867 19.7728 22.4867 19.745 22.4728 19.745C21.9458 19.2179 21.4048 18.677 20.8778 18.1499C20.8639 18.1361 20.8361 18.1222 20.8223 18.1083C20.7945 18.1222 20.7668 18.1222 20.7529 18.1499C20.212 18.6909 19.671 19.2318 19.144 19.7728C19.0885 19.8421 19.1717 19.8698 19.1995 19.8976C19.6988 20.3969 20.1981 20.9101 20.7113 21.4094C20.7391 21.4372 20.7807 21.4649 20.8084 21.4927C20.85 21.4788 20.8916 21.4649 20.9194 21.4372C21.4326 20.924 21.9458 20.4108 22.4728 19.8837C22.459 19.8421 22.4728 19.8144 22.5006 19.7866Z" fill="#010202"/>
<path d="M34.0822 19.7869C33.1806 20.6885 32.2791 21.59 31.3775 22.4916C31.3359 22.4639 31.2804 22.4223 31.2388 22.3945C30.4066 21.5623 29.5744 20.7301 28.7283 19.8979C28.7006 19.8701 28.659 19.8285 28.6173 19.8008C28.9502 19.4679 29.2692 19.135 29.6021 18.8021C30.1847 18.2196 30.7533 17.6509 31.3359 17.0684C31.3636 17.0822 31.3775 17.0961 31.4052 17.1238C32.2791 17.9977 33.1529 18.8715 34.0267 19.7453C34.0545 19.7453 34.0683 19.7592 34.0822 19.7869ZM31.3498 18.0948C31.3359 18.1086 31.3082 18.1225 31.2943 18.1364C30.7672 18.6634 30.2402 19.1905 29.7131 19.7176C29.6992 19.7314 29.6853 19.7592 29.6576 19.7869C29.6715 19.8147 29.6853 19.8424 29.7131 19.8563C30.2263 20.3695 30.7533 20.8965 31.2665 21.4097C31.2943 21.4375 31.3082 21.4652 31.3359 21.4652C31.3498 21.4652 31.3775 21.4513 31.4052 21.4375C31.9462 20.8965 32.4871 20.3556 33.0419 19.8147C33.0558 19.8008 33.0558 19.7869 33.0558 19.773C33.0419 19.7592 33.0419 19.7314 33.0281 19.7314C32.501 19.2044 31.9601 18.6773 31.433 18.1364C31.4052 18.1225 31.3775 18.1086 31.3498 18.0948Z" fill="#010202"/>
<path d="M26.1346 11.0205C26.1762 11.0482 26.2039 11.0621 26.2316 11.0899C26.9668 11.825 27.7019 12.5601 28.437 13.2952C28.4647 13.323 28.4786 13.3646 28.5064 13.3923C28.1457 13.3923 27.799 13.3923 27.4384 13.3923C27.4245 13.3784 27.4106 13.3784 27.3967 13.3646C27.05 13.2259 26.7587 13.0039 26.5368 12.7127C26.3842 12.5185 26.2594 12.2966 26.1346 12.0885C26.1346 11.7418 26.1346 11.3811 26.1346 11.0205Z" fill="#72BF5C"/>
<path d="M26.1346 15.7642C26.1207 15.7503 26.093 15.7364 26.0791 15.7226C25.3301 14.9736 24.5811 14.2246 23.8321 13.4756C23.8183 13.4617 23.7905 13.434 23.7766 13.4062C24.1234 13.4062 24.484 13.4062 24.8308 13.4062C24.9001 13.4479 24.9833 13.4756 25.0527 13.5172C25.5659 13.7807 25.8849 14.2107 26.1346 14.71C26.1346 15.0568 26.1346 15.4036 26.1346 15.7642Z" fill="#019169"/>
<path d="M24.8308 13.3923C24.484 13.3923 24.1234 13.3923 23.7766 13.3923C23.7905 13.3646 23.8183 13.3368 23.8321 13.3091C24.5811 12.5601 25.3301 11.8111 26.0791 11.0621C26.093 11.0482 26.1207 11.0344 26.1346 11.0205C26.1346 11.3811 26.1346 11.7279 26.1346 12.0885C26.0514 12.2411 25.982 12.3937 25.8849 12.5324C25.6214 12.9346 25.2608 13.1981 24.8308 13.3923Z" fill="#34B778"/>
<path d="M26.1346 15.7642C26.1346 15.4174 26.1346 15.0568 26.1346 14.71C26.1484 14.6962 26.1623 14.6823 26.1623 14.6684C26.4397 14.0998 26.8281 13.6559 27.4384 13.4062C27.799 13.4062 28.1457 13.4062 28.5064 13.4062C28.4786 13.434 28.4647 13.4617 28.437 13.4895C27.7019 14.2246 26.9529 14.9736 26.2178 15.7087C26.2039 15.7226 26.1762 15.7364 26.1346 15.7642Z" fill="#28B575"/>
<path d="M20.7807 21.465C20.7529 21.4373 20.7113 21.4095 20.6836 21.3818C20.1843 20.8825 19.6711 20.3831 19.1717 19.8699C19.144 19.8422 19.0608 19.8283 19.1163 19.7451C19.1579 19.759 19.1995 19.7729 19.255 19.7729C19.4353 19.7729 19.6295 19.7729 19.8098 19.7729C20.1149 19.8977 20.3646 20.0919 20.5588 20.3554C20.6558 20.4802 20.7252 20.6328 20.8223 20.7576C20.8223 20.9241 20.8223 21.0767 20.8223 21.2431C20.8084 21.3263 20.7946 21.3957 20.7807 21.465Z" fill="#019169"/>
<path d="M19.8098 19.7864C19.6295 19.7864 19.4353 19.7864 19.255 19.7864C19.2134 19.7864 19.1718 19.7725 19.1163 19.7587C19.6572 19.2177 20.1981 18.6768 20.7252 18.1358C20.7391 18.122 20.7807 18.1081 20.7946 18.0942C20.7946 18.3162 20.7946 18.552 20.7946 18.7739C20.7807 18.8016 20.753 18.8155 20.753 18.8432C20.5588 19.2455 20.2536 19.5506 19.8514 19.7448C19.8514 19.7587 19.8237 19.7725 19.8098 19.7864Z" fill="#34B678"/>
<path d="M20.7807 21.4649C20.7946 21.3956 20.8084 21.3262 20.8084 21.2569C20.8084 21.0904 20.8084 20.9378 20.8084 20.7714C20.8223 20.7437 20.8223 20.7298 20.8362 20.7021C21.0581 20.2998 21.3355 19.9392 21.7932 19.7866C22.029 19.7866 22.2648 19.7866 22.5006 19.7866C22.4867 19.8144 22.459 19.8421 22.4451 19.8698C21.9319 20.383 21.4187 20.8962 20.8917 21.4233C20.8639 21.4372 20.8223 21.451 20.7807 21.4649Z" fill="#28B575"/>
<path d="M22.5006 19.7864C22.2648 19.7864 22.029 19.7864 21.7932 19.7864C21.7793 19.7725 21.7655 19.7587 21.7516 19.7448C21.3216 19.5367 21.0026 19.2177 20.8084 18.7739C20.8084 18.552 20.8084 18.3162 20.8084 18.0942C20.8223 18.1081 20.85 18.122 20.8639 18.1358C21.391 18.6629 21.9319 19.2039 22.459 19.7309C22.4728 19.7448 22.4867 19.7725 22.5006 19.7864Z" fill="#73C15D"/>
<path d="M31.4053 21.4372C31.3775 21.451 31.3498 21.4649 31.3359 21.4649C31.3082 21.451 31.2943 21.4233 31.2666 21.4094C30.7534 20.8962 30.2263 20.3692 29.7131 19.856C29.6992 19.8421 29.6854 19.8144 29.6576 19.7866C29.8934 19.7866 30.1292 19.7866 30.365 19.7866C30.795 19.9531 31.0724 20.2721 31.2943 20.6466C31.322 20.6882 31.3498 20.7298 31.3775 20.7575C31.3775 20.9378 31.3775 21.132 31.3775 21.3123C31.3775 21.3678 31.3914 21.4094 31.4053 21.4372Z" fill="#02926A"/>
<path d="M31.3498 18.0942C31.3775 18.1081 31.4053 18.122 31.433 18.1497C31.9601 18.6768 32.501 19.2039 33.0281 19.7448C33.0419 19.7587 33.0419 19.7725 33.0558 19.7864C32.82 19.7864 32.5842 19.7864 32.3484 19.7864C32.293 19.7587 32.2513 19.7309 32.1959 19.7032C31.8214 19.4951 31.5301 19.19 31.3636 18.7877C31.3498 18.7184 31.3359 18.649 31.3359 18.5658C31.3498 18.3994 31.3498 18.2468 31.3498 18.0942Z" fill="#72BF5C"/>
<path d="M31.3498 18.0942C31.3498 18.2468 31.3498 18.4133 31.3498 18.5658C31.3498 18.6352 31.3636 18.7045 31.3775 18.7877C31.3636 18.8155 31.3359 18.8432 31.322 18.871C31.1278 19.2732 30.8227 19.5645 30.4343 19.7587C30.4205 19.7725 30.3927 19.7864 30.3789 19.8003C30.1431 19.8003 29.9073 19.8003 29.6715 19.8003C29.6853 19.7725 29.6992 19.7448 29.727 19.7309C30.254 19.2039 30.7811 18.6768 31.3082 18.1497C31.3082 18.122 31.322 18.1081 31.3498 18.0942Z" fill="#34B778"/>
<path d="M38.2826 16.5929V9.43302L43.1716 14.5478V9.88892H44.1833V17.001L39.2943 11.8992V16.5929H38.2826Z" fill="black"/>
<path d="M49.4046 10.8398H46.7169V12.4507H49.3264V13.4016H46.7169V15.642H49.4046V16.5929H45.7053V9.88892H49.4046V10.8398Z" fill="black"/>
<path d="M52.494 10.8398V16.5929H51.4823V10.8398H49.9409V9.88892H54.031V10.8398H52.494Z" fill="black"/>
<path d="M58.067 13.102H60.8371V13.3234C60.8371 13.8271 60.7778 14.2728 60.6591 14.6607C60.5433 15.0197 60.3479 15.3554 60.073 15.6681C59.4506 16.3686 58.6589 16.7188 57.6979 16.7188C56.76 16.7188 55.9568 16.3801 55.2881 15.7028C54.6195 15.0226 54.2851 14.2063 54.2851 13.2539C54.2851 12.2813 54.6252 11.4564 55.3055 10.779C55.9857 10.0988 56.8136 9.75866 57.7891 9.75866C58.313 9.75866 58.8022 9.86576 59.2567 10.08C59.6909 10.2942 60.1178 10.6415 60.5375 11.122L59.8168 11.8124C59.2668 11.0801 58.5967 10.7139 57.8065 10.7139C57.0973 10.7139 56.5024 10.9585 56.0219 11.4477C55.5414 11.9282 55.3011 12.5303 55.3011 13.2539C55.3011 14.0008 55.5689 14.6159 56.1044 15.0993C56.6052 15.5479 57.1479 15.7723 57.7326 15.7723C58.2305 15.7723 58.6777 15.6044 59.0743 15.2686C59.4709 14.9299 59.6923 14.5247 59.7386 14.0529H58.067V13.102Z" fill="black"/>
<path d="M65.659 14.9647H62.7889L62.0421 16.5929H60.9523L64.2695 9.46775L67.4696 16.5929H66.3624L65.659 14.9647ZM65.2465 14.0138L64.2522 11.7343L63.2101 14.0138H65.2465Z" fill="black"/>
<path d="M67.9885 16.5929L69.3996 9.38525L71.7009 14.5956L74.0846 9.38525L75.3525 16.5929H74.3147L73.6678 12.5462L71.6835 16.9012L69.7557 12.5419L69.0349 16.5929H67.9885Z" fill="black"/>
<path d="M80.3871 10.8398H77.6994V12.4507H80.3089V13.4016H77.6994V15.642H80.3871V16.5929H76.6877V9.88892H80.3871V10.8398Z" fill="black"/>
<path d="M40.1771 19.1566H38.7437V20.0158H40.1355V20.5229H38.7437V21.7178H40.1771V22.2249H38.2042V18.6495H40.1771V19.1566Z" fill="black"/>
<path d="M41.2177 22.2249V18.4063L43.8252 21.1342V18.6495H44.3648V22.4426L41.7573 19.7217V22.2249H41.2177Z" fill="black"/>
<path d="M46.5424 19.1566V22.2249H46.0028V19.1566H45.1807V18.6495H47.3621V19.1566H46.5424Z" fill="black"/>
<path d="M50.1488 19.1566H48.7154V20.0158H50.1071V20.5229H48.7154V21.7178H50.1488V22.2249H48.1758V18.6495H50.1488V19.1566Z" fill="black"/>
<path d="M52.4005 20.7012L53.5074 22.2249H52.8474L51.8262 20.7614H51.7289V22.2249H51.1894V18.6495H51.8216C52.294 18.6495 52.6351 18.7383 52.8451 18.9158C53.0767 19.1134 53.1925 19.3743 53.1925 19.6985C53.1925 19.9517 53.1199 20.1694 52.9748 20.3515C52.8297 20.5337 52.6382 20.6503 52.4005 20.7012ZM51.7289 20.2913H51.9003C52.4113 20.2913 52.6668 20.096 52.6668 19.7054C52.6668 19.3396 52.4182 19.1566 51.9211 19.1566H51.7289V20.2913Z" fill="black"/>
<path d="M55.3237 19.1566V22.2249H54.7842V19.1566H53.9621V18.6495H56.1435V19.1566H55.3237Z" fill="black"/>
<path d="M58.863 21.3565H57.3323L56.934 22.2249H56.3527L58.122 18.4249L59.8286 22.2249H59.2381L58.863 21.3565ZM58.643 20.8494L58.1127 19.6337L57.5569 20.8494H58.643Z" fill="black"/>
<path d="M61.1494 18.6495V22.2249H60.6099V18.6495H61.1494Z" fill="black"/>
<path d="M62.3405 22.2249V18.4063L64.948 21.1342V18.6495H65.4876V22.4426L62.8801 19.7217V22.2249H62.3405Z" fill="black"/>
<path d="M66.5536 22.2249L67.3062 18.3809L68.5336 21.1597L69.8049 18.3809L70.4811 22.2249H69.9276L69.5826 20.0667L68.5243 22.3894L67.4961 20.0644L67.1117 22.2249H66.5536Z" fill="black"/>
<path d="M73.5456 19.1566H72.1122V20.0158H73.5039V20.5229H72.1122V21.7178H73.5456V22.2249H71.5726V18.6495H73.5456V19.1566Z" fill="black"/>
<path d="M74.5862 22.2249V18.4063L77.1937 21.1342V18.6495H77.7332V22.4426L75.1257 19.7217V22.2249H74.5862Z" fill="black"/>
<path d="M79.9108 19.1566V22.2249H79.3713V19.1566H78.5492V18.6495H80.7306V19.1566H79.9108Z" fill="black"/>
</svg>
