<svg width="80" height="32" viewBox="0 0 80 32" fill="none" xmlns="http://www.w3.org/2000/svg">
<g clip-path="url(#clip0_17715_123303)">
<path d="M27.4491 22.9125C27.2426 22.9125 27.0761 22.9875 26.9629 23.1313C26.8497 23.2813 26.7897 23.4812 26.7897 23.7437C26.7897 24.2937 27.0095 24.5625 27.4491 24.5625C27.6356 24.5625 27.8554 24.5187 28.1151 24.4312V24.8687C27.902 24.95 27.6622 24.9937 27.3958 24.9937C27.0162 24.9937 26.7231 24.8875 26.5233 24.6687C26.3235 24.45 26.2236 24.1438 26.2236 23.7375C26.2236 23.4813 26.2703 23.2563 26.3702 23.0688C26.4701 22.875 26.6099 22.7313 26.7964 22.625C26.9829 22.525 27.196 22.4688 27.4491 22.4688C27.7022 22.4688 27.9553 22.525 28.215 22.6438L28.0352 23.0688C27.9353 23.025 27.8421 22.9875 27.7422 22.9563C27.6423 22.925 27.549 22.9125 27.4491 22.9125Z" fill="black"/>
<path d="M35.0879 24.9688V22.5125H35.6407V24.9688H35.0879Z" fill="black"/>
<path d="M43.7195 24.9687H43.1667V22.95H42.4541V22.5187H44.4255V22.95H43.7129V24.9687H43.7195Z" fill="black"/>
<path d="M52.052 23.525L52.5981 22.5125H53.1975L52.3317 24.0125V24.9688H51.7789V24.0313L50.9131 22.5125H51.5125L52.052 23.525Z" fill="black"/>
<path d="M53.3239 15.9937C53.1174 15.9937 52.9176 15.9937 52.7112 15.9937C52.5979 15.9937 52.5846 15.9937 52.5713 15.8875C52.5447 15.6625 52.4914 15.4375 52.3848 15.2312C52.1451 14.7375 51.7255 14.475 51.166 14.4125C50.853 14.3812 50.5333 14.4 50.2269 14.4937C49.7873 14.6312 49.481 14.9 49.2945 15.2937C49.2079 15.4812 49.1546 15.675 49.128 15.875C49.128 15.8937 49.1213 15.9187 49.1213 15.9375C49.1213 15.975 49.1013 15.9937 49.0547 16C49.0281 16 49.0014 16 48.9681 16C48.5752 16 48.1756 16 47.7826 16C47.756 16 47.7293 16 47.696 16C47.6561 16 47.6361 15.9812 47.6294 15.9437C47.6161 15.8687 47.6028 15.7937 47.5895 15.725C47.5295 15.475 47.4296 15.2375 47.2765 15.025C46.9901 14.6375 46.5905 14.4312 46.0909 14.4062C45.8778 14.3937 45.658 14.4062 45.4516 14.45C44.9121 14.575 44.5458 14.8812 44.3327 15.3625C44.2594 15.5312 44.2061 15.7062 44.1861 15.8812C44.1728 15.9937 44.1728 16 44.0396 16C43.6666 16 43.2937 16 42.9207 16C42.8741 16 42.8275 16 42.7875 16C42.7142 16 42.7009 15.9875 42.7076 15.9125C42.7142 15.8312 42.7276 15.7562 42.7409 15.675C42.8341 15.1625 43.0206 14.6812 43.327 14.2437C43.7865 13.5937 44.4192 13.2062 45.2318 13.0625C45.4849 13.0187 45.738 13 45.991 13C46.6171 13.0062 47.1766 13.1937 47.6627 13.5625C47.8892 13.7312 48.0823 13.9312 48.2622 14.1437C48.2955 14.1812 48.3221 14.2187 48.3554 14.2562C48.3754 14.2812 48.402 14.2812 48.4287 14.2562C48.4686 14.2187 48.5019 14.175 48.5352 14.1312C48.7217 13.9187 48.9282 13.7187 49.1613 13.55C49.6541 13.1937 50.2203 13.0062 50.8397 12.9937C51.2326 12.9875 51.6189 13.0312 51.9919 13.15C52.6179 13.3437 53.0975 13.7125 53.4504 14.2312C53.7368 14.65 53.91 15.1062 54.0032 15.5875C54.0232 15.6812 54.0365 15.775 54.0432 15.8687C54.0565 15.9812 54.0565 15.9812 53.93 15.9812C53.8101 15.9812 53.6902 15.9812 53.577 15.9812C53.4971 15.9937 53.4105 15.9937 53.3239 15.9937Z" fill="black"/>
<path d="M24.2786 16.3688C24.4917 16.3688 24.7115 16.3688 24.9246 16.3688C25.0046 16.3688 25.0179 16.3813 25.0179 16.45C25.0179 16.5625 25.0112 16.675 25.0179 16.7813C25.0312 17.0313 25.0645 17.2688 25.1644 17.4938C25.3442 17.9063 25.624 18.2375 26.0436 18.4563C26.2966 18.5875 26.5764 18.6688 26.8628 18.6938C27.2091 18.725 27.5488 18.7188 27.8884 18.6375C28.681 18.4563 29.1872 17.9875 29.4336 17.2563C29.4802 17.1063 29.4935 16.9813 29.5002 16.8C29.4935 16.6813 29.5002 16.5563 29.5002 16.4313C29.5002 16.375 29.5135 16.3625 29.5668 16.3625C30.013 16.3625 30.4593 16.3625 30.9055 16.3625C30.9588 16.3625 30.9721 16.375 30.9721 16.4313C30.9854 16.8438 30.9721 17.25 30.8589 17.65C30.7257 18.1 30.5259 18.5188 30.2262 18.8875C29.8266 19.375 29.3004 19.7063 28.6743 19.9C28.2681 20.025 27.8485 20.0813 27.4222 20.0938C26.9826 20.1063 26.5431 20.075 26.1102 19.9688C25.0312 19.7125 24.2853 19.0938 23.8457 18.1438C23.6859 17.7938 23.5793 17.4313 23.5393 17.0563C23.5193 16.8438 23.5327 16.6313 23.5327 16.4188C23.5327 16.3813 23.5593 16.3625 23.5993 16.3625C23.6992 16.3625 23.8057 16.3625 23.9056 16.3625C24.0255 16.3688 24.1521 16.3688 24.2786 16.3688Z" fill="black"/>
<path d="M29.5207 15.9874C29.494 15.9437 29.4874 15.9062 29.4807 15.8624C29.3409 15.2249 28.9479 14.7874 28.3019 14.5562C28.0421 14.4624 27.7691 14.4124 27.4893 14.4062C27.123 14.3937 26.7567 14.4062 26.3971 14.5062C25.9308 14.6312 25.5445 14.8749 25.2848 15.2687C25.1516 15.4687 25.0717 15.6874 25.0251 15.9187C25.0117 15.9999 25.0051 15.9999 24.9318 15.9999C24.4989 15.9999 24.0593 15.9999 23.6264 15.9999C23.5465 15.9999 23.5332 15.9812 23.5465 15.9187C23.5665 15.8187 23.5798 15.7187 23.6064 15.6187C23.7197 15.1374 23.9195 14.6874 24.2325 14.2937C24.6721 13.7374 25.2515 13.3687 25.9575 13.1749C26.3038 13.0812 26.6501 13.0312 27.0098 13.0187C27.4893 12.9999 27.9689 13.0312 28.4417 13.1437C29.0611 13.2937 29.6073 13.5749 30.0468 14.0187C30.4131 14.3874 30.6662 14.8249 30.8261 15.3062C30.8794 15.4624 30.9193 15.6249 30.9526 15.7874C30.9593 15.8374 30.9659 15.8812 30.9726 15.9312C30.9793 15.9937 30.9593 16.0062 30.8927 16.0062C30.7129 16.0062 30.533 16.0062 30.3465 16.0062C30.1068 16.0062 29.8737 16.0062 29.6339 16.0062C29.5939 15.9937 29.554 15.9874 29.5207 15.9874Z" fill="black"/>
<path d="M17.5852 13.0313C17.9914 13.0313 18.3977 13.0375 18.804 13.0313C19.077 13.025 19.3434 13.0625 19.6099 13.1313C20.0894 13.2563 20.5356 13.4438 20.9286 13.7313C21.4947 14.1438 21.8277 14.6875 21.9609 15.3438C21.9875 15.4875 22.0009 15.6375 22.0208 15.7875C22.0275 15.825 22.0275 15.8625 22.0275 15.9C22.0275 15.9875 22.0208 15.9938 21.9343 15.9938C21.9143 15.9938 21.901 15.9938 21.881 15.9938C21.488 15.9938 21.0884 15.9938 20.6955 15.9938C20.6688 15.9938 20.6422 15.9938 20.6089 15.9938C20.5689 15.9938 20.5423 15.975 20.5423 15.9375C20.5423 15.8313 20.529 15.725 20.509 15.6188C20.4624 15.3813 20.3691 15.1625 20.2159 14.9625C19.9762 14.6625 19.6432 14.5063 19.2635 14.4313C19.1303 14.4063 18.9971 14.3938 18.8573 14.3938C18.4443 14.3938 18.0314 14.3938 17.6185 14.3938C17.5918 14.3938 17.5652 14.3938 17.5319 14.4C17.4986 14.4 17.4853 14.425 17.4786 14.45C17.4786 14.4938 17.4786 14.5375 17.4786 14.575C17.4786 15 17.4786 15.425 17.4786 15.85C17.4786 15.9938 17.4786 15.9938 17.3321 15.9938C16.9391 15.9938 16.5395 15.9938 16.1466 15.9938C16.1133 15.9938 16.08 15.9938 16.0467 15.9875C16.02 15.9875 16.0067 15.9688 16.0067 15.9438C16 15.9125 16 15.875 16 15.8375C16 14.9563 16 14.075 16 13.1938C16 13.0188 15.9934 13.0313 16.1799 13.0313C16.6461 13.0313 17.1189 13.0313 17.5852 13.0313Z" fill="black"/>
<path d="M34.9353 20.1062C34.2427 20.1062 33.5567 20.1062 32.864 20.1062C32.8107 20.1062 32.7641 20.1062 32.7108 20.1062C32.6775 20.1062 32.6575 20.0875 32.6575 20.0562C32.6575 20.0187 32.6509 19.9812 32.6509 19.9437C32.6509 18.8125 32.6509 17.6812 32.6509 16.55C32.6509 16.3562 32.6309 16.3687 32.844 16.3687C33.2103 16.3687 33.5767 16.3687 33.9496 16.3687C33.9896 16.3687 34.0295 16.3687 34.0695 16.3687C34.1028 16.3687 34.1228 16.3875 34.1228 16.4187C34.1228 16.4687 34.1295 16.525 34.1295 16.575C34.1295 17.225 34.1295 17.8687 34.1295 18.5187C34.1295 18.7187 34.1095 18.7062 34.3293 18.7062C35.2417 18.7062 36.1475 18.7062 37.0599 18.7062C37.2664 18.7062 37.2531 18.6937 37.2531 18.8875C37.2531 19.2312 37.2531 19.575 37.2531 19.925C37.2531 19.9687 37.2531 20.0125 37.2531 20.05C37.2531 20.0812 37.2331 20.0937 37.1998 20.1C37.1465 20.1 37.0999 20.1 37.0466 20.1C36.334 20.1062 35.6347 20.1062 34.9353 20.1062Z" fill="black"/>
<path d="M61.5287 13C62.2813 13 63.0339 13 63.7865 13C63.8398 13 63.8864 13 63.9397 13C63.973 13 63.993 13.0187 63.993 13.05C63.993 13.0812 63.9997 13.1125 63.9997 13.1437C63.9997 13.5125 63.9997 13.875 63.9997 14.2437C63.9997 14.275 63.9997 14.3062 63.9997 14.3375C63.9997 14.3687 63.9797 14.3875 63.9464 14.3875C63.8998 14.3875 63.8531 14.3875 63.8132 14.3875C63.3603 14.3875 62.9074 14.3875 62.4545 14.3875C62.308 14.3875 62.3013 14.3875 62.3013 14.525C62.3013 14.9437 62.3013 15.3625 62.3013 15.7812C62.3013 15.825 62.3013 15.8687 62.3013 15.9062C62.3013 15.9687 62.288 15.9812 62.2147 15.9812C61.935 15.9812 61.6486 15.9812 61.3689 15.9812C61.209 15.9812 61.0492 15.9812 60.896 15.9812C60.856 15.9812 60.8294 15.9625 60.8294 15.925C60.8294 15.875 60.8227 15.8312 60.8227 15.7812C60.8227 15.3875 60.8227 14.9937 60.8227 14.6C60.8227 14.5625 60.8227 14.525 60.8227 14.4875C60.8227 14.3875 60.8161 14.3812 60.7029 14.3812C60.2366 14.3812 59.7771 14.3812 59.3109 14.3812C59.0312 14.3812 59.0711 14.4125 59.0645 14.1562C59.0645 13.825 59.0645 13.5 59.0645 13.1687C59.0645 13.125 59.0645 13.0812 59.0645 13.0437C59.0645 13.0125 59.0844 12.9937 59.1177 12.9937C59.171 12.9937 59.2176 12.9937 59.2709 12.9937C60.0235 13 60.7761 13 61.5287 13Z" fill="black"/>
<path d="M55.8743 18.2375C55.8743 17.6563 55.8743 17.0813 55.8743 16.5C55.8743 16.3625 55.861 16.3625 56.0208 16.3625C56.4138 16.3625 56.8134 16.3625 57.2063 16.3625C57.233 16.3625 57.2596 16.3625 57.2929 16.3625C57.3329 16.3625 57.3528 16.3875 57.3528 16.425C57.3528 16.4563 57.3528 16.4875 57.3528 16.5188C57.3528 17.6625 57.3528 18.8125 57.3528 19.9563C57.3528 19.9625 57.3528 19.9688 57.3528 19.975C57.3528 20.0938 57.3528 20.1 57.2196 20.1C56.8134 20.1 56.4071 20.1 56.0008 20.1C55.9809 20.1 55.9675 20.1 55.9476 20.1C55.8876 20.0938 55.8743 20.0875 55.8743 20.0188C55.8743 19.975 55.8743 19.9313 55.8743 19.8938C55.8743 19.3438 55.8743 18.7938 55.8743 18.2375Z" fill="black"/>
<path d="M52.5842 18.2312C52.5842 17.6562 52.5842 17.0875 52.5842 16.5125C52.5842 16.3625 52.5709 16.3688 52.7441 16.3688C53.1304 16.3688 53.51 16.3688 53.8963 16.3688C53.9362 16.3688 53.9762 16.3688 54.0162 16.375C54.0428 16.375 54.0561 16.3938 54.0628 16.4188C54.0695 16.4688 54.0695 16.5125 54.0695 16.5625C54.0695 17.4688 54.0695 18.375 54.0695 19.2812C54.0695 19.5062 54.0695 19.7375 54.0695 19.9625C54.0695 19.9875 54.0695 20.0187 54.0695 20.0437C54.0628 20.0937 54.0495 20.1062 53.9962 20.1062C53.9762 20.1062 53.9496 20.1062 53.9296 20.1062C53.5366 20.1062 53.137 20.1062 52.7441 20.1062C52.7108 20.1062 52.6775 20.1062 52.6442 20.1C52.6175 20.1 52.6042 20.0812 52.6042 20.0625C52.6042 20.0125 52.5975 19.9687 52.5975 19.9187C52.5842 19.3562 52.5842 18.7937 52.5842 18.2312Z" fill="black"/>
<path d="M49.1212 18.2375C49.1212 18.8062 49.1212 19.375 49.1212 19.9375C49.1212 20.1062 49.1279 20.1 48.9614 20.1C48.5684 20.1 48.1821 20.1 47.7892 20.1C47.7559 20.1 47.7226 20.1 47.6893 20.0937C47.6626 20.0937 47.6493 20.075 47.6426 20.05C47.636 20.0187 47.636 19.9875 47.636 19.9562C47.636 18.8125 47.636 17.6625 47.636 16.5187C47.636 16.3625 47.6227 16.3562 47.7958 16.3562C48.1888 16.3562 48.5751 16.3562 48.968 16.3562C49.0013 16.3562 49.0346 16.3562 49.0679 16.3625C49.0946 16.3625 49.1079 16.3812 49.1079 16.4062C49.1079 16.4562 49.1079 16.5 49.1079 16.55C49.1212 17.1187 49.1212 17.6812 49.1212 18.2375Z" fill="black"/>
<path d="M39.1776 18.2375C39.1776 17.6813 39.1776 17.125 39.1776 16.5688C39.1776 16.5438 39.1776 16.5188 39.1776 16.4875C39.1776 16.3688 39.1776 16.3625 39.3108 16.3625C39.717 16.3625 40.1233 16.3625 40.5296 16.3625C40.5496 16.3625 40.5762 16.3625 40.5962 16.3625C40.6361 16.3688 40.6561 16.3875 40.6561 16.425C40.6561 16.45 40.6561 16.475 40.6561 16.5063C40.6561 17.6563 40.6561 18.8063 40.6561 19.9625C40.6561 19.9813 40.6561 19.9938 40.6561 20.0125C40.6495 20.0938 40.6428 20.1 40.5562 20.1C40.1233 20.1 39.6971 20.1 39.2641 20.1C39.2575 20.1 39.2508 20.1 39.2442 20.1C39.1842 20.0938 39.1709 20.0875 39.1709 20.0188C39.1709 19.975 39.1709 19.9313 39.1709 19.8938C39.1776 19.3438 39.1776 18.7938 39.1776 18.2375Z" fill="black"/>
<path d="M17.4721 20.0312C17.4388 20.0562 17.3988 20.05 17.3589 20.05C16.9526 20.05 16.5463 20.05 16.14 20.05C16.1201 20.05 16.0934 20.05 16.0734 20.05C16.0335 20.05 16.0068 20.0312 16.0068 19.9937C16.0068 19.9562 16.0068 19.9187 16.0068 19.8812C16.0068 18.7812 16.0068 17.6812 16.0068 16.5875C16.0068 16.5375 16.0068 16.4937 16.0068 16.4437C16.0068 16.3875 16.0202 16.375 16.0934 16.3687C16.1201 16.3687 16.1467 16.3687 16.18 16.3687C16.5596 16.3687 16.9393 16.3687 17.3189 16.3687C17.3589 16.3687 17.3988 16.3687 17.4388 16.375C17.4721 16.375 17.4921 16.3937 17.4921 16.425C17.4921 16.4687 17.4921 16.5125 17.4921 16.55C17.4921 17.6625 17.4921 18.7812 17.4921 19.8937C17.4854 19.9375 17.4921 19.9875 17.4721 20.0312Z" fill="black"/>
<path d="M22.0272 18.2625C22.0272 18.8063 22.0272 19.3563 22.0272 19.9C22.0272 19.9375 22.0272 19.975 22.0272 20.0125C22.0272 20.0938 22.0139 20.1 21.9273 20.1C21.5011 20.1 21.0681 20.1 20.6419 20.1C20.6219 20.1 20.6086 20.1 20.5886 20.0938C20.562 20.0875 20.5487 20.075 20.5487 20.05C20.5487 20.0125 20.542 19.975 20.542 19.9375C20.542 18.8188 20.542 17.7 20.542 16.5813C20.542 16.5688 20.542 16.5625 20.542 16.55C20.542 16.4125 20.542 16.4125 20.6952 16.4125C21.0881 16.4125 21.4877 16.4125 21.8807 16.4125C21.9007 16.4125 21.9273 16.4125 21.9473 16.4125C22.0072 16.4188 22.0206 16.4313 22.0272 16.4938C22.0272 16.5438 22.0272 16.5875 22.0272 16.6375C22.0272 17.1813 22.0272 17.725 22.0272 18.2625Z" fill="black"/>
<path d="M42.7012 18.2375C42.7012 17.6812 42.7012 17.125 42.7012 16.5625C42.7012 16.5125 42.7012 16.4687 42.7012 16.4187C42.7012 16.3875 42.7212 16.3687 42.7545 16.3687C42.7811 16.3687 42.8077 16.3687 42.841 16.3687C43.234 16.3687 43.6336 16.3687 44.0265 16.3687C44.0465 16.3687 44.0732 16.3687 44.0931 16.3687C44.1531 16.375 44.1664 16.3812 44.1664 16.4312C44.1664 16.4687 44.1664 16.5062 44.1664 16.5437C44.1664 17.6812 44.1664 18.8125 44.1664 19.95C44.1664 19.9812 44.1664 20.0125 44.1664 20.0437C44.1664 20.075 44.1464 20.0937 44.1131 20.0937C44.0932 20.0937 44.0665 20.0937 44.0465 20.0937C43.6403 20.0937 43.234 20.0937 42.8277 20.0937C42.8144 20.0937 42.8077 20.0937 42.7944 20.0937C42.7145 20.0875 42.7012 20.0812 42.7012 20.0125C42.7012 19.9687 42.7012 19.925 42.7012 19.8875C42.7012 19.3437 42.7012 18.7937 42.7012 18.2375Z" fill="black"/>
<path d="M62.2948 18.2563C62.2948 18.8188 62.2948 19.3813 62.2948 19.9438C62.2948 20.1125 62.3014 20.1063 62.1349 20.1063C61.7486 20.1063 61.369 20.1063 60.9827 20.1063C60.9494 20.1063 60.9161 20.1063 60.8828 20.1063C60.8495 20.1063 60.8295 20.0875 60.8295 20.0563C60.8295 20.0188 60.8295 19.9813 60.8295 19.9438C60.8295 18.8188 60.8295 17.6938 60.8295 16.5688C60.8295 16.35 60.8095 16.375 61.0427 16.375C61.4023 16.375 61.7553 16.375 62.1149 16.375C62.1616 16.375 62.2082 16.375 62.2482 16.375C62.2815 16.375 62.3014 16.3938 62.3014 16.425C62.3014 16.475 62.3014 16.5188 62.3014 16.5688C62.2948 17.1313 62.2948 17.6938 62.2948 18.2563Z" fill="black"/>
<path d="M57.3602 14.5C57.3602 14.9313 57.3602 15.3625 57.3602 15.7875C57.3602 15.825 57.3602 15.8625 57.3602 15.9C57.3602 15.9813 57.3469 15.9875 57.2603 15.9875C56.8274 15.9875 56.4011 15.9875 55.9682 15.9875C55.8883 15.9875 55.8817 15.975 55.875 15.9062C55.875 15.875 55.875 15.8438 55.875 15.8125C55.875 14.9375 55.875 14.0625 55.875 13.1875C55.875 13.15 55.875 13.1125 55.875 13.075C55.875 13.0125 55.8883 13.0063 55.9549 13C55.9616 13 55.9682 13 55.9749 13C56.4078 13 56.8341 13 57.267 13C57.3469 13 57.3536 13.0125 57.3602 13.0812C57.3602 13.1187 57.3602 13.1562 57.3602 13.1937C57.3602 13.6312 57.3602 14.0687 57.3602 14.5Z" fill="black"/>
<path d="M39.1776 14.5C39.1776 14.05 39.1776 13.6 39.1776 13.1438C39.1776 13 39.1776 13 39.3241 13C39.717 13 40.1166 13 40.5096 13C40.5429 13 40.5762 13 40.6095 13.0063C40.6361 13.0063 40.6495 13.025 40.6495 13.05C40.6495 13.0875 40.6561 13.125 40.6561 13.1625C40.6561 14.0563 40.6561 14.9438 40.6561 15.8375C40.6561 16 40.6628 15.9938 40.4896 15.9938C40.1033 15.9938 39.717 15.9938 39.3374 15.9938C39.2974 15.9938 39.2575 15.9938 39.2175 15.9875C39.1909 15.9875 39.1776 15.9688 39.1776 15.9438C39.1776 15.9 39.1709 15.8563 39.1709 15.8188C39.1776 15.3813 39.1776 14.9375 39.1776 14.5Z" fill="black"/>
<path d="M34.1228 14.5C34.1228 14.95 34.1228 15.4 34.1228 15.85C34.1228 15.9937 34.1228 15.9937 33.9763 15.9937C33.5833 15.9937 33.1837 15.9937 32.7908 15.9937C32.7641 15.9937 32.7375 15.9937 32.7042 15.9937C32.6709 15.9937 32.6576 15.9687 32.6509 15.9437C32.6509 15.9 32.6509 15.8562 32.6509 15.8187C32.6509 14.9437 32.6509 14.0687 32.6509 13.1937C32.6509 12.9937 32.6309 13.0125 32.8374 13.0125C33.2104 13.0125 33.5833 13.0125 33.9563 13.0125C33.9896 13.0125 34.0229 13.0125 34.0562 13.0125C34.0962 13.0125 34.1162 13.0375 34.1162 13.075C34.1162 13.1187 34.1162 13.1625 34.1162 13.2C34.1228 13.625 34.1228 14.0625 34.1228 14.5Z" fill="black"/>
</g>
<defs>
<clipPath id="clip0_17715_123303">
<rect width="48" height="12" fill="white" transform="translate(16 13)"/>
</clipPath>
</defs>
</svg>
