<svg width="124" height="32" viewBox="0 0 124 32" fill="none" xmlns="http://www.w3.org/2000/svg">
<path d="M21.4087 20.3771C17.3318 14.1051 17.6696 11.4978 18.0266 10.6435C17.0584 11.7322 16.4045 13.0698 16.1365 14.5099C15.8685 15.9499 15.9967 17.437 16.5072 18.8082C17.0176 20.1793 17.8906 21.3817 19.0305 22.2837C20.1704 23.1857 21.5333 23.7526 22.9699 23.9221C22.9699 22.9663 22.2037 21.639 21.4087 20.3771Z" fill="#4379BD"/>
<path d="M23.8239 20.6901C28.3772 14.5878 29.3137 11.0261 29.451 10.3944C28.7182 9.63508 27.8428 9.03201 26.8764 8.62078C25.9099 8.20956 24.8721 7.99849 23.8239 8.00001C22.7757 7.99872 21.7379 8.2099 20.7715 8.62111C19.8052 9.03233 18.9297 9.63527 18.1968 10.3944C18.3355 11.0261 19.2706 14.5878 23.8239 20.6901Z" fill="#4379BD"/>
<path d="M29.7273 10.6435C30.0801 11.4866 30.4166 14.048 26.4757 20.1767L26.4619 20.1976C25.6284 21.5124 24.7881 22.9204 24.7881 23.9221C26.2244 23.7519 27.5867 23.1846 28.7261 22.2823C29.8654 21.3801 30.7379 20.1776 31.2478 18.8065C31.7578 17.4355 31.8857 15.9487 31.6175 14.5089C31.3493 13.0691 30.6954 11.7319 29.7273 10.6435Z" fill="#4379BD"/>
<path d="M40.937 18.0313C40.5883 18.464 40.0472 18.6796 39.3154 18.6796C38.5835 18.6796 38.0425 18.464 37.6937 18.0313C37.3435 17.5986 37.1692 16.9335 37.1692 16.0348C37.1692 15.0553 37.3394 14.3568 37.6813 13.9408C38.0232 13.5248 38.567 13.3162 39.3154 13.3162C40.0637 13.3162 40.6075 13.5248 40.9494 13.9408C41.2913 14.3568 41.4616 15.0553 41.4616 16.0348C41.4616 16.9335 41.2872 17.5986 40.937 18.0313ZM35.498 16.0348C35.498 18.745 36.7696 20.1015 39.3154 20.1015C41.8598 20.1015 43.1327 18.745 43.1327 16.0348C43.1327 14.6017 42.8169 13.5541 42.188 12.8904C41.5577 12.2268 40.5992 11.8956 39.3154 11.8956C38.0301 11.8956 37.073 12.2268 36.4428 12.8904C35.8125 13.5541 35.498 14.6017 35.498 16.0348Z" fill="black"/>
<path d="M45.933 15.9764V13.4191H47.7263C48.1575 13.4191 48.4774 13.5221 48.6889 13.728C48.9004 13.9339 49.0061 14.2595 49.0061 14.7047C49.0061 15.1485 48.888 15.4727 48.6532 15.6744C48.417 15.8762 48.0751 15.9764 47.6288 15.9764H45.933ZM44.2866 19.9931H45.933V17.3607H47.2265C47.4448 17.3607 47.6055 17.3955 47.7071 17.4664C47.8087 17.536 47.9007 17.6654 47.9817 17.8546L48.9086 19.9931H50.6168L49.6652 17.7684C49.5961 17.5945 49.5125 17.4269 49.4153 17.2675C49.3309 17.1413 49.2302 17.0271 49.1159 16.928C49.5788 16.78 49.9826 16.4854 50.268 16.0877C50.5464 15.6827 50.6898 15.1981 50.6772 14.7047C50.6772 13.8644 50.4602 13.2091 50.025 12.7388C49.5897 12.2699 48.9333 12.0348 48.0545 12.0348H44.2866V19.9931Z" fill="black"/>
<path d="M53.6951 17.0518L50.8774 12.0348H52.5966L54.5245 15.6313L56.451 12.0348H58.1578L55.3415 17.0518V19.9931H53.6951V17.0518Z" fill="black"/>
<path d="M60.4479 16.0014L57.6782 12.0348H59.6171L61.4351 14.6922L63.2518 12.0348H65.1907L62.4224 16.0014L65.2648 19.9931H63.3012L61.4351 17.3357L59.5691 19.9931H57.6055L60.4479 16.0014Z" fill="black"/>
<path d="M67.2957 19.0622C66.6943 18.3708 66.3936 17.4233 66.3936 16.2212C66.3936 14.8535 66.6805 13.7906 67.2531 13.0323C67.8271 12.2755 68.7389 11.8956 69.9912 11.8956C70.8288 11.8956 71.5771 12.0069 72.2349 12.2295V12.8348C71.5345 12.6009 70.8013 12.4839 70.0639 12.4883C68.975 12.4883 68.2006 12.8083 67.7406 13.4469C67.282 14.0855 67.0527 15.0094 67.0527 16.2212C67.0527 18.4208 68.0605 19.52 70.0763 19.52C70.4512 19.52 70.8247 19.488 71.1981 19.4212C71.5287 19.3685 71.8521 19.2774 72.1621 19.1499V16.32H69.9307V15.776H72.7718V19.4949C72.5109 19.6688 72.1539 19.8122 71.698 19.9276C71.2435 20.0431 70.6777 20.1015 70.0035 20.1015C68.8007 20.1015 67.8971 19.7551 67.2957 19.0622Z" fill="black"/>
<path d="M75.9275 17.1131L77.611 12.5788L79.3068 17.1131H75.9275ZM74.2207 19.9931H74.9155L75.782 17.6696H79.4647L80.3312 19.9931H81.0136L78.0504 12.0348H77.1963L74.2207 19.9931Z" fill="black"/>
<path d="M82.1846 12.0348H82.9659L85.8069 17.9297L88.6479 12.0348H89.4292V19.9931H88.7701V13.024L86.0747 18.6087H85.5501L82.8437 13.024V19.9931H82.1846V12.0348Z" fill="black"/>
<path d="M91.2476 19.9931H91.919V12.0348H91.2476V19.9931Z" fill="black"/>
<path d="M93.8564 12.0348H94.4908L99.3572 18.9788V12.0348H100.027V19.9931H99.3806L94.5279 13.0602V19.9931H93.8564V12.0348Z" fill="black"/>
<path d="M102.448 19.0622C101.847 18.3708 101.546 17.4233 101.546 16.2212C101.546 14.8535 101.833 13.7906 102.405 13.0323C102.979 12.2755 103.891 11.8956 105.144 11.8956C105.981 11.8956 106.729 12.0069 107.387 12.2295V12.8348C106.687 12.6009 105.954 12.4839 105.216 12.4883C104.127 12.4883 103.353 12.8083 102.893 13.4469C102.434 14.0855 102.205 15.0094 102.205 16.2212C102.205 18.4208 103.213 19.52 105.229 19.52C105.602 19.52 105.977 19.488 106.35 19.4212C106.681 19.3685 107.004 19.2774 107.314 19.1499V16.32H105.083V15.776H107.924V19.4949C107.663 19.6688 107.306 19.8122 106.852 19.9276C106.396 20.0431 105.83 20.1015 105.156 20.1015C103.953 20.1015 103.049 19.7551 102.448 19.0622Z" fill="black"/>
</svg>
