<svg width="97" height="32" viewBox="0 0 97 32" fill="none" xmlns="http://www.w3.org/2000/svg">
<path fill-rule="evenodd" clip-rule="evenodd" d="M70.4954 19.0038V18.625C70.4954 18.5378 70.5741 18.151 70.5943 18.0628C70.6325 17.9163 70.7281 17.7131 70.7981 17.5976C70.9501 17.3511 71.2244 17.1055 71.5967 17.1055H71.6638C72.3546 17.1055 72.7461 17.9331 72.7461 18.6964V19.1474C72.7461 19.4925 72.5826 19.9775 72.444 20.175C72.2686 20.4221 72.0233 20.6664 71.6306 20.6664C70.8947 20.6664 70.4954 19.8202 70.4954 19.0038V19.0038ZM49.3361 17.2877C49.3762 17.2877 49.3862 17.2731 49.3862 17.232V17.07C49.3862 16.9743 49.0181 17.0161 48.921 17.0161C48.7526 17.0161 48.5869 17.0145 48.4191 17.0161C48.2744 17.0175 48.2847 17.0269 48.2871 16.8703C48.2877 16.7806 48.2874 16.6911 48.2874 16.6006C48.2874 16.4193 48.2874 16.2381 48.2874 16.058C48.1579 16.1518 47.0362 17.1511 47.0362 17.2132V17.2877H47.5355V19.7976C47.5355 20.6078 47.9867 20.9735 48.7362 20.9735H48.7526C48.9514 20.9735 49.5545 20.8403 49.5545 20.7019V20.4483C49.4191 20.4614 49.2074 20.7019 48.8024 20.7019C48.4583 20.7019 48.2874 20.3934 48.2874 20.0158V17.2877H49.3361L49.3361 17.2877ZM66.528 16.0939C66.528 15.8898 66.709 15.6465 66.8142 15.5382C66.905 15.4431 67.2106 15.2998 67.3767 15.2998H67.528C67.798 15.2998 68.0307 15.3632 68.2117 15.4614C68.3181 15.5205 68.6897 15.8217 68.6946 15.8224V15.3538C68.6946 15.215 68.2449 15.1364 68.1453 15.0646L67.6613 15L67.3937 15.0105C66.9698 15.0105 66.6345 15.1787 66.3835 15.3799C66.2458 15.4884 66.1485 15.6081 66.0575 15.7658C65.9646 15.9226 65.9197 16.1809 65.8611 16.2755L65.8392 16.6002L65.8445 16.6551C65.8445 18.3812 68.2285 18.1611 68.2285 19.545V19.6723C68.2285 20.2532 67.7868 20.6486 67.2446 20.6486H67.1453C66.8541 20.6486 66.5708 20.5188 66.3763 20.4128C66.1328 20.2801 66.0111 20.0774 65.8274 19.9438V20.576C66.2113 20.7959 66.54 20.9378 67.1285 20.9378H67.2446C67.7562 20.9378 68.1202 20.7644 68.4079 20.518C68.6516 20.3093 68.9277 19.8589 68.9277 19.4013V18.9859C68.9277 18.8969 68.8133 18.5459 68.7787 18.4786C68.6929 18.325 68.6326 18.2404 68.5156 18.1142C68.3463 17.9264 68.0375 17.7058 67.8053 17.5812C67.5463 17.4418 67.2704 17.2774 67.0272 17.1233C66.8515 17.0109 66.528 16.6491 66.528 16.3654V16.0939L66.528 16.0939ZM59.8407 19.3823C59.8407 19.0289 59.9653 18.6452 60.1724 18.5288L61.6536 20.4122C61.4577 20.5259 61.2691 20.7 60.9592 20.7H60.7934C60.2673 20.7 59.8407 20.0883 59.8407 19.5008V19.3823V19.3823ZM60.6827 18.0031C60.6529 18.0031 60.4461 17.684 60.4183 17.6321C60.3461 17.5104 60.2645 17.3404 60.2342 17.1724C60.1988 16.9645 60.2197 16.7782 60.3014 16.6308C60.3605 16.5265 60.5152 16.3724 60.6551 16.3724H60.7668C61.0426 16.3724 61.2228 16.6645 61.2228 16.9713V17.1055C61.2228 17.3264 61.1499 17.5523 61.0608 17.678C61.0034 17.7588 60.7856 18.0031 60.6827 18.0031ZM60.8081 18.1684C61.1675 17.961 61.7463 17.6054 61.7463 17.0302V16.9398C61.7463 16.449 61.3113 16.1305 60.8633 16.1305H60.7111L60.435 16.1638C60.4045 16.1826 60.1666 16.2782 60.1031 16.3123C59.9901 16.372 59.9304 16.447 59.8431 16.5405C59.6953 16.6996 59.5913 16.9555 59.5913 17.2708V17.2842C59.5913 17.5198 59.6557 17.7435 59.7294 17.8987C59.819 18.0909 59.9223 18.1893 60.0204 18.347C59.9882 18.3954 59.7642 18.5147 59.6962 18.5662C59.5816 18.6525 59.5169 18.722 59.4214 18.8227C59.284 18.9711 59.0946 19.295 59.0946 19.5762V19.8916C59.0946 20.0225 59.2027 20.2684 59.25 20.3658C59.3041 20.4749 59.4456 20.6241 59.5412 20.6931C59.7634 20.853 60.0707 21 60.435 21H60.6961C60.9543 21 61.1185 20.9464 61.3135 20.8726C61.5413 20.7901 61.6126 20.6736 61.7754 20.5797C61.839 20.6246 62.026 20.9236 62.078 20.9236H62.9482L62.2745 20.037C62.3545 19.8705 62.4632 19.7524 62.5306 19.5407C62.588 19.3567 62.6453 19.1394 62.6453 18.9017V18.6338L62.6146 18.3185C62.5816 18.2598 62.5893 18.1684 62.5335 18.1684H62.1072C62.1107 18.2432 62.2 18.424 62.2243 18.5485C62.255 18.7037 62.2866 18.8038 62.2866 18.993V19.2008L62.2566 19.5008L62.1385 19.8478L60.8081 18.1684V18.1684ZM79.215 17.6668C79.215 17.3529 79.5306 17.1233 79.8324 17.1233H80.0004C80.4137 17.1233 80.5845 17.3597 80.8329 17.5023V17.07C80.6341 16.9242 80.2251 16.8516 79.8826 16.8516C79.197 16.8516 78.5987 17.2177 78.5987 17.956C78.5987 19.2326 80.3668 18.9869 80.3668 19.8699V19.9798C80.3668 20.1582 80.2831 20.2972 80.1956 20.3905C80.0266 20.5711 79.9937 20.5071 79.8488 20.6123L79.6506 20.6332L79.5318 20.6304L79.3005 20.6087C79.2521 20.5779 78.987 20.4808 78.8981 20.4308C78.8263 20.3924 78.5949 20.203 78.5652 20.1949V20.7019C78.6958 20.739 78.8692 20.8335 79.0193 20.8599C79.1857 20.8886 79.3839 20.9196 79.5659 20.9196C80.3038 20.9196 81 20.5074 81 19.7265V19.7078L80.9827 19.4547C80.9376 19.3825 80.92 19.2326 80.8666 19.1291C80.8242 19.0524 80.7425 18.9413 80.6784 18.881C80.5277 18.7417 80.3603 18.6448 80.1724 18.5461C79.9036 18.4028 79.215 18.1611 79.215 17.7923V17.6668L79.215 17.6668ZM40.2339 15.5147H40.9503C41.4709 15.5147 41.8676 16.0782 41.8676 16.6373V16.9806C41.8676 17.669 41.4715 18.1893 40.8328 18.1893H40.2339V15.5147V15.5147ZM41.201 15.2073H39.0497C39.0106 15.2073 39 15.222 39 15.2633C39 15.3286 39.2544 15.3662 39.3393 15.671C39.3903 15.856 39.3994 16.1305 39.3994 16.3654V20.883H40.2168V18.5511C40.2168 18.4533 40.8143 18.4965 40.9342 18.4965C41.1945 18.4966 41.4331 18.4251 41.6333 18.4251C41.7163 18.364 41.9458 18.3088 42.0724 18.2319C42.2129 18.1489 42.3038 18.0669 42.4136 17.9503C42.5888 17.7636 42.7674 17.3898 42.7674 17.0161V16.7263C42.7674 16.2256 42.5247 15.8907 42.2889 15.6369C42.1604 15.4984 41.9835 15.4334 41.8102 15.3441C41.755 15.3149 41.267 15.2073 41.201 15.2073V15.2073ZM44.1023 18.4428C44.1023 18.2452 44.2654 17.7564 44.3406 17.6181C44.4448 17.433 44.6741 17.177 44.9338 17.177H45.1023C45.6069 17.177 45.8183 17.8655 45.8183 18.4428V18.625H44.1023V18.4428L44.1023 18.4428ZM43.2511 18.6964V19.2011C43.2511 19.3808 43.3826 19.8156 43.4452 19.9479C43.5607 20.2 43.6599 20.3047 43.8295 20.49C44.0973 20.7828 44.6108 20.9735 45.1517 20.9735C45.8198 20.9735 46.1037 20.7877 46.5398 20.5377L46.4684 20.2692C46.4355 20.2707 46.0776 20.4851 46.0047 20.525C45.9231 20.5698 45.5355 20.6664 45.4192 20.6664H45.2511C44.4144 20.6664 44.0688 19.8567 44.0688 18.932V18.8759H46.585V18.6072C46.585 17.6594 45.9866 16.9257 45.1023 16.9257H44.852C44.4142 16.9257 43.9746 17.2394 43.755 17.4906C43.6486 17.6104 43.494 17.8518 43.437 18.012C43.3888 18.1443 43.2511 18.5319 43.2511 18.6964V18.6964ZM54.9735 17.8455L54.9567 17.07V17.0161H53.9043V17.0879C54.1241 17.2022 54.2215 17.3524 54.2215 17.7027V20.883H54.9396C55.026 20.883 54.9904 20.4989 54.9904 20.3948C54.9904 20.2136 54.9904 20.0333 54.9904 19.8516C54.9904 19.4902 54.9904 19.1291 54.9904 18.7681C54.9904 18.4143 55.0629 18.1253 55.1797 17.89C55.2691 17.7134 55.5451 17.4491 55.7726 17.4491H56.0231C56.17 17.4491 56.3439 17.6062 56.4448 17.6319L56.574 17.1233C56.3975 17.0718 56.3492 16.9258 56.0067 16.9258C55.7127 16.9258 55.511 17.0747 55.3591 17.2368C55.2932 17.3086 55.1981 17.4259 55.1502 17.5161C55.1065 17.5953 55.0238 17.807 54.9735 17.8455L54.9735 17.8455ZM50.7881 18.4251C50.7881 18.1862 50.9519 17.7684 51.0364 17.6121C51.1399 17.4227 51.3521 17.177 51.6208 17.177H51.7888C52.2649 17.177 52.505 17.8604 52.505 18.4068V18.625H50.7881V18.4251V18.4251ZM49.9374 18.8576V19.2573C49.9374 19.4262 50.0759 19.8137 50.1315 19.951C50.2143 20.1642 50.3518 20.328 50.4911 20.4813C50.7266 20.7381 51.2628 20.9735 51.7382 20.9735H51.8218C52.1133 20.9735 52.3946 20.9364 52.607 20.8499C52.7242 20.7998 53.2049 20.6219 53.2049 20.5022C53.2049 20.4728 53.149 20.2953 53.1388 20.2692C53.0575 20.2886 52.8289 20.4724 52.6912 20.5248C52.5855 20.5631 52.254 20.6664 52.1222 20.6664H51.8882C51.1572 20.6664 50.7536 19.8759 50.7536 19.058V18.8759H53.2711V18.7681C53.2711 17.7061 52.7508 16.9258 51.7887 16.9258H51.5877C50.677 16.9258 49.9374 17.8635 49.9374 18.8576L49.9374 18.8576ZM75.2809 17.5758C75.2809 17.4588 75.3207 16.9442 75.2313 16.9442H74.2313C74.203 16.9442 74.1813 16.9543 74.1813 16.9806C74.1813 17.021 74.5151 17.2099 74.5151 17.5023V20.8096H75.2649V18.0637C75.2649 17.7977 75.8744 17.232 76.1815 17.232H76.3473C76.7064 17.232 76.9145 17.5442 76.9145 17.9379V20.8096H77.6831V18.1534C77.6831 17.2907 77.3274 16.8516 76.5317 16.8516C76.2572 16.8516 75.9387 16.9477 75.7852 17.0747C75.6827 17.1593 75.6116 17.2097 75.5179 17.3086C75.4682 17.3642 75.3192 17.5457 75.2809 17.5758V17.5758ZM69.6625 18.8576C69.6625 19.4864 69.8928 19.9836 70.1838 20.2991C70.4572 20.5973 70.9551 20.9017 71.4956 20.9017H71.7137C72.7295 20.9017 73.5809 20.0639 73.5809 18.9859V18.8217C73.5809 17.626 72.7154 16.8516 71.5967 16.8516C70.5213 16.8516 69.6625 17.7106 69.6625 18.8576L69.6625 18.8576Z" fill="black"/>
<path fill-rule="evenodd" clip-rule="evenodd" d="M28.8554 13.3602C29.5588 13.3602 30.1293 13.938 30.1293 14.6506C30.1293 14.7623 30.1153 14.8704 30.089 14.9737C29.9474 14.4174 29.4487 14.0063 28.8554 14.0063C28.2621 14.0063 27.7634 14.4174 27.6218 14.9737C27.5955 14.8704 27.5815 14.7623 27.5815 14.6506C27.5815 13.938 28.152 13.3602 28.8554 13.3602H28.8554ZM27.7141 22.8832C27.8895 23.1772 28.2297 23.4382 28.8885 23.3852C28.8885 23.3852 28.5374 22.9381 28.4831 22.1393L30.4611 23.0715L30.4725 23.0768C30.7391 23.2024 31.1043 23.2118 31.2641 22.8608L31.9945 21.2563L30.285 20.4604L29.5873 21.9851L28.5056 21.4705V21.2467C28.9042 21.3102 29.2721 21.2004 29.2721 21.2004C28.8827 20.8737 28.6959 20.5385 28.6106 20.2582C28.9741 20.3292 29.3587 20.274 29.5131 20.1987C29.0408 19.9445 28.8417 19.5093 28.7591 19.157C28.9616 18.8833 29.0143 18.7104 29.0236 18.3702C30.16 19.0654 31.0679 18.8015 31.0679 18.8015L30.1622 16.8363C30.8574 16.3948 31.3201 15.6116 31.3201 14.7193C31.3201 13.6969 30.7129 12.8182 29.8441 12.4321C30.8596 12.0351 32.1652 12.3182 32.9705 13.182C34.3287 14.6387 33.7988 17.6455 32.0833 18.7084C32.1239 18.8078 32.5332 18.6941 32.8169 18.5898C34.6641 17.9108 35.7273 15.8232 35.8136 13.9266C35.9367 11.2247 34.3665 9.0219 32.0363 8.27232C29.9383 7.59743 27.1513 8.08217 25.9103 10.7971C24.6694 8.08207 21.8821 7.59743 19.7841 8.27232C17.4539 9.02189 15.8838 11.2247 16.0067 13.9266C16.0932 15.8232 17.1564 17.9107 19.0034 18.5898C19.2871 18.6941 19.6965 18.8078 19.7372 18.7084C18.0216 17.6455 17.4916 14.6387 18.8499 13.182C19.6551 12.3182 20.9607 12.0351 21.9763 12.4321C21.1076 12.8182 20.5003 13.6969 20.5003 14.7193C20.5003 15.6116 20.9629 16.3948 21.6581 16.8363L20.7524 18.8015C20.7524 18.8015 21.6604 19.0653 22.7968 18.3702C22.8061 18.7103 22.8586 18.8834 23.0613 19.157C22.9787 19.5093 22.7796 19.9445 22.3073 20.1987C22.4615 20.274 22.8461 20.3292 23.2097 20.2582C23.1243 20.5386 22.9375 20.8737 22.5481 21.2004C22.5481 21.2004 22.8843 21.3008 23.2623 21.254C22.8387 22.2195 23.2274 23.33 23.6653 23.6347C23.6942 23.2822 23.7933 22.9828 23.9324 22.7294C24.1466 23.9606 25.1784 25.2048 27.4395 24.9728C26.6436 24.7363 26.3286 23.8203 26.3286 23.8203C26.8712 24.2924 27.479 24.4576 27.9313 24.5439C27.7246 23.9702 27.6848 23.4219 27.7141 22.8832L27.7141 22.8832ZM28.8554 13.0353C29.7733 13.0353 30.5177 13.7895 30.5177 14.7193C30.5177 15.6492 29.7733 16.4032 28.8554 16.4032C27.9375 16.4032 27.193 15.6492 27.193 14.7193C27.193 13.7895 27.9375 13.0353 28.8554 13.0353ZM25.8932 18.1472C25.3902 18.1472 25.0264 17.9781 25.0144 17.8728C25.0039 17.78 25.291 17.7959 25.8848 17.795C26.4468 17.7941 26.7379 17.7755 26.7872 17.8614C26.8505 17.972 26.5023 18.1472 25.8932 18.1472H25.8932ZM22.9649 13.0353C23.8829 13.0353 24.6273 13.7895 24.6273 14.7193C24.6273 15.6492 23.8829 16.4032 22.9649 16.4032C22.0471 16.4032 21.3026 15.6492 21.3026 14.7193C21.3026 13.7895 22.0471 13.0353 22.9649 13.0353ZM25.3352 14.0329C25.6089 13.9573 26.0199 13.9021 26.4844 14.0372C26.6956 13.2824 27.2486 12.6728 27.9635 12.3915C27.5154 11.8166 26.7616 11.437 25.9114 11.437H25.9102H25.9101H25.9089C25.0587 11.437 24.305 11.8166 23.8569 12.3915C24.5704 12.6722 25.1229 13.2799 25.3352 14.0328L25.3352 14.0329ZM26.3911 14.7464C25.9665 14.5895 25.6074 14.6727 25.4295 14.7371C25.4219 15.8383 24.7099 16.7704 23.7274 17.094C24.0188 17.066 24.4659 16.967 25.008 16.6642C25.008 16.6642 24.5363 17.5077 23.4259 17.7473V18.2331C23.4259 18.4984 23.4244 18.5747 23.5265 18.72L23.9093 19.2649C23.9668 19.3471 23.9456 19.4334 23.9456 19.5331V21.1655L25.5884 20.39V19.0845C25.2347 18.7325 25.0474 18.5732 24.6501 18.1706C24.3602 17.8771 24.464 17.5996 24.895 17.5996C25.2792 17.5996 25.5945 17.5984 25.8964 17.597V17.6007L25.8966 17.597C26.1985 17.5984 26.5137 17.5996 26.8979 17.5996C27.3289 17.5996 27.4327 17.8771 27.1428 18.1706C26.7561 18.5625 26.5681 18.7239 26.2321 19.0568V20.39L27.8747 21.1655V19.715C27.8747 19.4765 27.8443 19.3944 27.978 19.1903L28.2979 18.7019C28.3997 18.5465 28.3944 18.5037 28.3944 18.2331V17.7449C27.2541 17.5152 26.7245 16.6642 26.7245 16.6642C27.3416 17.0089 27.8351 17.0893 28.1165 17.1018C27.1245 16.7862 26.4027 15.8526 26.3911 14.7464L26.3911 14.7464ZM27.794 21.8178L25.9102 20.9285L24.0264 21.8179C24.4827 22.2832 25.158 22.5793 25.9089 22.5793H25.9101H25.9102H25.9114C26.6625 22.5793 27.3379 22.2831 27.794 21.8178L27.794 21.8178ZM22.9649 13.3602C23.6684 13.3602 24.2389 13.938 24.2389 14.6507C24.2389 14.7623 24.2248 14.8705 24.1986 14.9737C24.0569 14.4174 23.5583 14.0063 22.9649 14.0063C22.3716 14.0063 21.8729 14.4174 21.7314 14.9737C21.7051 14.8705 21.691 14.7623 21.691 14.6507C21.691 13.938 22.2615 13.3602 22.9649 13.3602H22.9649Z" fill="black"/>
</svg>
