<svg width="84" height="32" viewBox="0 0 84 32" fill="none" xmlns="http://www.w3.org/2000/svg">
<path fill-rule="evenodd" clip-rule="evenodd" d="M54.6764 21.8293C54.7752 21.8408 54.8732 21.8522 54.9605 21.9168C55.9908 21.9168 57.0212 21.9168 58.0515 21.9119C58.0662 21.8776 58.0957 21.8727 58.13 21.8727C59.7148 21.8236 61.5449 20.4351 62.0453 18.7669C62.3373 17.7954 62.6353 16.8251 62.9334 15.8549C63.2315 14.8847 63.5295 13.9145 63.8214 12.943C63.9931 12.3788 64.0128 11.8097 63.7527 11.265C63.3455 10.4113 62.5948 10.1071 61.7068 10.0924C61.0609 10.0787 60.4127 10.0818 59.7654 10.0849C59.4882 10.0862 59.2112 10.0875 58.9347 10.0875C57.1782 10.0924 55.4413 11.373 54.9212 13.051C54.4698 14.4984 54.0234 15.9507 53.5867 17.4029C53.5316 17.5858 53.4724 17.7671 53.4133 17.9482C53.2568 18.428 53.1008 18.906 53.0225 19.4048C52.8507 20.5381 53.4689 21.5194 54.5238 21.804C54.574 21.8174 54.6253 21.8233 54.6764 21.8293ZM57.9625 18.9474C57.8207 18.9479 57.6788 18.9485 57.5363 18.9485C57.404 18.9485 57.2712 18.9474 57.1382 18.9463C56.8716 18.9441 56.6043 18.9419 56.3392 18.9485C56.1331 18.9534 56.1086 18.8945 56.1675 18.708C56.6777 17.094 57.183 15.4751 57.6883 13.8562L57.6884 13.8556C57.7072 13.7967 57.7266 13.7378 57.7462 13.6788C57.7981 13.5216 57.8504 13.3636 57.8896 13.2031C57.9239 13.0608 57.9975 13.0313 58.13 13.0313C58.9543 13.0363 59.7835 13.0363 60.6077 13.0313C60.7647 13.0313 60.804 13.0608 60.7549 13.2227C60.1809 15.0724 59.6068 16.927 59.0377 18.7816C58.9984 18.9092 58.9396 18.9485 58.812 18.9485C58.5276 18.9452 58.2454 18.9463 57.9625 18.9474ZM44.7485 21.8283C44.8368 21.8436 44.9252 21.8589 45.0004 21.9177H45.0445C45.1084 21.8839 45.178 21.8875 45.2468 21.8911C45.2678 21.8921 45.2888 21.8932 45.3095 21.8932C45.8198 21.8908 46.3313 21.8908 46.8428 21.8908C47.3543 21.8908 47.8657 21.8908 48.376 21.8883C48.5526 21.8834 48.7391 21.8736 48.9108 21.8343C50.4906 21.4713 51.5357 20.4851 52.0607 18.9788C52.3634 18.1131 52.6272 17.2322 52.8908 16.352C53.0246 15.9053 53.1584 15.4587 53.2971 15.0145C53.3511 14.8525 53.3363 14.7986 53.1499 14.7986C51.8399 14.8035 50.5348 14.8035 49.2248 14.7986C49.1119 14.7986 49.0531 14.8182 49.0138 14.9409C48.793 15.6327 48.5673 16.3245 48.3416 17.0114C48.2975 17.1536 48.3171 17.2174 48.4888 17.2125C48.6711 17.2069 48.8533 17.2077 49.0355 17.2085C49.1722 17.2091 49.3089 17.2097 49.4456 17.2076C49.5731 17.2076 49.6222 17.2272 49.5731 17.3744C49.421 17.8356 49.2788 18.3066 49.1463 18.7777C49.1021 18.9199 49.0236 18.9445 48.8961 18.9445L48.8912 18.9444C48.098 18.9395 47.3097 18.9347 46.5165 18.9445C46.3104 18.9494 46.2957 18.8856 46.3545 18.7041C46.9237 16.8887 47.4879 15.0782 48.0473 13.2629C48.1061 13.0813 48.1895 13.0323 48.376 13.0323C49.4417 13.0382 50.5056 13.0387 51.5699 13.0393C52.2794 13.0397 52.989 13.0401 53.6994 13.0421C53.8515 13.0421 53.93 13.0077 53.9791 12.8507C54.1826 12.1893 54.3955 11.5247 54.6078 10.862C54.6616 10.6939 54.7154 10.526 54.769 10.3583C54.8102 10.2299 54.831 10.1649 54.8073 10.132C54.783 10.0982 54.7119 10.0982 54.5679 10.0982H49.1463C47.3604 10.0982 45.6873 11.3199 45.1525 13.0225C45.0331 13.4035 44.9132 13.7845 44.7933 14.1655C44.5534 14.9277 44.3135 15.6898 44.078 16.452C43.9866 16.7495 43.8888 17.0455 43.791 17.3416C43.5791 17.9832 43.3671 18.6251 43.2194 19.283C42.9544 20.4556 43.5432 21.4811 44.6177 21.8C44.6602 21.8131 44.7044 21.8207 44.7485 21.8283Z" fill="#ED1F24"/>
<path fill-rule="evenodd" clip-rule="evenodd" d="M16.2191 17.0523C16.1653 17.2567 16.1117 17.4604 16.0034 17.6491V18.3899C16.009 18.3973 16.0159 18.404 16.0226 18.4105L16.0226 18.4105C16.0338 18.4213 16.0445 18.4316 16.0476 18.4439C16.3518 19.538 16.9847 20.0188 18.1279 20.0188H41.5265C41.5463 20.0188 41.5655 20.0183 41.5846 20.0177C41.6222 20.0167 41.6591 20.0156 41.6982 20.0188C41.8209 20.0287 41.8699 19.9943 41.865 19.8569C41.8503 19.5773 41.8797 19.2976 41.9435 19.0278C42.1218 18.2855 42.354 17.5595 42.5862 16.8337C42.6671 16.5807 42.748 16.3277 42.8267 16.0741C42.938 15.7124 43.0466 15.3501 43.1553 14.9874L43.1553 14.9873C43.4536 13.992 43.7525 12.9943 44.1121 12.0018H43.8619H19.8991C18.6676 12.0018 17.4901 12.8702 17.1319 14.0429C17.0669 14.2573 17.0021 14.4717 16.9374 14.686C16.7237 15.3938 16.5102 16.1009 16.288 16.8052C16.2626 16.887 16.2408 16.9697 16.2191 17.0523ZM30.2467 13.6149C30.3121 13.6155 30.3775 13.616 30.4429 13.616C30.498 13.616 30.553 13.6157 30.6082 13.6154C30.7744 13.6145 30.942 13.6135 31.1151 13.6209C31.7333 13.6405 32.1111 14.1263 31.9345 14.7199C31.7076 15.4867 31.4725 16.2514 31.2371 17.0167C31.111 17.4267 30.9849 17.8369 30.86 18.2476C30.8207 18.3605 30.7618 18.3948 30.649 18.3899C30.389 18.3801 30.124 18.3752 29.864 18.3899C29.653 18.3997 29.5892 18.3654 29.6726 18.1397C29.7435 17.9571 29.7992 17.7669 29.8549 17.5767C29.8995 17.4245 29.9441 17.2724 29.9964 17.1241C30.0602 16.9425 30.0014 16.9082 29.8394 16.9131C29.5598 16.918 29.285 16.918 29.0054 16.9131C28.8925 16.9131 28.8336 16.9425 28.7993 17.0652C28.7429 17.2565 28.6803 17.4442 28.6178 17.6319L28.6178 17.6319C28.5552 17.8196 28.4926 18.0072 28.4362 18.1986C28.397 18.3409 28.3381 18.3948 28.186 18.3899C27.9076 18.3753 27.634 18.3801 27.3556 18.385L27.3519 18.385L27.3418 18.385C27.2305 18.3852 27.1718 18.3852 27.2194 18.228C27.3785 17.7209 27.5337 17.2118 27.6889 16.703L27.6889 16.7029L27.6889 16.7029C27.8881 16.05 28.0871 15.3974 28.2939 14.7494C28.5 14.0968 29.1722 13.6307 29.8542 13.616C29.985 13.6127 30.1158 13.6138 30.2467 13.6149H30.2467ZM21.5722 13.6209V13.6258C21.6996 13.6258 21.8275 13.6242 21.9556 13.6226C22.2124 13.6193 22.4699 13.616 22.7252 13.6258C23.2453 13.6454 23.6181 14.1165 23.4857 14.6218L23.457 14.7315L23.457 14.7315C23.3294 15.221 23.2005 15.7157 22.995 16.1722C22.7055 16.815 22.1658 17.183 21.4348 17.1977C21.1257 17.2075 20.8117 17.2075 20.5026 17.1977C20.3554 17.1928 20.2818 17.2418 20.2425 17.3841C20.2008 17.5289 20.1555 17.6711 20.1101 17.8134C20.0647 17.9557 20.0193 18.098 19.9776 18.2427C19.9482 18.3458 19.904 18.3899 19.7912 18.3899C19.487 18.385 19.1877 18.385 18.8835 18.3899C18.7559 18.3948 18.7412 18.3556 18.7804 18.2329C19.2416 16.7512 19.6979 15.2646 20.1493 13.7779C20.1886 13.6503 20.2474 13.6209 20.3701 13.6209C20.6381 13.6242 20.904 13.6231 21.1706 13.622L21.1706 13.622C21.3042 13.6215 21.4379 13.6209 21.5722 13.6209ZM35.4474 13.616H36.5269C36.435 13.9063 36.3481 14.1938 36.2619 14.479L36.2619 14.4791L36.2618 14.4793C36.0902 15.0472 35.9214 15.6056 35.7222 16.1575C35.5063 16.7365 35.0353 17.075 34.4269 17.1928C34.2748 17.2222 34.2061 17.286 34.1669 17.4234C34.1346 17.5364 34.099 17.6477 34.0635 17.7588C34.0126 17.9178 33.962 18.0761 33.9216 18.2378C33.8872 18.3703 33.8234 18.4046 33.7008 18.4046C33.4162 18.3997 33.1267 18.3997 32.8422 18.4046C32.7195 18.4046 32.6557 18.3899 32.7146 18.2378C32.8069 17.9887 32.8818 17.7309 32.9556 17.4767L32.9557 17.4767L32.9557 17.4766L32.9697 17.4283L32.9715 17.4214C33.0001 17.3122 33.02 17.2361 32.8422 17.1977C32.2632 17.0652 32.0228 16.6383 32.1896 16.0545C32.3 15.6767 32.4153 15.3013 32.5306 14.926C32.6459 14.5507 32.7612 14.1753 32.8716 13.7975C32.9059 13.6749 32.955 13.616 33.0875 13.6209C33.372 13.6258 33.6615 13.6258 33.9461 13.6209C34.108 13.616 34.108 13.67 34.0638 13.8074C33.9584 14.1435 33.8578 14.4808 33.7572 14.8181C33.6566 15.1554 33.556 15.4927 33.4505 15.8288C33.4015 15.9858 33.4309 16.0299 33.5928 16.025C33.8725 16.0152 34.1473 16.0152 34.4269 16.025C34.5741 16.0299 34.6183 15.9711 34.6575 15.8386C34.8052 15.3342 34.9609 14.8352 35.1167 14.3356L35.117 14.3344C35.1733 14.154 35.2296 13.9735 35.2855 13.7926L35.2905 13.7743C35.3126 13.6925 35.3333 13.616 35.4474 13.616ZM25.2663 18.3937H25.2662H25.2662C25.0896 18.3943 24.9132 18.3948 24.7368 18.3948C24.4707 18.3948 24.2034 18.3936 23.9373 18.3924L23.937 18.3924L23.9367 18.3924C23.6731 18.3911 23.4108 18.3899 23.152 18.3899C22.9705 18.3948 22.9509 18.336 22.9999 18.1789C23.4508 16.7235 23.9016 15.2632 24.3524 13.8029L24.3537 13.7988L24.3541 13.7975C24.3933 13.6651 24.4473 13.5964 24.6043 13.6062C24.8644 13.6209 25.1293 13.6209 25.3893 13.6062C25.6052 13.5915 25.6052 13.6749 25.5513 13.8466C25.2978 14.6538 25.0536 15.4579 24.8089 16.2638L24.619 16.8886C24.5702 17.0449 24.5457 17.1234 24.5745 17.1628C24.6036 17.2026 24.687 17.2026 24.8545 17.2026C24.9429 17.2047 25.0303 17.2041 25.1176 17.2035C25.234 17.2027 25.3501 17.2019 25.4678 17.2075C25.6199 17.2124 25.6984 17.178 25.7426 17.0112C25.7824 16.8575 25.8336 16.7081 25.8846 16.5591L25.8846 16.5591C25.9281 16.4322 25.9715 16.3057 26.0076 16.1771C26.0419 16.0447 26.1057 16.0152 26.2283 16.0152C26.5129 16.0201 26.8024 16.025 27.087 16.0152C27.2587 16.0103 27.244 16.079 27.1998 16.2066C26.979 16.8788 26.7631 17.546 26.5669 18.2231C26.5227 18.3703 26.4589 18.3948 26.3314 18.3948C25.9747 18.3916 25.6202 18.3927 25.2664 18.3937H25.2664H25.2663ZM40.5012 16.1247C40.5133 16.0954 40.5259 16.0648 40.4961 16.0201C40.3875 16.0201 40.2772 16.0207 40.1661 16.0212H40.166H40.166C39.9408 16.0223 39.712 16.0234 39.4854 16.0201C39.3587 16.0201 39.337 16.0941 39.313 16.1761C39.3101 16.1862 39.3071 16.1964 39.3039 16.2066C39.2499 16.3792 39.1952 16.5511 39.1406 16.7228C38.9965 17.1756 38.853 17.6268 38.7249 18.0857C38.6562 18.336 38.5483 18.4341 38.2882 18.4046C38.1078 18.385 37.9243 18.3905 37.7401 18.396C37.6939 18.3974 37.6476 18.3988 37.6014 18.3997C37.4787 18.3997 37.4198 18.3801 37.464 18.2329C37.5556 17.9411 37.6437 17.6486 37.7318 17.3561L37.7318 17.3561C37.8747 16.8815 38.0176 16.4072 38.1754 15.9367C38.4011 15.2547 39.0684 14.8034 39.7847 14.8034H40.9377C41.5706 14.8034 41.9582 15.2891 41.7865 15.8975C41.6573 16.3598 41.5163 16.817 41.3754 17.2741L41.3754 17.2742L41.3754 17.2742C41.2755 17.5982 41.1756 17.9221 41.08 18.2476C41.0456 18.3654 40.9868 18.3997 40.8739 18.3997C40.5893 18.3948 40.2999 18.3899 40.0153 18.3997C39.8485 18.4046 39.8239 18.3507 39.8681 18.1986C40.0791 17.5166 40.2852 16.8346 40.4912 16.1526C40.4936 16.1432 40.4974 16.134 40.5012 16.1247ZM37.6571 15.0083C37.5915 15.0088 37.5228 15.0094 37.4493 15.0094C37.3831 14.999 37.3022 15.0095 37.2198 15.0203C37.0699 15.0398 36.9151 15.0599 36.836 14.9554C36.7652 14.8611 36.8333 14.7066 36.9019 14.5508C36.9332 14.4797 36.9647 14.4083 36.9831 14.3421C37.0025 14.2773 37.0175 14.2065 37.0327 14.1354L37.0327 14.1353C37.0714 13.9535 37.1107 13.7687 37.2236 13.67C37.3379 13.5695 37.5255 13.5913 37.7106 13.6129C37.7877 13.6218 37.8643 13.6307 37.935 13.6307C37.9916 13.6294 38.0525 13.6221 38.1136 13.6147C38.2802 13.5947 38.4487 13.5744 38.5385 13.6749C38.5908 13.7342 38.5264 13.8955 38.4637 14.0525C38.4383 14.1161 38.4132 14.179 38.3962 14.2342C38.3742 14.3069 38.3505 14.379 38.3268 14.4509L38.3268 14.451C38.2818 14.5878 38.237 14.724 38.2048 14.8622C38.1754 14.9849 38.1165 15.0143 38.0037 15.0094C37.8918 15.0062 37.7799 15.0072 37.6572 15.0083H37.6571ZM67.7882 17.0477L67.7882 17.0477L67.7882 17.0477C67.8456 16.8499 67.9031 16.652 67.967 16.456C68.0252 16.2774 68.0953 16.0894 68.1677 15.8953C68.4412 15.1617 68.7471 14.3412 68.5656 13.6152C68.389 12.7467 67.946 12.2547 67.372 12.137C66.9618 12.0528 66.498 12.0521 66.0555 12.0513C65.8786 12.051 65.7051 12.0507 65.5398 12.0451C65.4603 12.0418 63.4631 18.444 63.3256 18.9043C63.2127 19.2771 63.0753 19.6353 62.9085 20.0229C63.1886 20.004 63.4642 20.0128 63.7358 20.0215C64.1684 20.0353 64.5906 20.0488 65.0036 19.9493C66.1958 19.6598 67.1231 19.0269 67.55 17.815C67.6388 17.5625 67.7134 17.3053 67.7882 17.0478L67.7882 17.0477ZM29.727 16.0194C29.1284 16.0194 29.1284 16.0194 29.3001 15.4405C29.3962 15.1152 29.444 14.9533 29.5524 14.8727C29.6597 14.7928 29.8266 14.7928 30.1587 14.7928C30.6984 14.7928 30.6984 14.7928 30.5365 15.308C30.5292 15.33 30.5218 15.3533 30.5145 15.3765L30.5144 15.3767C30.5071 15.4 30.4997 15.4233 30.4924 15.4454C30.3206 16.0194 30.3206 16.0194 29.727 16.0194ZM22.0416 15.4944C22.11 15.2686 22.1791 15.0404 22.2501 14.8025C22.0573 14.8025 21.8722 14.8038 21.6908 14.805C21.5166 14.8062 21.3459 14.8074 21.1752 14.8074C21.0672 14.8025 21.0328 14.8565 21.0083 14.9448C20.9455 15.1577 20.8777 15.3731 20.8103 15.5873C20.7828 15.6745 20.7555 15.7615 20.7285 15.848C20.6892 15.9707 20.7187 16.0296 20.861 16.0247C21.1457 16.0149 21.4353 16.0198 21.72 16.0247C21.8231 16.0247 21.8918 15.9953 21.9213 15.8922C21.9613 15.7594 22.0013 15.6273 22.0416 15.4944Z" fill="#21A7FF"/>
</svg>
