<svg width="88" height="32" viewBox="0 0 88 32" fill="none" xmlns="http://www.w3.org/2000/svg">
<path d="M64.3653 9.76225C61.6316 9.93028 62.8591 13.4513 65.8813 13.2655C68.8376 13.0837 67.2779 9.58325 64.3653 9.76225Z" fill="#FF9C2C"/>
<path d="M63.211 7.58733C61.4691 7.58733 59.7663 8.09817 58.318 9.05524C56.8696 10.0123 55.7408 11.3726 55.0742 12.9642C54.4076 14.5558 54.2332 16.3071 54.573 17.9967C54.9129 19.6862 55.7517 21.2382 56.9834 22.4564C58.2151 23.6745 59.7844 24.504 61.4928 24.8401C63.2012 25.1762 64.972 25.0037 66.5814 24.3445C68.1907 23.6852 69.5661 22.5688 70.5339 21.1365C71.5016 19.7041 72.0182 18.0201 72.0182 16.2974C72.0182 13.9873 71.0903 11.7719 69.4386 10.1385C67.7869 8.50499 65.5468 7.58733 63.211 7.58733V7.58733ZM63.211 24.0946C61.652 24.0949 60.1279 23.638 58.8316 22.7816C57.5352 21.9252 56.5247 20.7079 55.9279 19.2835C55.3311 17.8591 55.1748 16.2917 55.4788 14.7795C55.7828 13.2673 56.5334 11.8782 57.6356 10.7879C58.7379 9.69761 60.1424 8.95506 61.6714 8.65417C63.2004 8.35328 64.7853 8.50757 66.2256 9.09753C67.666 9.68749 68.8971 10.6866 69.7632 11.9686C70.6294 13.2505 71.0917 14.7577 71.0917 16.2995C71.0917 18.3666 70.2614 20.3492 68.7836 21.811C67.3057 23.2728 65.3012 24.0943 63.211 24.0946V24.0946ZM62.9454 1.50673C60.8546 3.06975 61.2179 5.46673 61.2179 5.46673C61.2179 5.46673 59.9038 2.09312 58.1971 0.0308228C57.9669 2.68568 58.8081 6.20332 58.8081 6.20332C58.8081 6.20332 57.7394 4.02237 55.1209 3.90029C57.2928 5.13479 58.1354 7.35895 58.3282 7.95562C59.6226 7.16546 61.1028 6.72249 62.6229 6.67037C62.4516 6.11485 61.8428 3.7741 62.9454 1.50673V1.50673Z" fill="#FF9C2C"/>
<path d="M17.767 17.1514V18.9744H17V14.2778H18.6144C19.1618 14.2778 19.5733 14.4065 19.8488 14.6639C20.1243 14.9213 20.263 15.2738 20.2649 15.7215C20.2649 16.1654 20.1237 16.5147 19.8412 16.7694C19.5587 17.0241 19.1507 17.1514 18.6172 17.1514H17.767ZM19.482 15.7215C19.482 15.4554 19.4068 15.2523 19.2566 15.1124C19.1063 14.9725 18.8655 14.9028 18.534 14.9033H17.767V16.5328H18.534C19.1655 16.5328 19.4815 16.2623 19.482 15.7215V15.7215ZM23.4306 18.9744L22.2469 17.0986H21.7018V18.9744H20.9348V14.2778H22.6102C23.1525 14.2778 23.564 14.4085 23.8446 14.6701C24.1253 14.9316 24.2653 15.2777 24.2649 15.7084C24.2649 16.0742 24.1606 16.3757 23.9521 16.613C23.7436 16.8503 23.4431 17.001 23.0506 17.065L24.2989 18.9744H23.4306ZM21.7018 16.5595H22.5478C23.1673 16.5595 23.4769 16.2891 23.4764 15.7482C23.4764 15.4912 23.4013 15.2905 23.251 15.146C23.1005 15.002 22.8668 14.93 22.5478 14.93H21.7018V16.5595ZM27.7898 17.9566H25.785L25.4216 18.9744H24.6012L26.3502 14.3512H27.2316L28.9736 18.9744H28.1525L27.7898 17.9566ZM27.5742 17.3716L26.7871 15.1769L26 17.3716H27.5742ZM32.8481 14.6502C33.2245 14.9252 33.4894 15.324 33.5949 15.7749H32.7877C32.6871 15.5251 32.5092 15.3131 32.2794 15.1694C32.0289 15.0143 31.7378 14.9356 31.4424 14.943C31.1626 14.9385 30.8868 15.0097 30.6449 15.1488C30.4082 15.2875 30.2168 15.4906 30.0936 15.7338C29.9565 16.0119 29.8896 16.3188 29.8987 16.6281C29.8897 16.9481 29.9589 17.2655 30.1005 17.5533C30.226 17.8012 30.4239 18.0062 30.6685 18.1418C30.9293 18.2819 31.2225 18.3528 31.5193 18.3475C31.892 18.3539 32.2537 18.2229 32.5339 17.9799C32.8159 17.7385 32.9863 17.407 33.045 16.9854H31.3009V16.4265H33.6885V17.1514C33.6382 17.4893 33.5106 17.8113 33.3155 18.0931C33.1175 18.3774 32.852 18.6094 32.5422 18.7686C32.2023 18.9412 31.8244 19.0279 31.4424 19.021C31.0138 19.0297 30.5907 18.924 30.2177 18.7151C29.8678 18.5157 29.5831 18.2213 29.3973 17.8667C29.207 17.4802 29.1081 17.056 29.1081 16.6261C29.1081 16.1962 29.207 15.7719 29.3973 15.3854C29.5823 15.0323 29.8658 14.7391 30.2142 14.5404C30.5867 14.3337 31.0084 14.2293 31.4354 14.238C32.0009 14.238 32.4717 14.3754 32.8481 14.6502V14.6502ZM39.1039 14.3512V18.9744H38.33V15.5088L36.9784 18.9744H36.3057L34.9465 15.5088V18.9744H34.1802V14.3512H35.1081L36.6552 18.043L38.1754 14.3512H39.1039ZM42.857 17.9566H40.8556L40.4923 18.9744H39.6691L41.4181 14.3512H42.2988L44.0415 18.9744H43.2204L42.857 17.9566ZM42.642 17.3716L41.8549 15.1769L41.0678 17.3716H42.642ZM47.3237 14.2778V14.8895H45.9985V18.9744H45.2246V14.8895H43.9069V14.2778H47.3237ZM48.5005 14.2778V18.9744H47.7343V14.2778H48.5005ZM52.8396 14.6701C53.2288 14.9682 53.5038 15.3883 53.6198 15.8614H52.8057C52.7017 15.5873 52.515 15.3514 52.271 15.1858C52.0047 15.0132 51.6911 14.9261 51.3729 14.9362C51.1061 14.932 50.8435 15.0034 50.6163 15.1419C50.3892 15.2857 50.2073 15.4896 50.0914 15.7304C49.9652 16.011 49.9 16.3148 49.9 16.622C49.9 16.9291 49.9652 17.2329 50.0914 17.5135C50.2071 17.7547 50.389 17.9588 50.6163 18.1027C50.8435 18.2413 51.106 18.3127 51.3729 18.3084C51.691 18.3187 52.0046 18.2318 52.271 18.0595C52.5137 17.8954 52.7002 17.6622 52.8057 17.3908H53.6198C53.5045 17.863 53.2292 18.282 52.8396 18.5779C52.4541 18.8687 51.9698 19.0141 51.3868 19.0141C50.9694 19.0219 50.5578 18.9171 50.1961 18.711C49.8527 18.5114 49.5748 18.218 49.3958 17.8661C49.2095 17.4784 49.1129 17.0546 49.1129 16.6254C49.1129 16.1962 49.2095 15.7724 49.3958 15.3847C49.5754 15.0323 49.8531 14.738 50.1961 14.5363C50.5572 14.3284 50.9691 14.2226 51.3868 14.2305C51.9693 14.2309 52.4536 14.3774 52.8396 14.6701ZM57.2377 17.1514V18.9744H56.4714V14.2778H58.0858C58.6323 14.2778 59.0437 14.4065 59.3202 14.6639C59.5967 14.9213 59.7354 15.2738 59.7363 15.7215C59.7363 16.1654 59.595 16.5147 59.3126 16.7694C59.0301 17.0241 58.6221 17.1514 58.0886 17.1514H57.2377ZM58.9554 15.7215C58.9554 15.4554 58.8803 15.2523 58.73 15.1124C58.5798 14.9725 58.3387 14.9028 58.0067 14.9033H57.2377V16.5328H58.0047C58.6385 16.5328 58.9554 16.2623 58.9554 15.7215V15.7215ZM61.0518 18.3825H62.6933V18.9744H60.2848V14.2778H61.0518V18.3825ZM66.2044 17.9566H64.2002L63.8368 18.9744H63.0157L64.7654 14.3512H65.6461L67.3888 18.9744H66.5677L66.2044 17.9566ZM65.9894 17.3716L65.2023 15.1769L64.4152 17.3716H65.9894ZM70.4672 14.2778L68.8867 17.2646V18.9744H68.1149V17.2646L66.5275 14.2778H67.4159L68.506 16.4532L69.5955 14.2778H70.4672Z" fill="black"/>
</svg>
