<svg width="72" height="32" viewBox="0 0 72 32" fill="none" xmlns="http://www.w3.org/2000/svg">
<g clip-path="url(#clip0_8908_285776)">
<path d="M45.5089 16.9955C45.2298 16.9955 44.9508 16.9955 44.6718 16.9955C44.4424 16.9893 44.2625 16.8837 44.1571 16.6849C44.0455 16.4736 44.0517 16.2624 44.1881 16.0635C44.3121 15.8771 44.492 15.7964 44.7152 15.7964C45.2112 15.7964 45.7073 15.7902 46.2033 15.7964C46.6684 15.8088 47.0838 15.4422 47.1086 14.9638C47.121 14.6469 47.1272 14.3239 47.1024 14.007C47.0652 13.5721 46.6808 13.2365 46.2405 13.2365C45.7259 13.2303 45.2112 13.2365 44.7028 13.2365C44.2439 13.2365 43.9525 12.7706 44.1633 12.3605C44.2625 12.1617 44.43 12.0436 44.6532 12.0374C45.2174 12.0312 45.7817 12.025 46.3521 12.0374C46.7986 12.0498 47.1892 12.2176 47.5365 12.4972C47.9705 12.8575 48.2309 13.3173 48.2991 13.8765C48.3115 13.9759 48.3177 14.0815 48.3177 14.1809C48.3115 14.5102 48.3239 14.8395 48.2929 15.1626C48.2495 15.61 48.0573 15.9952 47.7535 16.3183C47.3938 16.7097 46.9474 16.9334 46.4265 16.9831C46.1971 17.0079 45.9615 16.9893 45.7259 16.9955C45.6391 16.9955 45.5771 16.9955 45.5089 16.9955Z" fill="#F26A24"/>
<path d="M55.9937 19.9095C55.9937 20.1705 55.8511 20.3817 55.6093 20.4812C55.3923 20.5681 55.138 20.5184 54.9706 20.3382C54.9148 20.2823 54.8714 20.214 54.8404 20.1394C54.6544 19.7542 54.4684 19.369 54.2823 18.9838C53.9475 18.2817 53.6127 17.5796 53.2716 16.8775C53.036 16.3867 52.8004 15.8958 52.5648 15.405C52.2734 14.7961 51.9757 14.1748 51.6781 13.5535C51.5727 13.3298 51.4611 13.0999 51.3557 12.8762C51.2379 12.6215 51.2999 12.3419 51.5169 12.1555C51.7091 11.9877 52.0067 11.9753 52.2238 12.1244C52.2982 12.1741 52.3664 12.2487 52.4098 12.3232C52.5586 12.6153 52.7012 12.9135 52.8438 13.2117C52.9244 13.3857 53.0112 13.5535 53.0918 13.7274C53.3461 14.2493 53.5941 14.7775 53.8483 15.2994C54.0405 15.697 54.2327 16.1009 54.425 16.4985C54.7722 17.2192 55.1132 17.94 55.4605 18.6545C55.6155 18.9713 55.7643 19.2882 55.9193 19.6051C55.9565 19.7107 55.9999 19.8101 55.9937 19.9095Z" fill="#F26A24"/>
<path d="M26.6156 16.2748C26.6156 15.057 26.6156 13.8392 26.6156 12.6214C26.6156 12.3791 26.7272 12.2051 26.938 12.0933C27.1426 11.9877 27.3534 12.0001 27.5457 12.1306C27.7317 12.2548 27.8123 12.4412 27.8123 12.6649C27.8123 13.9324 27.8123 15.1937 27.8123 16.4611C27.8123 17.5919 27.8123 18.7227 27.8123 19.8535C27.8123 19.9778 27.7937 20.0959 27.7317 20.2139C27.5333 20.5805 27 20.6302 26.7458 20.3009C26.6528 20.1828 26.6094 20.0524 26.6094 19.9032C26.6218 18.6979 26.6156 17.4863 26.6156 16.2748Z" fill="#F26A24"/>
<path d="M50.308 16.281C50.308 17.4863 50.308 18.6979 50.308 19.9033C50.308 20.1891 50.1468 20.4127 49.8864 20.4935C49.5082 20.6178 49.1113 20.3258 49.1113 19.9281C49.1113 19.3441 49.1113 18.76 49.1113 18.176C49.1113 16.3245 49.1113 14.4729 49.1113 12.6276C49.1113 12.3232 49.3407 12.0622 49.6446 12.0312C49.9484 12.0001 50.2274 12.1927 50.2956 12.4972C50.308 12.5531 50.3142 12.609 50.3142 12.6711C50.308 13.8703 50.308 15.0756 50.308 16.281Z" fill="#F26A24"/>
<path d="M16.0003 18.4307C15.9817 18.1636 16.1739 17.9399 16.3971 17.8591C16.7877 17.7224 17.1846 18.002 17.197 18.4245C17.2094 18.7724 17.3582 19.0334 17.6558 19.2074C17.9659 19.3938 18.4309 19.3378 18.6975 19.0831C18.8897 18.8967 18.9828 18.673 18.989 18.4059C18.9952 18.1573 19.1192 17.9709 19.3486 17.8777C19.5718 17.7783 19.7888 17.8094 19.9748 17.9709C20.1361 18.1076 20.1919 18.2878 20.1857 18.4991C20.1733 18.8221 20.0927 19.1266 19.9376 19.4062C19.857 19.5491 19.7516 19.6796 19.6524 19.8163C19.6276 19.8473 19.6214 19.8722 19.64 19.9032C19.795 20.1828 19.9438 20.4624 20.0989 20.7358C20.2539 21.0154 20.1733 21.3261 19.9562 21.5C19.7206 21.6926 19.3858 21.6802 19.175 21.4752C19.0944 21.4006 19.0448 21.295 18.989 21.2018C18.8587 20.9781 18.7409 20.7482 18.6169 20.5183C18.5921 20.4749 18.5673 20.4624 18.5177 20.4749C18.0775 20.5681 17.6558 20.5183 17.2466 20.3382C16.9738 20.2201 16.7381 20.0461 16.5397 19.8225C16.2049 19.4435 16.0189 18.9961 16.0003 18.4307Z" fill="#F26A24"/>
<path d="M33.9691 17.2564C33.9629 17.1011 34.0435 16.9644 34.1365 16.8339C34.3039 16.5978 34.4775 16.3555 34.645 16.1132C35.0108 15.5913 35.3704 15.0756 35.7363 14.5537C36.0897 14.0504 36.4431 13.5472 36.7966 13.0377C36.9826 12.7705 37.1748 12.5033 37.3608 12.2362C37.5034 12.0374 37.7514 11.9504 37.9871 12.0063C38.2165 12.0622 38.3963 12.261 38.4335 12.4971C38.4583 12.6649 38.4149 12.814 38.3219 12.9507C38.0429 13.3421 37.7701 13.7398 37.4972 14.1312C37.0508 14.7649 36.6043 15.3987 36.1579 16.0386C35.7921 16.5606 35.4324 17.0825 35.0604 17.5982C34.8 17.9647 34.2853 17.9461 34.0497 17.5671C33.9939 17.4801 33.9691 17.3807 33.9691 17.2564Z" fill="#F26A24"/>
<path d="M16.0064 14.0634C16.0188 13.616 16.1614 13.2122 16.4281 12.858C16.7753 12.3982 17.2404 12.1248 17.8108 12.0503C18.4061 11.9633 18.9455 12.1186 19.4168 12.4976C19.857 12.8642 20.1112 13.3302 20.1794 13.9018C20.1918 14.0261 20.2042 14.1503 20.167 14.2746C20.0864 14.5604 19.8012 14.753 19.5098 14.7095C19.2183 14.6723 19.0013 14.4175 18.9951 14.1193C18.9889 13.8645 18.9083 13.6409 18.7161 13.4669C18.4371 13.2122 18.1146 13.1438 17.7674 13.2867C17.4078 13.4296 17.2217 13.7154 17.2093 14.1069C17.1969 14.5542 16.7753 14.84 16.3723 14.666C16.149 14.5728 16.025 14.3864 16.0126 14.1441C16.0002 14.1193 16.0064 14.0882 16.0064 14.0634Z" fill="#F26A24"/>
<path d="M31.0489 12.0187C31.5387 12.025 31.979 12.1803 32.3634 12.4909C32.8718 12.9072 33.1323 13.4478 33.1447 14.1064C33.1509 14.3487 33.0021 14.5786 32.7912 14.6656C32.5432 14.7712 32.32 14.7277 32.1278 14.5475C32.0038 14.4357 31.948 14.2803 31.948 14.1126C31.9418 13.659 31.6193 13.2862 31.1729 13.2303C30.6334 13.162 30.1684 13.572 30.1622 14.125C30.1622 14.4232 29.9576 14.6593 29.6723 14.709C29.3189 14.7774 28.9717 14.4916 28.9717 14.1312C28.9717 13.6342 29.1205 13.1868 29.4367 12.8078C29.784 12.3853 30.2242 12.1244 30.7698 12.0436C30.8567 12.0312 30.9559 12.025 31.0489 12.0187Z" fill="#F26A24"/>
<path d="M40.9453 20.5246C40.4183 20.5184 39.9532 20.3444 39.5564 19.984C39.1038 19.574 38.8743 19.0583 38.8557 18.4494C38.8433 18.002 39.2774 17.7038 39.6866 17.8778C39.9222 17.9772 40.04 18.1636 40.0524 18.4183C40.0586 18.6047 40.102 18.7787 40.2075 18.934C40.4369 19.2757 40.8957 19.4186 41.2802 19.2633C41.6212 19.1266 41.8382 18.8035 41.8444 18.4307C41.8506 17.9958 42.266 17.7162 42.6691 17.8715C42.8861 17.9585 43.0349 18.176 43.0349 18.4183C43.0349 18.8967 42.8861 19.3254 42.5947 19.7044C42.266 20.1269 41.832 20.3879 41.305 20.4873C41.243 20.4997 41.1809 20.5059 41.1127 20.5122C41.0631 20.5246 41.0011 20.5246 40.9453 20.5246Z" fill="#F26A24"/>
<path d="M31.0739 20.5246C30.4848 20.5121 29.9888 20.3133 29.5858 19.9095C29.2137 19.5367 29.0153 19.0893 28.9719 18.5674C28.9595 18.4121 28.9719 18.263 29.0525 18.1201C29.1889 17.8964 29.4555 17.7783 29.6974 17.8405C29.964 17.9088 30.15 18.1263 30.1624 18.3996C30.1686 18.5488 30.1934 18.6979 30.2616 18.8346C30.5158 19.3378 31.1855 19.4807 31.6196 19.1204C31.8366 18.9402 31.9482 18.7103 31.9482 18.4307C31.9544 17.9896 32.376 17.71 32.7853 17.8715C33.0085 17.9647 33.1573 18.207 33.1511 18.4618C33.1387 18.934 32.9899 19.3627 32.6923 19.7293C32.3326 20.1704 31.8738 20.4314 31.3095 20.5059C31.2227 20.5183 31.1421 20.5246 31.0739 20.5246Z" fill="#F26A24"/>
<path d="M40.9081 12.0249C41.4475 12.0311 41.894 12.1865 42.2784 12.5033C42.7682 12.9134 43.0225 13.4478 43.0411 14.0877C43.0473 14.3859 42.8736 14.6158 42.5884 14.6966C42.2226 14.796 41.8443 14.5102 41.8443 14.1312C41.8443 13.8951 41.7699 13.6776 41.6025 13.5099C41.3607 13.2614 41.0631 13.1619 40.722 13.2551C40.3066 13.367 40.0648 13.6963 40.0524 14.1312C40.0462 14.3797 39.8974 14.591 39.6679 14.678C39.4509 14.7649 39.1905 14.7028 39.0231 14.5288C38.8805 14.3797 38.8433 14.1995 38.8619 14.0007C38.8929 13.5409 39.0479 13.1309 39.3393 12.7829C39.6927 12.3542 40.1516 12.1057 40.7034 12.0374C40.7778 12.0311 40.8647 12.0249 40.9081 12.0249Z" fill="#F26A24"/>
<path d="M23.3979 20.5245C22.8398 20.5121 22.3562 20.3319 21.9593 19.9591C21.5315 19.5553 21.3145 19.0582 21.2897 18.4742C21.2711 18.0268 21.6865 17.7162 22.1019 17.8653C22.3252 17.9461 22.4802 18.1759 22.4864 18.4245C22.4926 18.6171 22.5422 18.791 22.6538 18.9464C22.8832 19.2819 23.3359 19.4186 23.7141 19.257C24.0737 19.1079 24.2597 18.8283 24.2783 18.4369C24.2907 17.9709 24.7558 17.6789 25.1526 17.8901C25.3573 18.002 25.4689 18.1759 25.4751 18.412C25.4813 18.9091 25.3262 19.3502 25.0162 19.7292C24.5884 20.2511 24.0427 20.5121 23.3979 20.5245Z" fill="#F26A24"/>
<path d="M55.988 18.934C55.8268 18.5985 55.6718 18.2692 55.5106 17.9337C55.2936 17.4801 55.0703 17.0203 54.8533 16.5668C54.8223 16.4984 54.8037 16.4301 54.8037 16.3493C54.8037 15.1129 54.8037 13.8827 54.8037 12.6463C54.8037 12.2797 55.0703 12.0125 55.4238 12.0187C55.74 12.0312 56.0004 12.2921 56.0004 12.6152C56.0004 13.8703 56.0004 15.1253 56.0004 16.3804C56.0004 17.2067 56.0004 18.0331 56.0004 18.8594C56.0004 18.8843 56.0004 18.9029 56.0004 18.9278C56.0004 18.934 55.9942 18.934 55.988 18.934Z" fill="#F26A24"/>
<path d="M51.3192 13.6465C51.375 13.7584 51.4246 13.8702 51.4804 13.9821C51.7533 14.5537 52.0261 15.1253 52.3051 15.6969C52.3609 15.8149 52.4167 15.933 52.4725 16.0573C52.4849 16.0883 52.4973 16.1318 52.4973 16.1691C52.4973 17.4179 52.4973 18.673 52.4973 19.9219C52.4973 20.3319 52.1377 20.6115 51.7409 20.5121C51.5052 20.45 51.3192 20.2263 51.3006 19.9778C51.2944 19.8908 51.3006 19.8038 51.3006 19.7168C51.3006 17.7224 51.3006 15.728 51.3006 13.7335C51.3006 13.7087 51.3006 13.6838 51.3006 13.659C51.3068 13.6465 51.313 13.6465 51.3192 13.6465Z" fill="#F26A24"/>
<path d="M22.4861 17.6603C22.0831 17.3993 21.6924 17.3931 21.2894 17.6603C21.2894 17.6416 21.2832 17.6292 21.2832 17.6106C21.2832 15.9517 21.2832 14.2927 21.2832 12.6338C21.2832 12.3853 21.3948 12.2051 21.6118 12.0871C21.8227 11.9752 22.0397 11.9939 22.2319 12.1368C22.3931 12.2548 22.4737 12.4164 22.4799 12.6152C22.4799 12.8264 22.4799 13.0377 22.4799 13.2489C22.4799 14.6966 22.4799 16.1443 22.4799 17.5919C22.4861 17.6106 22.4861 17.6292 22.4861 17.6603Z" fill="#F26A24"/>
<path d="M25.4682 17.6603C25.0652 17.3993 24.6745 17.3931 24.2777 17.6603C24.2777 17.6417 24.2715 17.6292 24.2715 17.6168C24.2715 15.9579 24.2715 14.299 24.2715 12.6401C24.2715 12.2859 24.5381 12.0125 24.8791 12.0187C25.2078 12.0249 25.4682 12.2859 25.4682 12.6152C25.4682 13.0191 25.4682 13.4229 25.4682 13.8268C25.4682 15.0756 25.4682 16.3245 25.4682 17.5671C25.4682 17.6044 25.4682 17.6292 25.4682 17.6603Z" fill="#F26A24"/>
<path d="M36.6418 16.0014C36.7473 16.225 36.8527 16.4425 36.9581 16.6662C37.1069 16.9831 37.2619 17.2999 37.4107 17.6168C37.6773 18.1822 37.9502 18.7476 38.2168 19.3192C38.2726 19.4373 38.3222 19.5491 38.378 19.6672C38.4896 19.9095 38.44 20.1704 38.2478 20.3568C38.0618 20.537 37.7952 20.5743 37.5595 20.4562C37.4355 20.3879 37.3425 20.2885 37.2867 20.158C37.1441 19.8535 36.9953 19.5491 36.8527 19.2447C36.6232 18.76 36.3938 18.2754 36.1582 17.7908C36.059 17.5857 35.966 17.3807 35.8668 17.1757C35.8482 17.1446 35.8482 17.1197 35.873 17.0887C36.1272 16.7345 36.3752 16.3742 36.6294 16.02C36.6294 16.0076 36.6356 16.0076 36.6418 16.0014Z" fill="#F26A24"/>
<path d="M33.9697 16.43C33.9697 16.3927 33.9697 16.3741 33.9697 16.3492C33.9697 15.1128 33.9697 13.8764 33.9697 12.64C33.9697 12.3976 34.0751 12.2113 34.2922 12.0994C34.4968 11.9876 34.7076 12 34.906 12.1367C35.0796 12.2547 35.1726 12.4225 35.1726 12.6337C35.1726 13.3172 35.1726 14.0006 35.1726 14.6903C35.1726 14.7214 35.1602 14.7587 35.1416 14.7835C34.7634 15.3303 34.379 15.8708 34.0007 16.4176C33.9945 16.4114 33.9883 16.4176 33.9697 16.43Z" fill="#F26A24"/>
<path d="M42.4958 17.4553C42.0122 17.4677 41.6898 17.6914 41.5162 18.1387C40.7969 17.1135 40.09 16.1008 39.377 15.0818C39.8606 15.088 40.1892 14.8706 40.3752 14.4232C41.0759 15.436 41.7828 16.4425 42.4958 17.4553Z" fill="#F26A24"/>
<path d="M45.2797 17.3621C45.2797 17.3932 45.2797 17.4118 45.2797 17.4305C45.2797 18.2568 45.2797 19.0832 45.2797 19.9095C45.2797 20.3196 44.9077 20.6116 44.517 20.506C44.2566 20.4376 44.083 20.2015 44.083 19.9095C44.083 19.2198 44.083 18.5302 44.083 17.8405C44.083 17.6417 44.083 17.4491 44.083 17.2503C44.083 17.2254 44.083 17.2006 44.083 17.1633C44.1078 17.1757 44.1264 17.1819 44.145 17.1944C44.3124 17.3062 44.4922 17.3621 44.6907 17.3621C44.8643 17.3621 45.0317 17.3621 45.2053 17.3621C45.2239 17.3621 45.2487 17.3621 45.2797 17.3621Z" fill="#F26A24"/>
<path d="M18.9951 14.8892C19.3982 15.1564 19.7888 15.1564 20.1856 14.883C20.1856 15.8088 20.1856 16.7345 20.1856 17.6603C19.7888 17.3931 19.392 17.3931 18.9951 17.6603C18.9951 16.7408 18.9951 15.815 18.9951 14.8892Z" fill="#F26A24"/>
<path d="M30.1563 17.6603C29.7595 17.3931 29.3627 17.3931 28.9658 17.6603C28.9658 16.7283 28.9658 15.8088 28.9658 14.883C29.3627 15.1502 29.7533 15.1502 30.1563 14.883C30.1563 15.8088 30.1563 16.7283 30.1563 17.6603Z" fill="#F26A24"/>
<path d="M17.2032 14.883C17.2032 15.815 17.2032 16.7345 17.2032 17.6665C16.8064 17.3931 16.4095 17.3931 16.0127 17.6603C16.0127 16.7345 16.0127 15.815 16.0127 14.8892C16.4033 15.1564 16.8002 15.1564 17.2032 14.883Z" fill="#F26A24"/>
<path d="M35.1664 18.0268C35.1664 18.0579 35.1664 18.0765 35.1664 18.1014C35.1664 18.7041 35.1664 19.313 35.1664 19.9156C35.1664 20.3257 34.7944 20.6115 34.3976 20.4997C34.1433 20.4313 33.9697 20.1952 33.9697 19.9218C33.9697 19.5056 33.9697 19.0893 33.9697 18.673C33.9697 18.4866 33.9697 18.294 33.9697 18.1076C33.9697 18.089 33.9697 18.0641 33.9697 18.033C34.1557 18.1697 34.3542 18.2381 34.5712 18.2381C34.7882 18.2381 34.9866 18.1635 35.1664 18.0268Z" fill="#F26A24"/>
<path d="M45.2735 15.4297C45.0937 15.4297 44.9139 15.4359 44.7403 15.4297C44.5046 15.4235 44.2938 15.4794 44.1016 15.6161C44.1016 15.6161 44.0954 15.6161 44.083 15.6223C44.083 14.883 44.083 14.1498 44.083 13.4042C44.1016 13.4104 44.114 13.4167 44.1264 13.4291C44.3 13.5471 44.4922 13.6031 44.7031 13.5968C44.8705 13.5968 45.0317 13.5968 45.1991 13.5968C45.2177 13.5968 45.2425 13.5968 45.2673 13.5968C45.2735 14.2057 45.2735 14.8146 45.2735 15.4297Z" fill="#F26A24"/>
</g>
<defs>
<clipPath id="clip0_8908_285776">
<rect width="40" height="9.64286" fill="white" transform="translate(16 12)"/>
</clipPath>
</defs>
</svg>
