<svg width="86" height="32" viewBox="0 0 86 32" fill="none" xmlns="http://www.w3.org/2000/svg">
<path d="M19.1022 22.616C19.1022 23.2257 18.9491 23.6354 18.5885 23.9427C18.381 24.1475 18.0698 24.1963 17.6548 24.1963C17.4267 24.1999 17.2009 24.1511 16.9951 24.0538C16.7894 23.9564 16.6093 23.8132 16.4693 23.6354C16.2261 23.3112 16.0976 22.917 16.1037 22.5136C16.1037 22.0015 16.2025 21.5918 16.5187 21.2358C16.6718 21.0797 16.8299 20.9285 16.983 20.8261C17.1905 20.7285 17.398 20.6749 17.6548 20.6749C17.9117 20.6749 18.1192 20.7236 18.381 20.7724C18.5885 20.8261 18.7416 20.9285 18.8453 21.0797C18.8947 21.1285 18.8947 21.1821 18.8947 21.2358C18.8947 21.2845 18.8947 21.3333 18.8453 21.387C18.7959 21.4357 18.7465 21.4357 18.6922 21.4357C18.6428 21.4357 18.5885 21.4357 18.5341 21.387C18.381 21.2894 18.2773 21.1821 18.1735 21.1333C18.0154 21.0846 17.9117 21.0309 17.7092 21.0309C17.3436 21.0309 17.0324 21.1821 16.8299 21.4894C16.6583 21.767 16.5677 22.086 16.5681 22.4112C16.5681 22.9184 16.7261 23.2794 16.983 23.5817C17.1361 23.7378 17.3436 23.8402 17.6054 23.8402C17.7586 23.8402 17.966 23.7915 18.1192 23.7378C18.4847 23.5866 18.6922 23.2257 18.6922 22.7672V22.616H18.0698C17.966 22.616 17.8623 22.5673 17.8623 22.4112C17.8623 22.2551 17.9117 22.2063 18.0698 22.2063H18.8453C18.9985 22.2063 19.1022 22.3575 19.1022 22.5624V22.6112V22.616ZM69.5479 22.616C69.5479 23.2257 69.3898 23.6354 69.0292 23.9427C68.8217 24.1475 68.5105 24.1963 68.0956 24.1963C67.8674 24.1999 67.6416 24.1511 67.4358 24.0538C67.2301 23.9564 67.0501 23.8132 66.91 23.6354C66.6668 23.3112 66.5384 22.917 66.5444 22.5136C66.5444 22.0015 66.6432 21.5918 66.9594 21.2358C67.1125 21.0797 67.2657 20.9285 67.4237 20.8261C67.6312 20.7285 67.8387 20.6749 68.0956 20.6749C68.3524 20.6749 68.5599 20.7236 68.8217 20.7724C69.0292 20.8261 69.1823 20.9285 69.2861 21.0797C69.3355 21.1285 69.3355 21.1821 69.3355 21.2358C69.3355 21.2845 69.3355 21.3333 69.2861 21.387C69.2367 21.4357 69.1823 21.4357 69.128 21.4357C69.0786 21.4357 69.0292 21.4357 68.9798 21.387C68.8217 21.2894 68.718 21.1821 68.6142 21.1333C68.4562 21.0846 68.3524 21.0309 68.1499 21.0309C67.7843 21.0309 67.4731 21.1821 67.2657 21.4894C67.0958 21.7675 67.0069 22.0864 67.0088 22.4112C67.0088 22.9184 67.1669 23.2794 67.4237 23.5817C67.5769 23.7378 67.7843 23.8402 68.0462 23.8402C68.1993 23.8402 68.4068 23.7915 68.5599 23.7378C68.9255 23.5866 69.128 23.2257 69.128 22.7672V22.616H68.5105C68.4068 22.616 68.303 22.5673 68.303 22.4112C68.303 22.2551 68.3524 22.2063 68.5105 22.2063H69.2861C69.4935 22.2063 69.5973 22.3039 69.5973 22.5136V22.6112H69.5479V22.616ZM40.472 23.9427C40.472 24.1475 40.4226 24.2499 40.2645 24.2499C40.1608 24.2499 40.057 24.2012 40.057 24.0451L39.6421 21.2358L38.8122 24.0451C38.7628 24.1426 38.7134 24.1963 38.6096 24.1963C38.5059 24.1963 38.4022 24.1475 38.4022 24.0451L37.5723 21.2358L37.1573 24.0451C37.1573 24.1963 37.0585 24.2499 36.9005 24.2499C36.7967 24.2499 36.693 24.1475 36.693 23.9914V23.8939L37.2117 20.9773C37.2117 20.8797 37.2611 20.8261 37.3105 20.7773C37.3648 20.7285 37.4685 20.6749 37.5229 20.6749C37.6217 20.6749 37.676 20.6749 37.7304 20.7236C37.7797 20.7724 37.8291 20.8261 37.8291 20.8748L38.5553 23.3818L39.2815 20.8261C39.2815 20.7773 39.3309 20.7285 39.3803 20.6749C39.4346 20.6261 39.4889 20.6261 39.5927 20.6261C39.6915 20.6261 39.7458 20.6261 39.7952 20.6749C39.8446 20.7236 39.8989 20.7724 39.8989 20.8748L40.472 23.9427V23.9427ZM48.5387 23.9914C48.5387 24.1475 48.4893 24.2499 48.3312 24.2499C48.1781 24.2499 48.1287 24.2012 48.1287 24.0451V20.9773C48.1287 20.8261 48.1781 20.7773 48.3312 20.7773C48.4893 20.7773 48.5387 20.8261 48.5387 20.9773V23.9914ZM58.9371 23.9914C58.9371 24.1475 58.8877 24.1963 58.7296 24.1963C58.6308 24.1963 58.5814 24.1475 58.4727 24.0451L56.6104 21.4406V23.9427C56.6104 24.0939 56.561 24.1475 56.403 24.1475C56.2498 24.1475 56.1955 24.0987 56.1955 23.9427V20.87C56.1955 20.7236 56.2449 20.67 56.3536 20.67C56.4524 20.67 56.5067 20.7188 56.6104 20.8212L58.4233 23.4257V20.9236C58.4233 20.8748 58.4233 20.8212 58.4727 20.7724C58.5221 20.7236 58.5765 20.7236 58.6308 20.7236C58.779 20.7236 58.8334 20.7724 58.8334 20.9236V23.9866H58.9371V23.9914ZM29.3474 24.0402C29.3474 24.1475 29.298 24.1963 29.14 24.1963C29.0906 24.1963 29.0412 24.1963 28.9868 24.1475C28.9374 24.1475 28.9374 24.1475 28.9374 24.0987L28.725 23.4842H27.1245L26.8133 24.0939C26.7639 24.1963 26.7096 24.2499 26.6058 24.2499C26.5021 24.2499 26.3984 24.2012 26.3984 24.0939V23.9963L27.5345 21.0309C27.5839 20.9285 27.5839 20.8748 27.6383 20.8261C27.6877 20.7773 27.742 20.7773 27.7963 20.7773C27.8457 20.7773 27.8951 20.7773 28.0038 20.8261C28.0532 20.8748 28.1026 20.9285 28.1026 21.0309L29.2437 23.9914C29.3474 23.9914 29.3474 24.0402 29.3474 24.0402ZM28.5719 23.0745L27.9001 21.1821L27.1739 23.0745H28.5719Z" fill="black"/>
<path d="M60.9029 10.5107C61.6749 10.5107 62.3008 9.89271 62.3008 9.1304C62.3008 8.36809 61.6749 7.75012 60.9029 7.75012C60.1308 7.75012 59.5049 8.36809 59.5049 9.1304C59.5049 9.89271 60.1308 10.5107 60.9029 10.5107Z" fill="black"/>
<path d="M69.5967 9.13041C69.5974 9.31185 69.5617 9.49163 69.4917 9.65938C69.4216 9.82714 69.3187 9.97955 69.1887 10.1079C69.0588 10.2362 68.9044 10.3378 68.7345 10.4069C68.5646 10.4761 68.3825 10.5113 68.1988 10.5107C68.015 10.5113 67.8329 10.4761 67.663 10.4069C67.4931 10.3378 67.3387 10.2362 67.2088 10.1079C67.0788 9.97955 66.9759 9.82714 66.9059 9.65938C66.8359 9.49163 66.8001 9.31185 66.8008 9.13041C66.8001 8.94897 66.8359 8.76919 66.9059 8.60144C66.9759 8.43368 67.0788 8.28127 67.2088 8.15297C67.3387 8.02467 67.4931 7.92302 67.663 7.85389C67.8329 7.78475 68.015 7.74949 68.1988 7.75013C68.3825 7.74949 68.5646 7.78475 68.7345 7.85389C68.9044 7.92302 69.0588 8.02467 69.1887 8.15297C69.3187 8.28127 69.4216 8.43368 69.4917 8.60144C69.5617 8.76919 69.5974 8.94897 69.5967 9.13041V9.13041Z" fill="black"/>
<path d="M60.9029 17.2512C61.6749 17.2512 62.3008 16.6332 62.3008 15.8709C62.3008 15.1086 61.6749 14.4906 60.9029 14.4906C60.1308 14.4906 59.5049 15.1086 59.5049 15.8709C59.5049 16.6332 60.1308 17.2512 60.9029 17.2512Z" fill="black"/>
<path d="M69.5973 15.8707C69.5979 16.0522 69.5622 16.2319 69.4922 16.3997C69.4222 16.5675 69.3192 16.7199 69.1893 16.8482C69.0593 16.9765 68.905 17.0781 68.7351 17.1472C68.5652 17.2164 68.3831 17.2516 68.1993 17.251C68.0155 17.2516 67.8335 17.2164 67.6636 17.1472C67.4937 17.0781 67.3393 16.9765 67.2093 16.8482C67.0794 16.7199 66.9764 16.5675 66.9064 16.3997C66.8364 16.2319 66.8007 16.0522 66.8013 15.8707C66.8007 15.6893 66.8364 15.5095 66.9064 15.3418C66.9764 15.174 67.0794 15.0216 67.2093 14.8933C67.3393 14.765 67.4937 14.6633 67.6636 14.5942C67.8335 14.5251 68.0155 14.4898 68.1993 14.4904C68.3831 14.4898 68.5652 14.5251 68.7351 14.5942C68.905 14.6633 69.0593 14.765 69.1893 14.8933C69.3192 15.0216 69.4222 15.174 69.4922 15.3418C69.5622 15.5095 69.5979 15.6893 69.5973 15.8707V15.8707ZM65.9764 12.5005C65.977 12.6819 65.9413 12.8617 65.8713 13.0295C65.8013 13.1972 65.6983 13.3496 65.5684 13.4779C65.4384 13.6062 65.2841 13.7079 65.1142 13.777C64.9443 13.8462 64.7622 13.8814 64.5784 13.8808C64.3946 13.8814 64.2126 13.8462 64.0427 13.777C63.8728 13.7079 63.7184 13.6062 63.5884 13.4779C63.4585 13.3496 63.3555 13.1972 63.2855 13.0295C63.2155 12.8617 63.1798 12.6819 63.1804 12.5005C63.1798 12.3191 63.2155 12.1393 63.2855 11.9715C63.3555 11.8038 63.4585 11.6514 63.5884 11.5231C63.7184 11.3948 63.8728 11.2931 64.0427 11.224C64.2126 11.1548 64.3946 11.1196 64.5784 11.1202C64.7622 11.1196 64.9443 11.1548 65.1142 11.224C65.2841 11.2931 65.4384 11.3948 65.5684 11.5231C65.6983 11.6514 65.8013 11.8038 65.8713 11.9715C65.9413 12.1393 65.977 12.3191 65.9764 12.5005V12.5005ZM57.1785 16.9437L53.3008 7.9012C53.2514 7.80365 53.197 7.75 53.0933 7.75H51.4384C51.3347 7.75 51.2804 7.79877 51.231 7.9012L47.2988 16.9437V16.9925C47.2988 17.0998 47.3482 17.1486 47.452 17.1486H49.2106C49.3143 17.1486 49.3686 17.0998 49.418 16.9974L50.2479 14.9001H54.3875L55.2125 16.9974C55.2619 17.0949 55.3162 17.1486 55.4199 17.1486H57.1785C57.2823 17.1486 57.3366 17.0998 57.3366 16.9974C57.2329 16.9974 57.2329 16.9486 57.1785 16.9486V16.9437ZM50.816 13.2662L52.2634 9.63752L53.7157 13.2662H50.816ZM29.6043 10.6618C29.7081 10.3057 29.8661 10.1496 29.8661 10.1496C29.8661 10.1496 30.0736 9.79359 30.538 9.58875C31.0023 9.3839 31.4172 9.3839 31.4172 9.3839H34.885C34.9838 9.3839 35.0876 9.28635 35.0876 9.17905V7.95485C35.0876 7.85242 34.9888 7.75 34.885 7.75H31.0566C28.9325 7.75 27.2283 9.58875 27.2283 11.8372V13.1638C27.2283 15.4074 28.9325 17.251 31.0566 17.251H34.885C34.9838 17.251 35.0876 17.1486 35.0876 17.0462V15.7683C35.0876 15.6708 34.9888 15.5635 34.885 15.5635H31.4123C31.4123 15.5635 30.948 15.5635 30.533 15.3586C30.2583 15.2406 30.0247 15.0455 29.8612 14.7977C29.8612 14.7977 29.7031 14.5929 29.5994 14.2905C29.5006 13.9296 29.5006 13.4711 29.5006 13.4711V13.2662H34.8801C34.9789 13.2662 35.0826 13.1687 35.0826 13.0614V11.7835C35.0826 11.686 34.9838 11.5787 34.8801 11.5787H29.4956V11.4811C29.4956 11.4811 29.545 11.0178 29.5994 10.6618H29.6043ZM41.5044 17.1486H44.661C44.7598 17.1486 44.8141 17.0462 44.8141 16.9437V15.6659C44.8141 15.5683 44.7647 15.461 44.661 15.461H41.8156C41.8156 15.461 41.455 15.461 41.0895 15.2562C40.7289 15.0562 40.5214 14.6953 40.5214 14.6953C40.5214 14.6953 40.3139 14.4904 40.3139 14.1344V7.9012C40.3139 7.80365 40.2645 7.75 40.1608 7.75H38.5059C38.4022 7.75 38.2984 7.84755 38.2984 7.95485V14.1881C38.3381 14.9971 38.6958 15.7589 39.2953 16.3117C39.8949 16.8646 40.6892 17.1648 41.5093 17.1486H41.5044ZM24.536 16.9437L22.3131 13.2662C23.4493 13.0126 24.2248 12.242 24.2248 10.5593C24.2742 8.31577 22.7231 7.79877 20.8114 7.75H16.2075C16.0988 7.75 16 7.84755 16 7.95485V16.9974C16 17.0949 16.0988 17.1974 16.2075 17.1974H17.8623C17.9661 17.1974 18.0698 17.0998 18.0698 16.9974V13.4711H20.3965L22.4712 17.0462C22.5206 17.1486 22.6194 17.1974 22.7231 17.1974H24.4866C24.5854 17.1974 24.6348 17.1486 24.6348 17.0462C24.536 16.9974 24.536 16.9486 24.536 16.9486V16.9437ZM20.8608 11.7835L20.3471 11.8323H18.0155V9.44243H20.8608C21.9476 9.44243 22.2588 9.94967 22.2588 10.613C22.2094 11.2812 21.8982 11.7884 20.8608 11.7884V11.7835Z" fill="black"/>
</svg>
