<svg width="96" height="32" viewBox="0 0 96 32" fill="none" xmlns="http://www.w3.org/2000/svg">
<path d="M31.3934 10.0067H16V20.921C16 21.5145 16.4815 21.9922 17.0708 21.9922H32.4427V11.0633C32.4498 10.4771 31.9755 10.0067 31.3934 10.0067ZM30.143 20.5229H18.2997C18.0266 20.5229 17.8038 20.2986 17.8038 20.0308C17.8038 19.7557 18.0266 19.5386 18.2997 19.5386H30.143C30.4161 19.5386 30.6388 19.763 30.6388 20.0308C30.6388 20.2986 30.4161 20.5229 30.143 20.5229ZM30.6173 17.2298C30.6173 17.8088 30.1358 18.2865 29.5393 18.2865H18.889C18.2925 18.2865 17.811 17.8161 17.811 17.2298V12.7063C17.811 12.1273 18.2925 11.6496 18.889 11.6496H29.5393C30.1358 11.6496 30.6173 12.12 30.6173 12.7063V17.2298Z" fill="#F05B24"/>
<path d="M22.6689 12.6128V17.2738H25.601V12.6128H22.6689ZM24.1206 15.7684C24.0775 15.848 23.9913 15.8987 23.905 15.8987C23.711 15.8987 23.5888 15.6816 23.6966 15.5151L24.2715 14.5814H23.6607C23.5313 14.5814 23.4235 14.4729 23.4235 14.3426C23.4235 14.2123 23.5313 14.1037 23.6607 14.1037H24.5087C24.6093 14.1037 24.6955 14.1399 24.7602 14.2051C24.8321 14.2774 24.8608 14.3571 24.8608 14.4584L24.1206 15.7684Z" fill="#F05B24"/>
<path d="M18.8169 12.6128V17.2738H21.749V12.6128H18.8169ZM20.2398 15.7684C20.1967 15.848 20.1105 15.8987 20.0242 15.8987C19.8302 15.8987 19.708 15.6816 19.8158 15.5151L20.3907 14.5814H19.7799C19.6505 14.5814 19.5427 14.4729 19.5427 14.3426C19.5427 14.2123 19.6505 14.1037 19.7799 14.1037H20.6279C20.7285 14.1037 20.8147 14.1399 20.8794 14.2051C20.9513 14.2774 20.98 14.3571 20.98 14.4584L20.2398 15.7684Z" fill="#F05B24"/>
<path d="M26.5566 12.6128V17.2738H29.4887V12.6128H26.5566ZM28.0299 15.7684C27.9867 15.848 27.9005 15.8987 27.8143 15.8987C27.6202 15.8987 27.4981 15.6816 27.6059 15.5151L28.1808 14.5814H27.5699C27.4406 14.5814 27.3328 14.4729 27.3328 14.3426C27.3328 14.2123 27.4406 14.1037 27.5699 14.1037H28.4179C28.5185 14.1037 28.6048 14.1399 28.6695 14.2051C28.7413 14.2774 28.7701 14.3571 28.7701 14.4584L28.0299 15.7684Z" fill="#F05B24"/>
<path d="M40.9228 10.0067C41.2318 10.0067 41.4905 10.1152 41.7061 10.3323C41.9217 10.5495 42.0295 10.81 42.0295 11.1212V12.605C42.0295 12.9089 41.9217 13.1695 41.7061 13.3866C41.4905 13.6038 41.2318 13.7123 40.9228 13.7123H40.4916L42.0223 15.5579H40.1107L38.5728 13.7123H37.2505V15.5579H35.418V10.0067H40.9228ZM40.1898 12.2214V11.4904H37.2505V12.2286H40.1898V12.2214Z" fill="#F05B24"/>
<path d="M45.7159 11.491V12.0483H49.6684V13.5175H45.7159V14.0748H50.4877V15.5585H44.99C44.681 15.5585 44.4223 15.4499 44.2067 15.2328C43.9911 15.0157 43.8833 14.7551 43.8833 14.4439V11.1146C43.8833 10.8034 43.9911 10.5428 44.2067 10.3257C44.4223 10.1086 44.681 10 44.99 10H50.4877V11.4837H45.7159V11.491Z" fill="#F05B24"/>
<path d="M58.9467 10.0072V11.4909H56.5536V15.5512H54.721V11.4909H52.3423V10.0072H58.9467Z" fill="#F05B24"/>
<path d="M66.3129 10.0072C66.622 10.0072 66.8807 10.1158 67.0963 10.3329C67.3119 10.55 67.4197 10.8106 67.4197 11.1218V12.6055C67.4197 12.9095 67.3119 13.17 67.0963 13.3872C66.8807 13.6043 66.622 13.7129 66.3129 13.7129H65.8818L67.4125 15.5585H65.5009L63.963 13.7129H62.6407V15.5585H60.8081V10.0072H66.3129ZM65.5799 12.2219V11.4909H62.6407V12.2292H65.5799V12.2219Z" fill="#F05B24"/>
<path d="M74.8935 10.0072C75.2026 10.0072 75.4613 10.1158 75.6769 10.3329C75.8925 10.5501 76.0003 10.8106 76.0003 11.1218V14.4439C76.0003 14.7551 75.8925 15.0157 75.6769 15.2328C75.4613 15.4499 75.2026 15.5585 74.8935 15.5585H70.4954C70.1864 15.5585 69.9277 15.4499 69.7121 15.2328C69.4965 15.0157 69.3887 14.7551 69.3887 14.4439V11.1146C69.3887 10.8034 69.4965 10.5428 69.7121 10.3257C69.9277 10.1086 70.1864 10 70.4954 10H74.8935V10.0072ZM74.1605 14.0675V11.491H71.2212V14.0675H74.1605Z" fill="#F05B24"/>
<path d="M40.9228 10.0067C41.2318 10.0067 41.4905 10.1152 41.7061 10.3323C41.9217 10.5495 42.0295 10.81 42.0295 11.1212V12.605C42.0295 12.9089 41.9217 13.1695 41.7061 13.3866C41.4905 13.6038 41.2318 13.7123 40.9228 13.7123H40.4916L42.0223 15.5579H40.1107L38.5728 13.7123H37.2505V15.5579H35.418V10.0067H40.9228ZM40.1898 12.2214V11.4904H37.2505V12.2286H40.1898V12.2214Z" fill="#F05B24"/>
<path d="M45.7159 11.491V12.0483H49.6684V13.5175H45.7159V14.0748H50.4877V15.5585H44.99C44.681 15.5585 44.4223 15.4499 44.2067 15.2328C43.9911 15.0157 43.8833 14.7551 43.8833 14.4439V11.1146C43.8833 10.8034 43.9911 10.5428 44.2067 10.3257C44.4223 10.1086 44.681 10 44.99 10H50.4877V11.4837H45.7159V11.491Z" fill="#F05B24"/>
<path d="M58.9467 10.0072V11.4909H56.5536V15.5512H54.721V11.4909H52.3423V10.0072H58.9467Z" fill="#F05B24"/>
<path d="M66.3129 10.0072C66.622 10.0072 66.8807 10.1158 67.0963 10.3329C67.3119 10.55 67.4197 10.8106 67.4197 11.1218V12.6055C67.4197 12.9095 67.3119 13.17 67.0963 13.3872C66.8807 13.6043 66.622 13.7129 66.3129 13.7129H65.8818L67.4125 15.5585H65.5009L63.963 13.7129H62.6407V15.5585H60.8081V10.0072H66.3129ZM65.5799 12.2219V11.4909H62.6407V12.2292H65.5799V12.2219Z" fill="#F05B24"/>
<path d="M74.8935 10.0072C75.2026 10.0072 75.4613 10.1158 75.6769 10.3329C75.8925 10.5501 76.0003 10.8106 76.0003 11.1218V14.4439C76.0003 14.7551 75.8925 15.0157 75.6769 15.2328C75.4613 15.4499 75.2026 15.5585 74.8935 15.5585H70.4954C70.1864 15.5585 69.9277 15.4499 69.7121 15.2328C69.4965 15.0157 69.3887 14.7551 69.3887 14.4439V11.1146C69.3887 10.8034 69.4965 10.5428 69.7121 10.3257C69.9277 10.1086 70.1864 10 70.4954 10H74.8935V10.0072ZM74.1605 14.0675V11.491H71.2212V14.0675H74.1605Z" fill="#F05B24"/>
<path d="M37.2435 17.9614V20.5235H40.1684V19.9735H37.7896V18.5115H41.9865V21.9928H36.5176C36.2158 21.9928 35.9571 21.8842 35.7415 21.6743C35.5259 21.4572 35.4253 21.2039 35.4253 20.8926V17.585C35.4253 17.2811 35.5331 17.0205 35.7415 16.8034C35.9571 16.5863 36.2086 16.4849 36.5176 16.4849H41.9865V17.9542H37.2435V17.9614Z" fill="#F4831F"/>
<path d="M48.5051 16.4922C48.8069 16.4922 49.0584 16.6008 49.274 16.8107C49.4896 17.0278 49.5974 17.2811 49.5974 17.5924V22.0001H47.7648V20.169H44.8543V22.0001H43.0361V17.5924C43.0361 17.2884 43.1439 17.0278 43.3523 16.8107C43.5679 16.5936 43.8195 16.4922 44.1285 16.4922H48.5051ZM47.772 18.6925V17.9615H44.8615V18.6925H47.772Z" fill="#F4831F"/>
<path d="M57.9694 17.5923V22H56.1369V19.1194L54.3187 22L52.5005 19.1194V22H50.668V17.5923C50.668 17.2883 50.7758 17.0278 50.9914 16.8106C51.207 16.5935 51.4657 16.4922 51.7603 16.4922H52.5652L54.3187 19.2642L56.0722 16.4922H56.8771C57.1789 16.4922 57.4304 16.6008 57.646 16.8106C57.8616 17.0278 57.9694 17.2883 57.9694 17.5923Z" fill="#F4831F"/>
<path d="M58.9468 22V16.4922H60.7793V22H58.9468Z" fill="#F4831F"/>
<path d="M68.3825 16.4922V20.8999C68.3825 21.2039 68.2747 21.4644 68.0663 21.6816C67.8507 21.8987 67.5992 22 67.2902 22H66.356L63.6395 18.5839V22H61.8213V17.5923C61.8213 17.2883 61.9291 17.0278 62.1375 16.8106C62.3531 16.5935 62.6046 16.4922 62.9136 16.4922H63.8479L66.5644 19.9083V16.4922H68.3825Z" fill="#F4831F"/>
<path d="M71.2498 17.9614V20.5235H74.1747V19.9735H71.796V18.5115H75.9929V21.9928H70.524C70.2222 21.9928 69.9634 21.8842 69.7478 21.6743C69.5323 21.4572 69.4316 21.2039 69.4316 20.8926V17.585C69.4316 17.2811 69.5394 17.0205 69.7478 16.8034C69.9634 16.5863 70.215 16.4849 70.524 16.4849H75.9929V17.9542H71.2498V17.9614Z" fill="#F4831F"/>
</svg>
