<svg width="104" height="32" viewBox="0 0 104 32" fill="none" xmlns="http://www.w3.org/2000/svg">
<path d="M35.7506 13.5324L35.2335 14.553C35.2335 14.553 34.6758 14.1653 34.0971 14.1653C33.6631 14.1653 33.4306 14.3624 33.4306 14.6687C33.4306 14.9815 33.9611 15.2061 34.6009 15.4785C35.2266 15.7436 35.9141 16.2741 35.9141 17.0094C35.9141 18.3497 34.8935 18.8177 33.798 18.8177C32.4845 18.8177 31.6885 18.0763 31.6885 18.0763L32.3283 17.001C32.3283 17.001 33.0765 17.6339 33.7026 17.6339C33.9818 17.6339 34.5123 17.6065 34.5123 17.0828C34.5123 16.6745 33.9134 16.4907 33.2465 16.1573C32.5727 15.8238 32.1782 15.2998 32.1782 14.7146C32.1782 13.6658 33.1033 13 34.0085 13C34.6286 13.0044 35.234 13.1894 35.7506 13.5324Z" fill="black"/>
<path d="M41.0585 17.5946H42.9908V18.7157H39.7793V13.1021H41.0585V17.5946Z" fill="black"/>
<path d="M48.9235 13.0015C50.4815 13.0015 51.7473 14.2673 51.7473 15.907C51.7473 17.5468 50.5361 18.8191 48.9235 18.8191C47.2631 18.8191 46.0928 17.5468 46.0928 15.907C46.0928 14.2673 47.3788 13.0015 48.9235 13.0015ZM48.9235 17.5808C49.9441 17.5808 50.3661 16.7439 50.3661 15.907C50.3661 15.0702 49.917 14.2333 48.9235 14.2333C47.9369 14.2333 47.4743 15.0702 47.4743 15.907C47.4743 16.7439 47.8758 17.5808 48.9235 17.5808Z" fill="black"/>
<path d="M54.7334 13.1021H58.6798V14.225H57.346V18.7172H56.0668V14.2265H54.7334V13.1021Z" fill="black"/>
<path d="M66.7843 15.3899H66.7503L65.6003 18.6832H64.8382L63.6882 15.3899H63.6542L63.3891 18.7172H62.1113L62.6133 13.1021H63.9739L65.2191 16.3411L66.4646 13.1021H67.8256L68.3294 18.7157H67.0498L66.7843 15.3899Z" fill="black"/>
<path d="M73.6635 18.7172H72.3828V13.1021H73.662L73.6635 18.7172Z" fill="black"/>
<path d="M79.4354 17.5946H81.3678V18.7157H78.1562V13.1021H79.4354V17.5946Z" fill="black"/>
<path d="M85.5907 17.5946H87.5231V18.7157H84.3115V13.1021H85.5907V17.5946Z" fill="black"/>
<path d="M29.2351 15.5328C29.2299 15.2828 29.1542 14.9239 29.1016 14.711C29.0684 14.5791 29.14 14.6378 29.2157 14.8612C29.1425 14.5213 29.0259 14.1571 29.0004 14.1571C28.9749 14.1571 28.9887 14.2097 28.9838 14.2316C28.9644 14.1842 28.9373 14.0697 28.9053 13.9888C28.8649 13.89 28.8244 13.8326 28.8527 13.922C28.9082 14.0839 29.1222 14.9465 29.1453 15.0991C29.1222 15.0182 29.0963 14.9235 29.0785 14.8591C28.875 14.1398 28.5899 13.4461 28.2288 12.7915C28.2555 12.8145 28.2693 12.8246 28.285 12.84C28.2887 12.8028 28.2915 12.7733 28.2964 12.7259C28.3684 12.8299 28.4311 12.9185 28.4926 13.0092C28.366 12.6697 28.1402 12.3836 27.9541 12.0886C27.9464 12.1016 27.9403 12.1117 27.9298 12.1291C27.7169 11.8292 27.4297 11.5816 27.3131 11.2316C27.3079 11.247 27.3042 11.2559 27.3002 11.2676C27.2848 11.0944 27.0594 11.1956 27.0825 11.0176C27.2132 11.0855 27.4313 11.2636 27.5361 11.3599C27.6409 11.4562 27.6862 11.4562 27.7234 11.4598C27.7606 11.4635 27.6862 11.4036 27.708 11.3842C27.7364 11.3599 28.0156 11.7305 28.158 11.8908C27.7643 11.0111 26.7159 10.6906 25.9786 10.1278C24.0453 8.87341 21.4468 8.5497 19.3763 9.75106C19.284 9.80487 19.1582 9.88418 19.1043 9.92019C19.0505 9.9562 19.1683 9.91736 19.1735 9.92262C19.1173 9.96308 19.0671 9.99586 19.0068 10.0379C18.9465 10.08 19.0748 10.0497 19.0473 10.0703C19.0198 10.0909 18.9024 10.2496 19.0562 10.1484C19.2099 10.0472 19.3843 9.93152 19.477 9.93152C19.5697 9.93152 19.1088 10.1905 18.9397 10.301C18.6742 10.4741 18.4383 10.6279 18.287 10.7343C18.1603 10.8241 18.0292 10.9148 18.0013 10.8962C17.9511 10.8589 18.1296 10.7129 18.151 10.6793C18.1858 10.6267 17.9588 10.7732 18.0114 10.7177C18.1782 10.5528 18.3538 10.3971 18.5374 10.2512C18.6657 10.1537 18.745 10.0962 18.7426 10.0549C18.7402 10.0137 18.6107 10.0808 18.4723 10.1565C17.4672 10.7056 17.1196 11.8701 16.666 12.8344L16.7915 12.825C16.6838 13.0549 16.5467 13.2584 16.526 13.5073C16.5774 13.47 16.6069 13.4186 16.6672 13.3996C16.6915 13.4806 16.6454 13.5546 16.6268 13.6315C16.6328 13.6315 16.6381 13.6355 16.6434 13.6367C16.6741 13.5558 16.7049 13.4725 16.7344 13.394C16.7599 13.3964 16.7805 13.3976 16.806 13.4004C16.7215 14.0143 16.6559 14.6232 16.4896 15.2245L16.4973 15.2168C16.3536 15.6591 16.5418 16.0965 16.4856 16.5671H16.469C16.4285 16.336 16.3476 16.1107 16.3969 15.8683C16.3893 15.8784 16.3816 15.8885 16.3625 15.912C16.3561 15.8464 16.3484 15.7849 16.3419 15.7259C16.3371 15.6809 16.278 15.6809 16.2816 15.7206C16.3035 15.967 16.246 16.2094 16.3221 16.4591C16.3322 16.4247 16.3411 16.3886 16.3464 16.3721C16.4245 16.7427 16.6231 17.6337 16.5693 17.5208C16.5155 17.4079 16.4835 17.2489 16.4398 17.1129C16.4949 17.5965 16.668 18.0529 16.8445 18.5029C16.8303 18.5029 16.7907 18.4709 16.7599 18.3989C16.7417 18.3552 16.6956 18.3584 16.7033 18.3835C16.7498 18.5009 16.8029 18.6156 16.8623 18.727C16.838 18.6501 16.8113 18.5579 16.819 18.5449C16.9278 18.6732 17.0444 18.9257 17.1176 19.0604C17.1908 19.1952 17.4494 19.6552 17.2794 19.4145C17.1095 19.1737 16.7421 18.6861 16.5665 18.2722C16.5139 18.1508 16.4831 17.9683 16.4576 17.9667C16.4321 17.9651 16.437 18.0221 16.4334 18.0424C16.4168 18.0193 16.4139 17.9068 16.3929 17.9145C16.3573 17.9271 16.4957 18.4231 16.4548 18.3552C16.4139 18.2872 16.3391 17.9772 16.3225 17.885C16.3367 18.0837 16.3945 18.2645 16.3893 18.3131C16.2225 18.0489 16.2982 17.7644 16.2982 17.6232C16.3001 17.7039 16.3157 17.7836 16.3443 17.8591C16.3237 17.7053 16.3545 17.5427 16.3484 17.4949C16.3423 17.4472 16.2764 17.486 16.2804 17.5427C16.2675 17.5131 16.2634 17.4617 16.2468 17.4658C16.2302 17.4698 16.2314 17.5232 16.229 17.5568C16.2201 17.5439 16.2189 17.5208 16.2084 17.5285C16.1979 17.5362 16.2047 17.6709 16.1728 17.6499C16.1546 17.6394 16.1728 17.5285 16.1728 17.4281C16.1728 17.3371 16.161 17.2586 16.1432 17.2663C16.1048 17.2792 16.1368 17.3254 16.125 17.4662C16.1149 17.5945 16.0036 17.4087 16.0138 17.4933C16.0174 17.524 15.9842 17.624 16.0097 17.7405C16.0352 17.8571 16.0044 18.0331 16.034 18.0011C16.0635 17.9691 16.0522 17.9497 16.0745 17.9331C16.0805 17.942 16.0769 17.9687 16.0935 17.9598C16.1101 17.9509 16.1064 17.9137 16.1153 17.8817C16.6065 20.7724 19.2953 22.0996 21.8668 22.8879L21.8182 22.9097C24.9448 23.5122 28.1539 21.0079 29.0012 18.1302C29.0231 18.0545 29.0745 17.7612 29.1089 17.5495C28.9948 17.9291 28.9155 17.9186 28.9179 17.8919C28.9486 17.6382 28.9834 17.465 29.0474 17.3468C29.2307 17.0599 29.1178 16.3275 29.0615 16.2907C29.0178 16.2624 29.0012 16.3263 28.9976 16.3263C29.0025 16.2689 29.0178 16.0779 28.9745 16.1701C28.941 16.2381 29.0555 17.925 28.4821 18.6469C28.459 18.1905 28.7051 17.7535 28.8386 17.3116L28.8281 17.308C28.7937 17.363 28.7601 17.4196 28.7233 17.4812C28.7192 17.4629 28.7156 17.4504 28.7127 17.4387C28.6666 17.4658 28.6723 17.5427 28.5998 17.5463C28.6168 17.4528 28.6334 17.3642 28.6488 17.276C28.2798 17.9485 28.1515 18.8007 27.653 19.4214C27.5668 19.5278 27.721 19.1596 27.8104 18.9123C27.8913 18.6942 27.876 18.5967 27.7258 18.8699C27.5502 19.1903 27.2245 19.5828 26.957 19.8317C26.0086 20.7109 24.9084 21.5008 23.5545 21.5481V21.557H23.6759C22.7145 21.6687 21.5977 21.5813 20.7055 21.1686C20.7068 21.1655 20.7085 21.1625 20.7103 21.1597C20.8362 21.2046 21.1028 21.3454 21.0927 21.279C21.0887 21.2507 20.7516 21.1467 20.3975 20.9816C19.9144 20.7546 19.3706 20.4495 19.335 20.42C19.2719 20.3686 19.3989 20.5009 19.3937 20.5046C18.7106 20.0328 18.2376 19.2737 17.8747 18.5045C17.8196 18.3891 17.7274 18.3046 17.6723 18.1751C17.6339 18.0828 17.6145 17.9109 17.625 17.8955C17.6687 17.8239 17.5623 17.7519 17.57 17.8676C17.5992 18.0295 17.6397 18.1892 17.6914 18.3454C17.7116 18.4033 17.6436 18.2856 17.6181 18.216C17.4466 17.7559 17.4312 17.6738 17.394 17.5087C17.394 17.9764 17.7423 18.7173 17.7966 18.8468C17.7221 18.7958 17.6145 18.6481 17.5643 18.498C17.6145 18.6752 17.6671 18.8217 17.663 18.8804C17.4093 18.4276 17.2078 17.4508 17.1463 17.4508C17.0848 17.4508 17.1463 17.6058 17.1528 17.679C17.0055 17.4573 16.91 16.7544 16.9655 16.5752C17.0059 15.7724 17.1309 14.951 17.413 14.1943C17.4124 14.1928 17.4124 14.191 17.413 14.1895C17.413 14.1842 17.417 14.1789 17.4182 14.1741C17.661 13.5315 18.013 12.9367 18.5209 12.4443C18.5168 12.4419 18.5132 12.4382 18.5091 12.4354C18.4197 12.5163 18.3311 12.5932 18.2413 12.6713C18.3493 12.3241 18.7248 12.1445 18.8632 11.8386L18.8454 11.8268C18.9198 11.7576 18.9939 11.6905 19.0813 11.6112C18.9299 11.6803 18.8555 11.8394 18.6851 11.8495C19.1209 11.3558 19.7627 10.9342 20.2454 10.6481C20.2005 10.6752 20.2049 10.7622 20.2927 10.793C20.3737 10.8213 20.4364 10.6716 20.5428 10.6311C21.2044 10.3669 21.9186 10.3993 22.572 10.5247C21.8696 10.2734 20.9697 10.3503 20.7747 10.3964C20.9863 10.2912 21.2966 10.3042 21.416 10.2977C23.4477 10.1929 25.3786 11.5233 26.5569 13.1386C26.622 13.2285 26.7592 13.4425 26.8106 13.6003C26.8324 13.6671 26.9542 13.8811 26.9967 13.8504C27.0392 13.8196 26.9708 13.6481 26.885 13.5465C26.7669 13.4069 26.6965 13.2362 26.5504 12.9735C26.6863 13.1354 26.7932 13.2604 26.9081 13.3992C26.6414 12.9351 25.9722 12.263 25.9018 12.072C26.2862 12.3528 26.5799 12.717 26.8247 13.1131C27.044 13.4696 27.2658 13.9402 27.4005 14.2247C27.4094 14.2464 27.4201 14.2674 27.4325 14.2874C27.4208 14.2469 27.2326 13.8067 27.2302 13.8067C27.1161 13.4453 26.9162 13.103 26.7483 12.7518C26.8571 12.8453 26.8429 12.8465 26.8753 12.817C26.9077 12.7874 26.6944 12.5248 26.6548 12.3541C26.7932 12.5697 26.9316 12.7862 27.0776 13.0156C27.0444 12.9347 27.0173 12.8643 26.9894 12.7951L27.0007 12.7902C27.1739 13.0043 27.3455 13.2184 27.5175 13.4324C27.3584 13.1018 27.0942 12.8311 26.9368 12.5106C26.9469 12.5054 26.9558 12.5017 26.9647 12.4965C27.1124 12.7393 27.4365 13.0452 27.5086 13.1386C27.5806 13.2321 27.356 12.84 27.4495 12.9477C27.5429 13.0553 27.6866 13.2604 27.7173 13.3053C27.7481 13.3503 27.7724 13.3515 27.7327 13.294C27.6931 13.2366 27.4301 12.8594 27.2791 12.6413L27.2945 12.63C27.6813 13.1338 28.0496 13.663 28.2656 14.2631C28.0374 13.3567 27.3754 12.6389 26.8401 11.8928C27.112 12.108 27.299 12.3965 27.528 12.6478C27.5325 12.6441 27.5372 12.6407 27.5421 12.6377C27.5102 12.5786 27.4782 12.5163 27.4462 12.4593C27.9549 12.9015 28.3 14.1389 28.3332 14.2194C28.3664 14.2999 28.3101 14.0515 28.2717 13.8824C28.2333 13.7132 28.2988 13.761 28.2972 13.8771C28.2956 13.9932 28.4744 14.3351 28.3692 14.5156C28.3603 14.5014 28.3526 14.4877 28.3372 14.4606C28.423 14.7208 28.3911 14.9902 28.4922 15.2294C28.5408 15.6308 28.5141 16.0318 28.4922 16.4307H28.5052C28.5205 16.3093 28.5371 16.1843 28.5525 16.0625H28.5691V16.2049C28.5922 15.9856 28.5537 15.7461 28.633 15.5446C28.6472 15.6615 28.6614 15.7781 28.6767 15.8934C28.6858 15.8932 28.6949 15.8923 28.7038 15.8909C28.7512 15.4009 28.6986 14.9138 28.6484 14.4266C28.6561 14.4266 28.6626 14.4266 28.669 14.4242C28.6792 14.4909 28.6897 14.5561 28.701 14.637C28.714 14.6062 28.7204 14.5896 28.7293 14.569C28.7884 14.7256 28.8103 14.8927 28.9126 15.0254C28.8819 14.8458 28.9244 14.6742 28.9256 14.4946C29.0065 14.7009 29.0445 15.0958 29.0615 15.1319C29.0785 15.1679 29.0793 15.1035 29.0741 15.0914C29.1307 15.2577 29.1716 15.7542 29.174 15.6773C29.1791 15.5159 29.1736 15.3544 29.1574 15.1938C29.1923 15.3045 29.2183 15.4179 29.2351 15.5328ZM27.4875 20.1622C27.3835 20.2391 27.3722 20.2403 27.5005 20.0813C27.6287 19.9223 27.9091 19.4744 28.0156 19.2826C28.122 19.0908 27.9965 19.5185 28.0941 19.3429C28.1916 19.1673 28.2579 19.0851 28.3708 18.6635C28.3809 18.797 28.2426 19.3364 28.0657 19.6403C27.8889 19.9442 27.5478 20.3031 27.4183 20.452C27.2888 20.6009 27.6542 20.1161 27.7878 19.9506C27.8839 19.8351 27.9644 19.7075 28.0273 19.5711C27.8926 19.7596 27.5899 20.0854 27.4875 20.1622ZM17.9491 19.1814C18.111 19.6265 18.7891 20.3059 19.1157 20.4791C18.5787 20.248 18.1308 19.9312 18.0559 19.7835C18.0078 19.6888 18.0859 19.707 18.1555 19.7892C18.2161 19.8684 18.292 19.9346 18.3788 19.9838C18.1073 19.6338 17.9863 19.4052 17.9491 19.1814ZM20.0698 9.78424C19.9079 9.83441 19.7647 9.87892 19.9516 9.77776C20.1196 9.68793 20.4914 9.55602 20.5586 9.62643C20.6258 9.69683 20.23 9.73447 20.0698 9.78424ZM25.6068 11.5084C25.9349 11.5675 25.9875 11.9417 26.098 12.0457C25.8929 11.856 25.6861 11.6455 25.6068 11.5084ZM26.6095 12.0004C26.5648 11.9588 26.532 11.9062 26.5144 11.8479C26.5826 11.9129 26.646 11.9828 26.7041 12.0571C26.7248 12.0813 26.6758 12.0575 26.6095 12.0004Z" fill="#BE1622"/>
<path d="M17.7676 14.6849C17.8062 14.4985 17.8447 14.312 17.8833 14.1254L17.8989 14.1287L17.7904 14.6947L17.7676 14.6849Z" fill="#BE1622"/>
<path d="M17.0537 15.0625C17.0433 14.9189 17.0539 14.7745 17.0851 14.6339H17.1003C17.0856 14.7764 17.0707 14.9188 17.0555 15.061L17.0537 15.0625Z" fill="#BE1622"/>
<path d="M27.2672 17.8643C27.2238 17.9451 27.1705 18.0976 27.2672 18.015C27.3639 17.9324 27.3114 17.7821 27.2672 17.8643Z" fill="#BE1622"/>
<path d="M28.016 16.8154C28.0522 16.7202 28.0221 16.5257 28.0696 16.6431C28.117 16.7604 27.9605 16.9657 28.016 16.8154Z" fill="#BE1622"/>
<path d="M16.6131 17.0393C16.6417 17.0969 16.62 16.7785 16.5722 16.7811C16.5244 16.7836 16.5023 16.8173 16.524 16.91C16.5457 17.0027 16.5899 16.993 16.6131 17.0393Z" fill="#BE1622"/>
<path d="M16.6953 16.7257C16.6794 16.6852 16.6229 16.5555 16.6414 16.5287C16.6598 16.5019 16.6863 16.5124 16.7044 16.5718C16.7225 16.6312 16.7131 16.7721 16.6953 16.7257Z" fill="#BE1622"/>
<path d="M17.5466 16.8091C17.5527 16.7842 17.5774 16.7038 17.5607 16.6918C17.544 16.6799 17.5277 16.6893 17.5223 16.7248C17.5169 16.7603 17.5397 16.8374 17.5466 16.8091Z" fill="#BE1622"/>
<path d="M16.7399 16.4006C16.7885 16.3974 16.7533 16.4579 16.7276 16.4814C16.7139 16.4937 16.6835 16.4043 16.7399 16.4006Z" fill="#BE1622"/>
<path d="M16.8883 16.9566C16.9267 16.9664 16.9006 17.0019 16.8807 17.0127C16.8702 17.0193 16.8437 16.9457 16.8883 16.9566Z" fill="#BE1622"/>
<path d="M26.9395 14.1406C26.9034 14.0531 26.9996 14.2288 27.06 14.3937C27.0961 14.491 27.1283 14.5728 27.1106 14.622C27.0791 14.7102 27.0235 14.3449 26.9395 14.1406Z" fill="#BE1622"/>
<path d="M27.0238 13.6495C27.0875 13.7669 27.1285 13.8288 27.1535 13.8183C27.1784 13.8078 27.1897 13.7535 27.1535 13.7071C27.1172 13.6608 26.9879 13.5833 27.0238 13.6495Z" fill="#BE1622"/>
<path d="M27.2526 13.8464C27.2678 13.8931 27.3511 13.8717 27.316 13.8243C27.2809 13.7768 27.2359 13.7956 27.2526 13.8464Z" fill="#BE1622"/>
<path d="M28.0732 16.4104C28.0772 16.4528 27.9975 16.451 28.0102 16.4042C28.0228 16.3575 28.0688 16.364 28.0732 16.4104Z" fill="#BE1622"/>
<path d="M28.3044 17.1375C28.3229 17.0737 28.2646 17.065 28.2595 17.1219C28.2537 17.1845 28.2856 17.199 28.3044 17.1375Z" fill="#BE1622"/>
<path d="M27.9165 16.7931C27.9339 16.8782 27.8177 16.9481 27.8235 16.838C27.8292 16.7279 27.8984 16.7004 27.9165 16.7931Z" fill="#BE1622"/>
<path d="M19.0623 10.3408C19.1141 10.3097 19.2231 10.2586 19.2072 10.2249C19.1912 10.1913 19.1011 10.2572 19.0623 10.2941C19.0236 10.3311 19.0109 10.3716 19.0623 10.3408Z" fill="#BE1622"/>
<path d="M18.0061 17.311C17.9742 17.2943 18.0006 17.2556 18.0202 17.2679C18.0397 17.2802 18.0473 17.3327 18.0061 17.311Z" fill="#BE1622"/>
<path d="M26.5807 13.8966C26.5517 13.9031 26.5785 13.9875 26.6119 13.9755C26.6452 13.9636 26.6144 13.8897 26.5807 13.8966Z" fill="#BE1622"/>
<path d="M27.0239 13.4614C27.021 13.4621 27.0183 13.4634 27.016 13.4652C27.0136 13.467 27.0117 13.4693 27.0103 13.4719C27.0089 13.4745 27.0081 13.4774 27.0079 13.4804C27.0077 13.4833 27.0081 13.4863 27.0091 13.4891C27.0102 13.4919 27.0118 13.4944 27.0138 13.4965C27.0159 13.4987 27.0184 13.5003 27.0212 13.5014C27.024 13.5025 27.0269 13.5029 27.0299 13.5028C27.0329 13.5026 27.0358 13.5019 27.0384 13.5005C27.0721 13.4885 27.0572 13.4541 27.0239 13.4614Z" fill="#BE1622"/>
<path d="M26.9255 13.9888C26.9147 13.9489 27.0306 14.0511 27.0016 14.0999C26.9726 14.1488 26.9429 14.0518 26.9255 13.9888Z" fill="#BE1622"/>
<path d="M20.2721 11.1841C20.2272 11.2069 20.1773 11.2416 20.2291 11.254C20.2506 11.2607 20.2739 11.2589 20.2941 11.2489C20.3144 11.239 20.33 11.2216 20.3377 11.2004C20.3493 11.1609 20.3181 11.1612 20.2721 11.1841Z" fill="#BE1622"/>
</svg>
