<svg width="96" height="32" viewBox="0 0 96 32" fill="none" xmlns="http://www.w3.org/2000/svg">
<path d="M26.1498 27.9988C26.1387 27.955 26.1057 27.9495 26.067 27.9441C25.6644 27.9112 25.3058 27.7688 24.9583 27.5661C22.2058 25.9614 19.4589 24.3567 16.7064 22.7519C16.1713 22.4397 16.1051 22.0728 16.4802 21.5853C17.4952 20.2708 19.3596 19.9258 20.7606 20.824C21.6322 21.3772 22.5092 21.9413 23.4635 22.3247C25.3279 23.0696 27.2033 23.1846 29.0733 22.2261C30.2702 21.6127 30.9763 20.6926 31.2521 19.3945C31.5334 18.0691 30.9432 16.9135 29.6855 16.3767C28.5382 15.8838 27.3854 15.3964 26.238 14.9089C25.1679 14.4543 24.5391 13.5671 24.5501 12.5429C24.5722 10.845 26.409 9.64556 27.9645 10.3466C30.5681 11.5242 33.1331 12.7893 35.6814 14.0764C36.6412 14.5639 37.2094 15.4073 37.2811 16.4808C37.3804 18.0034 37.3528 19.526 37.2921 21.0486C37.259 21.8811 36.8122 22.5274 36.0896 22.9326C34.6224 23.7597 33.1386 24.5593 31.6658 25.3699C30.6895 25.9066 29.7131 26.4489 28.7368 26.9801C28.3341 27.1992 27.9149 27.3964 27.5178 27.6428C27.2033 27.8345 26.8503 27.9386 26.4752 27.9441C26.4311 27.9441 26.3815 27.9386 26.3649 27.9988C26.2987 27.9988 26.2215 27.9988 26.1498 27.9988Z" fill="#FB0024"/>
<path d="M16 10.637C16.0883 10.6096 16.0772 10.522 16.0993 10.4562C16.3034 9.77162 16.7336 9.27869 17.3625 8.93912C19.3648 7.83825 21.3671 6.73739 23.3749 5.642C24.1582 5.2148 24.9415 4.78212 25.7192 4.35491C26.6073 3.86747 27.4899 3.8839 28.3614 4.39325C30.8822 5.87751 33.3975 7.35628 35.9128 8.84054C36.3265 9.08152 36.4423 9.36632 36.2658 9.80996C35.5929 11.4859 33.723 12.0829 32.2722 11.097C31.158 10.3412 29.9996 9.67851 28.6979 9.29512C26.6625 8.69813 24.7705 8.99937 23.0881 10.2974C22.3434 10.8725 22.0125 11.705 21.9021 12.6196C21.8415 13.0852 21.8801 13.5398 22.0621 13.9834C22.1669 14.2353 22.3214 14.4544 22.5089 14.6406C22.8068 14.9364 23.1432 15.1719 23.5569 15.3252C24.2189 15.5717 24.8753 15.8346 25.5151 16.1413C25.995 16.3713 26.519 16.5192 27.0155 16.7219C27.9973 17.1272 28.5986 17.9925 28.582 18.951C28.56 20.134 27.4899 21.1801 26.3039 21.213C25.8075 21.2239 25.3496 21.1253 24.9028 20.9172C22.8288 19.9423 20.7548 18.9729 18.6808 18.0035C18.3939 17.8665 18.1071 17.7351 17.8203 17.5982C16.9267 17.1765 16.342 16.5028 16.0827 15.5553C16.0662 15.5005 16.0883 15.4184 16 15.3964C16 13.8136 16 12.2253 16 10.637Z" fill="#FB0024"/>
<path d="M77.9998 11.2941C77.713 11.2941 77.4317 11.3105 77.1448 11.2886C76.9242 11.2722 76.8966 11.3598 76.8966 11.5515C76.9077 12.5264 76.8966 13.5013 76.9077 14.4762C76.9077 14.6843 76.858 14.75 76.6484 14.7281C76.4498 14.7117 76.2457 14.7062 76.0416 14.7281C75.7989 14.7555 75.7603 14.6515 75.7603 14.4379C75.7714 13.4739 75.7603 12.5045 75.7714 11.5405C75.7769 11.3324 75.7162 11.2722 75.5121 11.2886C75.2915 11.305 75.0708 11.2831 74.8502 11.2941C74.6847 11.305 74.6461 11.2393 74.6571 11.0914C74.6792 10.8231 74.5468 10.4725 74.7178 10.3028C74.8502 10.1713 75.2032 10.2644 75.4625 10.2644C76.3064 10.2589 77.1504 10.2535 77.9943 10.2535C77.9998 10.5985 77.9998 10.9436 77.9998 11.2941Z" fill="#030303"/>
<path d="M47.7112 12.7673C47.441 13.0083 47.1652 13.2384 46.9169 13.4958C46.7459 13.6765 46.6301 13.7039 46.4536 13.5012C46.2219 13.2329 45.9627 12.9864 45.6648 12.6742C45.6648 13.0138 45.6648 13.2986 45.6648 13.5834C45.6648 13.9011 45.6593 14.2242 45.6703 14.5419C45.6758 14.6897 45.6207 14.7336 45.4828 14.7281C45.218 14.7171 44.9477 14.7226 44.683 14.7281C44.5506 14.7336 44.4844 14.7007 44.4844 14.5473C44.4899 13.1672 44.4844 11.7924 44.4899 10.4122C44.4899 10.352 44.4678 10.2589 44.5561 10.2589C44.705 10.2589 44.8595 10.1932 44.9918 10.341C45.3338 10.7244 45.6869 11.0969 46.0344 11.4693C46.244 11.6993 46.4591 11.9239 46.6853 12.1758C47.2313 11.5843 47.7664 11.0038 48.3015 10.4232C48.3621 10.3575 48.4007 10.2753 48.5055 10.2534C48.7924 10.1877 48.8751 10.2479 48.8751 10.5437C48.8751 11.8582 48.8696 13.1726 48.8806 14.4871C48.8806 14.6788 48.8255 14.739 48.6379 14.7281C48.4007 14.7117 48.158 14.7117 47.9209 14.7281C47.7499 14.739 47.7002 14.6843 47.7057 14.5145C47.7168 13.923 47.7112 13.3315 47.7112 12.7673Z" fill="#030303"/>
<path d="M68.5072 14.7993C67.1282 14.7938 66.2015 13.8573 66.2071 12.4826C66.2126 11.1243 67.1779 10.1768 68.5403 10.1877C69.8862 10.1987 70.824 11.1571 70.8184 12.5099C70.8074 13.8573 69.8531 14.8048 68.5072 14.7993ZM69.627 12.5045C69.6325 11.7979 69.1747 11.2995 68.5238 11.2941C67.8508 11.2886 67.3875 11.7815 67.3875 12.499C67.3875 13.2 67.8508 13.6984 68.5017 13.7039C69.1526 13.7039 69.627 13.2 69.627 12.5045Z" fill="#030303"/>
<path d="M54.3304 12.499C54.3304 11.8309 54.3414 11.1681 54.3249 10.5C54.3193 10.2864 54.3911 10.2425 54.5896 10.2535C55.2571 10.2809 55.93 10.2097 56.5975 10.2918C57.2318 10.3685 57.6565 10.7355 57.8441 11.3379C58.0371 11.9623 57.9103 12.5374 57.4249 12.992C57.287 13.1234 57.2814 13.1946 57.3752 13.3425C57.6179 13.7094 57.8441 14.0819 58.0757 14.4543C58.175 14.6186 58.1806 14.7227 57.9323 14.7172C57.64 14.7063 57.3421 14.7063 57.0498 14.7172C56.9174 14.7227 56.8512 14.6734 56.796 14.5639C56.6085 14.2079 56.4099 13.8628 56.2169 13.5123C56.1341 13.3644 55.6873 13.2439 55.5439 13.337C55.4722 13.3808 55.4998 13.452 55.4998 13.5123C55.4998 13.8573 55.4943 14.2079 55.4998 14.5529C55.5053 14.6843 55.4667 14.7282 55.3288 14.7227C55.053 14.7117 54.7772 14.7117 54.5014 14.7227C54.3469 14.7282 54.3193 14.6679 54.3249 14.531C54.3304 13.8464 54.3304 13.1727 54.3304 12.499ZM55.9742 11.2832C55.919 11.2832 55.8638 11.2941 55.8087 11.2832C55.5439 11.2339 55.4336 11.3325 55.4887 11.6008C55.4943 11.6282 55.4887 11.6556 55.4887 11.683C55.4887 12.4005 55.4887 12.4005 56.2224 12.3785C56.5864 12.3676 56.774 12.1704 56.7685 11.8089C56.7629 11.4584 56.5919 11.2886 56.2169 11.2832C56.1396 11.2777 56.0569 11.2832 55.9742 11.2832Z" fill="#030303"/>
<path d="M43.0723 11.6227C42.9619 11.6227 42.8516 11.6172 42.7413 11.6227C42.6089 11.6337 42.5372 11.6063 42.4765 11.4693C42.3221 11.1407 41.6215 11.086 41.3899 11.3708C41.2244 11.5734 41.3071 11.8582 41.5829 11.9294C41.8367 11.9951 42.107 12.0116 42.3662 12.0554C42.5482 12.0882 42.7303 12.1211 42.9013 12.1759C43.3425 12.3183 43.6514 12.5812 43.7452 13.0577C43.85 13.5835 43.7287 14.0326 43.3039 14.3831C42.6089 14.9582 41.2796 14.9636 40.579 14.3995C40.3087 14.1804 40.1653 13.8956 40.1102 13.5615C40.0881 13.4191 40.1046 13.337 40.2867 13.3534C40.4687 13.3699 40.6562 13.3589 40.8383 13.3534C41.0368 13.3479 41.1913 13.3425 41.3237 13.5725C41.5167 13.9066 42.2945 13.8847 42.5372 13.5889C42.6751 13.4137 42.6255 13.1672 42.4158 13.0577C42.2504 12.97 42.0683 12.9481 41.8808 12.9426C41.5884 12.9317 41.2961 12.8879 41.0203 12.7838C40.5625 12.6195 40.237 12.3347 40.1708 11.8418C40.0991 11.305 40.2591 10.8505 40.7114 10.5218C41.3733 10.0453 42.471 10.0673 43.1164 10.5602C43.3977 10.7793 43.5521 11.0641 43.6128 11.4146C43.6404 11.5679 43.6239 11.661 43.4308 11.6391C43.315 11.6118 43.1936 11.6227 43.0723 11.6227Z" fill="#030303"/>
<path d="M62.6214 13.3534C62.7207 13.3534 62.8255 13.3589 62.9248 13.3534C63.0682 13.3479 63.1564 13.3643 63.2392 13.5287C63.4322 13.8956 64.2651 13.912 64.5079 13.5725C64.6292 13.4027 64.574 13.1672 64.3755 13.0576C64.21 12.9645 64.028 12.9481 63.8459 12.9371C63.5426 12.9262 63.2447 12.8769 62.9579 12.7728C62.5166 12.6085 62.1967 12.3237 62.1305 11.8418C62.0588 11.3214 62.2077 10.8669 62.6434 10.5328C63.2998 10.0344 64.4472 10.0508 65.0925 10.5656C65.3794 10.7957 65.5283 11.0969 65.5835 11.4529C65.6 11.5789 65.5724 11.6391 65.429 11.6282C65.258 11.6172 65.0815 11.6227 64.905 11.6282C64.6899 11.6336 64.5079 11.6555 64.3755 11.3926C64.2431 11.1298 63.5922 11.1298 63.3716 11.3488C63.1785 11.5405 63.2612 11.8418 63.5315 11.9349C63.7853 12.0225 64.0555 12.0061 64.3203 12.0608C64.4968 12.0992 64.6844 12.1266 64.8554 12.1813C65.2966 12.3182 65.611 12.5811 65.7048 13.0576C65.8096 13.5834 65.6938 14.0325 65.2746 14.3885C64.5906 14.9636 63.2502 14.9746 62.5497 14.4159C62.2849 14.2078 62.147 13.9285 62.0808 13.6053C62.0422 13.4136 62.0974 13.337 62.3015 13.3589C62.4007 13.3643 62.5111 13.3534 62.6214 13.3534Z" fill="#030303"/>
<path d="M53.2769 14.7227C53.2217 14.7227 53.1665 14.7117 53.1114 14.7227C52.8025 14.7775 52.6039 14.6679 52.5267 14.3557C52.4881 14.1914 52.3778 14.1586 52.2178 14.164C51.8151 14.175 51.4125 14.1805 51.0043 14.164C50.8222 14.1586 50.7009 14.2024 50.6568 14.3831C50.5906 14.6789 50.403 14.761 50.1162 14.7227C49.9176 14.7008 49.7135 14.7172 49.5094 14.7172C49.2391 14.7172 49.2116 14.6789 49.3274 14.4379C49.5977 13.8628 49.8735 13.2877 50.1438 12.7126C50.5078 11.9513 50.8829 11.19 51.2249 10.4178C51.3187 10.2152 51.4456 10.2206 51.611 10.2152C51.782 10.2097 51.8868 10.2425 51.9696 10.4233C52.5763 11.7377 53.1941 13.0413 53.8119 14.3502C53.9774 14.7063 53.9664 14.7172 53.5692 14.7172C53.4754 14.7227 53.3762 14.7227 53.2769 14.7227ZM51.6 12.1376C51.5283 12.3073 51.4676 12.4388 51.4125 12.5702C51.1367 13.2165 51.1367 13.2165 51.8427 13.2001C51.8593 13.2001 51.8813 13.2001 51.8979 13.2001C52.0082 13.211 52.0578 13.1727 52.0082 13.0632C51.8758 12.7619 51.7489 12.4662 51.6 12.1376Z" fill="#030303"/>
<path d="M71.5353 12.4935C71.5353 11.8363 71.5408 11.1791 71.5298 10.5218C71.5243 10.3301 71.5629 10.2535 71.7835 10.2589C72.5558 10.2754 73.328 10.2699 74.0947 10.2589C74.2933 10.2535 74.354 10.3137 74.3374 10.5054C74.3209 10.7026 74.3264 10.9052 74.3374 11.1079C74.3429 11.2503 74.2933 11.2941 74.1499 11.2941C73.7472 11.2831 73.339 11.2996 72.9364 11.2886C72.7709 11.2831 72.6771 11.305 72.7047 11.5022C72.7378 11.7542 72.5944 12.0882 72.7598 12.2306C72.9033 12.3566 73.2287 12.258 73.4769 12.2745C73.692 12.2854 73.9789 12.1759 74.1058 12.3238C74.2106 12.4497 74.1388 12.7236 74.1388 12.9317C74.1388 13.2877 74.1388 13.2877 73.7803 13.2877C73.488 13.2877 73.1901 13.2986 72.8977 13.2822C72.7378 13.2767 72.6992 13.3315 72.7047 13.4794C72.7157 13.8354 72.6992 14.1914 72.7102 14.5474C72.7157 14.6953 72.6661 14.7336 72.5227 14.7281C72.2744 14.7172 72.0262 14.7117 71.778 14.7281C71.5905 14.7391 71.5243 14.6843 71.5298 14.4871C71.5408 13.8244 71.5353 13.1562 71.5353 12.4935Z" fill="#030303"/>
<path d="M60.5914 13.0139C60.5914 13.5068 60.5859 13.9997 60.597 14.4926C60.6025 14.6624 60.5694 14.7446 60.3763 14.7282C60.1502 14.7117 59.9185 14.7117 59.6868 14.7282C59.4993 14.7391 59.4607 14.6734 59.4607 14.4981C59.4717 13.5123 59.4607 12.5264 59.4717 11.5406C59.4717 11.3324 59.4221 11.2722 59.2124 11.2886C58.9918 11.3051 58.7712 11.2886 58.5505 11.2941C58.4126 11.2996 58.3464 11.2722 58.363 11.1188C58.3906 10.8395 58.2471 10.478 58.4237 10.3083C58.5671 10.1713 58.9311 10.2644 59.1959 10.2644C59.9516 10.2644 60.7018 10.2699 61.4575 10.259C61.656 10.2535 61.7112 10.3192 61.7002 10.5054C61.6781 10.7574 61.7829 11.0915 61.6505 11.2448C61.5126 11.4036 61.1651 11.2996 60.9114 11.2886C60.6687 11.2777 60.5804 11.3324 60.5914 11.5953C60.608 12.0609 60.5914 12.5374 60.5914 13.0139Z" fill="#030303"/>
<path d="M51.887 19.745C52.4607 18.9783 53.0068 18.2334 53.5584 17.494C53.5859 17.4557 53.6135 17.4228 53.6356 17.3845C53.6963 17.2914 53.7735 17.2256 53.8838 17.2694C53.9886 17.3078 53.9335 17.4118 53.9335 17.483C53.939 18.677 53.9335 19.8765 53.9335 21.0704C53.9335 21.18 53.9335 21.2895 53.9335 21.3991C53.9335 21.6839 53.7018 21.8317 53.448 21.7167C53.3432 21.6674 53.3929 21.5743 53.3929 21.4977C53.3874 20.6049 53.3929 19.7067 53.3929 18.8139C53.3929 18.7427 53.3929 18.6715 53.3929 18.5237C53.2109 18.7756 53.0674 18.9673 52.924 19.159C52.6206 19.5698 52.3117 19.9805 52.0194 20.3968C51.9146 20.5447 51.8429 20.5392 51.7381 20.3968C51.352 19.86 50.9603 19.3343 50.5742 18.803C50.519 18.7318 50.4639 18.6606 50.4087 18.5839C50.3315 18.6606 50.3701 18.7482 50.3701 18.8194C50.3646 19.7122 50.3591 20.6104 50.3756 21.5031C50.3811 21.7277 50.2763 21.7332 50.1108 21.7222C49.9564 21.7113 49.813 21.7605 49.8185 21.5031C49.8295 20.1613 49.824 18.8194 49.8295 17.4776C49.8295 17.4064 49.7744 17.3023 49.8902 17.2694C50.0005 17.2366 50.0722 17.3023 50.1384 17.3899C50.7121 18.1677 51.2913 18.9454 51.887 19.745Z" fill="#030303"/>
<path d="M66.4161 18.5237C66.0851 18.6004 65.8865 18.5292 65.7045 18.2279C65.3901 17.7076 64.4634 17.5433 63.7739 17.8172C63.1009 18.0801 62.6817 18.8085 62.7369 19.6136C62.792 20.4571 63.2388 21.0376 63.9725 21.2293C64.9653 21.4867 65.8534 20.9938 66.063 20.0682C66.1016 19.8984 66.0961 19.8217 65.8865 19.8327C65.4949 19.8491 65.0977 19.8272 64.7006 19.8436C64.5185 19.8491 64.4799 19.7834 64.4965 19.6246C64.5075 19.4986 64.4744 19.3781 64.684 19.3836C65.2632 19.4 65.8424 19.3945 66.4216 19.3836C66.576 19.3836 66.5981 19.4383 66.5981 19.5753C66.6257 20.835 65.8314 21.7003 64.5572 21.788C63.3547 21.8701 62.3508 21.0267 62.2239 19.8327C62.0915 18.573 62.7038 17.5926 63.8125 17.2914C64.3806 17.138 64.9433 17.1873 65.4783 17.4283C65.9417 17.6474 66.2561 18.0089 66.4161 18.5237Z" fill="#030303"/>
<path d="M44.0596 19.8381C43.5908 19.8381 43.1219 19.8272 42.653 19.8436C42.471 19.8491 42.4655 19.7614 42.4765 19.63C42.4876 19.515 42.4269 19.3781 42.6475 19.3835C43.2267 19.4 43.8059 19.3945 44.3851 19.3835C44.523 19.3835 44.5726 19.4109 44.5781 19.5588C44.6167 20.7911 43.8279 21.6729 42.5703 21.7824C41.3954 21.8865 40.3749 21.0814 40.2094 19.9203C40.0274 18.6332 40.6397 17.6035 41.776 17.2913C42.3827 17.127 42.9785 17.1873 43.5411 17.4721C43.85 17.6309 44.0982 17.8609 44.2527 18.1731C44.3078 18.2827 44.4513 18.4032 44.3409 18.5291C44.2472 18.6387 43.8721 18.5072 43.7893 18.3593C43.497 17.8445 42.8185 17.5871 42.1014 17.7185C41.1692 17.8938 40.59 18.7427 40.7279 19.745C40.8879 20.939 41.9139 21.5743 43.0667 21.1909C43.6569 20.9938 44.01 20.5227 44.0596 19.8381Z" fill="#030303"/>
<path d="M60.7681 20.5885C60.7681 20.353 60.7791 20.1613 60.7681 19.9751C60.7074 19.1262 60.7571 18.2772 60.735 17.4283C60.7295 17.1818 60.895 17.2585 61.0108 17.2585C61.1266 17.2585 61.2921 17.1709 61.2921 17.4228C61.2866 18.7975 61.2866 20.1777 61.2866 21.5579C61.2866 21.6127 61.3197 21.6948 61.2314 21.7168C61.1653 21.7332 61.1046 21.7168 61.0605 21.662C60.9832 21.5689 60.906 21.4812 60.8233 21.3936C59.9628 20.4078 59.1078 19.4219 58.2473 18.4306C58.1535 18.4744 58.2032 18.5566 58.2032 18.6168C58.2087 19.5643 58.2142 20.5118 58.2418 21.4648C58.2473 21.7113 58.137 21.7113 57.9549 21.7222C57.7398 21.7332 57.7012 21.662 57.7012 21.4648C57.7122 20.1449 57.7067 18.8195 57.7067 17.494C57.7067 17.4174 57.6405 17.3023 57.7674 17.2585C57.8887 17.2202 57.9439 17.3188 58.0101 17.3954C58.9147 18.4525 59.8249 19.5041 60.7681 20.5885Z" fill="#030303"/>
<path d="M48.853 21.7222C48.6764 21.7714 48.5827 21.6674 48.5054 21.4976C48.3731 21.2073 48.2903 20.8349 48.0642 20.6706C47.8325 20.5063 47.4464 20.6322 47.1264 20.6268C46.7679 20.6213 46.4094 20.6322 46.0508 20.6213C45.9129 20.6158 45.8357 20.6596 45.7805 20.7911C45.6868 21.0102 45.5764 21.2183 45.4771 21.4319C45.3337 21.7276 45.2013 21.7934 44.8814 21.7276C44.7049 21.6893 44.8097 21.6017 44.8373 21.5305C45.0193 21.1361 45.2124 20.7418 45.3999 20.3474C45.8578 19.389 46.3101 18.425 46.7679 17.4666C46.812 17.3735 46.8231 17.2639 46.983 17.2639C47.1375 17.2639 47.1595 17.368 47.2037 17.4611C47.827 18.7865 48.4503 20.1119 49.0736 21.4374C49.2115 21.7222 49.2115 21.7222 48.853 21.7222ZM47.9152 20.1612C47.5953 19.4602 47.2974 18.7975 46.9775 18.0964C46.6576 18.8084 46.3542 19.4766 46.0453 20.1612C46.6741 20.1612 47.2699 20.1612 47.9152 20.1612Z" fill="#030303"/>
<path d="M55.8254 21.7222C55.533 21.7222 55.2352 21.7112 54.9428 21.7277C54.7442 21.7386 54.7718 21.6236 54.7718 21.5031C54.7718 21.3881 54.7553 21.2895 54.9318 21.295C55.1304 21.3005 55.4117 21.3881 55.5054 21.2566C55.6047 21.1142 55.5441 20.8568 55.5441 20.6487C55.5441 19.745 55.5385 18.8413 55.5496 17.9431C55.5496 17.7569 55.5054 17.6747 55.3124 17.7021C55.2407 17.7131 55.1634 17.6912 55.0917 17.7076C54.7994 17.7733 54.8159 17.5871 54.8215 17.3954C54.827 17.2968 54.8656 17.2749 54.9538 17.2749C55.522 17.2749 56.0901 17.2804 56.6638 17.2749C56.8514 17.2749 56.8127 17.3899 56.8127 17.494C56.8127 17.5926 56.8569 17.7295 56.6638 17.7076C56.6473 17.7076 56.6252 17.7076 56.6086 17.7076C56.0901 17.7185 56.0901 17.7185 56.0901 18.2334C56.0901 19.1645 56.1012 20.0955 56.0846 21.0211C56.0791 21.2731 56.1618 21.3443 56.3935 21.3059C56.4542 21.295 56.5204 21.3059 56.5866 21.3059C56.741 21.3005 56.8844 21.2676 56.8789 21.525C56.8789 21.7715 56.741 21.7277 56.5976 21.7277C56.3384 21.7222 56.0791 21.7222 55.8254 21.7222Z" fill="#030303"/>
</svg>
