<svg width="136" height="32" viewBox="0 0 136 32" fill="none" xmlns="http://www.w3.org/2000/svg">
<path d="M27.3039 7.41356C30.1791 8.37853 32.2666 10.2691 33.7042 12.908C33.8224 13.1246 34.0784 13.4003 33.9012 13.6169C33.6255 13.932 33.3498 13.5776 33.1331 13.4594C31.6758 12.6126 30.0807 12.4944 28.4658 12.4944C26.4965 12.4944 24.5272 12.4747 22.5579 12.4944C22.164 12.4944 21.5929 12.3369 21.5732 12.9868C21.5535 13.6957 22.164 13.5579 22.5972 13.5579C25.6617 13.5579 31.9122 13.6957 31.9122 13.6957C31.9122 13.6957 33.9209 14.7001 33.9406 15.7635C33.9996 18.9144 33.9799 22.0653 33.9603 25.2163C33.9603 26.6926 24.308 25.6502 23.0502 25.3147C21.1162 24.7069 15.3779 21.6321 16.2954 18.7963C18.2056 20.3323 20.3916 20.2536 22.5972 20.1945C24.3358 20.1611 26.077 20.1945 27.816 20.1945C28.1704 20.1945 28.5249 20.1157 28.5446 19.7022C28.6062 18.9633 27.5066 19.0917 27.0282 19.0917C24.3302 19.0917 21.652 19.072 18.954 19.0917C17.9102 19.0917 17.1225 18.6978 16.4923 17.8904C16.3545 17.7131 16.0197 17.4571 16.0197 17.4571C16.0197 17.4571 16.0197 10.8599 16 7.55141C16 5.86216 25.9978 6.97817 27.3039 7.41356Z" fill="url(#paint0_linear_17706_128654)"/>
<path d="M120 21.9867C119.528 22.0458 119.488 21.7701 119.488 21.3959C119.508 18.9145 119.488 16.4332 119.488 13.9321C119.488 13.558 119.547 13.2823 120 13.3216C120 16.1969 120 19.0918 120 21.9867Z" fill="black"/>
<path d="M43.4916 13.1443C44.2793 13.164 45.067 13.2231 45.776 13.5973C46.2289 13.8336 46.5637 14.1684 46.7803 14.641C46.9379 14.9955 47.1939 15.5469 46.8394 15.7044C46.3471 15.9014 46.4652 15.2318 46.3274 14.9561C46.0517 14.385 45.6578 13.9911 45.0473 13.8336C44.0036 13.5579 42.9795 13.5579 41.9358 13.8336C41.2071 14.0305 40.7148 14.4835 40.6754 15.2712C40.6557 16.0392 41.1087 16.4922 41.7979 16.6891C43.0189 17.0239 44.2793 17.2799 45.5003 17.6541C46.7803 18.0479 47.1742 18.619 47.1742 19.7613C47.1742 20.9035 46.4062 21.3367 45.5003 21.6715C43.9642 22.2426 42.4872 22.0851 41.0496 21.3564C40.2225 20.9429 39.9271 20.2142 39.8877 19.3477C39.8877 19.1705 39.9074 18.9932 40.0846 18.9341C40.2816 18.8751 40.3603 19.0326 40.4194 19.1901C41.1481 21.1201 41.7389 21.514 43.7673 21.514C44.3581 21.514 44.9292 21.3761 45.5003 21.1792C46.2289 20.9232 46.6622 20.4308 46.6425 19.6431C46.6228 18.8751 46.1895 18.3827 45.4215 18.2055C44.2399 17.9298 43.078 17.6344 41.9161 17.2799C40.5967 16.886 40.1043 16.2165 40.1634 15.1333C40.2422 14.0502 40.9314 13.4397 42.31 13.2428C42.7038 13.1837 43.0977 13.1837 43.4916 13.1443Z" fill="black"/>
<path d="M80.4364 18.7963C80.4364 17.9692 80.4364 17.1617 80.4364 16.3346C80.4364 16.0983 80.6136 15.606 80.7712 15.8817C81.2635 16.7482 81.5589 15.9408 81.8937 15.8226C82.9571 15.4878 83.9615 15.3893 84.7886 16.2952C85.0643 16.6103 85.2021 16.5709 85.4582 16.2952C86.2262 15.4878 87.2306 15.4878 88.1955 15.7241C88.9439 15.9014 89.4756 16.4331 89.4953 17.2602C89.5347 18.6781 89.5347 20.0764 89.515 21.4943C89.515 21.6912 89.5937 22.026 89.2196 21.9669C88.9439 21.9275 89.0423 21.6518 89.0423 21.4746C89.0423 20.3324 89.062 19.1705 89.0226 18.0283C89.0029 16.7482 88.4712 16.1377 87.4078 16.0983C86.1474 16.0589 85.34 16.7285 85.2612 17.9889C85.2021 19.0917 85.2415 20.2142 85.2218 21.3367C85.2218 21.573 85.3203 21.9472 84.9658 21.9669C84.5523 21.9866 84.7098 21.5927 84.6901 21.3564C84.6704 20.2339 84.7098 19.1311 84.6704 18.0086C84.631 16.6891 84.0796 16.0786 82.9571 16.0786C81.8543 16.0786 81.0075 16.9057 80.9681 18.0676C80.9287 19.1508 80.9681 20.2339 80.9484 21.317C80.9484 21.5534 81.0666 21.9275 80.6727 21.9472C80.2788 21.9669 80.397 21.573 80.397 21.3367C80.4364 20.4899 80.4364 19.6431 80.4364 18.7963Z" fill="black"/>
<path d="M50.6997 16.5315C52.6494 15.1924 54.3824 15.1727 55.5049 16.4921C56.5487 17.7131 56.5093 20.0369 55.4458 21.2185C54.3627 22.3804 52.3343 22.3607 50.6801 21.0806C50.424 21.8487 50.6013 22.6167 50.5422 23.3651C50.5225 23.5817 50.621 23.8968 50.2862 23.8968C49.9514 23.8968 50.0499 23.562 50.0499 23.3651C50.0499 21.1397 50.0302 18.9144 50.0499 16.689C50.0499 16.374 49.8332 15.8225 50.2468 15.7438C50.7982 15.6453 50.365 16.3543 50.6997 16.5315ZM50.621 18.7568C50.6013 20.5095 51.5663 21.573 53.1417 21.573C54.6778 21.573 55.7215 20.5095 55.7412 18.875C55.7609 17.1223 54.8156 16.0392 53.2402 16.0195C51.6253 15.9998 50.6407 17.0238 50.621 18.7568Z" fill="black"/>
<path d="M115.884 16.7088C115.884 16.4331 115.884 16.2755 115.884 16.0983C115.884 15.9014 115.884 15.665 116.14 15.665C116.396 15.665 116.436 15.8817 116.436 16.0786C116.436 17.9101 116.436 19.7416 116.436 21.573C116.436 21.7306 116.416 21.9275 116.219 21.9472C115.963 21.9866 115.904 21.7897 115.884 21.573C115.865 21.3958 115.865 21.2186 115.845 21.0019C113.895 22.4395 112.123 22.4986 110.961 21.1792C109.878 19.9582 109.897 17.6738 111.02 16.4922C112.241 15.1924 113.954 15.2515 115.884 16.7088ZM115.845 18.8357C115.845 17.083 114.84 16.0589 113.147 16.0786C111.749 16.0983 110.705 17.2799 110.725 18.8554C110.725 20.5687 111.67 21.5927 113.226 21.5927C114.841 21.5927 115.845 20.5293 115.845 18.8357Z" fill="black"/>
<path d="M95.9546 19.0522C95.2062 19.0522 94.4382 19.0719 93.6899 19.0522C93.0597 19.0325 92.9612 19.3279 93.0991 19.84C93.3354 20.7065 93.808 21.3563 94.7139 21.5139C95.797 21.7108 96.8802 21.6911 97.7073 20.7459C97.9042 20.5095 98.0224 19.8597 98.4162 20.1944C98.7313 20.4505 98.2784 20.9034 98.0421 21.1791C97.1953 22.2032 95.1472 22.4592 93.8671 21.7305C92.7249 21.0806 92.1538 19.3279 92.6067 17.8116C93.04 16.3346 94.3397 15.4681 95.8955 15.5862C97.5891 15.7241 98.7313 16.8269 98.7707 18.363C98.7904 18.8553 98.6722 19.0916 98.1208 19.0522C97.4119 19.0128 96.6832 19.0522 95.9546 19.0522ZM95.5213 18.5402C96.1515 18.5402 96.762 18.5205 97.3725 18.5402C98.2784 18.5993 98.2587 18.1266 97.983 17.5162C97.5497 16.5118 96.5454 15.9801 95.3244 16.0982C94.261 16.1967 93.4338 16.9254 93.1384 17.91C93.0006 18.363 93.0991 18.5205 93.552 18.5205C94.2216 18.5402 94.8714 18.5402 95.5213 18.5402Z" fill="black"/>
<path d="M74.2722 22.1047C72.3029 22.1047 71.0031 20.8444 71.0031 18.8554C70.9834 16.9451 72.362 15.5666 74.2919 15.5666C76.1431 15.5666 77.4625 16.886 77.4822 18.816C77.5019 20.8247 76.2809 22.085 74.2722 22.1047ZM74.1935 21.6321C75.828 21.6518 76.9111 20.6081 76.9505 18.9735C76.9899 17.2208 75.9855 16.118 74.3313 16.0983C72.7362 16.0589 71.5939 17.1617 71.5742 18.7569C71.5152 20.4505 72.5786 21.6124 74.1935 21.6321Z" fill="black"/>
<path d="M102.375 16.4725C102.926 16.0589 103.438 15.6848 104.128 15.606C106.117 15.3697 107.2 16.2756 107.219 18.2646C107.239 19.3083 107.219 20.3717 107.219 21.4155C107.219 21.6321 107.259 21.9472 106.944 21.9472C106.589 21.9472 106.727 21.6124 106.707 21.4155C106.688 20.3324 106.747 19.2492 106.648 18.1661C106.53 16.6694 105.841 15.9998 104.6 16.0392C103.261 16.0786 102.335 16.9648 102.276 18.3433C102.237 19.328 102.276 20.3127 102.257 21.2973C102.257 21.5337 102.394 21.9078 102.02 21.9275C101.646 21.9472 101.745 21.5533 101.745 21.317C101.725 19.6825 101.745 18.0283 101.745 16.3937C101.745 16.1574 101.705 15.8423 101.961 15.8029C102.414 15.7635 102.217 16.2362 102.375 16.4725Z" fill="black"/>
<path d="M63.1851 21.9669C62.87 21.8487 62.8503 21.6912 62.8503 21.514C62.8503 19.7416 62.8503 17.9692 62.8503 16.1968C62.8503 16.0195 62.7715 15.7635 63.0275 15.7044C63.2245 15.665 63.3032 15.8423 63.3032 16.0195C63.3032 16.4922 63.5199 16.2755 63.6971 16.1377C64.2682 15.6847 64.9378 15.5469 65.6271 15.5272C67.301 15.4878 68.1872 16.3543 68.1872 18.0282C68.1872 19.1508 68.2069 20.2536 68.2069 21.3761C68.2069 21.5927 68.2463 21.9078 67.9509 21.9078C67.6752 21.9078 67.6358 21.6124 67.6358 21.3958C67.6358 20.2733 67.6358 19.1705 67.6358 18.0479C67.6161 16.827 67.0844 16.1771 66.0603 16.0589C64.7606 15.9211 63.7562 16.5316 63.4608 17.6344C63.1851 18.6584 63.3426 19.7219 63.3032 20.7656C63.2836 21.1595 63.382 21.5337 63.1851 21.9669Z" fill="black"/>
<path d="M59.3252 18.6782C59.3252 17.792 59.3252 16.9255 59.3252 16.0393C59.3252 15.8423 59.3252 15.606 59.6009 15.6454C59.7978 15.6651 59.8569 15.8226 59.8569 15.9999C59.8569 17.792 59.8569 19.584 59.8569 21.3761C59.8569 21.5731 59.8372 21.8094 59.5615 21.77C59.3055 21.7503 59.3252 21.4943 59.3252 21.3171C59.3055 20.4309 59.3252 19.5644 59.3252 18.6782Z" fill="black"/>
<defs>
<linearGradient id="paint0_linear_17706_128654" x1="16" y1="12" x2="34" y2="12.5" gradientUnits="userSpaceOnUse">
<stop stop-color="#00BCD6"/>
<stop offset="1" stop-color="#B94DA1"/>
</linearGradient>
</defs>
</svg>
