<svg width="108" height="32" viewBox="0 0 108 32" fill="none" xmlns="http://www.w3.org/2000/svg">
<path fill-rule="evenodd" clip-rule="evenodd" d="M23.0277 13.2787C23.1218 14.7823 22.8081 14.8762 21.4277 14.8449C20.6225 14.824 20.4029 14.6256 20.4029 13.8216C20.4029 13.7172 20.404 13.6128 20.4052 13.5084V13.5083C20.4075 13.2995 20.4099 13.0907 20.4029 12.8819C20.382 12.2867 19.995 11.963 19.399 12.0256C18.8657 12.0779 18.6251 12.506 18.6461 13.0803C18.6977 14.1329 19.4031 14.7163 20.1262 15.3144L20.1519 15.3357C20.7166 15.7951 21.2813 16.2546 21.8251 16.7349C22.6198 17.4345 22.9545 18.3429 23.0068 19.3662C23.0381 19.9196 23.0695 20.473 22.9126 21.0264C22.6721 21.8305 22.1702 22.3943 21.3754 22.6762C20.1937 23.0939 18.9911 23.1044 17.7886 22.7598C16.816 22.4779 16.0631 21.5172 16.0108 20.473C15.9899 19.9509 15.9899 19.4289 16.0108 18.9068C16.0317 18.3951 16.2513 18.1863 16.7533 18.1758C17.1716 18.1654 17.5899 18.1654 18.0082 18.1758C18.4055 18.1863 18.6147 18.3951 18.6251 18.7919C18.6296 18.9619 18.6283 19.1338 18.6271 19.306C18.6254 19.5357 18.6236 19.7659 18.6356 19.9927C18.6774 20.6714 19.0225 20.9534 19.6918 20.8907C20.1728 20.8385 20.4552 20.3895 20.3715 19.7943C20.3088 19.1887 20.1101 18.6666 19.6081 18.2594C19.2962 18.0054 18.993 17.736 18.6896 17.4664L18.6896 17.4664C18.3319 17.1485 17.9738 16.8303 17.6003 16.5365C16.565 15.7116 15.9899 14.6779 16.0108 13.3517C16.014 13.2136 16.0093 13.0754 16.0046 12.9373C15.994 12.6264 15.9835 12.3156 16.0631 12.0048C16.4082 10.6787 17.3912 10.167 18.6147 10.0626C19.4199 9.9895 20.246 9.96862 21.0512 10.1879C22.3793 10.5638 23.0277 11.3678 23.0277 12.7566V13.2787ZM42.5829 15.4194C42.8124 15.2157 42.8969 14.943 42.9766 14.6854C42.9949 14.6261 43.013 14.5676 43.0326 14.511C43.2898 13.7404 43.6035 12.9924 43.9173 12.2443L43.9173 12.2443C44.1264 11.7456 44.3356 11.2469 44.528 10.7415C44.6849 10.3134 44.9463 10.0941 45.4273 10.1359C45.6469 10.1547 45.8665 10.1509 46.0861 10.1472C46.2325 10.1446 46.3789 10.1421 46.5253 10.1463C47.1319 10.1568 47.4247 10.5431 47.2155 11.1174C46.9842 11.7466 46.7164 12.3697 46.4492 12.9913C46.3661 13.1847 46.2831 13.378 46.2012 13.5712L46.0398 13.9584C45.7272 14.7089 45.4123 15.4647 45.0822 16.213C44.9573 16.4913 45.0532 16.7167 45.1507 16.9459C45.1593 16.9661 45.1679 16.9863 45.1763 17.0066C45.4483 17.653 45.722 18.2995 45.996 18.9468C46.3859 19.8676 46.7764 20.7899 47.1632 21.7158C47.456 22.4258 47.1528 22.9062 46.3999 22.9062C46.2616 22.9062 46.1357 22.9071 46.0208 22.9079C45.4263 22.9123 45.1238 22.9145 44.9161 22.7754C44.7009 22.6313 44.5874 22.3355 44.3562 21.7335L44.3562 21.7334C44.3312 21.6685 44.305 21.6001 44.277 21.5278C43.8169 20.3688 43.3359 19.2098 42.8548 18.0612C42.8427 18.0329 42.8318 18.0032 42.8206 17.9729C42.7741 17.8463 42.7244 17.7109 42.5725 17.6435C42.4531 17.7707 42.467 17.916 42.4804 18.0565C42.4846 18.1005 42.4888 18.1441 42.4888 18.1865C42.4818 19.0564 42.4842 19.9264 42.4865 20.7964V20.7969C42.4877 21.232 42.4888 21.6671 42.4888 22.1021C42.4888 22.6764 42.2797 22.8853 41.7045 22.9062C41.3594 22.9166 41.0039 22.9166 40.6588 22.9062C40.0941 22.8853 39.8745 22.666 39.864 22.1021C39.8571 21.6013 39.8594 21.1051 39.8617 20.6074V20.6073V20.6073V20.6072C39.8629 20.3578 39.864 20.1081 39.864 19.8572V11.0965C39.864 10.2507 40.0313 10.0837 40.8575 10.0628C42.311 10.021 42.5411 10.0837 42.4888 11.6813C42.4627 12.5757 42.4728 13.4702 42.4829 14.3707V14.3707V14.3708V14.3709L42.483 14.3728C42.485 14.5543 42.4871 14.7361 42.4888 14.9182C42.4871 14.941 42.4838 14.9649 42.4805 14.9899C42.4638 15.1138 42.4437 15.263 42.5829 15.4194ZM35.2732 10.0465C35.1512 10.0441 35.0292 10.0418 34.9072 10.0418C34.7124 10.0418 34.5176 10.0392 34.3242 10.0365C34.1333 10.0339 33.9438 10.0314 33.7569 10.0314C33.0667 10.0418 32.8471 10.2506 32.753 10.9502C32.6526 11.7856 32.5254 12.621 32.3982 13.4563C32.3665 13.6651 32.3347 13.874 32.3033 14.0828C32.1706 14.9621 32.0302 15.8402 31.8897 16.7184L31.8897 16.7185L31.8897 16.7186C31.6316 18.3325 31.3734 19.9466 31.1635 21.5695C31.0171 22.7181 31.1425 22.8852 32.3033 22.8852H32.5124C33.4327 22.8852 33.6314 22.6972 33.6941 21.7784C33.7778 20.4836 33.7778 20.4836 35.0431 20.4836H35.2523C35.5973 20.4836 35.7699 20.4836 35.8614 20.5697C35.9529 20.6558 35.9634 20.8281 35.9843 21.1727C36.0993 22.8225 36.2666 22.9792 37.8561 22.8852L37.8788 22.8831L37.9178 22.8798C38.0015 22.8731 38.0838 22.8665 38.1594 22.833C38.5254 22.6868 38.745 22.4362 38.6823 22.029C38.63 21.6792 38.5699 21.3294 38.5097 20.9796C38.4496 20.6298 38.3895 20.28 38.3372 19.9302C38.2065 19.0584 38.0784 18.1866 37.9503 17.3147C37.8222 16.4428 37.6941 15.5708 37.5633 14.6988C37.3647 13.4041 37.1555 12.0988 36.9359 10.8041C36.8522 10.2924 36.5699 10.0105 36.0052 10.0418C35.7612 10.0557 35.5172 10.0511 35.2732 10.0465ZM35.6392 17.9671C35.7019 18.4579 35.681 18.4892 34.8758 18.4892C34.0467 18.4892 34.0492 18.4692 34.1477 17.6849L34.1543 17.633C34.309 16.4912 34.4284 15.3423 34.5474 14.198L34.5475 14.1964L34.5477 14.1949C34.5733 13.9484 34.5989 13.7022 34.6248 13.4563C34.6562 13.1869 34.6763 12.9175 34.6964 12.648C34.7097 12.4685 34.7231 12.2889 34.7399 12.1093L34.7398 12.0896C34.7392 11.9887 34.7384 11.8698 34.8758 11.8796C34.9908 11.89 35.0118 12.0257 35.0222 12.1302C35.0588 12.4852 35.0954 12.8376 35.132 13.19L35.1321 13.1909L35.1328 13.1975L35.1328 13.1977C35.1691 13.5475 35.2055 13.8974 35.2418 14.2498C35.3673 15.4924 35.4928 16.735 35.6392 17.9671ZM48.5331 18.9654V18.9652C48.5329 18.9218 48.5327 18.8788 48.5327 18.8339V11.2114C48.5327 10.2717 48.7732 10.0315 49.7039 10.0315H53.4686C54.2424 10.0315 54.4934 10.2925 54.4934 11.0652C54.4934 11.8379 54.2424 12.1094 53.4895 12.1198C53.2904 12.1198 53.0925 12.121 52.895 12.1222C52.5011 12.1245 52.1087 12.1268 51.7118 12.1198C51.3876 12.1094 51.2412 12.2138 51.2412 12.5584C51.2621 13.3937 51.2516 14.2291 51.2412 15.0644C51.2412 15.3568 51.3562 15.4717 51.6385 15.4612C52.1091 15.4508 52.5797 15.4403 53.0503 15.4612C53.615 15.4925 53.866 15.8371 53.8555 16.5158C53.845 17.1737 53.6045 17.4347 52.998 17.4451C52.5483 17.4556 52.0882 17.4556 51.6385 17.4451C51.3457 17.4347 51.2307 17.5496 51.2307 17.8419C51.2412 18.6982 51.2412 19.5439 51.2307 20.4002C51.2307 20.703 51.3562 20.797 51.6385 20.7865C52.266 20.7761 52.8934 20.7761 53.5209 20.7865C54.2424 20.797 54.4829 21.0998 54.4725 21.956C54.462 22.666 54.2633 22.8749 53.5209 22.8749H49.3902C48.8255 22.8749 48.5223 22.5929 48.5014 22.0186C48.4804 21.4652 48.4909 20.348 48.4909 20.348C48.4909 20.348 48.5282 19.68 48.5327 19.2516C48.5339 19.1425 48.5335 19.0532 48.5331 18.9654ZM26.2574 16.1765C26.258 16.568 26.2587 16.9596 26.2587 17.3512C26.2587 18.646 26.2587 19.9512 26.2482 21.2564C26.2474 21.3837 26.2454 21.5012 26.2437 21.6096C26.224 22.8268 26.2227 22.9036 27.9318 22.8749C28.6848 22.854 28.873 22.666 28.873 21.8933V21.1624C28.873 20.3629 28.8747 19.5633 28.8764 18.7638C28.8807 16.7649 28.8849 14.7661 28.8625 12.7672C28.8521 12.2138 29.0299 12.0468 29.5423 12.1094C29.7689 12.1386 30.0007 12.1321 30.234 12.1255C30.3344 12.1227 30.435 12.1198 30.5357 12.1198C30.8285 12.1198 31.0795 11.9841 31.1841 11.7439C31.3618 11.3367 31.3618 10.8773 31.205 10.4805C31.0481 10.0941 30.6403 10.0315 30.2325 10.0315C29.0887 10.0385 27.9497 10.0361 26.8121 10.0338C26.2439 10.0327 25.6762 10.0315 25.1084 10.0315C23.9999 10.0315 23.7698 10.2925 23.8535 11.4098C23.8953 11.8692 24.1254 12.1094 24.5855 12.1198C24.6503 12.1216 24.7151 12.1236 24.7799 12.1257C25.1018 12.1358 25.4224 12.1459 25.7358 12.1198C26.1436 12.0885 26.2796 12.2347 26.2691 12.6524C26.2534 13.8271 26.2554 15.0018 26.2574 16.1765Z" fill="#00D45C"/>
<path fill-rule="evenodd" clip-rule="evenodd" d="M71.2669 16.5157V13.0699C71.2669 11.2322 71.9153 10.4281 73.714 10.0836C74.6447 9.90606 75.5963 10.0105 76.5061 10.1775C77.4159 10.3446 78.1583 11.3888 78.2315 12.4121C78.2566 12.8133 78.255 13.2212 78.2533 13.6251C78.2529 13.7258 78.2524 13.8262 78.2524 13.9261C78.2524 14.3751 77.9701 14.584 77.5623 14.6153C77.144 14.6362 76.7257 14.6257 76.3074 14.6153C75.8577 14.6153 75.659 14.3751 75.6381 13.9366C75.6318 13.7924 75.634 13.6491 75.6362 13.5063C75.6414 13.1732 75.6464 12.8422 75.544 12.5061C75.4185 12.0677 75.0935 12.0509 74.7925 12.0354C74.7422 12.0328 74.6926 12.0302 74.6447 12.0257C74.2996 11.984 74.0068 12.1719 73.9336 12.5583L73.9336 12.5583C73.9126 12.6627 73.8917 12.7671 73.8917 12.8715C73.8917 13.6721 73.8906 14.4726 73.8894 15.2731C73.8871 16.8742 73.8848 18.4753 73.8917 20.0763C73.8917 20.6924 74.2682 21.0161 74.8643 20.9535C75.3453 20.9117 75.6172 20.6298 75.6277 20.139C75.6346 19.8471 75.6323 19.5598 75.63 19.271V19.2709V19.2709V19.2708V19.2705V19.2703V19.27C75.6288 19.1252 75.6277 18.9801 75.6277 18.8338C75.6277 18.7869 75.629 18.7401 75.6303 18.6938L75.6303 18.6937C75.64 18.3475 75.6489 18.0291 75.1048 17.9462C74.7597 17.894 74.6342 17.2049 74.7806 16.5888C74.8747 16.2024 75.1571 16.0771 75.5231 16.0771C75.7395 16.0771 75.9548 16.076 76.1697 16.0748L76.1699 16.0748H76.1699H76.1699H76.17C76.5987 16.0725 77.0259 16.0702 77.4577 16.0771C78.0328 16.0876 78.242 16.2964 78.242 16.8707C78.2462 17.2799 78.2437 17.6907 78.2412 18.1019V18.1019V18.102V18.102V18.1021V18.1022V18.1023C78.2374 18.7193 78.2336 19.337 78.2524 19.951C78.2943 21.4338 77.6564 22.5719 75.9309 22.8434C74.9793 22.9896 74.0172 23.0836 73.0551 22.7703C71.9885 22.4153 71.1519 21.4547 71.2669 20.233V20.1808V16.5157ZM62.7234 19.5334C62.726 18.9773 62.7299 18.4213 62.7338 17.8653V17.8652C62.7456 16.1972 62.7574 14.5291 62.7338 12.8611C62.7129 11.6394 63.2149 10.7832 64.3024 10.282C64.6998 10.094 65.1599 10.0627 65.5991 10.0418C66.237 10.0209 66.8749 10.0314 67.5233 10.1358C68.7468 10.3342 69.6252 11.1486 69.6775 12.3808C69.7434 13.8947 69.733 15.4172 69.7227 16.9328L69.7193 17.4346C69.7193 17.7125 69.7251 17.9905 69.7308 18.2683C69.7456 18.9817 69.7603 19.6936 69.6775 20.4C69.4997 21.8514 68.9246 22.5719 67.5233 22.8225C66.6031 22.9791 65.6514 23.0522 64.6894 22.7912C63.5077 22.4571 62.7129 21.6008 62.7443 20.3165C62.7522 20.1739 62.7421 20.0252 62.7322 19.8797C62.729 19.8335 62.7259 19.7875 62.7234 19.7422V19.5334ZM65.3586 16.4739V20.0241C65.3586 20.6402 65.6619 20.9534 66.2266 20.9534C66.7913 20.9534 67.0945 20.6402 67.0945 20.0241C67.105 17.6643 67.105 15.294 67.0945 12.9342C67.0945 12.2972 66.8017 12.0153 66.2266 12.0048C65.6514 12.0048 65.3586 12.2972 65.3586 12.9237V16.4739ZM83.9888 15.4192C83.9859 15.7638 83.9831 16.1084 83.9831 16.453C83.9831 16.842 83.9803 17.2302 83.9774 17.6176C83.9709 18.5196 83.9643 19.418 83.9936 20.3164C84.0458 22.2273 85.468 22.9164 87.0053 22.9477C87.3527 22.9556 87.7061 22.9278 88.0564 22.9002C88.17 22.8913 88.2834 22.8823 88.3961 22.8747C89.4732 22.7911 90.5608 22.2168 90.8536 21.0369C91.0573 20.241 91.0134 19.4302 90.9698 18.6233C90.962 18.4775 90.9541 18.3318 90.9477 18.1863C90.9268 17.8313 90.6549 17.6433 90.2889 17.6433C90.1596 17.6433 90.0314 17.6422 89.9036 17.641L89.9035 17.641C89.6491 17.6387 89.3961 17.6364 89.1386 17.6433C88.5739 17.6642 88.3752 17.8626 88.3647 18.4473C88.3647 18.6283 88.3659 18.8081 88.3671 18.9876V18.9882V18.9888C88.3694 19.3473 88.3717 19.7042 88.3647 20.0658C88.3543 20.6506 88.051 20.9534 87.5072 20.9638C86.9425 20.9638 86.6184 20.6506 86.6184 20.0449V12.9445C86.6184 12.3076 86.9007 12.0048 87.4759 12.0048C88.0719 11.9943 88.3543 12.2971 88.3647 12.9654V14.5839C88.3543 15.0538 88.6052 15.3044 89.0549 15.3253C89.4523 15.3461 89.8601 15.3461 90.2575 15.3253C90.7385 15.3044 90.9791 15.0329 90.9791 14.5526C90.9791 14.3968 90.9797 14.2411 90.9804 14.0853L90.9804 14.0826C90.9823 13.6128 90.9843 13.1429 90.9686 12.673C90.9059 11.2739 90.1948 10.4385 88.8458 10.1461C88.051 9.96863 87.2458 9.96863 86.451 10.073C84.5583 10.3237 83.9308 11.5245 83.9726 13.0072C84.0019 13.8112 83.9953 14.6152 83.9888 15.4192ZM55.9156 16.453V11.0337C55.9156 10.2715 56.062 10.1253 56.8149 10.1149H57.5992C58.3417 10.1149 58.5299 10.2924 58.5299 11.0442C58.5299 11.9182 58.5316 12.7922 58.5333 13.6662L58.5333 13.6665C58.5376 15.8518 58.5418 18.0372 58.5194 20.2225C58.509 20.7864 58.6763 20.9325 59.2096 20.8908C59.7113 20.855 60.2207 20.8652 60.7312 20.8754C60.8166 20.8771 60.902 20.8788 60.9874 20.8803C61.6462 20.8908 61.8239 21.1414 61.8135 21.9663C61.803 22.6032 61.5625 22.8643 60.9769 22.8643H56.794C56.041 22.8643 55.926 22.739 55.9156 21.9872C55.9051 20.139 55.9051 18.2908 55.9156 16.453ZM79.8105 11.0233V16.453V16.4535C79.8105 17.2573 79.8105 18.0612 79.821 18.8651C79.821 19.2232 79.8198 19.5825 79.8187 19.9421C79.8164 20.6626 79.814 21.3846 79.821 22.102C79.821 22.7181 79.9779 22.8643 80.5844 22.8643H81.421C82.2471 22.8538 82.4353 22.6763 82.4353 21.8619C82.4353 20.7407 82.4342 19.6207 82.433 18.5012C82.4307 16.2631 82.4284 14.0267 82.4353 11.7855C82.4353 10.9228 82.4458 10.4973 82.2383 10.2901C82.0315 10.0836 81.6079 10.094 80.7412 10.1044C79.9988 10.1149 79.8105 10.2924 79.8105 11.0233Z" fill="black"/>
</svg>
