<svg width="85" height="32" viewBox="0 0 85 32" fill="none" xmlns="http://www.w3.org/2000/svg">
<g clip-path="url(#clip0_17706_138704)">
<path fill-rule="evenodd" clip-rule="evenodd" d="M43.4109 16.0641C42.737 15.8686 42.1183 15.6819 42.1183 15.0862C42.1183 14.5796 42.5913 14.3397 43.1195 14.3397C43.602 14.3397 44.1392 14.5527 44.4579 14.9528L45.1862 14.1886C44.6762 13.584 43.9206 13.2817 43.174 13.2817C42.0362 13.2817 40.9801 13.9661 40.9801 15.2107C40.9801 16.4285 41.9817 16.7843 42.8645 17.0419C43.5747 17.2554 44.2304 17.4155 44.2304 17.9754C44.2304 18.4199 43.8206 18.7222 43.2289 18.7222C42.6643 18.7222 42.0271 18.4465 41.6177 17.931L40.8345 18.7308C41.4444 19.4598 42.3276 19.7887 43.1468 19.7887C44.3213 19.7887 45.3773 19.1043 45.3773 17.8508C45.3773 16.6062 44.3213 16.3217 43.4109 16.0644V16.0641ZM50.7364 18.3563L49.7115 15.3521H48.6146L47.5809 18.3563L46.556 15.3521H45.3773L47.073 19.7887H48.0885L49.1585 16.8366L50.2282 19.7887H51.2531L52.9488 15.3521H51.7155L50.7364 18.3563Z" fill="black"/>
<mask id="mask0_17706_138704" style="mask-type:alpha" maskUnits="userSpaceOnUse" x="16" y="5" width="54" height="21">
<path d="M16 26H69.3029V5H16V26Z" fill="white"/>
</mask>
<g mask="url(#mask0_17706_138704)">
<path fill-rule="evenodd" clip-rule="evenodd" d="M53.5542 19.7887H54.7656V15.3521H53.5542V19.7887ZM54.3113 12.9859C53.8864 12.9859 53.5542 13.3062 53.5542 13.7301C53.5542 14.1445 53.8864 14.4648 54.3113 14.4648C54.7359 14.4648 55.0685 14.1445 55.0685 13.7301C55.0685 13.3062 54.7359 12.9859 54.3113 12.9859ZM58.2382 15.0563C57.5973 15.0563 57.0389 15.3477 56.7548 15.8298V15.1658H55.6742V19.7887H56.7824V17.3042C56.7824 16.4488 57.3499 16.0392 57.8996 16.0392C58.4032 16.0392 58.806 16.3669 58.806 17.0037V19.7887H59.9142V16.8218C59.9142 15.657 59.1725 15.0563 58.2382 15.0563ZM63.1227 18.8065C62.695 18.8065 62.3604 18.563 62.3604 18.0581V16.1297H63.9795L63.3992 15.1566H62.3604V13.2817H61.2268V15.1563H59.9142L60.4945 16.1294H61.2268V18.2205C61.2268 19.248 61.9794 19.7887 62.8531 19.7887C63.2805 19.7887 63.7453 19.6535 64.1542 19.374L63.8568 18.5722C63.6245 18.7251 63.355 18.8065 63.1227 18.8065ZM67.0598 18.8065C66.6322 18.8065 66.2975 18.563 66.2975 18.0581V16.1297H67.9166L67.3363 15.1566H66.2975V13.2817H65.1639V15.1563H63.8513L64.4316 16.1294H65.1639V18.2205C65.1639 19.248 65.9165 19.7887 66.7903 19.7887C67.2176 19.7887 67.6825 19.6535 68.0913 19.374L67.7939 18.5722C67.5616 18.7251 67.2921 18.8065 67.0598 18.8065ZM68.5456 15.8786C68.3285 15.8786 68.164 15.7233 68.164 15.5C68.164 15.277 68.3285 15.122 68.5456 15.122C68.7628 15.122 68.926 15.277 68.926 15.5C68.926 15.7233 68.7628 15.8786 68.5456 15.8786ZM68.5456 15.0563C68.2834 15.0563 68.0913 15.2441 68.0913 15.5C68.0913 15.7558 68.2834 15.9436 68.5456 15.9436C68.8079 15.9436 68.9999 15.7558 68.9999 15.5C68.9999 15.2441 68.8079 15.0563 68.5456 15.0563Z" fill="black"/>
<path fill-rule="evenodd" clip-rule="evenodd" d="M68.706 15.6464H68.5518V15.4808H68.7039C68.7699 15.4808 68.8141 15.5177 68.8141 15.5636C68.8141 15.608 68.7699 15.6464 68.706 15.6464ZM68.9758 15.5482C68.9758 15.4334 68.8674 15.3521 68.7133 15.3521H68.394V15.9437H68.5518V15.7567H68.6766L68.8108 15.9437H68.9998L68.8399 15.726C68.9225 15.6905 68.9758 15.6233 68.9758 15.5485" fill="black"/>
<path fill-rule="evenodd" clip-rule="evenodd" d="M32.7174 5H24.3576L20.204 11.956L20.2303 12.0001L22.2694 15.4151L22.2691 15.416H22.2701V15.4163L24.3595 18.9153L24.3592 18.9162L24.0381 18.4645L22.0877 15.7221L21.8706 15.4169V15.416H18.14L16 18.9999L20.1797 26H28.5392L32.7192 18.9999L32.7183 18.9984L32.7674 18.9162H32.7637L30.674 15.4169L30.6746 15.416H30.6765L28.587 11.9167L28.5873 11.9161L31.0759 15.4151V15.416H34.8077H34.8544L34.8559 15.4184L36.8971 12.0001L32.7174 5Z" fill="#E84E1C"/>
</g>
</g>
<defs>
<clipPath id="clip0_17706_138704">
<rect width="53" height="21" fill="white" transform="translate(16 5)"/>
</clipPath>
</defs>
</svg>
