<svg width="97" height="32" viewBox="0 0 97 32" fill="none" xmlns="http://www.w3.org/2000/svg">
<g clip-path="url(#clip0_17684_122616)">
<path d="M28.3071 18.1944L28.7191 15.3641L26.9878 11.8121L25.81 12.2064L24.2733 10.5951L21.5575 9.14847L20.9632 11.2945L20.5417 10.1676L18.4581 12.1599L17.2912 14.1531L17.2393 16.2184L16.418 15.8363L16.9767 19.1457L18.2485 21.2771L21.2468 22.2816L23.7025 22.3688L27.9364 20.8556L29.1545 17.9116L28.3071 18.1944ZM26.4755 16.6258L24.0744 16.6848L23.9879 19.3253L23.8584 20.8885L21.7671 20.8674V19.3689L21.5941 16.7495L19.0844 16.8548L18.9995 14.3202L22.6938 14.2991L26.5183 14.1936L26.5831 14.5316L26.4755 16.6258Z" fill="#FF9F00"/>
</g>
<g clip-path="url(#clip1_17684_122616)">
<path d="M36.3298 12.8349L32.3146 12.9642C32.28 12.9654 32.2459 12.9738 32.2145 12.9888C32.183 13.0038 32.1548 13.0251 32.1315 13.0515C32.1082 13.0779 32.0903 13.1088 32.0787 13.1425C32.0672 13.1761 32.0623 13.2118 32.0644 13.2475L32.1367 14.3717C32.1408 14.4394 32.1701 14.5029 32.2184 14.549C32.2667 14.5951 32.3304 14.6204 32.3963 14.6195L33.4882 14.6054L33.7341 19.8946C33.7379 19.9655 33.7688 20.032 33.8201 20.0796C33.8458 20.1029 33.8758 20.1207 33.9082 20.132C33.9407 20.1432 33.9751 20.1477 34.0092 20.1451L35.249 20.0627C35.3138 20.055 35.3734 20.0221 35.4155 19.9708C35.4576 19.9195 35.4793 19.8537 35.476 19.7866L35.3333 14.5779L36.4132 14.5638C36.4481 14.5633 36.4826 14.5554 36.5145 14.5407C36.5465 14.526 36.5751 14.5047 36.5988 14.4782C36.6225 14.4517 36.6406 14.4205 36.6522 14.3865C36.6637 14.3525 36.6684 14.3164 36.6659 14.2805L36.5885 13.081C36.5834 13.014 36.5538 12.9515 36.5059 12.9059C36.4579 12.8603 36.395 12.835 36.3298 12.8349ZM41.0069 13.1802L39.7981 13.1094C39.7317 13.1081 39.6675 13.1336 39.6192 13.1804C39.5709 13.2272 39.5422 13.2916 39.5393 13.3599L39.5212 16.1191L38.9933 16.2359L38.8592 13.1067C38.8563 13.0388 38.8282 12.9747 38.7807 12.9276C38.7331 12.8804 38.6698 12.8539 38.6038 12.8535L37.4079 12.8845C37.3732 12.8844 37.3389 12.8914 37.3068 12.905C37.2748 12.9187 37.2457 12.9388 37.2213 12.9642C37.1969 12.9894 37.1777 13.0194 37.1647 13.0524C37.1517 13.0854 37.1452 13.1207 37.1457 13.1563L37.3735 20.1123C37.3749 20.1811 37.4022 20.2467 37.4497 20.2951C37.4972 20.3435 37.5612 20.371 37.628 20.3717L38.8248 20.3416C38.8591 20.3423 38.8932 20.3359 38.925 20.3227C38.9568 20.3095 38.9857 20.2899 39.01 20.2649C39.0342 20.2399 39.0533 20.2102 39.0661 20.1774C39.0789 20.1446 39.0852 20.1096 39.0845 20.0742L38.952 17.7444L39.4232 17.7771L39.5049 19.8618C39.5017 19.8982 39.5059 19.9349 39.5173 19.9695C39.5287 20.0041 39.547 20.0359 39.5711 20.0627C39.5948 20.0885 39.6233 20.109 39.655 20.1231C39.6866 20.1373 39.7206 20.1447 39.7551 20.1451L41.0043 20.2336H41.0198C41.0844 20.2307 41.1456 20.2029 41.1912 20.1557C41.2368 20.1084 41.2634 20.0452 41.2657 19.9786V13.4581C41.2668 13.4229 41.2612 13.3878 41.2491 13.3548C41.237 13.3219 41.2187 13.2917 41.1952 13.2661C41.1712 13.2389 41.142 13.2171 41.1095 13.2022C41.0769 13.1873 41.0417 13.1795 41.006 13.1793L41.0069 13.1802ZM45.5078 12.5942L44.403 12.68C44.3403 12.6874 44.2824 12.7183 44.2404 12.7668C44.1984 12.8153 44.1752 12.878 44.1751 12.9429V17.8612C44.1751 18.1985 44.2095 18.765 43.8519 18.7818C43.6068 18.7818 43.5174 18.4189 43.5131 17.894C43.5131 17.3009 43.5561 13.2545 43.5561 13.2094C43.557 13.1439 43.5343 13.0805 43.4923 13.0313C43.4504 12.9821 43.3923 12.9506 43.3291 12.9429L42.055 12.8022C42.0188 12.7983 41.9823 12.8024 41.9478 12.8141C41.9132 12.8258 41.8815 12.8449 41.8547 12.8702C41.8279 12.8954 41.8066 12.9263 41.7922 12.9606C41.7778 12.995 41.7707 13.0321 41.7712 13.0695C41.7712 13.0695 41.8185 18.1701 41.8228 18.3481C41.8282 18.597 41.8822 18.8423 41.9817 19.0692C42.0812 19.2961 42.2241 19.5001 42.4018 19.6689C42.5796 19.8377 42.7886 19.9679 43.0163 20.0517C43.244 20.1355 43.4858 20.1711 43.7272 20.1566C45.2894 20.1123 45.5723 19.1563 45.6677 18.0489C45.7081 17.5797 45.7812 13.3316 45.7855 12.8615C45.7856 12.8248 45.7783 12.7884 45.7642 12.7547C45.75 12.721 45.7292 12.6907 45.7032 12.6656C45.6771 12.6405 45.6463 12.6212 45.6127 12.6089C45.5791 12.5966 45.5434 12.5916 45.5078 12.5942ZM50.3655 12.8721L49.2272 12.9288C49.193 12.9306 49.1595 12.9394 49.1287 12.9547C49.0979 12.9699 49.0703 12.9914 49.0477 13.0178C49.025 13.0441 49.0077 13.0749 48.9967 13.1083C48.9858 13.1416 48.9814 13.1769 48.9838 13.212L49.173 16.4909L47.9831 13.1164C47.9629 13.0614 47.9257 13.0148 47.8772 12.9837C47.8287 12.9527 47.7716 12.939 47.7148 12.9447L46.5662 13.0766C46.5029 13.0841 46.4445 13.1154 46.4024 13.1647C46.3603 13.2139 46.3375 13.2775 46.3383 13.3431L46.5275 19.7839C46.5275 19.8487 46.5506 19.9113 46.5924 19.9598C46.6343 20.0083 46.6919 20.0392 46.7545 20.0468L47.9083 20.1336C47.9447 20.1363 47.9813 20.1309 48.0156 20.1179C48.0498 20.1049 48.081 20.0846 48.1071 20.0582C48.1331 20.0318 48.1534 20 48.1665 19.9649C48.1797 19.9298 48.1854 19.8923 48.1834 19.8547L48.0028 17.0442L48.9976 19.9716C49.0152 20.0201 49.0461 20.0623 49.0865 20.0931C49.1269 20.1239 49.1752 20.142 49.2254 20.1451H50.4652C50.5007 20.1445 50.5358 20.1364 50.5681 20.1212C50.6004 20.106 50.6293 20.084 50.653 20.0567C50.6767 20.0295 50.6946 19.9974 50.7056 19.9626C50.7167 19.9279 50.7206 19.8911 50.7171 19.8547L50.6449 13.135C50.6441 13.0993 50.6364 13.064 50.6223 13.0313C50.6081 12.9986 50.5877 12.9692 50.5624 12.9447C50.5363 12.9188 50.5052 12.899 50.4711 12.8864C50.437 12.8739 50.4007 12.8691 50.3646 12.8721H50.3655ZM51.9002 12.7367H51.6543C51.5891 12.7387 51.527 12.7661 51.4807 12.8135C51.4344 12.8608 51.4073 12.9245 51.4049 12.9916L51.1977 19.6839C51.1958 19.7501 51.218 19.8146 51.2601 19.8648C51.3021 19.9149 51.3608 19.947 51.4247 19.9547C51.4247 19.9547 51.5778 19.9671 51.8047 19.9671C52.6129 19.9671 54.5345 19.8167 54.9893 18.4207C55.3608 17.2504 55.3014 15.6765 55.2172 14.9223C55.0263 13.4511 53.943 12.7367 51.9002 12.7367ZM53.618 17.1451C53.4787 18.2755 53.1382 18.3463 52.7599 18.48L52.9379 14.2779C53.0407 14.2894 53.1398 14.3244 53.2278 14.3803C53.3158 14.4362 53.3907 14.5116 53.4469 14.6009C53.7547 15.025 53.7521 16.0394 53.618 17.1415V17.1451ZM58.9726 18.7845L57.4672 18.9058L57.3967 17.4558L58.3725 17.4027C58.4326 17.3985 58.4894 17.3727 58.5329 17.3298C58.5764 17.287 58.604 17.2297 58.6107 17.1681L58.7018 16.2776C58.7059 16.2394 58.7018 16.2008 58.6899 16.1644C58.6781 16.128 58.6586 16.0947 58.633 16.0669C58.6069 16.0393 58.5753 16.0178 58.5405 16.0038C58.5057 15.9898 58.4683 15.9835 58.431 15.9854L57.3735 16.0412V14.4699H58.9382C58.9724 14.4707 59.0063 14.4643 59.038 14.4512C59.0697 14.4382 59.0986 14.4186 59.1228 14.3939C59.147 14.3691 59.1662 14.3395 59.1791 14.307C59.192 14.2744 59.1984 14.2395 59.1979 14.2044C59.2 14.1853 59.2 14.166 59.1979 14.1468L59.1119 13.2094C59.1039 13.1437 59.0724 13.0834 59.0236 13.0403C58.9749 12.9971 58.9123 12.9741 58.848 12.9757L55.9858 13.0483C55.9185 13.0504 55.8547 13.0795 55.8081 13.1295C55.7615 13.1795 55.7358 13.2463 55.7365 13.3156L55.8267 19.9344C55.8274 20.0041 55.8548 20.0708 55.9029 20.1198C55.9511 20.1689 56.0161 20.1964 56.0838 20.1964H58.9769C59.0439 20.196 59.1081 20.169 59.1562 20.121C59.2042 20.073 59.2324 20.0077 59.2349 19.9388L59.2572 19.0748C59.2581 19.0377 59.2514 19.0009 59.2376 18.9666C59.2238 18.9323 59.2033 18.9013 59.1773 18.8757C59.1522 18.845 59.1208 18.8205 59.0854 18.8038C59.0501 18.7872 59.0115 18.7787 58.9726 18.7792V18.7845ZM63.6541 14.9028C63.5905 13.9663 63.2766 12.7411 61.3155 12.7411C60.8225 12.7494 60.3314 12.8057 59.8487 12.9093C59.7896 12.9219 59.7366 12.9552 59.6987 13.0037C59.6609 13.0522 59.6407 13.1127 59.6415 13.1749L59.7301 19.6485C59.7307 19.713 59.7542 19.775 59.7962 19.823C59.8382 19.8709 59.8957 19.9014 59.9579 19.9087L60.8676 19.9813C60.9027 19.9848 60.9381 19.9805 60.9715 19.9687C61.0048 19.957 61.0354 19.938 61.061 19.9131C61.0871 19.8883 61.1078 19.8582 61.1219 19.8247C61.1359 19.7911 61.143 19.7549 61.1427 19.7184V17.6319L61.5984 17.6054L62.1074 19.8405C62.1186 19.9011 62.15 19.9557 62.1961 19.995C62.2423 20.0343 62.3003 20.0557 62.3601 20.0557H62.3808L63.2904 19.9831C63.3264 19.9804 63.3614 19.9698 63.3931 19.9521C63.4248 19.9344 63.4526 19.91 63.4744 19.8804C63.4963 19.851 63.5121 19.8173 63.5206 19.7813C63.5292 19.7454 63.5305 19.708 63.5243 19.6715L62.8855 17.184C63.3265 16.8264 63.7426 16.1864 63.6524 14.8984L63.6541 14.9028ZM62.0274 15.8164C61.7825 16.0367 61.4704 16.1619 61.1453 16.1704V14.261C61.2266 14.2428 61.3096 14.2336 61.3929 14.2336C61.7368 14.2336 62.1598 14.3929 62.214 15.1516C62.23 15.2692 62.2215 15.3889 62.1888 15.5028C62.1562 15.6167 62.1003 15.7221 62.0248 15.8119L62.0274 15.8164ZM67.0957 16.7954C67.9525 15.7602 68.3886 14.4247 68.3132 13.0669C68.3114 13.0319 68.3029 12.9976 68.2882 12.9659C68.2735 12.9343 68.2528 12.9061 68.2273 12.8828C68.2019 12.8594 68.1722 12.8416 68.14 12.8302C68.1078 12.8188 68.0738 12.8141 68.0398 12.8164L66.9685 12.8889C66.9007 12.8937 66.8376 12.9259 66.7928 12.9785C66.748 13.0311 66.7252 13.0998 66.7295 13.1696C66.7665 13.7511 66.3933 14.9922 65.8585 15.7721L65.9359 13.2492C65.9367 13.2136 65.9305 13.1781 65.9177 13.145C65.9049 13.1119 65.8857 13.0817 65.8613 13.0564C65.8369 13.0311 65.8078 13.0112 65.7757 12.9978C65.7436 12.9843 65.7092 12.9777 65.6745 12.9784L64.2938 12.9987C64.2598 12.9989 64.2263 13.0061 64.1951 13.0199C64.1639 13.0337 64.1357 13.0537 64.1121 13.0789C64.0886 13.104 64.0701 13.1338 64.0579 13.1664C64.0457 13.199 64.04 13.2338 64.041 13.2687L64.1794 19.9698C64.1802 20.0072 64.1886 20.0439 64.2041 20.0777C64.2197 20.1115 64.242 20.1415 64.2696 20.1657C64.2972 20.19 64.3295 20.2079 64.3643 20.2184C64.3992 20.2289 64.4358 20.2316 64.4717 20.2265L65.5464 20.0796C65.6087 20.0722 65.6662 20.0417 65.7082 19.9938C65.7501 19.9459 65.7736 19.8838 65.7743 19.8193L65.7906 17.8541C66.0176 17.9904 66.6478 18.9456 66.757 19.8901C66.7644 19.955 66.7949 20.0147 66.8425 20.0579C66.8901 20.101 66.9515 20.1245 67.0149 20.1238H68.167C68.2328 20.1191 68.2942 20.0885 68.3387 20.0384C68.3832 19.9883 68.4073 19.9226 68.406 19.8547C68.3863 19.6086 68.0062 17.5496 67.0957 16.7954ZM70.3078 12.6738L69.0818 12.8349C69.0194 12.8425 68.9619 12.8734 68.9201 12.9216C68.8782 12.9699 68.855 13.0323 68.8548 13.097V19.6555C68.8548 19.6913 68.8618 19.7267 68.8754 19.7596C68.889 19.7924 68.909 19.8222 68.934 19.8469C68.9591 19.8716 68.9888 19.8909 69.0213 19.9035C69.0538 19.9161 69.0884 19.9218 69.1231 19.9202L70.4583 19.8166C70.5218 19.8098 70.5805 19.7786 70.6227 19.7292C70.6649 19.6798 70.6876 19.616 70.6861 19.5502L70.5898 12.9217C70.5894 12.8844 70.5813 12.8476 70.566 12.8137C70.5507 12.7798 70.5287 12.7497 70.5013 12.7252C70.4732 12.7029 70.4408 12.687 70.4063 12.6784C70.3717 12.6699 70.3359 12.6689 70.301 12.6756L70.3078 12.6738ZM72.9172 12.8659C72.5441 12.8916 71.3249 13.1164 71.2226 14.9727L71.1839 15.6455C71.1091 16.9025 71.0567 17.8143 71.2132 18.6021C71.3069 19.0695 71.6912 20.169 73.2035 20.169C73.2973 20.169 73.3953 20.169 73.4959 20.1539C74.1278 20.1008 74.5938 19.8919 74.887 19.5343C75.304 19.0253 75.2464 18.3622 75.2171 18.0232V17.955C75.2098 17.8882 75.1779 17.8267 75.1281 17.7831C75.0783 17.7395 75.0142 17.7171 74.9489 17.7205L73.9937 17.7629C73.9575 17.7648 73.9222 17.7745 73.8899 17.7914C73.8577 17.8084 73.8293 17.8321 73.8066 17.8611C73.7838 17.8901 73.7673 17.9237 73.7581 17.9597C73.7488 17.9957 73.7471 18.0333 73.7529 18.0701C73.7989 18.3303 73.7544 18.5989 73.6274 18.8287C73.5906 18.8729 73.5441 18.9074 73.4918 18.9294C73.4395 18.9514 73.3828 18.9603 73.3265 18.9553H73.3127C73.253 18.9588 73.1932 18.9488 73.1376 18.9262C73.0819 18.9036 73.0317 18.8688 72.9903 18.8243C72.8493 18.6738 72.6946 18.3038 72.7375 17.3991C72.7375 17.1911 72.7582 16.9459 72.7668 16.6971C72.7926 16.0226 72.8218 15.2569 72.8829 14.7745V14.7576C72.9284 14.3929 72.9972 14.238 73.2955 14.2239C73.3735 14.2103 73.4534 14.2151 73.5293 14.2377C73.6053 14.2604 73.6752 14.3005 73.734 14.3549C73.8076 14.4745 73.8343 14.6185 73.8088 14.7576C73.8013 14.7959 73.8022 14.8354 73.8113 14.8733C73.8203 14.9112 73.8374 14.9465 73.8614 14.9768C73.8853 15.0071 73.9154 15.0316 73.9496 15.0485C73.9837 15.0654 74.0211 15.0743 74.059 15.0745L75.2111 15.0905C75.2781 15.0908 75.3426 15.0644 75.3911 15.0169C75.4397 14.9694 75.4685 14.9044 75.4716 14.8355C75.47 14.3454 75.2881 13.8742 74.9626 13.5166C74.507 13.0208 73.8183 12.8022 72.9104 12.8659H72.9172ZM80.5692 19.5803C80.552 19.5033 80.0559 17.4938 79.0457 16.5352C79.5418 16.0669 80.5494 15.1073 80.2124 12.95C80.2018 12.8829 80.1667 12.8224 80.1143 12.781C80.0619 12.7395 79.9961 12.7202 79.9304 12.7269L78.5995 12.8792C78.5647 12.8833 78.5311 12.8946 78.5006 12.9124C78.4702 12.9302 78.4436 12.9541 78.4223 12.9828C78.3812 13.0406 78.3639 13.1128 78.3742 13.1837C78.3742 13.205 78.6476 14.7647 77.6193 15.7022L77.6451 13.0439C77.6455 13.0063 77.6381 12.969 77.6234 12.9346C77.6087 12.9002 77.587 12.8694 77.5598 12.8442C77.5327 12.8191 77.5006 12.8002 77.4658 12.7889C77.431 12.7775 77.3942 12.7739 77.358 12.7783L76.027 12.9314C75.9635 12.9395 75.9051 12.9714 75.8631 13.0211C75.821 13.0708 75.7983 13.1347 75.7992 13.2005L75.954 19.8574C75.9548 19.8943 75.9631 19.9306 75.9783 19.9639C75.9936 19.9973 76.0154 20.0271 76.0425 20.0512C76.0914 20.0959 76.1552 20.1194 76.2205 20.1167H76.2411L77.3674 19.9875C77.4275 19.9803 77.4833 19.9515 77.5248 19.9062C77.5663 19.8608 77.591 19.8019 77.5944 19.7396L77.6872 17.6594C78.0423 18.04 78.6381 19.0067 78.7336 19.8193C78.7372 19.854 78.7475 19.8876 78.7638 19.9182C78.7801 19.9488 78.8021 19.9757 78.8285 19.9975C78.8549 20.0193 78.8853 20.0355 78.9179 20.0452C78.9504 20.0549 78.9845 20.0578 79.0182 20.0539L80.3465 19.9016C80.3828 19.8976 80.4178 19.8856 80.4492 19.8665C80.4806 19.8474 80.5078 19.8217 80.5288 19.791C80.5483 19.7602 80.5614 19.7256 80.5673 19.6893C80.5732 19.6531 80.5718 19.616 80.5632 19.5803H80.5692Z" fill="#FF9F00"/>
</g>
<defs>
<clipPath id="clip0_17684_122616">
<rect width="13.4394" height="13.4394" fill="white" transform="translate(16 9)"/>
</clipPath>
<clipPath id="clip1_17684_122616">
<rect width="49.6224" height="8.2704" fill="white" transform="translate(31.5068 12.1015)"/>
</clipPath>
</defs>
</svg>
