<svg width="90" height="32" viewBox="0 0 90 32" fill="none" xmlns="http://www.w3.org/2000/svg">
<g clip-path="url(#clip0_17706_135011)">
<path d="M38.6993 17.1822C38.6993 17.7287 39.1325 18.1445 39.6621 18.1445C39.7825 18.1445 39.9028 18.1208 40.1796 18.0138L40.5889 19C40.1917 19.1544 39.9389 19.202 39.6621 19.202C38.5308 19.202 37.604 18.299 37.604 17.1703V10.6H38.6993V12.2515H40.5889V13.3208H38.6993V17.1822Z" fill="black"/>
<path d="M41.311 17.1822V13.8911C41.311 12.7624 42.2378 11.8594 43.3691 11.8594C44.5005 11.8594 45.4272 12.7624 45.4272 13.8911V17.1822C45.4272 18.3109 44.5005 19.2139 43.3691 19.2139C42.2378 19.2139 41.311 18.3109 41.311 17.1822ZM43.3691 12.9169C42.8516 12.9169 42.4063 13.3565 42.4063 13.8792V17.1703C42.4063 17.6931 42.8516 18.1327 43.3691 18.1327C43.8987 18.1327 44.332 17.705 44.332 17.1703V13.8911C44.344 13.3446 43.9107 12.9169 43.3691 12.9169Z" fill="black"/>
<path d="M51.6379 13.6654C51.6379 13.2614 51.3009 12.9168 50.8796 12.9168C50.4704 12.9168 50.1214 13.2614 50.1214 13.6654V19.0713H49.0382V13.6654C49.0382 13.2614 48.7012 12.9168 48.2799 12.9168C47.8707 12.9168 47.5217 13.2614 47.5217 13.6654V19.0713H46.4385V13.6654C46.4385 12.6555 47.2569 11.8475 48.2799 11.8475C48.7854 11.8475 49.2428 12.0376 49.5798 12.3703C49.9048 12.0376 50.3621 11.8475 50.8676 11.8475C51.9027 11.8475 52.7211 12.6555 52.7211 13.6654V19.0713H51.6259L51.6379 13.6654Z" fill="black"/>
<path d="M58.5581 13.8911C58.5581 13.3683 58.1248 12.9406 57.5952 12.9406C57.0777 12.9406 56.6324 13.3683 56.6324 13.8911V19.0832H55.5371V9.25745H56.6324V12.0852C56.9212 11.9307 57.2462 11.8357 57.5952 11.8357C58.7266 11.8357 59.6533 12.7386 59.6533 13.8673V19.0594H58.5581V13.8911Z" fill="black"/>
<path d="M60.6284 17.1822V13.8911C60.6284 12.7624 61.5552 11.8594 62.6865 11.8594C63.8179 11.8594 64.7446 12.7624 64.7446 13.8911V17.1822C64.7446 18.3109 63.8179 19.2139 62.6865 19.2139C61.5552 19.2139 60.6284 18.3109 60.6284 17.1822ZM62.6865 12.9169C62.169 12.9169 61.7237 13.3565 61.7237 13.8792V17.1703C61.7237 17.6931 62.169 18.1327 62.6865 18.1327C63.2161 18.1327 63.6494 17.705 63.6494 17.1703V13.8911C63.6614 13.3446 63.2281 12.9169 62.6865 12.9169Z" fill="black"/>
<path d="M67.7775 12.9169C67.26 12.9169 66.8147 13.3565 66.8147 13.8792V19.0713H65.7314V13.8911C65.7314 12.7624 66.6462 11.8594 67.7775 11.8594C68.4997 11.8594 69.1736 12.2278 69.619 12.9763L68.6922 13.5228C68.4395 13.0951 68.1386 12.9169 67.7775 12.9169Z" fill="black"/>
<path d="M72.9169 13.8911C72.9169 13.3683 72.4716 12.9287 71.9541 12.9287C71.4245 12.9287 70.9912 13.3565 70.9912 13.8911V19.0832H69.896V13.8911C69.896 12.7624 70.8227 11.8594 71.9541 11.8594C73.0854 11.8594 74.0002 12.7624 74.0002 13.8911V19.0832H72.9169V13.8911Z" fill="black"/>
<path d="M46.7271 24.204V22.3267C46.7271 21.8871 47.0881 21.5307 47.5334 21.5307C47.8584 21.5307 48.1473 21.7208 48.2917 22.0654L47.9427 22.2198C47.8584 22.0178 47.7019 21.9228 47.5334 21.9228C47.3048 21.9228 47.1122 22.1129 47.1122 22.3386V24.2158C47.1122 24.4416 47.3048 24.6317 47.5334 24.6317C47.7621 24.6317 47.9547 24.4416 47.9547 24.2158V23.8119H47.3409V23.4317H48.3278V24.2158C48.3278 24.6555 47.9667 25.0119 47.5214 25.0119C47.0881 25 46.7271 24.6436 46.7271 24.204Z" fill="#21B3E8"/>
<path d="M51.2647 23.895H50.4223V24.9524H50.0371V22.3386C50.0371 21.899 50.3982 21.5425 50.8435 21.5425C51.2888 21.5425 51.6499 21.899 51.6499 22.3386V24.9524H51.2647V23.895ZM50.8435 21.9227C50.6148 21.9227 50.4223 22.1128 50.4223 22.3386V23.5148H51.2647V22.3386C51.2647 22.101 51.0722 21.9227 50.8435 21.9227Z" fill="#21B3E8"/>
<path d="M55.0678 22.7307L54.5383 24.2396H54.3337L53.8041 22.7307V24.9524H53.4189V21.5782H53.8041L54.4299 23.3841L55.0678 21.5782H55.453V24.9524H55.0678V22.7307Z" fill="#21B3E8"/>
<path d="M57.8964 21.5782H57.5112V24.9524H57.8964V21.5782Z" fill="#21B3E8"/>
<path d="M60.3036 22.6831V24.9524H59.9185V21.5782H60.2916L61.1341 23.8475V21.5782H61.5192V24.9524H61.1461L60.3036 22.6831Z" fill="#21B3E8"/>
<path d="M63.2764 24.204V22.3267C63.2764 21.8871 63.6374 21.5307 64.0828 21.5307C64.4077 21.5307 64.6966 21.7208 64.841 22.0654L64.492 22.2198C64.4077 22.0178 64.2513 21.9228 64.0828 21.9228C63.8541 21.9228 63.6615 22.1129 63.6615 22.3386V24.2158C63.6615 24.4416 63.8541 24.6317 64.0828 24.6317C64.3114 24.6317 64.504 24.4416 64.504 24.2158V23.8119H63.8902V23.4317H64.8771V24.2158C64.8771 24.6555 64.516 25.0119 64.0707 25.0119C63.6374 25 63.2764 24.6436 63.2764 24.204Z" fill="#21B3E8"/>
<path d="M18.648 19.9267C18.6841 19.8911 18.7322 19.8436 18.7804 19.8079C18.8165 19.7723 18.8526 19.7485 18.9007 19.7248C18.9369 19.701 18.973 19.6772 19.0091 19.6535C19.0211 19.6416 19.0452 19.6297 19.0572 19.6297C19.0572 19.6297 19.0692 19.6297 19.0692 19.6178C19.1174 19.5941 19.1655 19.5703 19.2257 19.5465C19.2498 19.5347 19.2618 19.5347 19.2859 19.5228C19.322 19.5109 19.3581 19.499 19.4062 19.4871C19.4303 19.4871 19.4544 19.4752 19.4785 19.4752C19.5146 19.4634 19.5627 19.4634 19.5988 19.4515C19.6229 19.4515 19.6349 19.4396 19.659 19.4396C19.7192 19.4277 19.7673 19.4277 19.8275 19.4277H19.8395C19.8997 19.4277 19.9599 19.4277 20.0321 19.4396C20.0441 19.4396 20.0562 19.4396 20.0802 19.4515C20.1284 19.4634 20.1765 19.4634 20.2247 19.4752C20.2367 19.4752 20.2608 19.4871 20.2728 19.4871C20.321 19.499 20.3691 19.5109 20.4052 19.5228C20.4172 19.5228 20.4293 19.5347 20.4534 19.5347C20.5135 19.5584 20.5617 19.5822 20.6219 19.6059H20.6339C20.682 19.6297 20.7302 19.6535 20.7663 19.6891C20.7663 19.6891 20.7663 19.6891 20.7783 19.6891C20.8265 19.7248 20.8746 19.7485 20.9107 19.7842C20.9468 19.8198 20.9829 19.8554 21.019 19.8792L21.0311 19.8911C18.8165 17.6931 18.8285 14.1287 21.0551 11.9426C23.2817 9.75644 26.8924 9.76832 29.107 11.9663C29.769 12.6198 30.8402 12.6198 31.5021 11.9782C31.8391 11.6574 32.0076 11.2297 32.0076 10.7901C32.0076 10.3624 31.8391 9.93465 31.5142 9.60198C29.7569 7.87921 27.422 7 25.0871 7C22.7762 7 20.4534 7.86733 18.6841 9.60198C15.1215 13.095 15.0975 18.7743 18.636 22.2911C18.311 21.9584 18.1425 21.5307 18.1425 21.103C18.1545 20.6752 18.311 20.2475 18.648 19.9267Z" fill="url(#paint0_linear_17706_135011)"/>
<path d="M31.5263 12.0139C30.8643 12.6673 29.7931 12.6673 29.1312 12.002C31.3457 14.2 31.3337 17.7644 29.1071 19.9505C26.8805 22.1366 23.2698 22.1248 21.0552 19.9267C20.9228 19.7961 20.7784 19.701 20.634 19.6178C20.5738 19.5941 20.5256 19.5703 20.4655 19.5465C20.4534 19.5465 20.4414 19.5347 20.4173 19.5347C20.3692 19.5228 20.321 19.5109 20.2849 19.499C20.2729 19.499 20.2488 19.4871 20.2368 19.4871C20.1886 19.4753 20.1405 19.4634 20.0924 19.4634C20.0803 19.4634 20.0683 19.4634 20.0442 19.4515C19.984 19.4396 19.9239 19.4396 19.8516 19.4396H19.8396C19.7794 19.4396 19.7313 19.4396 19.6711 19.4515C19.647 19.4515 19.635 19.4515 19.6109 19.4634C19.5748 19.4634 19.5267 19.4753 19.4906 19.4871C19.4665 19.4871 19.4424 19.499 19.4184 19.499C19.3823 19.5109 19.3341 19.5228 19.298 19.5347C19.2739 19.5465 19.2619 19.5465 19.2378 19.5584C19.1897 19.5822 19.1295 19.606 19.0814 19.6297C19.0573 19.6416 19.0332 19.6535 19.0091 19.6654C18.973 19.6891 18.9369 19.7129 18.9008 19.7366C18.8166 19.7961 18.7323 19.8555 18.6481 19.9386C18.3111 20.2594 18.1426 20.6871 18.1426 21.1267C18.1426 21.5545 18.3111 21.9822 18.636 22.3149C22.1745 25.8317 27.9276 25.8555 31.4902 22.3624C35.0527 18.8693 35.0768 13.1901 31.5383 9.67328C31.8633 10.006 32.0318 10.4337 32.0318 10.8614C32.0318 11.2654 31.8633 11.6931 31.5263 12.0139Z" fill="url(#paint1_linear_17706_135011)"/>
<path d="M21.043 19.9268L21.031 19.9149C20.9949 19.8792 20.9588 19.8436 20.9226 19.8198C20.8745 19.7842 20.8384 19.7485 20.7903 19.7248C20.7903 19.7248 20.7903 19.7248 20.7782 19.7248C20.7301 19.701 20.694 19.6654 20.6458 19.6416H20.6338C20.7782 19.701 20.9226 19.8079 21.043 19.9268Z" fill="url(#paint2_linear_17706_135011)"/>
<path d="M21.043 19.9268L21.031 19.9149C20.9949 19.8792 20.9588 19.8436 20.9226 19.8198C20.8745 19.7842 20.8384 19.7485 20.7903 19.7248C20.7903 19.7248 20.7903 19.7248 20.7782 19.7248C20.7301 19.701 20.694 19.6654 20.6458 19.6416H20.6338C20.7782 19.701 20.9226 19.8079 21.043 19.9268Z" fill="url(#paint3_linear_17706_135011)"/>
<path d="M18.9008 19.7247C18.8647 19.7485 18.8166 19.7841 18.7805 19.8079C18.7323 19.8435 18.6962 19.8792 18.6481 19.9267C18.3111 20.2475 18.1426 20.6752 18.1426 21.1148C18.1426 20.6871 18.3111 20.2594 18.6481 19.9267C18.7203 19.8435 18.8045 19.7841 18.9008 19.7247Z" fill="url(#paint4_linear_17706_135011)"/>
<path d="M18.9008 19.7247C18.8647 19.7485 18.8166 19.7841 18.7805 19.8079C18.7323 19.8435 18.6962 19.8792 18.6481 19.9267C18.3111 20.2475 18.1426 20.6752 18.1426 21.1148C18.1426 20.6871 18.3111 20.2594 18.6481 19.9267C18.7203 19.8435 18.8045 19.7841 18.9008 19.7247Z" fill="url(#paint5_linear_17706_135011)"/>
<path d="M29.1309 12.0139C29.7928 12.6674 30.864 12.6674 31.526 12.0258C31.863 11.705 32.0315 11.2773 32.0315 10.8376C32.0315 11.2654 31.863 11.6931 31.526 12.0258C30.864 12.6674 29.7928 12.6674 29.1309 12.0139Z" fill="url(#paint6_linear_17706_135011)"/>
<path d="M29.1309 12.0139C29.7928 12.6674 30.864 12.6674 31.526 12.0258C31.863 11.705 32.0315 11.2773 32.0315 10.8376C32.0315 11.2654 31.863 11.6931 31.526 12.0258C30.864 12.6674 29.7928 12.6674 29.1309 12.0139Z" fill="url(#paint7_linear_17706_135011)"/>
<path d="M20.4053 19.5347C20.417 19.5347 20.4288 19.5465 20.4523 19.5465C20.4405 19.5465 20.4288 19.5347 20.4053 19.5347Z" fill="url(#paint8_linear_17706_135011)"/>
<path d="M20.4053 19.5347C20.417 19.5347 20.4288 19.5465 20.4523 19.5465C20.4405 19.5465 20.4288 19.5347 20.4053 19.5347Z" fill="url(#paint9_linear_17706_135011)"/>
<path d="M19.0569 19.6297C19.0449 19.6416 19.0208 19.6534 19.0088 19.6534C19.0329 19.6416 19.0569 19.6297 19.081 19.6178C19.069 19.6178 19.069 19.6178 19.0569 19.6297Z" fill="url(#paint10_linear_17706_135011)"/>
<path d="M19.0569 19.6297C19.0449 19.6416 19.0208 19.6534 19.0088 19.6534C19.0329 19.6416 19.0569 19.6297 19.081 19.6178C19.069 19.6178 19.069 19.6178 19.0569 19.6297Z" fill="url(#paint11_linear_17706_135011)"/>
<path d="M19.4062 19.499C19.4303 19.499 19.4544 19.4871 19.4785 19.4871C19.4544 19.4871 19.4303 19.4871 19.4062 19.499Z" fill="url(#paint12_linear_17706_135011)"/>
<path d="M19.4062 19.499C19.4303 19.499 19.4544 19.4871 19.4785 19.4871C19.4544 19.4871 19.4303 19.4871 19.4062 19.499Z" fill="url(#paint13_linear_17706_135011)"/>
<path d="M19.2256 19.5465C19.2497 19.5346 19.2617 19.5346 19.2858 19.5228C19.2737 19.5346 19.2497 19.5465 19.2256 19.5465Z" fill="url(#paint14_linear_17706_135011)"/>
<path d="M19.2256 19.5465C19.2497 19.5346 19.2617 19.5346 19.2858 19.5228C19.2737 19.5346 19.2497 19.5465 19.2256 19.5465Z" fill="url(#paint15_linear_17706_135011)"/>
<path d="M20.2246 19.4753C20.2364 19.4753 20.2599 19.4872 20.2716 19.4872C20.2481 19.4872 20.2364 19.4872 20.2246 19.4753Z" fill="url(#paint16_linear_17706_135011)"/>
<path d="M20.2246 19.4753C20.2364 19.4753 20.2599 19.4872 20.2716 19.4872C20.2481 19.4872 20.2364 19.4872 20.2246 19.4753Z" fill="url(#paint17_linear_17706_135011)"/>
<path d="M19.5986 19.4515C19.6227 19.4515 19.6347 19.4396 19.6588 19.4396C19.6347 19.4515 19.6227 19.4515 19.5986 19.4515Z" fill="url(#paint18_linear_17706_135011)"/>
<path d="M19.5986 19.4515C19.6227 19.4515 19.6347 19.4396 19.6588 19.4396C19.6347 19.4515 19.6227 19.4515 19.5986 19.4515Z" fill="url(#paint19_linear_17706_135011)"/>
<path d="M20.0322 19.4515C20.044 19.4515 20.0557 19.4515 20.0793 19.4634C20.0557 19.4515 20.044 19.4515 20.0322 19.4515Z" fill="url(#paint20_linear_17706_135011)"/>
<path d="M20.0322 19.4515C20.044 19.4515 20.0557 19.4515 20.0793 19.4634C20.0557 19.4515 20.044 19.4515 20.0322 19.4515Z" fill="url(#paint21_linear_17706_135011)"/>
</g>
<defs>
<linearGradient id="paint0_linear_17706_135011" x1="30.7651" y1="8.35051" x2="15.6161" y2="17.9398" gradientUnits="userSpaceOnUse">
<stop stop-color="#C7E3F8"/>
<stop offset="0.28" stop-color="#26B1E7"/>
<stop offset="1" stop-color="#223B86"/>
</linearGradient>
<linearGradient id="paint1_linear_17706_135011" x1="19.4116" y1="23.5917" x2="34.5606" y2="14.0025" gradientUnits="userSpaceOnUse">
<stop stop-color="#C7E3F8"/>
<stop offset="0.28" stop-color="#26B1E7"/>
<stop offset="1" stop-color="#223B86"/>
</linearGradient>
<linearGradient id="paint2_linear_17706_135011" x1="33.1724" y1="12.1671" x2="18.0234" y2="21.7564" gradientUnits="userSpaceOnUse">
<stop stop-color="#C7E3F8"/>
<stop offset="0.28" stop-color="#26B1E7"/>
<stop offset="1" stop-color="#223B86"/>
</linearGradient>
<linearGradient id="paint3_linear_17706_135011" x1="18.0785" y1="21.4793" x2="33.2275" y2="11.8901" gradientUnits="userSpaceOnUse">
<stop stop-color="#C7E3F8"/>
<stop offset="0.28" stop-color="#26B1E7"/>
<stop offset="1" stop-color="#223B86"/>
</linearGradient>
<linearGradient id="paint4_linear_17706_135011" x1="32.8131" y1="11.5991" x2="17.664" y2="21.1884" gradientUnits="userSpaceOnUse">
<stop stop-color="#C7E3F8"/>
<stop offset="0.28" stop-color="#26B1E7"/>
<stop offset="1" stop-color="#223B86"/>
</linearGradient>
<linearGradient id="paint5_linear_17706_135011" x1="17.7192" y1="20.9113" x2="32.8682" y2="11.3221" gradientUnits="userSpaceOnUse">
<stop stop-color="#C7E3F8"/>
<stop offset="0.28" stop-color="#26B1E7"/>
<stop offset="1" stop-color="#223B86"/>
</linearGradient>
<linearGradient id="paint6_linear_17706_135011" x1="32.3159" y1="10.8143" x2="17.1669" y2="20.4036" gradientUnits="userSpaceOnUse">
<stop stop-color="#C7E3F8"/>
<stop offset="0.28" stop-color="#26B1E7"/>
<stop offset="1" stop-color="#223B86"/>
</linearGradient>
<linearGradient id="paint7_linear_17706_135011" x1="17.2211" y1="20.125" x2="32.3701" y2="10.5358" gradientUnits="userSpaceOnUse">
<stop stop-color="#C7E3F8"/>
<stop offset="0.28" stop-color="#26B1E7"/>
<stop offset="1" stop-color="#223B86"/>
</linearGradient>
<linearGradient id="paint8_linear_17706_135011" x1="32.663" y1="11.8193" x2="17.6679" y2="21.0925" gradientUnits="userSpaceOnUse">
<stop stop-color="#C7E3F8"/>
<stop offset="0.28" stop-color="#26B1E7"/>
<stop offset="1" stop-color="#223B86"/>
</linearGradient>
<linearGradient id="paint9_linear_17706_135011" x1="17.9161" y1="21.1298" x2="32.9112" y2="11.8566" gradientUnits="userSpaceOnUse">
<stop stop-color="#C7E3F8"/>
<stop offset="0.28" stop-color="#26B1E7"/>
<stop offset="1" stop-color="#223B86"/>
</linearGradient>
<linearGradient id="paint10_linear_17706_135011" x1="32.6049" y1="11.271" x2="17.4561" y2="20.8604" gradientUnits="userSpaceOnUse">
<stop stop-color="#C7E3F8"/>
<stop offset="0.28" stop-color="#26B1E7"/>
<stop offset="1" stop-color="#223B86"/>
</linearGradient>
<linearGradient id="paint11_linear_17706_135011" x1="17.5109" y1="20.5829" x2="32.6597" y2="10.9935" gradientUnits="userSpaceOnUse">
<stop stop-color="#C7E3F8"/>
<stop offset="0.28" stop-color="#26B1E7"/>
<stop offset="1" stop-color="#223B86"/>
</linearGradient>
<linearGradient id="paint12_linear_17706_135011" x1="32.6489" y1="11.3396" x2="17.4995" y2="20.9286" gradientUnits="userSpaceOnUse">
<stop stop-color="#C7E3F8"/>
<stop offset="0.28" stop-color="#26B1E7"/>
<stop offset="1" stop-color="#223B86"/>
</linearGradient>
<linearGradient id="paint13_linear_17706_135011" x1="17.5551" y1="20.6523" x2="32.7045" y2="11.0633" gradientUnits="userSpaceOnUse">
<stop stop-color="#C7E3F8"/>
<stop offset="0.28" stop-color="#26B1E7"/>
<stop offset="1" stop-color="#223B86"/>
</linearGradient>
<linearGradient id="paint14_linear_17706_135011" x1="32.6222" y1="11.2981" x2="17.4734" y2="20.8875" gradientUnits="userSpaceOnUse">
<stop stop-color="#C7E3F8"/>
<stop offset="0.28" stop-color="#26B1E7"/>
<stop offset="1" stop-color="#223B86"/>
</linearGradient>
<linearGradient id="paint15_linear_17706_135011" x1="17.5282" y1="20.61" x2="32.677" y2="11.0207" gradientUnits="userSpaceOnUse">
<stop stop-color="#C7E3F8"/>
<stop offset="0.28" stop-color="#26B1E7"/>
<stop offset="1" stop-color="#223B86"/>
</linearGradient>
<linearGradient id="paint16_linear_17706_135011" x1="32.5833" y1="11.6992" x2="17.5902" y2="20.9734" gradientUnits="userSpaceOnUse">
<stop stop-color="#C7E3F8"/>
<stop offset="0.28" stop-color="#26B1E7"/>
<stop offset="1" stop-color="#223B86"/>
</linearGradient>
<linearGradient id="paint17_linear_17706_135011" x1="17.8364" y1="21.0074" x2="32.8295" y2="11.7332" gradientUnits="userSpaceOnUse">
<stop stop-color="#C7E3F8"/>
<stop offset="0.28" stop-color="#26B1E7"/>
<stop offset="1" stop-color="#223B86"/>
</linearGradient>
<linearGradient id="paint18_linear_17706_135011" x1="32.6859" y1="11.3984" x2="17.5365" y2="20.9874" gradientUnits="userSpaceOnUse">
<stop stop-color="#C7E3F8"/>
<stop offset="0.28" stop-color="#26B1E7"/>
<stop offset="1" stop-color="#223B86"/>
</linearGradient>
<linearGradient id="paint19_linear_17706_135011" x1="17.5921" y1="20.7111" x2="32.7415" y2="11.1221" gradientUnits="userSpaceOnUse">
<stop stop-color="#C7E3F8"/>
<stop offset="0.28" stop-color="#26B1E7"/>
<stop offset="1" stop-color="#223B86"/>
</linearGradient>
<linearGradient id="paint20_linear_17706_135011" x1="32.5112" y1="11.5886" x2="17.5174" y2="20.8627" gradientUnits="userSpaceOnUse">
<stop stop-color="#C7E3F8"/>
<stop offset="0.28" stop-color="#26B1E7"/>
<stop offset="1" stop-color="#223B86"/>
</linearGradient>
<linearGradient id="paint21_linear_17706_135011" x1="17.7641" y1="20.8975" x2="32.758" y2="11.6234" gradientUnits="userSpaceOnUse">
<stop stop-color="#C7E3F8"/>
<stop offset="0.28" stop-color="#26B1E7"/>
<stop offset="1" stop-color="#223B86"/>
</linearGradient>
<clipPath id="clip0_17706_135011">
<rect width="58" height="18" fill="white" transform="translate(16 7)"/>
</clipPath>
</defs>
</svg>
