<svg width="154" height="56" viewBox="0 0 154 56" fill="none" xmlns="http://www.w3.org/2000/svg">
<path d="M34.5895 47.8254C34.5895 44.2254 37.4755 41.4115 41.1895 41.4115C43.0854 41.4115 44.8674 42.2155 45.9714 43.5474C46.2354 43.8474 46.3674 44.1474 46.3674 44.4834C46.3674 45.1014 45.8454 45.6294 45.1854 45.6294C44.8314 45.6294 44.4894 45.4614 44.2074 45.1434C43.4034 44.2074 42.3894 43.7574 41.1895 43.7574C38.8675 43.7574 37.1935 45.4614 37.1935 47.8434C37.1935 50.2074 38.8615 51.8933 41.1895 51.8933C42.3714 51.8933 43.3674 51.4433 44.1894 50.5074C44.4894 50.1894 44.8074 50.0214 45.1854 50.0214C45.8394 50.0214 46.3494 50.5494 46.3494 51.1673C46.3494 51.4673 46.2354 51.7673 45.9534 52.1033C44.8674 53.4353 43.0854 54.2393 41.1715 54.2393C37.4575 54.2393 34.5895 51.4253 34.5895 47.8254Z" fill="white"/>
<path d="M63.8332 53.0213C63.8332 53.6993 63.3112 54.2393 62.5972 54.2393C62.0512 54.2393 61.6432 53.9213 61.3972 53.3393L60.8752 52.0673H55.6433L55.1213 53.3393C54.8933 53.9213 54.4853 54.2393 53.9393 54.2393C53.2253 54.2393 52.6853 53.6933 52.6853 53.0213C52.6853 52.8353 52.7393 52.6073 52.8353 52.3433L57.0713 42.2755C57.2933 41.7115 57.7073 41.4115 58.2713 41.4115C58.8353 41.4115 59.2493 41.7115 59.4712 42.2755L63.6892 52.3433C63.7972 52.6073 63.8332 52.8353 63.8332 53.0213ZM56.4653 49.9854H60.0292L58.2653 45.1494L56.4653 49.9854Z" fill="white"/>
<path d="M70.6011 52.5713C70.3011 52.2713 70.1331 51.9533 70.1331 51.5993C70.1511 50.9213 70.6971 50.4713 71.2971 50.4713C71.5191 50.4713 71.7651 50.5493 71.9511 50.7173C72.4551 51.2393 73.337 51.9893 74.597 51.9893C75.701 51.9893 76.361 51.4673 76.361 50.6213C76.361 49.9074 75.929 49.6074 74.789 49.0854L73.457 48.4854C71.4891 47.5854 70.4571 46.5174 70.4571 44.9214C70.4571 42.8394 72.2211 41.4175 74.561 41.4175C76.415 41.4175 77.507 42.2815 78.029 42.8814C78.293 43.1634 78.365 43.4454 78.365 43.6854C78.365 44.3214 77.783 44.8134 77.201 44.8134C76.979 44.8134 76.733 44.7354 76.505 44.5494C76.001 44.0994 75.437 43.6674 74.555 43.6674C73.655 43.6674 73.019 44.0994 73.019 44.8674C73.019 45.4854 73.355 45.7854 74.465 46.2894L75.869 46.9074C77.933 47.8254 78.923 48.8394 78.923 50.5253C78.923 52.8113 77.069 54.2393 74.591 54.2393C73.133 54.2393 71.5191 53.5853 70.6011 52.5713Z" fill="white"/>
<path d="M86.0089 52.9433V42.7075C86.0089 41.9755 86.5308 41.4115 87.2808 41.4115C88.0128 41.4115 88.5348 41.9755 88.5348 42.7075V52.9433C88.5348 53.6753 88.0128 54.2393 87.2808 54.2393C86.5368 54.2393 86.0089 53.6753 86.0089 52.9433Z" fill="white"/>
<path d="M106.763 42.7075V52.9613C106.763 53.6753 106.241 54.2333 105.527 54.2333C104.909 54.2333 104.609 53.8793 104.273 53.4653L98.7587 46.3794V52.9433C98.7587 53.6753 98.2127 54.2393 97.5047 54.2393C96.7727 54.2393 96.2328 53.6753 96.2328 52.9433V42.6895C96.2328 41.9755 96.7787 41.4115 97.4687 41.4115C98.1047 41.4115 98.3867 41.7655 98.7647 42.2395L104.261 49.2714L104.243 42.7075C104.243 41.9755 104.789 41.4115 105.515 41.4115C106.217 41.4175 106.763 41.9755 106.763 42.7075Z" fill="white"/>
<path d="M126.916 47.8254C126.916 51.4073 124.012 54.2393 120.316 54.2393C116.62 54.2393 113.753 51.4253 113.753 47.8254C113.753 44.2254 116.638 41.4115 120.316 41.4115C124.006 41.4175 126.916 44.2434 126.916 47.8254ZM116.356 47.8254C116.356 50.2074 118.006 51.8933 120.328 51.8933C122.632 51.8933 124.3 50.1894 124.3 47.8254C124.3 45.4614 122.632 43.7574 120.328 43.7574C118.006 43.7574 116.356 45.4434 116.356 47.8254Z" fill="white"/>
<path d="M32.2976 5.33393C32.2976 6.11992 32.1416 6.95991 31.8236 7.5359L20.9578 33.9536C20.1178 35.9515 18.7018 36.9475 16.6498 36.9475C14.6038 36.9475 13.1819 35.9515 12.3419 33.9536L1.47601 7.5419C1.15801 6.96591 1.00201 6.12592 1.00201 5.33993C1.00201 2.87396 2.89199 1.03199 5.46596 1.03199C7.40993 1.03199 8.87991 2.13597 9.7199 4.28994L16.6498 21.5637L23.5797 4.28394C24.4197 2.12997 25.8897 1.02599 27.8337 1.02599C30.4076 1.03199 32.2976 2.86796 32.2976 5.33393Z" fill="#A4DC07"/>
<path d="M92.2908 31.9676C92.2908 34.1756 90.5328 36.3895 88.2768 36.3895C86.5968 36.3895 85.0609 35.6576 83.8909 34.1756L76.817 25.6017H76.661H72.095V32.4296C72.095 35.0576 70.151 36.9955 67.5771 36.9955C65.0031 36.9955 63.0591 35.0516 63.0591 32.4296V6.28193C63.0591 3.65397 65.0031 1.70999 67.6251 1.70999H76.655C84.5809 1.70999 90.0468 6.53993 90.0468 13.5778C90.0468 17.5138 88.3128 20.8257 85.3728 22.9797L90.9228 28.8776C91.9248 29.9216 92.2908 30.8696 92.2908 31.9676ZM72.089 17.7238H76.709C79.2289 17.7238 80.8549 16.0978 80.8549 13.6258C80.8549 11.2079 79.2289 9.58189 76.709 9.58189H72.089V17.7238Z" fill="#A4DC07"/>
<path d="M125.866 18.9358C125.866 29.1236 117.988 36.3655 106.961 36.3655H99.4547C96.8268 36.3655 94.8888 34.4216 94.8888 31.7996V6.28193C94.8888 3.65397 96.8328 1.70999 99.4547 1.70999H106.961C118.144 1.70999 125.866 8.7479 125.866 18.9358ZM103.919 9.89988V28.2236H106.913C112.739 28.2236 116.627 24.4977 116.627 18.9298C116.627 13.3138 112.949 9.89988 106.913 9.89988H103.919Z" fill="#A4DC07"/>
<path d="M44.0574 22.1397V28.1756H55.0673C57.4852 28.1756 59.2132 29.9096 59.2132 32.2196C59.2132 34.5835 57.4252 36.3175 55.0673 36.3175H39.5995C36.9715 36.3175 35.0335 34.3735 35.0335 31.7516V6.22792C35.0335 3.59995 36.9775 1.65598 39.5995 1.65598H55.4573C57.8752 1.65598 59.6032 3.38995 59.6032 5.69992C59.6032 8.06389 57.8152 9.79787 55.4573 9.79787H44.0574V14.5738V22.1397Z" fill="#A4DC07"/>
<path d="M49.4693 14.6518V14.6638C47.7354 15.1798 46.4394 16.7458 46.3674 18.6538C46.3554 18.9598 46.3794 19.2538 46.4274 19.5418C47.2014 18.9838 48.6174 18.2698 50.1953 17.7958C51.6293 17.3638 53.1953 17.1238 54.5273 17.3878C53.4833 17.6398 51.9173 18.2638 50.4833 19.0558C49.1393 19.7998 47.9154 20.6877 47.3394 21.5517C48.1014 22.4877 49.2413 23.1057 50.5373 23.1537C50.8373 23.1657 51.1313 23.1477 51.4193 23.0997C55.7213 22.4217 58.4452 17.9098 59.1052 15.7378C55.1333 13.9378 51.6593 13.9918 49.4693 14.6518Z" fill="#A4DC07"/>
<path d="M137.59 22.1397V28.1756H148.6C151.018 28.1756 152.746 29.9096 152.746 32.2196C152.746 34.5835 150.958 36.3175 148.6 36.3175H133.132C130.504 36.3175 128.566 34.3735 128.566 31.7516V6.22792C128.566 3.59995 130.51 1.65598 133.132 1.65598H148.99C151.408 1.65598 153.136 3.38995 153.136 5.69992C153.136 8.06389 151.348 9.79787 148.99 9.79787H137.596V14.5738V22.1397H137.59Z" fill="#A4DC07"/>
<path d="M143.002 14.6518V14.6638C141.268 15.1798 139.972 16.7458 139.9 18.6538C139.888 18.9598 139.912 19.2538 139.96 19.5418C140.734 18.9838 142.15 18.2698 143.728 17.7958C145.162 17.3638 146.728 17.1238 148.06 17.3878C147.016 17.6398 145.45 18.2638 144.016 19.0558C142.672 19.7998 141.448 20.6877 140.872 21.5517C141.634 22.4877 142.774 23.1057 144.07 23.1537C144.37 23.1657 144.664 23.1477 144.952 23.0997C149.254 22.4217 151.978 17.9098 152.638 15.7378C148.666 13.9378 145.192 13.9918 143.002 14.6518Z" fill="#A4DC07"/>
</svg>
